<?xml version="1.0" encoding="utf-8"?>
<!-- Generator: Adobe Illustrator 14.0.0, SVG Export Plug-In . SVG Version: 6.00 Build 43363)  -->
<!DOCTYPE svg PUBLIC "-//W3C//DTD SVG 1.1//EN" "http://www.w3.org/Graphics/SVG/1.1/DTD/svg11.dtd">
<svg version="1.1" id="Layer_1" xmlns="http://www.w3.org/2000/svg" xmlns:xlink="http://www.w3.org/1999/xlink" x="0px" y="0px"
	 width="200px" height="225px" viewBox="0 0 200 225" enable-background="new 0 0 200 225" xml:space="preserve">
<g>
	<path d="M129.046,165.121v-2.633h2.907l-2.907-8.51v-1.996h2.09l5.439,18.302h-2.532l-1.375-5.163H129.046 M174.333,170.284h-2.624
		v-18.302h4.185l7.607,15.672v-15.672h2.637v18.302h-4.174l-7.631-15.673V170.284z M159.276,170.284v-18.302h10.432v2.717h-7.994
		v4.98h7.994v2.721h-7.994v5.254h7.994v2.63H159.276z M141.029,170.284h-2.634v-18.302h4.889l4.188,14.669l3.896-14.669h4.901
		v18.302h-2.718v-16.487h-0.098l-4.616,16.487h-3.001l-4.629-16.487h-0.179V170.284z M114.425,160.597
		c1.094-0.099,1.91-0.368,2.455-0.829c0.545-0.445,0.814-1.351,0.814-2.531c0-0.817-0.27-1.453-0.72-1.898
		c-0.461-0.453-1.084-0.639-2.001-0.639h-0.549v-2.717h1.188c1.724,0,2.996,0.455,3.902,1.267c0.906,0.818,1.361,1.998,1.361,3.528
		c0,1.909-0.455,3.359-1.361,4.268c-0.995,0.908-2.365,1.443-4.271,1.443l5.633,7.796h-2.995l-3.456-4.805V160.597z
		 M129.046,151.982v1.996v-0.098l-2.912,8.607h2.912v2.633h-3.631l-1.457,5.163h-2.438l5.432-18.302H129.046z M111.261,160.597
		h3.164v4.883l-3.08-4.435v9.239h-2.635v-18.302h5.715v2.717h-3.164V160.597z M33.47,165.121v-2.633h3.176l-3.176-8.51v-1.996h2.265
		l5.903,18.302h-2.635l-1.545-5.163H33.47z M86.743,170.284h-2.621v-18.302h4.252l7.534,15.672v-15.672h2.642v18.302h-4.174
		l-7.633-15.673V170.284z M71.676,170.284v-18.302h10.26v2.717h-7.893v4.98h7.893v2.721h-7.893v5.254h7.893v2.63H71.676z
		 M69.227,156.777c-0.723-0.809-1.445-1.439-2.173-1.893c-0.822-0.364-1.54-0.644-2.367-0.644c-0.906,0-1.726,0.279-2.263,0.732
		c-0.544,0.45-0.822,0.995-0.822,1.804c0,0.826,0.278,1.451,0.733,1.909c0.45,0.46,1.268,0.818,2.352,1.081
		c1.817,0.369,3.095,0.998,3.902,1.82c0.822,0.9,1.181,1.992,1.181,3.533c0,1.627-0.542,2.983-1.532,3.986
		c-1,1.091-2.362,1.539-4.001,1.539c-0.904,0-1.713-0.094-2.446-0.448c-0.736-0.372-1.451-0.827-2.192-1.55v-3.078
		c0.642,0.906,1.286,1.537,2.092,1.989c0.833,0.453,1.642,0.728,2.545,0.728c0.917,0,1.723-0.274,2.268-0.813
		c0.55-0.639,0.909-1.36,0.909-2.267c0-0.722-0.275-1.364-0.814-1.812c-0.456-0.451-1.27-0.821-2.362-1.087
		c-1.813-0.356-3.09-1.001-3.896-1.906c-0.817-0.898-1.278-2.078-1.278-3.706c0-1.45,0.537-2.719,1.548-3.717
		c1.082-0.906,2.352-1.359,4.077-1.359c0.828,0,1.645,0.186,2.367,0.453c0.809,0.363,1.535,0.906,2.173,1.537V156.777z
		 M54.251,170.284v-18.302h2.446v18.302H54.251z M48.173,151.982h2.54v13.497c0,1.628-0.45,2.995-1.28,3.808
		c-0.715,0.911-1.896,1.359-3.347,1.359c-0.72,0-1.453,0-2-0.186c-0.542-0.177-1.176-0.45-1.718-0.812v-2.451
		c0.267,0.276,0.72,0.456,1.448,0.729c0.631,0.177,1.089,0.359,1.55,0.359c0.987,0,1.715-0.359,2.171-0.906
		c0.451-0.545,0.636-1.533,0.636-2.808V151.982z M33.47,151.982v1.996v-0.098l-3.087,8.607h3.087v2.633h-3.91l-1.54,5.163H25.3
		l5.895-18.302H33.47z"/>
	<path d="M124.783,78.71c10.888-10.149,10.888-16.124,3.63-18.839c1.545-4.616,2.623-9.51,3.268-14.494
		c16.521,0.721,13.064-16.938,10.894-21.559c-2.54-5.43-13.345-16.483-24.599-4.438C105.17,9.689,89.65,6.608,71.406,9.689
		C69.227-1.452,53.531,0.001,46.44,7.153c-6.623,6.707-8.07,17.394,2.092,21.373c-1.259,4.438-4.627,8.609-3.441,15.677
		c0.718,3.981,1.349,8.149-1.733,14.582c-2.715,5.708-1.265,16.848,0.547,20.382c4.449,7.52,11.713,12.504,21.692,15.759
		l-0.083,5.161c-19.428,13.585-15.434,39.487,6.892,44.013c8.625,0.359,17.34,0.82,26.05,1.182c0.178-2.812,0.456-5.611,0.634-8.418
		c5.719-0.098,11.351-0.279,17.067-0.371c7.17-0.903,13.615-4.258,18.967-10.953c0.364-0.818,0.726-1.636,1.098-2.539
		c2.539,0,5.085,0,7.615,0c-0.813-3.084-1.624-6.163-2.449-9.328c12.709-8.965,22.232-20.466,27.59-34.688L124.783,78.71"/>
	<path d="M124.783,78.71l0.199,0.212c6.007-5.613,8.765-9.958,8.777-13.333c0.005-2.773-1.935-4.765-5.247-5.99l-0.1,0.271
		l0.274,0.09c1.554-4.636,2.632-9.546,3.278-14.546l-0.285-0.038l-0.014,0.29c0.333,0.014,0.66,0.022,0.978,0.022
		c4.739,0.005,7.801-1.604,9.634-3.993c1.838-2.387,2.451-5.502,2.451-8.513c-0.003-3.912-1.035-7.653-1.894-9.487
		c-1.755-3.728-7.229-9.994-14.228-10.015c-3.4-0.002-7.125,1.515-10.846,5.502l0.213,0.199l0.172-0.23
		c-9.681-7.329-20.919-10.901-33.683-10.897c-4.206,0-8.573,0.385-13.106,1.15l0.047,0.287l0.286-0.056
		c-1.147-5.893-6.036-8.385-11.38-8.369C55.265,1.27,49.742,3.415,46.236,6.949c-3.294,3.336-5.332,7.64-5.334,11.68
		c-0.011,4.206,2.252,8.115,7.523,10.166l0.107-0.269l-0.277-0.08c-1.048,3.72-3.698,7.366-3.703,12.839
		c0,0.934,0.076,1.919,0.254,2.966v0.002c0.304,1.679,0.584,3.368,0.584,5.24c0,2.566-0.529,5.479-2.294,9.168
		c-1.11,2.341-1.529,5.507-1.532,8.707c0.005,4.836,0.956,9.717,2.084,11.929l0.003,0.008l0.005,0.009
		c4.491,7.594,11.831,12.618,21.85,15.887l0.091-0.276l-0.291-0.005l-0.084,5.161l0.291,0.005l-0.165-0.238
		c-8.526,5.961-12.601,14.3-12.601,22.205c-0.008,10.252,6.874,19.757,19.598,22.331l0.026,0.003l0.021,0.002
		c8.623,0.36,17.338,0.821,26.05,1.184l0.285,0.014l0.016-0.284c0.178-2.805,0.456-5.605,0.634-8.423l-0.288-0.016l0.005,0.289
		c5.721-0.097,11.357-0.279,17.068-0.371h0.031c7.238-0.91,13.766-4.313,19.158-11.063l0.023-0.027l0.016-0.035
		c0.361-0.82,0.723-1.641,1.1-2.547l-0.27-0.109v0.289c2.539,0,5.085,0,7.615,0h0.377l-0.098-0.365
		c-0.812-3.08-1.626-6.158-2.445-9.326l-0.283,0.074l0.17,0.234c12.746-8.99,22.314-20.54,27.692-34.82l0.146-0.389l-44.61-0.276
		L124.783,78.71l0.199,0.212L124.783,78.71L124.78,79l44.197,0.273v-0.289l-0.27-0.102c-5.337,14.163-14.818,25.615-27.484,34.551
		l-0.166,0.115l0.053,0.194c0.822,3.17,1.635,6.248,2.445,9.329l0.281-0.072v-0.291c-2.53,0-5.076,0-7.615,0h-0.197l-0.07,0.182
		c-0.371,0.897-0.732,1.712-1.092,2.53l0.262,0.118l-0.225-0.18c-5.311,6.64-11.677,9.948-18.778,10.846l0.036,0.287l-0.002-0.289
		c-5.723,0.092-11.354,0.276-17.071,0.371l-0.267,0.002l-0.018,0.268c-0.175,2.803-0.456,5.602-0.631,8.42l0.288,0.018l0.011-0.289
		c-8.707-0.358-17.422-0.822-26.05-1.182l-0.01,0.289l0.058-0.284c-12.486-2.538-19.129-11.774-19.137-21.763
		c0-7.703,3.964-15.862,12.352-21.729l0.123-0.083l0.089-5.524l-0.204-0.066c-9.938-3.242-17.126-8.186-21.533-15.631l-0.249,0.148
		l0.256-0.133c-1.053-2.041-2.021-6.916-2.019-11.665c0-3.149,0.424-6.251,1.474-8.458c1.799-3.753,2.352-6.768,2.352-9.417
		c0-1.928-0.291-3.661-0.592-5.342l-0.286,0.051l0.286-0.049c-0.17-1.016-0.246-1.968-0.246-2.869
		c-0.003-5.275,2.574-8.817,3.679-12.681l0.07-0.252l-0.243-0.096c-5.083-2-7.146-5.631-7.157-9.627
		c-0.003-3.843,1.964-8.03,5.164-11.272c3.373-3.405,8.78-5.516,13.667-5.513c5.19,0.016,9.712,2.321,10.812,7.902l0.052,0.276
		l0.28-0.048c4.504-0.758,8.843-1.142,13.009-1.142c12.656,0,23.753,3.528,33.335,10.779l0.207,0.159l0.18-0.191
		c3.646-3.902,7.196-5.317,10.422-5.32c6.621-0.021,12.041,6.103,13.704,9.683c0.813,1.729,1.841,5.436,1.838,9.241
		c0,2.933-0.604,5.926-2.331,8.162c-1.723,2.231-4.561,3.759-9.175,3.764c-0.31,0-0.626-0.008-0.95-0.021l-0.268-0.01l-0.034,0.262
		c-0.642,4.969-1.716,9.845-3.255,14.44l-0.089,0.263l0.262,0.098c3.213,1.215,4.865,2.985,4.87,5.449
		c0.014,3.045-2.615,7.347-8.596,12.909l-0.532,0.496L124.78,79L124.783,78.71"/>
	<path d="M140.938,74.179l-3.638-1.714l-1.178-0.638l-0.998-0.642l-0.814-0.716l-0.812-0.814l-0.556-0.719l-0.539-0.909
		l-0.367-0.913l-0.178-0.906l-0.088-0.906v-0.995l0.183-0.901l0.356-1l0.358-0.909c0.274-0.445,0.548-0.905,0.83-1.355
		c0.272-0.456,0.545-0.814,0.906-1.18c0.544-0.809,1.267-1.443,1.989-2.175c0.273-0.273,0.545-0.46,0.822-0.721
		c1.545-1.272,3.264-2.362,4.997-3.439c0.812-0.458,1.624-0.909,2.532-1.274c1.092-1.18,2.359-2.263,3.266-3.537
		c0.366-0.534,0.637-0.99,0.911-1.535c0.456-1.262,0.726-2.541,0.817-3.802c0-0.364,0-0.729,0-1.091
		c0-0.634-0.092-1.177-0.187-1.719c-0.087-0.359-0.27-0.638-0.358-0.901c-0.178-0.365-0.356-0.727-0.547-1.089
		c-0.176-0.187-0.354-0.453-0.637-0.638l-0.639-0.542c-0.357-0.182-0.632-0.361-0.901-0.453l-1.084-0.45l-1.097-0.368l-1.006-0.359
		l-0.988-0.271l-0.989-0.188l-0.919-0.086l-0.908-0.185h-1.629l-0.723,0.097l-0.734,0.087l-0.723,0.086l-0.639,0.188l-0.628,0.177
		l-0.55,0.276l-0.539,0.273l-0.551,0.271l-0.455,0.363l-0.451,0.358l-0.45,0.361l-0.372,0.363l-0.264,0.451l-0.364,0.461
		l-0.278,0.45l-0.267,0.542l-0.178,0.453l-0.184,0.547l-0.19,0.992l-0.171,1.083c0,1.269,0.089,2.542,0.361,3.802
		c0.089,0.273,0.184,0.458,0.271,0.729c0.091,0.36,0.274,0.636,0.541,0.998l0.551,0.632c0.271,0.183,0.445,0.365,0.816,0.636
		c0.272,0.182,0.629,0.359,0.987,0.543c0.461,0.183,0.83,0.36,1.28,0.457l4.082,0.991l-3.9,1.357l-1.001,0.271l-0.993,0.188
		l-0.913,0.177h-1.721l-0.735-0.089l-0.81-0.187l-0.728-0.177l-0.635-0.271l-0.639-0.361l-0.541-0.365l-0.543-0.456l-0.458-0.451
		l-0.456-0.445l-0.358-0.55l-0.361-0.544l-0.267-0.541l-0.551-1.177l-0.363-1.092l-0.27-1.18c-0.095-0.544-0.189-1.086-0.268-1.627
		v-0.998c0-0.36,0.078-0.811,0.173-1.172c0.095-0.453,0.179-0.815,0.272-1.269c0.188-0.453,0.361-0.82,0.547-1.269
		c0.27-0.541,0.459-0.999,0.726-1.449l0.628-0.995c0.461-0.453,0.822-0.91,1.273-1.453l0.911-0.908l1.089-0.903l1.273-0.809
		l0.633-0.371l0.727-0.358l0.719-0.36l0.818-0.271l0.826-0.27l0.906-0.279l0.906-0.186l0.9-0.177l1.001-0.09l1.005-0.089
		l1.085-0.086h1.179l1.911,0.086l1.901,0.18l1.729,0.363l1.629,0.364l1.545,0.547l0.728,0.269l0.723,0.358l0.639,0.371l0.626,0.359
		l0.646,0.45l0.545,0.459l0.534,0.444l0.545,0.547l0.466,0.545l0.451,0.632l0.361,0.636l0.369,0.632l0.354,0.722l0.277,0.732
		l0.172,0.721l0.187,0.816l0.187,0.812l0.088,0.816l0.084,0.903v1.909l-0.084,0.992c-0.088,0.453-0.188,1.003-0.361,1.448
		c-0.188,0.732-0.457,1.451-0.728,2.177c-0.272,0.451-0.45,0.903-0.73,1.265c-0.175,0.457-0.456,0.813-0.819,1.269
		c-0.272,0.365-0.537,0.815-0.9,1.174c-0.361,0.365-0.719,0.729-1.18,1.092c-0.361,0.356-0.816,0.63-1.271,0.997
		c-0.456,0.36-0.901,0.639-1.445,0.907c-0.556,0.274-1.098,0.543-1.641,0.804c-0.628,0.281-1.178,0.552-1.723,0.734
		c-0.732,0.458-1.455,0.903-2.092,1.448c-0.626,0.453-1.171,0.906-1.73,1.36l-0.99,0.994c-0.456,0.453-0.817,0.91-1.273,1.363
		l-0.539,0.909l-0.55,0.813l-0.274,0.896l-0.266,0.822l-0.088,0.9l0.088,0.818l0.184,0.816l0.273,0.909l0.357,0.906l0.637,0.906
		L140.938,74.179"/>
	<path d="M140.938,74.179l0.123-0.263l-3.63-1.709l-1.16-0.629l-0.969-0.622l-0.793-0.694l-0.793-0.797l-0.535-0.691l-0.518-0.875
		l-0.349-0.866l-0.167-0.867l-0.09-0.876v-0.953l0.173-0.852l0.351-0.973l0.359-0.906l-0.272-0.107l0.251,0.149
		c0.273-0.448,0.543-0.903,0.822-1.348l-0.002,0.008l0.008-0.013c0.262-0.443,0.518-0.778,0.863-1.126l0.02-0.021l0.016-0.022
		c0.516-0.77,1.22-1.392,1.955-2.131c0.246-0.249,0.514-0.435,0.814-0.714l-0.199-0.212l0.184,0.225
		c1.527-1.259,3.234-2.34,4.965-3.418l-0.151-0.246l0.142,0.251c0.809-0.458,1.61-0.901,2.498-1.254l0.063-0.025l0.045-0.047
		c1.073-1.164,2.349-2.256,3.286-3.566l0.003-0.005c0.371-0.539,0.654-1.011,0.932-1.566l0.006-0.017l0.008-0.016
		c0.463-1.29,0.74-2.592,0.832-3.882l0.003-0.009v-0.01c0-0.364,0-0.729,0-1.091c0-0.66-0.095-1.226-0.188-1.771l-0.002-0.008
		l-0.004-0.01c-0.104-0.417-0.301-0.713-0.365-0.926l-0.006-0.018l-0.008-0.016c-0.181-0.365-0.361-0.73-0.551-1.094l-0.018-0.038
		l-0.031-0.029c-0.152-0.156-0.349-0.453-0.689-0.678l-0.156,0.241l0.186-0.22l-0.637-0.542l-0.028-0.024l-0.028-0.013
		c-0.341-0.176-0.613-0.36-0.94-0.473l-0.092,0.276l0.11-0.268l-1.084-0.451l-0.012-0.002l-1.1-0.369l-1.002-0.36l-0.011-0.002
		l-1.001-0.274l-0.01-0.002l-1.003-0.19l-0.013-0.002l-0.914-0.086l-0.896-0.182l-0.028-0.005h-1.676l-0.743,0.099l-0.731,0.088
		l-0.72,0.086l-0.023,0.002l-0.663,0.192l-0.628,0.177l-0.023,0.008l-0.574,0.288l-0.541,0.276l0.131,0.257l-0.129-0.259l-0.55,0.27
		l-0.026,0.015l-0.479,0.379l-0.457,0.363l-0.449,0.361l-0.011,0.009l-0.38,0.372l-0.029,0.027l-0.271,0.466l-0.354,0.443
		l-0.008,0.013l-0.291,0.467l-0.008,0.013l-0.27,0.555l-0.008,0.01l-0.182,0.461l-0.002,0.005l-0.186,0.555l-0.008,0.02
		l-0.191,1.013l-0.176,1.091l-0.002,0.025v0.021c0,1.282,0.092,2.577,0.366,3.864l0.003,0.016l0.008,0.015
		c0.094,0.294,0.191,0.479,0.271,0.729l0.273-0.091l-0.278,0.069c0.103,0.419,0.317,0.736,0.584,1.1l0.008,0.011l0.558,0.641
		l0.026,0.029l0.034,0.022c0.24,0.157,0.414,0.343,0.804,0.627l0.005,0.005l0.006,0.002c0.299,0.199,0.66,0.378,1.021,0.561
		l0.01,0.005l0.014,0.005c0.447,0.177,0.832,0.365,1.324,0.47l0.061-0.281l-0.07,0.281l3.132,0.761l-2.962,1.03l-0.982,0.265
		l-0.984,0.186l-0.885,0.171h-1.679l-0.698-0.086l-0.797-0.182l-0.704-0.171l-0.595-0.255l-0.615-0.348l-0.519-0.348l-0.526-0.44
		l-0.445-0.443l-0.435-0.425l-0.343-0.521l-0.352-0.53l-0.259-0.526l-0.259,0.129l0.262-0.124l-0.543-1.163l-0.354-1.059
		l-0.27-1.167l-0.279,0.064l0.285-0.048c-0.094-0.544-0.189-1.085-0.268-1.62l-0.285,0.041h0.288v-0.998
		c0-0.319,0.075-0.757,0.165-1.1v-0.003l0.002-0.01c0.092-0.451,0.179-0.811,0.273-1.269l-0.283-0.059l0.268,0.11
		c0.186-0.445,0.355-0.809,0.549-1.265l-0.27-0.114l0.262,0.13c0.273-0.555,0.459-1.005,0.713-1.433l-0.249-0.146l0.243,0.152
		l0.631-0.995l-0.246-0.152l0.202,0.206c0.479-0.469,0.846-0.932,1.294-1.474l-0.223-0.185l0.204,0.206l0.903-0.898l1.063-0.885
		l1.255-0.799l0.618-0.359l0.721-0.355l0.699-0.351l0.798-0.266l0.822-0.268l0.891-0.273l0.893-0.183l0.883-0.174l0.987-0.09
		l1.003-0.086l1.071-0.085h1.168l1.898,0.085l1.869,0.177l1.713,0.36l1.607,0.359l1.524,0.54l0.715,0.263l0.699,0.348l0.631,0.364
		l0.618,0.358l0.623,0.431l0.534,0.45l0.526,0.44l0.529,0.529l0.45,0.527l0.435,0.609l0.354,0.622l0.006,0.014l0.361,0.613
		l0.34,0.701l0.27,0.706l0.165,0.702l-0.005-0.029l0.193,0.839l0.178,0.796l0.09,0.799l0.287-0.031l-0.287,0.026l0.081,0.893v1.88
		l-0.084,0.98l0.29,0.025l-0.285-0.056c-0.089,0.456-0.186,0.992-0.346,1.399l-0.008,0.016l-0.002,0.016
		c-0.186,0.711-0.448,1.422-0.718,2.148l0.27,0.102l-0.249-0.15c-0.285,0.478-0.463,0.925-0.709,1.238l-0.026,0.033l-0.013,0.04
		c-0.158,0.406-0.414,0.738-0.778,1.194l-0.008,0.008c-0.282,0.384-0.54,0.818-0.872,1.139l-0.002,0.003
		c-0.361,0.368-0.707,0.719-1.15,1.068l-0.016,0.01l-0.01,0.011c-0.325,0.327-0.775,0.598-1.25,0.975
		c-0.439,0.35-0.863,0.612-1.393,0.875c-0.559,0.273-1.098,0.544-1.637,0.804l0.125,0.261l-0.119-0.263
		c-0.632,0.281-1.176,0.55-1.695,0.721l-0.033,0.012l-0.029,0.019c-0.732,0.458-1.467,0.911-2.123,1.474l0.186,0.22l-0.168-0.233
		c-0.639,0.458-1.188,0.914-1.746,1.367l-0.014,0.009l-1,1.008h0.002c-0.471,0.466-0.832,0.922-1.271,1.359l-0.027,0.026
		l-0.555,0.934l-0.542,0.805l-0.026,0.037l-0.285,0.936l0.275,0.087l-0.273-0.092l-0.267,0.826l-0.013,0.029l-0.09,0.931
		l-0.002,0.029l0.089,0.851l0.003,0.013l0.188,0.834v0.008l0.277,0.919l0.005,0.012l0.364,0.919l0.011,0.033l0.654,0.932
		l2.273,3.256L140.938,74.179l0.123-0.263L140.938,74.179l0.241-0.167l-2.275-3.256l-0.613-0.876l-0.346-0.869l-0.264-0.882
		l-0.179-0.791l-0.084-0.772l0.084-0.836l0.257-0.796l0.259-0.857l0.526-0.775l0.006-0.008l0.545-0.917l-0.25-0.147l0.202,0.203
		c0.474-0.469,0.833-0.922,1.275-1.359l0.992-0.998l-0.206-0.203l0.183,0.225c0.563-0.457,1.101-0.905,1.718-1.35l0.011-0.008
		l0.011-0.008c0.609-0.522,1.319-0.965,2.053-1.423l-0.152-0.245l0.092,0.273c0.57-0.19,1.126-0.466,1.75-0.742l0.008-0.002
		c0.547-0.263,1.086-0.537,1.639-0.808c0.561-0.276,1.029-0.568,1.5-0.94c0.438-0.353,0.898-0.628,1.294-1.02l-0.202-0.203
		l0.179,0.228c0.477-0.376,0.846-0.751,1.204-1.116l-0.203-0.204l0.201,0.207c0.4-0.397,0.673-0.864,0.93-1.208l-0.23-0.174
		l0.225,0.182c0.364-0.456,0.668-0.839,0.867-1.343l-0.272-0.107l0.233,0.178c0.309-0.408,0.486-0.869,0.743-1.293l0.013-0.024
		l0.012-0.023c0.271-0.727,0.544-1.457,0.738-2.208l-0.281-0.072l0.271,0.104c0.188-0.483,0.288-1.046,0.374-1.497l0.003-0.016
		l0.087-1.009V42.28l-0.084-0.917l-0.003-0.011l-0.087-0.809l-0.002-0.017l-0.186-0.829l-0.191-0.814l0.008,0.029l-0.178-0.753
		l-0.006-0.019l-0.285-0.749l-0.003-0.011l-0.358-0.734l-0.006-0.011l-0.377-0.644l-0.248,0.148l0.248-0.145l-0.358-0.633
		l-0.009-0.013l-0.457-0.647l-0.008-0.011l-0.475-0.552l-0.008-0.011l-0.553-0.552l-0.008-0.011l-0.545-0.453l-0.545-0.46
		l-0.008-0.008l-0.656-0.456l-0.011-0.008l-0.64-0.368l-0.639-0.37l-0.008-0.002l-0.73-0.365l-0.013-0.005l-0.743-0.273
		l-1.549-0.547l-0.018-0.008l-1.645-0.367l-1.73-0.363l-0.016-0.005l-1.92-0.182l-1.925-0.086h-1.191h-0.013l-1.096,0.086
		l-1.005,0.087l-1.003,0.095h-0.019l-0.913,0.179l-0.906,0.186l-0.016,0.002l-0.917,0.282l-0.835,0.273l-0.817,0.272l-0.019,0.006
		l-0.738,0.367l-0.726,0.36l-0.008,0.005l-0.644,0.372l-0.006,0.005l-1.277,0.813l-0.014,0.008l-1.105,0.917l-0.013,0.012
		l-0.917,0.914l-0.01,0.008l-0.008,0.011c-0.453,0.55-0.807,0.995-1.252,1.43l-0.025,0.023l-0.647,1.025l-0.003,0.005v0.002
		c-0.283,0.471-0.474,0.939-0.735,1.472l-0.003,0.008l-0.002,0.005c-0.187,0.442-0.359,0.811-0.551,1.269l-0.013,0.028l-0.005,0.026
		c-0.092,0.451-0.179,0.811-0.27,1.269l0.282,0.059l-0.28-0.072c-0.1,0.379-0.181,0.844-0.184,1.244v1.019l0.003,0.022
		c0.081,0.543,0.175,1.09,0.267,1.635l0.003,0.01l0.275,1.183l0.003,0.013l0.366,1.105l0.005,0.016l0.555,1.191l0.273,0.55
		l0.008,0.019l0.371,0.558l0.359,0.547l0.016,0.026l0.481,0.468l0.453,0.45l0.011,0.011l0.553,0.461l0.01,0.01l0.553,0.373
		l0.011,0.005l0.649,0.368l0.014,0.008l0.648,0.276l0.021,0.011l0.752,0.182l0.814,0.187l0.016,0.004l0.748,0.09l0.016,0.002h1.771
		l0.938-0.182l0.993-0.188h0.01l1.014-0.276l0.008-0.002l4.842-1.681l-5.047-1.228h-0.005c-0.405-0.086-0.754-0.255-1.23-0.442
		l-0.107,0.27l0.134-0.259c-0.364-0.182-0.713-0.36-0.961-0.526l-0.16,0.242l0.17-0.233c-0.354-0.258-0.523-0.44-0.827-0.645
		l-0.159,0.241l0.217-0.19l-0.55-0.63l-0.218,0.188l0.233-0.169c-0.265-0.361-0.417-0.601-0.492-0.898l-0.003-0.01l-0.002-0.008
		c-0.098-0.296-0.191-0.48-0.275-0.729l-0.272,0.088l0.282-0.059c-0.267-1.236-0.355-2.489-0.355-3.743h-0.288l0.286,0.046
		l0.172-1.084l-0.287-0.044l0.287,0.054l0.184-0.974l0.173-0.52l0.173-0.435l0.256-0.52l0.26-0.424L131,37.675l0.016-0.016
		l0.251-0.437l0.333-0.325l0.44-0.354l0.449-0.359l0.433-0.342l0.519-0.256l0.545-0.276l0.523-0.263l0.603-0.169l0.618-0.182
		l0.699-0.084l0.732-0.087l0.707-0.094h1.582l0.883,0.179l0.013,0.002l0.919,0.087l0.967,0.182l0.969,0.266l0.995,0.356h0.003
		l1.086,0.365l1.074,0.448l0.01,0.002l0.011,0.005c0.218,0.067,0.487,0.244,0.862,0.435l0.131-0.258l-0.189,0.22l0.639,0.544
		l0.014,0.011l0.016,0.01l0.59,0.593l0.207-0.199l-0.255,0.135c0.187,0.356,0.361,0.716,0.542,1.081l0.26-0.126l-0.275,0.09
		c0.113,0.32,0.28,0.575,0.354,0.88l0.28-0.069l-0.282,0.048c0.094,0.541,0.18,1.067,0.18,1.671c0,0.361,0,0.727,0,1.091h0.289
		l-0.289-0.021c-0.088,1.233-0.355,2.485-0.803,3.728l0.274,0.095l-0.263-0.128c-0.264,0.534-0.525,0.973-0.887,1.499l0.238,0.164
		l-0.236-0.169c-0.877,1.233-2.137,2.313-3.238,3.51l0.209,0.195l-0.107-0.269c-0.932,0.373-1.754,0.832-2.566,1.29l-0.008,0.003
		l-0.006,0.002c-1.732,1.082-3.464,2.175-5.027,3.464l-0.008,0.006l-0.005,0.005c-0.257,0.244-0.532,0.434-0.827,0.729
		c-0.715,0.721-1.453,1.364-2.027,2.217l0.241,0.161l-0.207-0.203c-0.377,0.379-0.668,0.763-0.948,1.236l0.249,0.146l-0.243-0.152
		c-0.289,0.453-0.561,0.912-0.833,1.356l-0.013,0.021l-0.369,0.934v0.005l-0.359,1.003l-0.01,0.018l-0.184,0.921l-0.008,0.028v1.044
		l0.092,0.917l0.002,0.013l0.178,0.919l0.006,0.025l0.379,0.937l0.008,0.022l0.551,0.927l0.008,0.015l0.565,0.734l0.011,0.013
		l0.824,0.829l0.006,0.005l0.827,0.727l0.016,0.013l1.014,0.652l0.008,0.003l1.188,0.646l0.008,0.005l4.631,2.177l-0.621-0.89
		L140.938,74.179"/>
	<path fill="#FFDD00" d="M138.212,71.92c-6.354-2.81-6.989-7.612-3.363-12.141c2.182-2.813,5.447-5.347,10.354-7.699
		c2.09-1.996,3.991-3.531,4.719-5.982c1.55-4.888,0.728-9.326-3.09-10.868c-12.428-5.258-18.692,0.91-18.608,7.428
		c0.092,3.167,0.278,6.889,6.625,8.335c-10.982,4.161-12.977-6.428-12.333-9.782c0.723-3.53,4.808-10.965,16.603-10.774
		c10.26,0.361,16.695,4.34,15.701,14.672c-0.906,4.712-3.625,8.779-10.339,11.142C136.222,61.594,134.31,66.568,138.212,71.92"/>
	<path d="M138.212,71.92l0.117-0.266c-3.766-1.672-5.399-3.979-5.402-6.477c0-1.661,0.73-3.449,2.148-5.219l0.002-0.002
		c2.15-2.767,5.371-5.274,10.252-7.615l0.039-0.02l0.034-0.031c2.073-1.982,4.03-3.551,4.798-6.109l-0.278-0.083l0.274,0.089
		c0.496-1.558,0.755-3.076,0.755-4.482c0.008-3.068-1.263-5.639-4.012-6.743l-0.107,0.268l0.112-0.265
		c-3.307-1.4-6.195-2.003-8.66-2.003c-3.406-0.002-6.009,1.159-7.745,2.945c-1.736,1.786-2.605,4.179-2.605,6.623v0.137
		c0.05,1.584,0.112,3.36,1.005,4.947c0.896,1.591,2.621,2.932,5.846,3.664l0.064-0.284l-0.102-0.271
		c-1.736,0.657-3.229,0.935-4.51,0.935c-2.924-0.005-4.768-1.428-5.941-3.294c-1.162-1.867-1.602-4.184-1.6-5.841
		c0-0.489,0.037-0.917,0.102-1.258l-0.282-0.053l0.282,0.055c0.702-3.373,4.564-10.54,15.88-10.545l0.435,0.005
		c4.745,0.167,8.639,1.118,11.32,3.083c2.676,1.965,4.192,4.926,4.197,9.278c0,0.635-0.031,1.297-0.1,1.996l0.289,0.026
		l-0.286-0.054c-0.9,4.631-3.515,8.576-10.149,10.922l-0.031,0.01l-0.029,0.019c-5.554,3.597-8.338,7.066-8.346,10.705
		c0,1.789,0.684,3.577,2.001,5.381L138.212,71.92l0.117-0.266L138.212,71.92l0.232-0.171c-1.265-1.735-1.888-3.403-1.888-5.038
		c-0.011-3.304,2.574-6.658,8.081-10.219l-0.157-0.241l0.097,0.274c6.793-2.379,9.615-6.573,10.524-11.362l0.003-0.013l0.002-0.013
		c0.068-0.711,0.103-1.395,0.103-2.049c0.005-4.483-1.601-7.679-4.437-9.744c-2.828-2.07-6.834-3.025-11.645-3.198l-0.45-0.005
		c-11.599-0.003-15.722,7.417-16.448,11.01v0.002c-0.075,0.387-0.111,0.851-0.111,1.369c0,1.753,0.449,4.15,1.688,6.146
		c1.233,1.993,3.305,3.575,6.431,3.569c1.367,0,2.928-0.297,4.714-0.974l0.898-0.34l-0.938-0.211
		c-3.126-0.716-4.661-1.958-5.468-3.382c-0.809-1.426-0.885-3.097-0.932-4.68v-0.12c0.016-4.616,3.23-8.976,9.771-8.989
		c2.371,0,5.184,0.583,8.436,1.958l0.005,0.002l-0.003-0.002c2.493,1.014,3.641,3.283,3.65,6.208c0,1.333-0.246,2.794-0.728,4.304
		l-0.003,0.012v-0.005c-0.688,2.34-2.531,3.85-4.637,5.855l0.198,0.209l-0.126-0.261c-4.936,2.363-8.238,4.924-10.455,7.78
		l0.227,0.179l-0.225-0.182c-1.472,1.84-2.275,3.746-2.275,5.581c-0.006,2.782,1.864,5.297,5.745,7.008l0.989,0.438l-0.639-0.875
		L138.212,71.92"/>
	<path fill="#FBC8B4" d="M81.304,78.442c12.527,0,25.054,0,37.577,0c14.161-7.427,14.062-20.288,0.089-15.035
		c2.445-21.2-6.17-35.24-26.5-40.048c1.624,3.631,4.441,5.9,7.609,7.256c0,0.266-0.356,0.814-0.356,1.08
		c-3.08-1.451-5.892-3.17-8.254-7.333c-0.183,3.083,1.356,5.977,3.635,8.784c-4.724-0.083-9.537-0.182-14.256-0.271
		c-0.183-2.805,0.27-6.159,0.728-8.963c-2.278,1.901-3.635,5.068-3.907,8.331c-3.357-0.813-6.719-1.537-10.166-2.357
		c1.278-3.346,3.174-6.883,7.086-10.055c-14.992,0.093-25.691,6.256-26.506,25.546c1.176,5.165,0.634,9.878-1.451,14.04
		c-7.992,21.919,14.421,37.775,41.94,33.79C85.479,88.493,83.122,83.513,81.304,78.442"/>
	<path d="M97.822,35.503c-0.094,0.269,0,0.544-0.094,0.724c2.278,0.453,3.999,1.627,4.818,3.896c0.173-0.092,0.455,0,0.723-0.092
		C102.719,37.583,100.546,36.048,97.822,35.503"/>
	<path d="M97.822,35.503l-0.275-0.096l-0.06,0.49l-0.016,0.194l-0.181,0.343l0.379,0.078c2.215,0.448,3.815,1.542,4.6,3.709
		l0.113,0.313l0.296-0.154l0.194-0.012l0.486-0.062l0.246-0.083l-0.055-0.255c-0.584-2.595-2.883-4.196-5.674-4.749l-0.244-0.048
		l-0.086,0.237L97.822,35.503l-0.058,0.284c2.658,0.534,4.705,2.006,5.221,4.31l0.283-0.065l-0.094-0.272l-0.301,0.029l-0.461,0.077
		l0.133,0.258l0.272-0.1c-0.846-2.37-2.694-3.623-5.035-4.081l-0.055,0.284l0.257,0.135l0.081-0.465l0.029-0.297L97.822,35.503
		l-0.058,0.284L97.822,35.503"/>
	<path d="M61.791,36.048c-1.367,0.092-2.729,0.724-3.815,1.907l-0.631-0.369c1.079-1.446,2.726-2.082,4.447-2.172V36.048"/>
	<path d="M61.791,36.048l-0.019-0.289c-1.445,0.097-2.878,0.767-4.012,2l0.215,0.195l0.146-0.249l-0.631-0.371l-0.147,0.25
		l0.23,0.171c1.016-1.36,2.566-1.963,4.232-2.054l-0.016-0.29H61.5v0.635H61.791l-0.019-0.289L61.791,36.048h0.291v-0.941
		l-0.307,0.017c-1.778,0.093-3.522,0.756-4.664,2.286l-0.194,0.261l0.911,0.534l0.199,0.118l0.16-0.171
		c1.04-1.133,2.333-1.727,3.622-1.813l0.272-0.019v-0.271H61.791"/>
	<path d="M125.323,65.848c0.092,0.361,0.092,0.632,0.183,0.906c-4.46-0.089-6.808,1.807-6.625,6.067c-0.183,0-0.456,0-0.735-0.085
		C117.694,68.29,120.331,66.03,125.323,65.848"/>
	<path d="M125.323,65.848l-0.281,0.072c0.087,0.327,0.084,0.589,0.189,0.922l0.274-0.088l0.005-0.29l-0.301-0.002
		c-2.092,0-3.752,0.448-4.899,1.434c-1.149,0.987-1.733,2.495-1.731,4.47l0.012,0.47l0.29-0.014v-0.29l-0.649-0.074l-0.086,0.279
		l0.291-0.03c-0.032-0.318-0.048-0.625-0.048-0.917c0.003-1.848,0.612-3.183,1.768-4.116c1.157-0.93,2.901-1.454,5.177-1.536
		L125.323,65.848l-0.281,0.072L125.323,65.848l-0.012-0.291c-2.348,0.086-4.218,0.622-5.517,1.666
		c-1.304,1.041-1.993,2.594-1.987,4.567c0,0.313,0.018,0.638,0.053,0.973l0.018,0.191l0.184,0.059c0.33,0.103,0.633,0.1,0.819,0.1
		h0.304l-0.014-0.304l-0.012-0.442c0.002-1.871,0.536-3.172,1.529-4.03c0.994-0.86,2.508-1.295,4.521-1.295l0.288,0.003l0.409,0.008
		l-0.127-0.386c-0.072-0.217-0.075-0.491-0.178-0.891l-0.057-0.225l-0.234,0.008L125.323,65.848"/>
	<path d="M59.695,43.565c4.63,3.176,7.442,6.612,7.264,10.596c-3.454-3.166-7.264-4.526-11.341-4.159
		c-0.097-0.456-0.097-0.911-0.097-1.363c3.357-0.182,6.533,0.363,9.348,2.175c-1.364-2.81-3.538-4.442-5.808-5.793
		C59.25,44.471,59.522,44.018,59.695,43.565"/>
	<path d="M59.695,43.565l-0.165,0.238c4.468,3.065,7.154,6.322,7.146,10.001l-0.005,0.346l0.288,0.011l0.196-0.211
		c-3.126-2.875-6.581-4.298-10.252-4.296c-0.435,0-0.872,0.021-1.312,0.059l0.026,0.289l0.283-0.062
		c-0.091-0.416-0.091-0.85-0.091-1.301h-0.288l0.016,0.288c0.396-0.02,0.788-0.033,1.178-0.033c2.875,0.002,5.573,0.604,7.998,2.162
		l0.867,0.561l-0.451-0.928c-1.396-2.882-3.634-4.558-5.92-5.918l-0.147,0.25l0.272,0.093c0.178-0.515,0.445-0.96,0.631-1.448
		L59.695,43.565l-0.165,0.238L59.695,43.565l-0.27-0.103c-0.16,0.418-0.438,0.88-0.639,1.464l-0.076,0.223l0.202,0.121
		c2.254,1.341,4.368,2.934,5.695,5.672l0.262-0.127l0.157-0.244c-2.535-1.63-5.357-2.254-8.312-2.254
		c-0.403,0-0.807,0.013-1.209,0.034l-0.275,0.015v0.275c0,0.452-0.002,0.928,0.103,1.422l0.055,0.251l0.257-0.023
		c0.424-0.038,0.843-0.057,1.259-0.057c3.52,0.003,6.814,1.349,9.862,4.143l0.458,0.422l0.023-0.622l0.008-0.371
		c-0.005-3.989-2.88-7.379-7.395-10.479l-0.306-0.208l-0.128,0.345L59.695,43.565"/>
	<path d="M69.049,59.055c0.906-3.354,7.169-2.092,5.808,2.802C73.946,58.423,72.047,57.333,69.049,59.055"/>
	<path d="M69.049,59.055l0.277,0.075c0.309-1.126,1.268-1.654,2.352-1.662c1.498,0.008,3.08,1.05,3.082,3.064
		c0,0.378-0.055,0.794-0.183,1.25l0.28,0.074l0.277-0.072c-0.621-2.395-1.807-3.825-3.582-3.825c-0.799,0-1.679,0.287-2.647,0.842
		L69.049,59.055l0.277,0.075L69.049,59.055l0.144,0.251c0.914-0.525,1.705-0.766,2.359-0.766c1.403,0,2.396,1.075,3.021,3.391
		l0.275,1.033l0.285-1.03c0.142-0.498,0.204-0.965,0.204-1.402c0-1.172-0.477-2.102-1.176-2.716
		c-0.696-0.617-1.607-0.928-2.485-0.931c-1.27-0.008-2.53,0.681-2.907,2.095l-0.183,0.673l0.605-0.347L69.049,59.055"/>
	<path d="M93.732,48.458c1.631,0,2.912,0.545,3.912,1.446c2.901,0.909,4.991,0.815,5.901-0.722l0.627,0.639
		c-0.627,1.536-3.177,2.075-5.539,1.262c0.181,0.368,0.372,0.813,0.544,1.177c1.729,0.998,3.367,1.36,4.907,0.727
		c0,0.271,0,0.547,0,0.818c-1.64,0.448-3.179,0.174-4.635-0.641c0.27,1.184,0.364,2.36,0.188,3.625
		c-0.728,4.444-3.813,7.885-7.169,7.52c-5.271-0.547-6.086-2.81-6.272-6.154C86.023,53.706,89.563,48.637,93.732,48.458"/>
	<path d="M93.732,48.458v0.29c1.568,0.002,2.765,0.516,3.718,1.371l0.047,0.043l0.06,0.018c1.223,0.384,2.312,0.596,3.252,0.596
		c1.322,0.008,2.393-0.439,2.984-1.445l-0.249-0.148l-0.207,0.202l0.627,0.638l0.207-0.2l-0.266-0.11
		c-0.351,0.888-1.563,1.461-3.06,1.459c-0.684,0-1.409-0.115-2.119-0.363l-0.667-0.23l0.312,0.636
		c0.181,0.354,0.369,0.799,0.544,1.174l0.04,0.08l0.076,0.046c1.17,0.673,2.32,1.078,3.453,1.078c0.579,0,1.155-0.107,1.711-0.335
		l-0.11-0.268h-0.291c0,0.271,0,0.547,0,0.818h0.291l-0.076-0.281c-0.508,0.139-1.001,0.207-1.485,0.207
		c-1.01-0.003-1.981-0.288-2.935-0.818l-0.568-0.32l0.146,0.639c0.173,0.75,0.272,1.499,0.272,2.265
		c0,0.411-0.029,0.826-0.089,1.255l0.288,0.037l-0.288-0.044c-0.673,4.14-3.448,7.323-6.395,7.301l-0.456-0.023
		c-2.6-0.271-4.035-0.957-4.852-1.929c-0.82-0.967-1.069-2.298-1.16-3.954l-0.291,0.016l0.291-0.013l-0.005-0.312
		c-0.016-4.229,3.42-8.948,7.261-9.083L93.732,48.458l-0.013-0.289c-4.297,0.217-7.798,5.159-7.814,9.661l0.005,0.335l0.002,0.005
		c0.092,1.687,0.34,3.162,1.291,4.296c0.958,1.134,2.566,1.855,5.234,2.129l0.519,0.03c3.381-0.022,6.256-3.476,6.968-7.788V56.83
		c0.065-0.453,0.094-0.896,0.094-1.333c0-0.817-0.104-1.609-0.286-2.397l-0.283,0.064l-0.141,0.255
		c1.019,0.568,2.094,0.891,3.214,0.891c0.535,0,1.082-0.075,1.637-0.225l0.213-0.059v-0.22c0-0.271,0-0.547,0-0.818v-0.431
		l-0.398,0.164c-0.49,0.201-0.982,0.292-1.49,0.292c-0.992,0.003-2.047-0.357-3.163-1l-0.144,0.249l0.262-0.123
		c-0.17-0.356-0.359-0.804-0.547-1.185l-0.259,0.131l-0.094,0.273c0.77,0.266,1.561,0.392,2.307,0.392
		c1.621-0.002,3.082-0.599,3.595-1.817l0.07-0.178l-0.76-0.773l-0.264-0.269l-0.194,0.322c-0.474,0.793-1.272,1.157-2.484,1.163
		c-0.851,0.002-1.894-0.195-3.08-0.568l-0.086,0.276l0.194-0.215c-1.047-0.947-2.409-1.523-4.106-1.52V48.458"/>
	<path fill="#FFFFFF" d="M93.554,49.271c-2.54,0.814-4.174,2.539-5.18,4.349c-1.631,2.895-1.723,6.609,0.561,8.878l0.54,0.088
		C88.835,57.234,90.469,52.894,93.554,49.271"/>
	<path d="M93.554,49.271l-0.092-0.276c-2.619,0.842-4.31,2.627-5.342,4.483c-0.786,1.402-1.228,2.991-1.228,4.532
		c0,1.74,0.565,3.43,1.838,4.692l0.065,0.067l0.629,0.102l0.382,0.064l-0.047-0.382c-0.089-0.762-0.133-1.501-0.133-2.221
		c0-4.264,1.545-7.813,4.147-10.874l0.66-0.775l-0.972,0.312L93.554,49.271l-0.223-0.189c-2.676,3.141-4.287,6.844-4.284,11.25
		c0,0.743,0.044,1.507,0.139,2.29l0.288-0.035l0.047-0.287l-0.542-0.089l-0.044,0.288l0.204-0.207
		c-1.147-1.141-1.666-2.666-1.668-4.283c0-1.431,0.414-2.928,1.155-4.25c0.982-1.761,2.559-3.421,5.017-4.212L93.554,49.271
		l-0.223-0.189L93.554,49.271"/>
	<path fill="#FFFFFF" d="M96.283,54.618c1,0.45,1.273,2.533,0.545,4.619c-0.645,2.081-2.095,3.436-3.095,2.99
		c-0.99-0.453-1.262-2.537-0.624-4.621C93.832,55.524,95.282,54.161,96.283,54.618"/>
	<path d="M96.283,54.618l-0.118,0.262c0.435,0.174,0.791,0.959,0.786,2.049c0,0.673-0.126,1.443-0.398,2.215v0.003l-0.003,0.005
		c-0.523,1.753-1.707,2.91-2.414,2.872l-0.286-0.062c-0.442-0.177-0.807-1.013-0.796-2.156c0-0.648,0.107-1.38,0.333-2.116
		l-0.278-0.083l0.275,0.095c0.589-1.757,1.783-2.924,2.485-2.883l0.293,0.062L96.283,54.618l0.121-0.263l-0.534-0.115
		c-1.205,0.039-2.367,1.407-3.035,3.271v0.005l-0.002,0.005c-0.241,0.787-0.356,1.575-0.356,2.285
		c0.008,1.23,0.32,2.287,1.137,2.684l0.524,0.112c1.207-0.039,2.37-1.407,2.967-3.278l-0.275-0.086l0.272,0.097
		c0.291-0.832,0.43-1.663,0.43-2.405c-0.008-1.182-0.33-2.193-1.126-2.577L96.283,54.618"/>
	<path d="M61.963,64.943c4.368-0.451,7.903,0.089,11.349,1.177c3.451,0.995,6.088,3.444,9.809,3.896
		c-1,3.802-5.63,9.785-10.532,13.223c-3.807,2.449-6.9,1.085-8.178-1.448C63.961,74.635,63.422,68.663,61.963,64.943"/>
	<path d="M61.963,64.943l0.029,0.287c1.042-0.106,2.035-0.157,2.99-0.157c3.014,0,5.646,0.504,8.241,1.324h0.002l0.005,0.002
		c3.368,0.958,6.021,3.428,9.856,3.907l0.034-0.29l-0.283-0.072c-0.953,3.685-5.567,9.669-10.417,13.056l0.167,0.238l-0.157-0.245
		c-1.367,0.877-2.616,1.24-3.706,1.24c-1.862-0.002-3.286-1.054-4.054-2.574l-0.262,0.131l0.291-0.019
		c-0.453-7.166-0.987-13.146-2.469-16.937L61.963,64.943l0.029,0.287L61.963,64.943l-0.27,0.104
		c1.435,3.646,1.985,9.61,2.433,16.762l0.003,0.059l0.026,0.054c0.843,1.681,2.478,2.894,4.572,2.891c1.22,0,2.58-0.404,4.02-1.333
		l0.002-0.002l0.005-0.003c4.96-3.488,9.603-9.462,10.645-13.384l0.086-0.321l-0.33-0.041c-3.608-0.427-6.227-2.855-9.762-3.889
		l-0.081,0.279l0.086-0.276c-2.639-0.833-5.339-1.352-8.416-1.352c-0.977,0-1.987,0.054-3.051,0.161l-0.377,0.041l0.139,0.354
		L61.963,64.943"/>
	<path fill="#ED1C24" d="M65.059,73.551c1.809-0.188,3.724-0.272,5.716,0.086c1.906,0.364,3.171,2.177,5.177,3.623
		c0.624,0.814,0.356,1.451,0,2.083c-1.909,1.635-3.457,2.81-4.904,3.444c-2.187,0.995-3.994,0.727-5.172-1.269
		C65.514,78.984,65.417,76.354,65.059,73.551"/>
	<path fill="#ED1847" d="M65.059,73.551l0.031,0.288c0.901-0.091,1.822-0.158,2.763-0.158c0.94,0,1.896,0.067,2.873,0.241
		c1.747,0.314,3.009,2.08,5.057,3.571l0.17-0.233l-0.23,0.174c0.241,0.319,0.312,0.568,0.312,0.801
		c0.005,0.304-0.139,0.617-0.335,0.966l0.254,0.141l-0.188-0.22c-1.901,1.63-3.436,2.789-4.831,3.397l-0.005,0.003
		c-0.78,0.354-1.498,0.537-2.132,0.537c-1.084-0.009-1.958-0.496-2.671-1.688l-0.249,0.145l0.285-0.041
		c-0.358-2.515-0.453-5.146-0.814-7.963L65.059,73.551l0.031,0.288L65.059,73.551l-0.288,0.038c0.361,2.784,0.456,5.414,0.817,7.973
		l0.008,0.056l0.029,0.048c0.772,1.324,1.891,1.979,3.171,1.973c0.744-0.002,1.537-0.209,2.373-0.59l-0.12-0.262l0.115,0.264
		c1.498-0.656,3.061-1.847,4.975-3.488l0.042-0.033l0.023-0.044c0.204-0.368,0.411-0.77,0.411-1.25
		c0.003-0.367-0.133-0.761-0.432-1.152l-0.026-0.035l-0.037-0.024c-1.961-1.399-3.224-3.259-5.287-3.671
		c-1.021-0.185-2.014-0.253-2.98-0.253c-0.969,0-1.912,0.068-2.823,0.161l-0.299,0.033l0.04,0.294L65.059,73.551"/>
	<path fill="#FFFFFF" d="M65.328,66.03c2.998,3.711,7.536,5.433,14.248,3.987c-2.268-0.995-4.719-2.359-6.809-2.989
		C69.769,66.03,67.321,65.848,65.328,66.03"/>
	<path d="M65.328,66.03l-0.225,0.182c2.328,2.888,5.609,4.61,10.029,4.604c1.388,0,2.883-0.167,4.504-0.515l0.877-0.187l-0.822-0.36
		c-2.252-0.986-4.703-2.356-6.84-3.005l-0.084,0.279l0.092-0.276c-2.365-0.786-4.402-1.074-6.148-1.074
		c-0.493,0-0.964,0.022-1.412,0.065l-0.537,0.048l0.34,0.42L65.328,66.03l0.026,0.29c0.429-0.041,0.882-0.062,1.356-0.062
		c1.681,0,3.655,0.276,5.962,1.043l0.005,0.002h0.005c2.043,0.614,4.494,1.976,6.774,2.979l0.118-0.266l-0.061-0.281
		c-1.587,0.34-3.045,0.501-4.383,0.501c-4.274-0.005-7.34-1.625-9.579-4.389L65.328,66.03l0.026,0.29L65.328,66.03"/>
	<path fill="#FFFFFF" d="M122.6,112.314c5.624,0,11.171,0,16.701,0c12.973-9.961,21.147-20.108,25.699-30.434
		c-26.333,0-52.562,0-78.888,0c4.629,11.599,13.066,21.647,25.232,30.434c1.629,0,3.357,0,4.99,0
		C118.52,108.601,122.243,108.238,122.6,112.314"/>
	<path fill="#ED1C24" d="M152.373,87.321h9.259v0.99c-0.633,0.994-1.184,1.997-1.906,2.989v-2.265h-5.535v4.445h2.357v-1.633h-1.279
		v-1.453l3.002,0.088v2.998c-0.453,0.54-0.909,1.084-1.359,1.722h-4.538V87.321 M133.948,87.321h9.166v6.159h5.629v-4.445h-2.361
		v1.632h1.272v1.448l-2.995-0.089v-4.706h5.889v7.88h-9.241v-6.167h-5.546v4.445h2.27v-1.633h-1.27l0.094-1.453l2.902,0.088v4.72
		h-5.809V87.321z M115.799,87.321h9.16v6.159h5.632v-4.445h-2.367v1.632h1.278v1.448l-2.995-0.089v-4.706h5.896v7.88h-9.248v-6.167
		h-5.537v4.445h2.252v-1.633h-1.262l0.09-1.453l2.9,0.088v4.72h-5.8V87.321z M97.283,87.321h9.259v6.159h5.525v-4.445h-2.263v1.632
		h1.179v1.448l-2.902-0.089v-4.706h5.804v7.88h-9.263v-6.167H99.09v4.445h2.367v-1.633h-1.272v-1.453l2.987,0.088v4.72h-5.889
		V87.321z M92.376,93.479h1.456v-4.445H91.47v1.632h1.272l-0.094,1.448H91.47c-0.634-0.903-1.178-1.901-1.723-2.811v-1.983h5.897
		v7.88h-2.09C93.193,94.654,92.742,94.019,92.376,93.479z"/>
	<path fill="#FFFFFF" d="M135.671,119.828c1.545,0,3.09,0,4.625,0c-0.717-1.906-0.906-3.721-1.629-5.619c-5.169,0-11.166,0-16.424,0
		c-0.645,1.453-1.197,2.72-1.912,3.713c-0.361,1,0.271,1.635,1.996,1.721c2.273,0.091,4.902-0.449,7.908-1.442
		C133.673,117.194,135.124,118.105,135.671,119.828"/>
	<path d="M135.671,119.828v0.289c1.545,0,3.09,0,4.625,0h0.416l-0.146-0.392c-0.701-1.86-0.891-3.674-1.626-5.621l-0.073-0.185
		h-0.199c-5.169,0-11.166,0-16.424,0h-0.191l-0.072,0.172c-0.645,1.455-1.192,2.706-1.883,3.66l-0.024,0.031l-0.013,0.039
		l-0.115,0.604c-0.008,0.45,0.243,0.857,0.657,1.093c0.413,0.247,0.977,0.373,1.712,0.414l0.52,0.008
		c2.201,0,4.689-0.54,7.491-1.467l-0.089-0.273l0.078,0.276c0.967-0.281,1.76-0.406,2.406-0.406
		c1.613,0.022,2.289,0.703,2.677,1.846l0.06,0.201h0.215V119.828l0.275-0.09c-0.395-1.315-1.419-2.268-3.227-2.246
		c-0.72,0-1.565,0.136-2.565,0.43l-0.005,0.002h-0.006c-2.768,0.916-5.203,1.439-7.311,1.439l-0.496-0.011
		c-0.675-0.032-1.156-0.161-1.439-0.33c-0.277-0.177-0.367-0.343-0.375-0.597l0.079-0.406l-0.271-0.098l0.234,0.168
		c0.746-1.03,1.299-2.31,1.939-3.763l-0.262-0.118v0.289c5.258,0,11.255,0,16.424,0v-0.289l-0.27,0.103
		c0.707,1.855,0.896,3.669,1.626,5.618l0.272-0.102v-0.29c-1.535,0-3.08,0-4.625,0V119.828l0.275-0.09L135.671,119.828"/>
	<path fill="#ED1C24" d="M68.955,94.654c1.906,0.271,3.909,0.634,5.813,0.901c0.822,1.454,1.637,2.633,2.357,4.076
		c1.359-1.356,2.723-2.439,4.179-3.802c2.818,0,5.625-0.274,8.442-0.812c1.451,1.725,2.901,3.347,4.347,5.07
		c-3.713,3.267-8.254,5.165-13.785,4.986c-3.629-0.181-7.814-1.177-12.26-3.352C68.504,99.36,68.588,96.915,68.955,94.654"/>
	<path d="M68.955,94.654l-0.04,0.287c1.898,0.268,3.902,0.631,5.811,0.9l0.042-0.287L74.517,95.7
		c0.828,1.466,1.642,2.638,2.349,4.063l0.181,0.358l0.283-0.284c1.346-1.343,2.705-2.426,4.171-3.797l-0.196-0.212v0.289
		c2.836,0,5.662-0.273,8.498-0.817l-0.055-0.284l-0.223,0.185c1.454,1.73,2.904,3.352,4.347,5.071l0.223-0.186L93.9,99.87
		c-3.509,3.083-7.741,4.923-12.881,4.923l-0.699-0.012c-3.583-0.177-7.73-1.163-12.146-3.322l-0.125,0.26l0.286,0.054
		c0.46-2.387,0.542-4.838,0.906-7.071L68.955,94.654l-0.04,0.287L68.955,94.654l-0.286-0.045c-0.372,2.285-0.453,4.728-0.906,7.056
		l-0.042,0.217l0.199,0.098c4.48,2.192,8.705,3.2,12.375,3.382c0.247,0.008,0.485,0.01,0.723,0.01
		c5.279,0.002,9.67-1.904,13.266-5.068l0.212-0.187l-0.184-0.218c-1.448-1.727-2.899-3.349-4.347-5.071l-0.11-0.128l-0.165,0.033
		c-2.799,0.536-5.588,0.807-8.388,0.807h-0.115l-0.083,0.077c-1.446,1.353-2.808,2.438-4.188,3.812l0.207,0.203l0.259-0.128
		c-0.733-1.466-1.55-2.649-2.365-4.089l-0.071-0.123l-0.139-0.022c-1.896-0.269-3.899-0.63-5.816-0.901l-0.28-0.038l-0.044,0.279
		L68.955,94.654"/>
	<polyline fill="#FFFFFF" points="76.68,95.555 79.131,95.646 77.581,97.461 76.68,95.555 	"/>
	<polyline fill="#FFFFFF" points="76.68,95.555 76.669,95.844 78.521,95.915 77.651,96.934 76.941,95.432 76.68,95.555 
		76.669,95.844 76.68,95.555 76.418,95.682 77.319,97.585 77.51,97.99 79.741,95.378 76.69,95.266 76.214,95.25 76.418,95.682 
		76.68,95.555 	"/>
	<path fill="#ED1C24" d="M66.598,102.806c4.991,2.717,9.898,4.255,14.792,4.076c4.722-0.182,9.351-1.99,14.072-4.987
		c4.444,3.989,8.989,7.98,13.527,11.861c-0.547,1.906-1.097,3.721-1.642,5.524c-2.357-0.536-4.713-1.175-7.164-1.804
		c-9.17,0-18.338,0-27.503,0c0,0.988,0,1.988,0,2.983c7.709,0,15.432,0,23.146,0c-0.094,2.086-0.094,4.165-0.094,6.251
		c-0.369,1.998-1.173,3.445-3.357,3.711h-0.545c0,0.361,0.094,0.73,0.094,1.094c1.537-0.553,2.634,0.719,3.357,3.8
		c-0.272,2.269-0.445,4.531-0.633,6.796c-8.081-0.179-15.518-0.813-22.602-1.637c-7.439-1.984-12.449-5.786-14.434-11.865
		C54.796,120.094,57.792,108.78,66.598,102.806"/>
	<path d="M66.598,102.806l-0.139,0.255c4.755,2.587,9.456,4.127,14.159,4.127c0.265,0,0.524-0.006,0.786-0.017
		c4.787-0.185,9.466-2.019,14.216-5.033l-0.157-0.244l-0.191,0.215c4.441,3.992,8.989,7.981,13.533,11.867l0.186-0.221l-0.274-0.08
		c-0.551,1.907-1.1,3.717-1.645,5.521l0.277,0.083l0.063-0.281c-2.349-0.537-4.703-1.172-7.156-1.802l-0.034-0.011h-0.037
		c-9.17,0-18.338,0-27.503,0h-0.288v0.29c0,0.988,0,1.988,0,2.983v0.29h0.288c7.709,0,15.432,0,23.146,0v-0.29l-0.291-0.011
		c-0.094,2.092-0.094,4.176-0.094,6.262h0.291l-0.286-0.054c-0.382,1.962-1.068,3.213-3.108,3.478l0.037,0.287v-0.29h-0.835v0.29
		c0.002,0.41,0.097,0.777,0.094,1.094v0.41l0.39-0.137l0.571-0.109c0.479,0.002,0.901,0.248,1.322,0.854
		c0.411,0.606,0.778,1.562,1.082,2.849l0.283-0.067l-0.288-0.032c-0.272,2.273-0.448,4.54-0.637,6.803l0.291,0.025l0.005-0.291
		c-8.068-0.177-15.497-0.81-22.575-1.633l-0.032,0.287l0.073-0.282c-7.387-1.976-12.276-5.708-14.232-11.675
		c-0.673-2.032-1.011-4.229-1.011-6.477c0-7.026,3.299-14.53,9.88-18.994L66.598,102.806l-0.139,0.255L66.598,102.806l-0.163-0.238
		c-6.764,4.59-10.134,12.269-10.136,19.474c0,2.305,0.345,4.563,1.04,6.657c2.019,6.192,7.141,10.063,14.633,12.055l0.021,0.005
		l0.021,0.004c7.088,0.825,14.536,1.461,22.627,1.639l0.272,0.005l0.024-0.271c0.188-2.266,0.361-4.527,0.631-6.784l0.008-0.051
		l-0.013-0.048c-0.312-1.328-0.688-2.339-1.168-3.042c-0.471-0.702-1.089-1.112-1.799-1.109c-0.254,0-0.511,0.052-0.767,0.142
		l0.097,0.273h0.288c-0.002-0.415-0.097-0.783-0.094-1.094h-0.288v0.29h0.563l0.016-0.003c2.331-0.266,3.258-1.915,3.606-3.947
		l0.005-0.025v-0.025c0-2.086,0-4.161,0.094-6.238l0.013-0.302h-0.301c-7.714,0-15.437,0-23.146,0v0.289h0.291
		c0-0.995,0-1.995,0-2.983h-0.291v0.289c9.165,0,18.333,0,27.503,0v-0.289l-0.073,0.281c2.448,0.629,4.808,1.265,7.172,1.807
		l0.265,0.059l0.076-0.256c0.547-1.809,1.097-3.621,1.646-5.529l0.05-0.182l-0.139-0.12c-4.538-3.881-9.083-7.87-13.522-11.859
		l-0.163-0.146l-0.186,0.115c-4.698,2.982-9.277,4.766-13.931,4.948c-0.251,0.008-0.505,0.013-0.762,0.013
		c-4.572,0-9.181-1.499-13.884-4.054l-0.152-0.086l-0.147,0.1L66.598,102.806"/>
	<path d="M88.296,127.256c2.173,0,3.991,1.812,3.991,3.984c0,2.174-1.817,3.992-3.991,3.992v-1.184c1.54,0,2.81-1.271,2.81-2.809
		c0-1.533-1.27-2.808-2.81-2.808V127.256 M88.296,135.232c-2.184,0-3.999-1.818-3.999-3.992c0-2.173,1.815-3.984,3.999-3.984v1.177
		c-1.553,0-2.817,1.274-2.817,2.808c0,1.537,1.265,2.809,2.817,2.809V135.232z"/>
	<path d="M88.296,127.256v0.289c2.009,0.002,3.695,1.689,3.7,3.695c-0.005,2.008-1.691,3.699-3.7,3.702
		c-2.021-0.003-3.703-1.692-3.708-3.702c0.005-2.01,1.687-3.693,3.708-3.695v-0.579c-2.349,0.003-4.284,1.938-4.287,4.274
		c0.002,2.335,1.938,4.279,4.287,4.282c2.336-0.003,4.279-1.944,4.282-4.282c-0.003-2.336-1.946-4.271-4.282-4.274V127.256
		 M88.296,128.433v0.289c1.377,0.003,2.519,1.148,2.522,2.519c-0.003,1.373-1.145,2.518-2.522,2.52
		c-1.388-0.002-2.524-1.146-2.527-2.52c0.002-1.37,1.139-2.516,2.527-2.519v-0.579c-1.712,0.003-3.108,1.402-3.108,3.098
		c0,1.696,1.396,3.098,3.108,3.1c1.7-0.002,3.101-1.403,3.101-3.1c0-1.697-1.401-3.095-3.101-3.098V128.433z"/>
	<path fill="#FBC8B4" d="M97.089,120.372c0,1.989,0,3.987,0,5.978c-0.351,2.359-1.262,3.893-2.632,4.708
		c1.187,1.003,1.906,2.18,2.092,3.713c5.177,0,10.26-0.082,15.434-0.082c7.442,0.354,13.611-2.543,19.239-7.251
		c0.548-0.633,1.005-1.725-0.187-1.178c-1.896,1.178-3.807,2.173-5.621,2.896c-0.543-0.18-0.632-0.357-0.275-0.637
		c3-1.172,5.633-2.707,8.076-4.426c1.005-0.824,0.827-1.83-0.451-1.365c-2.451,1.449-5.08,2.625-7.893,3.706
		c-0.545,0-0.728-0.269-0.363-0.722c3.266-1.088,6.355-2.541,9.262-4.435c1.634-1.813,1.178-2.901-1.461-2.901
		c-2.808,0.729-5.9,1.451-8.71,2.18c-3.63-0.185-4.808-1-4.174-2.998c0.634-1.08,1.176-2.26,1.807-3.438
		c1.095-3.977-0.901-4.52-3.087-2.713c-0.81,1.448-1.901,3.167-4.261,5.071c-3.085,1.722-5.351,3.799-6.897,6.067
		C103.353,120.372,100.185,120.094,97.089,120.372"/>
	<path fill="#161E1E" d="M97.089,120.372h-0.291c0,1.989,0,3.987,0,5.978h0.291l-0.288-0.043c-0.346,2.308-1.22,3.742-2.49,4.501
		l-0.348,0.21l0.312,0.26c1.142,0.973,1.81,2.067,1.987,3.529l0.032,0.255h0.256c5.18,0,10.262-0.084,15.434-0.084
		c0.4,0.019,0.813,0.03,1.218,0.03c6.983,0,12.857-2.87,18.21-7.348l0.016-0.014l0.016-0.02c0.316-0.385,0.615-0.842,0.634-1.28
		l-0.136-0.37l-0.393-0.156c-0.189,0.002-0.386,0.064-0.632,0.174l-0.016,0.008l-0.019,0.012c-1.88,1.172-3.778,2.158-5.572,2.871
		l0.105,0.271l0.091-0.275l-0.293-0.127l-0.021-0.017l-0.031,0.036l0.041-0.021l-0.01-0.015l-0.031,0.036l0.041-0.021l-0.123,0.062
		h0.137l-0.014-0.062l-0.123,0.062h0.137h-0.11l0.104,0.039l0.006-0.039h-0.11l0.104,0.039l0.016-0.021l0.092-0.084l-0.178-0.229
		l0.104,0.271c3.027-1.182,5.683-2.734,8.139-4.462l0.005-0.003l0.011-0.01c0.474-0.395,0.747-0.826,0.755-1.258l-0.23-0.539
		l-0.59-0.199c-0.199,0-0.419,0.046-0.668,0.138l-0.025,0.008l-0.021,0.013c-2.433,1.438-5.046,2.607-7.851,3.688l0.104,0.269v-0.29
		l-0.267-0.043h-0.005l-0.032,0.022h0.04l-0.008-0.022l-0.032,0.022h0.04l0.125-0.227l-0.225-0.185l0.094,0.276
		c3.283-1.1,6.395-2.562,9.325-4.468l0.031-0.021l0.026-0.03c0.649-0.727,1.019-1.354,1.026-1.952
		c0.008-0.481-0.296-0.894-0.763-1.107c-0.471-0.226-1.107-0.323-1.939-0.323h-0.037l-0.033,0.008
		c-2.809,0.729-5.895,1.45-8.713,2.182l0.073,0.279l0.013-0.289c-1.486-0.073-2.545-0.264-3.189-0.569
		c-0.639-0.315-0.858-0.656-0.871-1.222c0-0.234,0.047-0.51,0.148-0.829l-0.274-0.089l0.249,0.148
		c0.644-1.101,1.188-2.283,1.812-3.449l0.016-0.029l0.011-0.029c0.215-0.794,0.316-1.46,0.316-2.019
		c0-0.645-0.133-1.148-0.408-1.509c-0.275-0.363-0.701-0.545-1.149-0.54c-0.707,0.005-1.501,0.389-2.308,1.054l-0.044,0.035
		l-0.026,0.048c-0.804,1.434-1.864,3.104-4.189,4.981l0.181,0.229l-0.142-0.256c-3.119,1.74-5.415,3.852-6.997,6.16l0.241,0.163
		l0.148-0.249c-2.947-1.762-5.616-2.306-8.164-2.303c-0.644,0-1.281,0.031-1.909,0.09l-0.264,0.025v0.263H97.089l0.026,0.29
		c0.616-0.057,1.233-0.09,1.857-0.09c2.466,0,5.006,0.512,7.866,2.221l0.233,0.142l0.154-0.226c1.521-2.227,3.747-4.275,6.801-5.979
		l0.021-0.014l0.019-0.014c2.393-1.928,3.517-3.691,4.336-5.152l-0.256-0.144l0.186,0.226c0.744-0.62,1.456-0.927,1.94-0.922
		c0.312,0.002,0.521,0.098,0.691,0.313c0.167,0.217,0.288,0.59,0.288,1.156c0,0.486-0.092,1.107-0.296,1.866l0.277,0.075
		l-0.254-0.137c-0.636,1.185-1.179,2.361-1.802,3.43l-0.018,0.027l-0.012,0.032c-0.115,0.358-0.175,0.691-0.175,1.003
		c-0.013,0.771,0.429,1.396,1.204,1.748c0.775,0.361,1.883,0.542,3.407,0.621l0.044,0.003l0.045-0.011
		c2.807-0.729,5.897-1.45,8.709-2.182l-0.072-0.279v0.289c0.783-0.002,1.352,0.103,1.686,0.266c0.336,0.175,0.428,0.333,0.438,0.587
		c0.008,0.327-0.262,0.891-0.879,1.565l0.217,0.194l-0.157-0.242c-2.886,1.878-5.952,3.32-9.194,4.403l-0.078,0.027l-0.055,0.064
		l-0.257,0.593l0.293,0.481l0.55,0.118h0.053l0.053-0.019c2.82-1.086,5.462-2.269,7.937-3.728l-0.149-0.249l0.098,0.274l0.471-0.103
		l0.201,0.051l0.037,0.107c0.011,0.149-0.146,0.492-0.539,0.81l0.184,0.226l-0.168-0.236c-2.428,1.709-5.039,3.231-8.016,4.396
		l-0.037,0.016l-0.036,0.024c-0.157,0.131-0.307,0.26-0.325,0.521l0.252,0.415l0.442,0.201l0.099,0.031l0.096-0.036
		c1.832-0.731,3.757-1.732,5.666-2.921l-0.152-0.244l0.121,0.264l0.391-0.125h0.01l0.037-0.098l-0.09,0.051l0.053,0.047l0.037-0.098
		l-0.09,0.051l0.055-0.032l-0.063,0.013l0.008,0.02l0.055-0.032l-0.063,0.013v0.015c0.019,0.118-0.223,0.607-0.494,0.903l0.22,0.188
		l-0.184-0.221c-5.292,4.422-11.019,7.209-17.838,7.211c-0.396,0-0.799-0.011-1.204-0.029c-5.19,0-10.273,0.083-15.447,0.083v0.289
		l0.288-0.034c-0.191-1.609-0.966-2.867-2.192-3.898l-0.188,0.22l0.152,0.249c1.461-0.871,2.409-2.508,2.768-4.916l0.002-0.021
		v-0.021c0-1.99,0-3.988,0-5.978H97.089l0.026,0.29L97.089,120.372"/>
	<path d="M132.036,72.191c2.996,1.264,5.903,4.073,6.809,9.326c-1.717,0-3.54,0-5.258,0
		C134.13,77.357,133.216,74.272,132.036,72.191"/>
	<path d="M132.036,72.191l-0.111,0.269c2.914,1.233,5.739,3.945,6.635,9.109l0.285-0.051v-0.289c-1.72,0-3.54,0-5.258,0v0.289
		l0.285,0.038c0.113-0.859,0.166-1.673,0.166-2.443c0-3.02-0.786-5.366-1.75-7.063L132.036,72.191l-0.111,0.269L132.036,72.191
		l-0.254,0.146c0.917,1.617,1.674,3.858,1.674,6.776c0,0.745-0.047,1.533-0.157,2.367l-0.042,0.327h0.33c1.718,0,3.538,0,5.258,0
		h0.344l-0.058-0.338c-0.917-5.341-3.904-8.254-6.981-9.543l-0.783-0.33l0.416,0.741L132.036,72.191"/>
	<path fill="#FFDD00" d="M134.671,75.359c2.359,1.267,2.629,2.989,2.811,5.076c-0.814,0-1.632,0-2.449,0
		C135.305,78.348,135.124,76.626,134.671,75.359"/>
	<path fill="#FFF200" d="M134.671,75.359l-0.139,0.254c2.25,1.226,2.465,2.752,2.664,4.846l0.285-0.023v-0.291
		c-0.814,0-1.632,0-2.449,0v0.291l0.285,0.037c0.092-0.684,0.131-1.333,0.131-1.938c0-1.276-0.183-2.376-0.505-3.272L134.671,75.359
		l-0.139,0.254L134.671,75.359l-0.271,0.1c0.295,0.819,0.471,1.855,0.471,3.075c0,0.582-0.039,1.201-0.125,1.863l-0.043,0.327h0.33
		c0.817,0,1.635,0,2.449,0h0.316l-0.026-0.317c-0.167-2.078-0.489-3.992-2.962-5.304l-0.664-0.356l0.254,0.711L134.671,75.359"/>
	<path fill="#FFFFFF" d="M114.251,114.754h-3.09l-0.816,2.998c0,0,0.541-0.459,1-0.823c0.455-0.365,0.812-0.632,1.277-0.821
		c0.352-0.271,0.906-0.629,0.906-0.629L114.251,114.754"/>
	<path d="M147.372,136.407c0-1.55-0.54-2.898-1.627-3.993c-1.086-1.083-2.461-1.631-3.998-1.631v-1.076
		c1.916,0,3.456,0.629,4.813,1.99c1.273,1.264,1.912,2.896,1.912,4.71c0,1.804-0.639,3.439-1.912,4.714
		c-1.356,1.349-2.896,1.98-4.813,1.98v-1.082c1.537,0,2.912-0.545,3.998-1.636C146.832,139.3,147.372,137.943,147.372,136.407
		 M141.747,130.783c-1.54,0-2.902,0.548-3.991,1.631c-1.089,1.095-1.634,2.443-1.634,3.993c0,1.536,0.545,2.893,1.634,3.977
		c1.089,1.091,2.451,1.636,3.991,1.636v1.082c-1.814,0-3.441-0.632-4.717-1.98c-1.359-1.274-1.998-2.91-1.998-4.714
		c0-1.813,0.639-3.446,1.998-4.71c1.275-1.361,2.902-1.99,4.717-1.99V130.783z"/>
	<path d="M145.025,140.66h-1.188l-1.624-3.446v-1.267c0.361,0,0.718-0.084,0.989-0.27c0.273-0.273,0.461-0.636,0.461-1.172
		c0-0.457-0.188-0.823-0.461-1.092c-0.178-0.177-0.544-0.361-0.989-0.361v-0.992c0.718,0,1.346,0.271,1.807,0.63
		c0.545,0.362,0.726,0.992,0.726,1.815c0,0.727-0.086,1.172-0.455,1.539c-0.359,0.362-0.731,0.633-1.176,0.721L145.025,140.66
		 M142.213,137.214l-0.194-0.263h-1.262v3.709h-1.178v-8.6h2.634v0.992h-1.456v2.895h1.456V137.214z"/>
	<path fill-rule="evenodd" clip-rule="evenodd" fill="#C82127" d="M83.666,177.154c0,0-8.809-2.06-17.924,3.113
		c0,0-5.889,3.717-7.963,7.554c0,0,0.11,1.247,1.238,1.968c0,0,3.42,0.316,5.078,0.105l0.196,0.313v6.515l-0.301,0.728
		c0,0-2.179,1.238-2.587,1.453c0,0-3.42,1.23-4.661,2.276c0,0-6.523,3.723,1.346,6.625c0,0,4.248,0.417,5.081,0.305
		c0,0,0.927-0.198,1.123,1.035c0,0,0.322,7.25,2.082,11.295c0,0,0.1,0.414,1.864,1.45c0,0,4.755,2.383,9.103,0.724
		c0,0,1.76-1.248,2.388-4.35c0,0,1.241-8.285,0.618-11.702c0,0-0.618-1.968,2.488-2.272c0,0,3.624-0.107,6.321-1.344
		c0,0,5.478-1.451,2.891-6.008c0,0-1.964-3.106-7.974-3.306c0,0-4.248,0.399-4.344-1.772c0,0-0.417-1.754,0.835-2.997
		c0,0,0.917-1.454,4.549-2.288c0,0,4.97-2.059,4.659-4.033c0,0-0.511-2.383-3.826-4.248c0,0-1.042-0.613-1.666-0.932
		c-0.613-0.307-0.408-0.207-0.408-0.207H83.666"/>
	<path fill-rule="evenodd" clip-rule="evenodd" fill="#C82127" d="M15.231,193.109c0,0-0.935-1.041-2.899-0.729
		c0,0-2.176,0.729-3.836,2.996c0,0-0.304,1.453,1.145,2.896c0,0,1.04,1.148,3.103,1.352c0,0,1.451,0.104,2.687-0.937l0.524-0.612
		v-2.077c0,0-0.209-1.251-0.417-1.759c-0.202-0.517-0.202-0.828-0.202-0.828L15.231,193.109 M26.821,191.859
		c0,0-0.825-1.031-2.886-1.236c0,0-2.278,0.304-2.702,0.821c0,0-0.723,1.354-0.414,2.796c0,0,0.414,2.388,2.071,2.388
		c0,0,2.074-0.314,3.106-1.765c0,0,0.51-0.516,0.93-1.658c0,0,0.104-0.617,0-0.924L26.821,191.859 M44.735,185.854
		c0,0-0.82-1.236-3.208-1.655c0,0-1.765-1.351-2.278-2.175c0,0,0.723-5.59-3.101-5.689c0,0-3.53-0.316-3.842,0.1
		c0,0-2.485,1.348-2.891,2.482c0,0-1.145,4.559-2.077,5.282c0,0-6.929,2.28-8.285,2.376c0,0-0.817,0.107-1.65-0.721
		c0,0-1.346-1.548-4.038-0.722c0,0-2.796,0.415-8.385,6.829l-4.973,6.219c0,0-0.417,9.008,4.357,11.702
		c0,0,10.037,0.401,15.002-3.216c0,0,0.309-1.764,0.1-3.41c0,0,0.104-3.834,3.111-2.805c0,0,3.731,1.043,3.315,3.318
		c0,0,0.204,1.76-4.038,3.418c0,0-8.283,6.937-9.422,8.797c0,0-1.351,1.758-0.312,3.004c0,0,0.621,1.039,6.01-0.934l6.102-2.689
		c0,0,1.448-1.241,1.966,1.448c0.516,2.796,0.726,4.762,0.726,4.762s1.346,1.763,1.972,2.07c0,0,4.857,0.306,6.518-0.206
		c0,0,2.176-0.613,2.584-2.384l0.107-5.792c0,0,0.626-1.557,1.655-0.932c0,0,4.973,3.305,5.488,3.621c0,0,1.66,0.311,2.692,0
		l3.111-2.795c0.099-0.205,0.819-1.761,0-2.697c0,0-4.143-4.029-6.319-5.178c0,0-1.862-1.14-3.208-1.445
		c0,0-4.245-2.172-1.254-4.763c0,0,1.15-0.729,2.902-0.826c0,0,3.428-0.929,4.048-2.901c0,0-0.107-1.758-2.601-2.174
		c0,0-3.307-0.211-4.237-0.523l-1.448-1.541c0,0-0.204-1.561,0.202-2.183c0,0,3.106-1.239,4.253-1.44l0.822-0.115
		c0,0,0.723-0.303,1.142-0.713c0,0,0.521-0.937,0.613-1.346c0,0,0-0.524-0.409-0.941l-0.513-0.313L44.735,185.854"/>
	<path fill-rule="evenodd" clip-rule="evenodd" fill="#C82127" d="M124.448,193.205c0,0,0.209-0.824,1.654-0.303l5.9,2.475
		c0,0,0.104,0.213,0,0.529l-2.48,10.237c0,0-0.723,2.487-1.662-1.139c0,0-1.551-7.241-2.171-8.799l-0.938-2.375l-0.199-0.312
		l-0.104-0.107V193.205 M122.479,192.588c0,0-6.621,3.411-7.757,5.176c0,0-0.425-0.627-0.94-0.826l0.103-6.215
		c0,0,0.838-2.594,2.388-1.968c0,0,4.86,3.007,5.385,3.313l0.505,0.313L122.479,192.588 M114.298,215.665
		c0,0,4.557,0.11,7.864-3.094c0,0-1.757-2.288-2.479-4.044l-2.896-4.551c0,0-2.488-1.352-2.901,2.585l0.104,6.312L114.298,215.665
		 M117.305,184.198c0,0-0.409-2.478-4.143-1.753c0,0-0.93-1.456-1.55-2.901c0,0-0.842-2.586-3.311-2.39c0,0-2.273-0.196-2.488,3.631
		c0,0,0.414,2.063-0.418,3.108c0,0-0.305,0.819-2.279,1.444c0,0-4.972,1.861-4.862,4.557c0,0,0.097,1.654,2.59,1.764
		c0,0,2.063-0.109,2.702,0.826c0,0,0.291,0.506,0.291,1.863v4.556c0,0-0.104,0.937-0.609,1.346c0,0-4.551,2.277-5.698,2.894
		c0,0-2.378,1.244-1.445,3.312c0,0,1.241,2.287,3.42,3.524c0,0,0.717,0.515,2.068-0.097l1.445-0.834c0,0,0.819-0.616,0.933,1.034
		v3.203c0,0-0.31,1.361-1.76,0.839c0,0-2.388-0.839-3.001,0.522c0,0-1.451,1.445,1.861,3.617c0,0,6.109,3.73,7.659,4.25
		c0,0,2.593,1.342,5.072-1.66c0,0,8.288,1.036,13.253,0.512c0,0,11.286-0.72,13.347-1.65c0,0,2.281-0.209,2.797-4.762
		c0,0,0.73-4.357-1.652-4.975c0,0-2.587-0.307-3.52-0.097c0,0,2.792-7.042,3.42-8.6c0,0,0.822-3.935-0.418-5.283
		c0,0,4.037-5.276,3.523-8.687c0,0-0.109-3.007-8.488-3.526c0,0,0.623-3.73-0.834-4.452c0,0-4.559-2.279-6.205,0.21
		c0,0-2.596,3.831-2.695,4.242c0,0-6.313,0.107-7.455,0.31l-1.137,0.103H117.305"/>
	<path fill-rule="evenodd" clip-rule="evenodd" fill="#C82127" d="M190.286,196.628l0.104,9.728c0,0,2.588-2.379,1.97-8.385
		c0,0-0.1-1.141-1.241-1.343H190.286 M177.448,198.903c0,0,1.975-0.517,2.185,1.23c0,0,0.513,5.915,0.403,7.054
		c0,0-0.613,2.584-2.174-0.105c0,0-0.927-2.591-1.346-6.416c0,0-0.209-0.937,0.314-1.563l0.196-0.097L177.448,198.903
		 M165.755,195.691c0,0-0.828,0-0.42,0.622l2.896,1.96c0,0,0.623,0.316,1.146-0.404c0,0,0.726-1.663-0.835-2.178H165.755
		 M161.614,203.049c0,0-0.726,0-0.109,0.721c0,0,0.834,1.658,2.076,0.722l0.935-1.235c0,0,0.312-0.631-0.935-0.631
		C164.827,202.625,161.614,203.049,161.614,203.049 M169.378,209.672c0,0,1.346-3.416,3.105-0.527c0,0,1.446,2.188,1.347,4.877
		c0,0-0.833,1.644-4.147-1.148c0,0-1.14-0.721-0.613-2.165l0.199-0.516L169.378,209.672 M185.833,199.84
		c0,0,0.414-1.766-1.031-2.176c0,0-1.76-0.527-1.66,1.239c0,0,0,0.722,1.241,1.033h0.938L185.833,199.84 M185.53,201.7
		c0,0-1.969-0.83-2.389,0.925c0,0-0.312,1.866,1.456,1.557c0,0,0.933-0.105,1.351-1.342v-0.826L185.53,201.7 M186.357,207.388
		c0,0,0.1-0.934-1.037-0.826c0,0-2.278-0.724-2.073,1.14c0,0-0.205,1.443,1.445,1.443c0,0,1.042-0.207,1.45-0.617l0.104-0.516
		L186.357,207.388 M180.24,189.688c0,0,1.137-0.729-0.095-0.825c0,0-6.625,0.096-7.055,0.096c-0.402-0.096-1.652,0-0.816-1.759
		c0,0,2.482-5.797,10.658-7.763c0,0,5.069-1.45,11.189,0.107c0,0,7.465,3.304,2.165,5.073c0,0-3.626,1.035-5.688,3.828
		c0,0-1.347,1.344,2.797,1.866c0,0,4.138,0.517,4.452,3.412c0,0,0.623,12.42-2.276,20.806c0,0,2.38,0.214,3.722,1.455
		c0,0,3.607,4.661-5.489,6.731c0,0-10.975,2.069-19.467,0.2c0,0-7.036-1.026-10.042-4.027c0,0-1.438-1.658-3.926,1.551
		c0,0-2.277,3.833-4.965,2.796c0,0-2.383-1.87-2.383-4.869c0,0-0.115-3.001,1.859-5.081c0,0,5.074-4.854,1.445-5.374
		c0,0-1.762-0.628-3.098,0.616c0,0-0.936,0.318-1.451-0.096l-1.757-2.288c0,0-0.419-0.201,0.1-0.823
		c0.623-0.619,6.206-7.451,6.206-7.451s0.523-1.039-0.822-0.932c0,0-2.386,0.625-3.52-1.859c0,0-0.316-1.141,0.723-2.176
		c0,0,0.618-0.834,0.933-1.244c0.204-0.318,0.413-0.521,1.04-0.731c0.615-0.099,0.93-0.933-0.115-1.556c0,0-2.271-0.926-1.135-2.797
		c0,0,1.352-1.132,1.451-2.269c0,0,0-0.931-1.037-2.069c0,0-1.551-1.559,1.142-2.181c0,0,2.797-0.107,3.007-0.409
		c0,0,1.34-0.824,1.963-2.285c0,0,0.723-1.96,3.515-0.717l0.319,0.51c0,0-0.629,2.39,1.854,2.282c0,0,3.01-0.103,4.248,1.04
		c0,0,0.212,0.201-0.1,0.41c-0.209,0.21-0.723,0.516-0.314,1.35c0,0,0.105,0.611-0.725,1.139c0,0-0.836,1.141,0.416,2.172
		c0,0,2.179,1.346,0.414,2.898c0,0-2.281,1.137-0.729,2.383c0,0,1.766,2.584,5.483,1.76c0,0,3.206-1.039,4.562-1.865l0.623-0.411
		L180.24,189.688"/>
</g>
</svg>
