<?xml version="1.0" encoding="UTF-8"?>
<!DOCTYPE svg PUBLIC "-//W3C//DTD SVG 1.1//EN" "http://www.w3.org/Graphics/SVG/1.1/DTD/svg11.dtd">
<!-- Creator: CorelDRAW 2019 (64-Bit) -->
<svg xmlns="http://www.w3.org/2000/svg" xml:space="preserve" width="191.821mm" height="169.491mm" version="1.1" style="shape-rendering:geometricPrecision; text-rendering:geometricPrecision; image-rendering:optimizeQuality; fill-rule:evenodd; clip-rule:evenodd"
viewBox="0 0 191.732 169.4123"
 xmlns:xlink="http://www.w3.org/1999/xlink"
 xmlns:xodm="http://www.corel.com/coreldraw/odm/2003">
 <defs>
  <style type="text/css">
   <![CDATA[
    .fil2 {fill:#FCC10E}
    .fil1 {fill:#E41D2C}
    .fil0 {fill:#194F9C}
   ]]>
  </style>
 </defs>
 <g id="Layer_x0020_1">
  <metadata id="CorelCorpID_0Corel-Layer"/>
  <g id="_732143104">
   <path class="fil0" d="M191.287 90.4218l-2.3382 -2.4205c-0.3298,-0.2581 -0.7147,-0.4357 -1.1249,-0.5191 0,0 -1.3862,-0.087 -2.5985,-0.087 1.1262,-1.2991 1.9051,-2.6796 2.5985,-4.4118 0.7789,-1.9922 1.1249,-4.0703 1.1249,-5.9707 0,-1.6452 -0.2599,-3.2867 -0.779,-4.758 0.0824,-0.6929 2.0736,-13.5821 2.0736,-13.6691 0,-0.346 -0.1684,-0.606 -0.4285,-0.952 0,0 -1.126,-1.4722 -3.0302,-3.2914 -1.9016,-1.9005 -4.4127,-3.5457 -7.4393,-4.0656 -2.5311,-0.4501 -5.1312,-0.3316 -7.6115,0.3469 -0.6062,-1.2121 -1.8183,-2.6807 -2.5974,-3.4641 -0.7202,-0.6505 -1.5018,-1.2293 -2.3343,-1.7277 -1.841,-1.1032 -4.1066,-1.2329 -6.0606,-0.346l-0.0825 0.0871c-1.5591,0.7791 -2.7712,1.9041 -3.3773,3.4633 0.5193,-2.8574 0.9523,-5.2779 0.9523,-5.3685 0.0016,-0.4149 -0.1523,-0.8151 -0.433,-1.1215l-2.4206 -2.4252c-0.7826,-0.692 -1.4712,-0.5191 -1.4712,-0.5191l-14.9683 2.7702c-0.5191,0.0836 -0.9487,0.5203 -1.2121,1.0355 0,0 -1.2944,5.7978 -1.7321,7.789 -4.7595,-3.985 -10.0601,-7.2753 -15.7429,-9.7721 2.1608,-2.8581 16.6996,-21.9781 16.6996,-21.9781 0.2619,-0.2491 0.4159,-0.5906 0.4295,-0.9522 0,-0.433 -0.2565,-0.779 -0.5202,-1.1259l-1.9875 -1.9866c-0.4601,-0.4404 -1.1179,-0.6053 -1.7312,-0.4332 0,0 -31.6678,12.0232 -34.2613,13.0623 -1.0346,-1.9877 -10.2918,-24.398 -10.4649,-24.571 -0.05,-0.1893 -0.1377,-0.3659 -0.2601,-0.5191l-2.0818 -2.0744c-0.1648,-0.1776 -0.6024,-0.519 -1.5545,-0.4329 -0.6025,0.0869 -0.9485,0.5199 -1.1216,1.1259 0,0 -9.7765,31.8361 -11.1615,36.681 -1.4686,0.52 -32.2693,12.1971 -32.2693,12.1971 -0.606,0.173 -1.1261,0.606 -1.2121,1.298 0,0.5203 0.3461,1.0392 0.6061,1.2992l8.9965 5.8802c-4.1517,5.0225 -7.6984,10.6427 -10.2052,16.782 -0.6059,1.3026 -1.1259,2.6842 -1.5589,3.8964 -2.2512,0.9483 -4.7579,1.9049 -4.7579,1.9049 -7.7853,3.1996 -14.6214,8.0445 -19.8128,14.1022 -6.4901,7.4384 -10.3827,16.6996 -11.5902,27.1645 -0.3082,2.0907 -0.4521,4.2026 -0.433,6.3169 0,7.0914 1.732,13.9284 4.8445,18.6869 3.6283,5.3639 8.4778,8.8236 14.8814,10.1227 5.7065,1.1251 11.5902,1.645 27.3375,-5.5377 1.9008,-0.8662 3.7197,-1.7322 5.5334,-2.5067l0.606 0.606c11.9416,12.5431 27.948,19.3791 44.8168,19.3791 13.2361,0 25.8653,-4.1517 36.6809,-12.2006 10.1225,-7.4386 17.8211,-17.734 22.3198,-29.6712 0.4329,0.1686 1.4722,0.4286 1.4722,0.4286 0.6893,0.1749 1.4139,-0.1007 1.8144,-0.6885l0.8651 -1.6496c12.5478,-21.3667 23.6236,-28.8051 23.7094,-28.8051l6.144 -3.8927c0.4294,-0.3462 0.6929,-0.6931 0.6929,-1.2121 0.059,-0.4766 -0.1005,-0.9539 -0.4329,-1.2992z"/>
   <path class="fil1" d="M95.9432 39.9858c-32.5293,0 -59.1737,27.7704 -59.1737,61.6846 0,34.0876 26.6444,61.7674 59.1737,61.7674 32.7927,0 59.4374,-27.6798 59.4374,-61.7674 0,-33.9142 -26.6447,-61.6846 -59.4374,-61.6846z"/>
   <path class="fil2" d="M95.9432 160.3251c31.0608,0 56.3245,-26.2992 56.3245,-58.6547 0,-32.1866 -25.2637,-58.572 -56.3245,-58.572l0 2.8537c29.5887,0 53.6442,25.0038 53.6442,55.7183 0,30.7149 -24.0556,55.8012 -53.6442,55.8012l0 2.8535zm-56.147 -58.6547l0 0c0,-32.1829 25.2629,-58.572 56.147,-58.572l0 2.8572c-29.4157,0 -53.4627,25.0003 -53.4627,55.7148 0,30.7149 24.0508,55.8012 53.4627,55.8012l0 2.8572c-30.8841,-0.0861 -56.147,-26.3029 -56.147,-58.6584z"/>
   <path class="fil0" d="M130.7236 101.6704c0,19.9853 -15.5699,36.2481 -34.7804,36.2481l0 1.6496c20.0721,0 36.5118,-16.9593 36.5118,-37.8939 0,-20.7651 -16.4397,-37.8106 -36.5118,-37.8106l0 1.6451c19.2105,0 34.7804,16.2629 34.7804,36.1616zm-34.7804 36.2481l0 0 0 1.6452c-19.8992,0 -36.248,-16.9595 -36.248,-37.8933 0,-20.765 16.3525,-37.8114 36.248,-37.8114l0 1.6497c-19.1199,0 -34.6898,16.2629 -34.6898,36.1616 0,19.9853 15.5744,36.2481 34.6898,36.2481z"/>
   <path class="fil2" d="M130.7236 101.6704c0,19.9853 -15.5699,36.2481 -34.7804,36.2481 -19.1154,0 -34.6898,-16.2628 -34.6898,-36.2481 0,-19.8988 15.5699,-36.1616 34.6898,-36.1616 19.2105,0 34.7804,16.2629 34.7804,36.1616z"/>
   <path class="fil1" d="M107.7108 69.0554l-23.3584 0c-0.7792,0.3414 -1.5583,0.6013 -2.2512,1.0345l27.8572 0c-0.7753,-0.4285 -1.5544,-0.6885 -2.2477,-1.0345zm5.1919 2.5926l0 0 -33.8281 0c-0.4331,0.3468 -0.9487,0.6068 -1.5582,1.0391l36.9446 0c-0.433,-0.4323 -0.9524,-0.6923 -1.5583,-1.0391zm3.8094 2.5936l0 0 -41.274 0c-0.3941,0.3251 -0.7681,0.6721 -1.1215,1.039l43.5168 0c-0.3948,-0.3224 -0.7701,-0.6677 -1.1251,-1.0346l0.0037 -0.0044zm2.7629 2.6852l0 0 -46.8859 0c-0.3469,0.3459 -0.6931,0.6059 -0.9486,0.9476l48.783 0 -0.9486 -0.9476zm2.2513 2.5937l0 0 -51.4753 0c-0.2599,0.3459 -0.433,0.606 -0.7791,0.9557l53.0334 0c-0.2048,-0.3578 -0.4683,-0.6804 -0.7789,-0.9522l0 -0.0035zm1.9051 2.5971l0 0 -55.2856 0c-0.173,0.2601 -0.433,0.693 -0.6059,0.9486l56.5798 0c-0.1683,-0.2556 -0.4283,-0.6885 -0.6883,-0.9486zm1.6414 2.5982l0 0 -58.4816 0c-0.107,0.3234 -0.2845,0.6186 -0.52,0.8649l59.43 0c-0.173,-0.2635 -0.26,-0.6094 -0.4331,-0.8649l0.0047 0zm1.2119 2.5936l0 0 -60.9927 0c-0.0859,0.259 -0.1729,0.606 -0.3459,0.9474l61.7673 0c-0.0898,-0.3369 -0.2347,-0.6575 -0.4286,-0.9474zm1.0392 2.5925l0 0 -62.9839 0c-0.087,0.26 -0.26,0.6069 -0.347,0.9532l63.677 0c-0.0869,-0.3462 -0.26,-0.6932 -0.346,-0.9486l0 -0.0046zm0.7746 2.5111l0 0 -64.5341 0c-0.087,0.4332 -0.26,0.6932 -0.26,1.0392l65.0583 0c-0.0823,-0.346 -0.1692,-0.606 -0.2553,-1.0392l-0.009 0zm0.6069 2.6807l0 0 -65.7516 0c-0.0823,0.346 -0.0823,0.606 -0.1729,1.0389l66.0976 0c-0.0827,-0.4329 -0.0827,-0.6929 -0.173,-1.0389zm0.4366 2.5972l0 0 -66.5342 0c0,0.3425 -0.0823,0.6895 -0.0823,1.0355l66.6164 0 0 -1.0355zm0.0823 2.5937l0 0 -66.7856 0c-0.0862,0.3469 -0.0862,0.693 -0.0862,1.039l66.9626 0c-0.0908,-0.346 -0.0908,-0.6921 -0.0908,-1.039zm0 2.6805l0 0 -66.8764 0c0.0869,0.26 0.0869,0.6106 0.0869,0.9522l66.7895 0 0 -0.9522zm-0.0823 2.5984l0 0 -66.5342 0c0,0.259 0.0907,0.692 0.0907,0.9474l66.2659 0c0.0823,-0.2554 0.0823,-0.6884 0.1729,-0.9474l0.0047 0zm-0.4366 2.5971l0 0 -65.7516 0c0.0871,0.3423 0.0871,0.6884 0.174,0.9486l65.408 0c0,-0.2602 0.0827,-0.6062 0.1696,-0.9486zm-0.6069 2.6805l0 0 -64.6211 0c0.087,0.2591 0.26,0.6062 0.3469,0.9477l64.1093 0c0,-0.3414 0.0822,-0.6886 0.1738,-0.9477l-0.009 0zm-0.7746 2.5067l0 0 -62.9839 0c0.0862,0.3459 0.26,0.693 0.26,1.0389l62.4639 0 0.2601 -1.0389zm-0.9532 2.5981l0 0 -61.0788 0c0.173,0.4321 0.3469,0.6921 0.5203,1.0392l60.1255 0c0.087,-0.3471 0.26,-0.6071 0.433,-1.0392zm-1.298 2.6798l0 0 -58.5685 0c0.2561,0.346 0.433,0.6059 0.6059,0.9521l57.4426 0c0.1773,-0.3461 0.3459,-0.606 0.52,-0.9477l0 -0.0044zm-1.5546 2.5981l0 0 -55.3724 0c0.2599,0.346 0.3459,0.6921 0.6059,1.0389l54.0734 0c0.26,-0.3468 0.5193,-0.6929 0.6931,-1.0389zm-1.905 2.5935l0 0 -51.653 0c0.3459,0.3462 0.5193,0.6922 0.8652,0.9522l50.091 0c0.1731,-0.26 0.5191,-0.6059 0.692,-0.9485l0.0048 -0.0037zm-2.2479 2.6844l0 0 -47.1539 0c0.4329,0.259 0.6923,0.606 1.0392,0.8651l45.1628 0c0.3461,-0.2638 0.6017,-0.6061 0.9486,-0.8651l0.0034 0zm-2.8533 2.5935l0 0 -41.3562 0c0.3458,0.2591 0.7788,0.6923 1.2119,0.9476l38.9286 0c0.4329,-0.2553 0.8659,-0.6885 1.212,-0.9476l0.0037 0zm-3.6365 2.5937l0 0 -34.1742 0c0.6061,0.3459 1.126,0.692 1.7319,0.952l30.8009 0c0.6024,-0.26 1.1215,-0.6022 1.6413,-0.9485l0 -0.0035zm-5.1918 2.5971l0 0 -23.7907 0c0.9475,0.346 1.9041,0.693 2.8526,0.9486l18.168 0c0.9404,-0.2637 1.8652,-0.5807 2.7701,-0.9486z"/>
   <path class="fil1" d="M126.7441 21.3811c0,0 -27.4235,10.3861 -30.9701,11.7678l-10.4732 -24.571 -1.8968 6.3171c0,0 -7.2691,23.8778 -7.875,25.9558 -2.0782,0.7754 -29.1567,11.0722 -29.1567,11.0722 0,0 19.4625,10.3824 22.2335,11.8537 -0.8658,3.2867 -13.063,46.5443 -13.063,46.5443l4.1526 2.1651c0,0 25.177,-41.0972 27.2553,-43.4307 2.6796,1.1215 26.7312,10.811 26.7312,10.811 0,0 -9.4305,-25.8653 -10.2955,-28.0304 1.4676,-1.9007 23.3579,-30.4512 23.3579,-30.4512l0 -0.0037z"/>
   <path class="fil2" d="M85.9937 51.1428l-8.5644 -8.5634 8.3088 -26.9915 0.2556 35.5549zm-33.9109 1.0392l0 0 19.3801 10.3 14.5308 -11.3392 -33.9109 1.0392zm33.9109 -1.0392l0 0 -28.1129 59.6981 28.2859 -44.8122 -0.173 -14.8859zm23.6224 24.3117l0 0 -8.915 -24.1341 -14.7074 -0.1776 23.6224 24.3117zm-23.6224 -24.3117l0 0 33.6543 -24.5662 -25.1723 9.5165 -8.482 15.0497z"/>
   <path class="fil0" d="M190.5941 91.461l-0.0862 0 0 -0.173 -0.087 0 0 -0.087 -2.4242 -2.3381c0,-0.0827 -0.1728,-0.173 -0.2599,-0.173 0,0 -3.1996,-0.1686 -5.2778,-0.3416 1.9031,-1.4865 3.3688,-3.4605 4.2432,-5.7107 0.6621,-1.8028 1.0117,-3.7044 1.0345,-5.6248 0,-1.6406 -0.2602,-3.1997 -0.8662,-4.6717 0.087,-0.1729 2.0781,-13.6684 2.0781,-13.6684l0 -0.087c0,-0.087 0,-0.173 -0.086,-0.26l-0.6931 -0.7789c-0.5119,-0.6125 -1.0924,-1.1634 -1.732,-1.6417l-0.6921 -0.7824c-1.8147,-2.0747 -3.8066,-3.1997 -6.6594,-3.72 -2.6645,-0.413 -5.3875,-0.2054 -7.9585,0.6063 -0.3206,-0.7095 -0.7273,-1.3772 -1.212,-1.9878 0,0 -1.905,-2.4242 -3.8055,-3.6361 -1.3861,-0.8662 -3.2043,-0.9485 -4.9318,-0.173 -1.5584,0.7827 -2.6808,2.0781 -3.2042,3.7188 -0.1767,0.6486 -0.2645,1.3188 -0.2593,1.9921 0,0.2591 0,0.519 0.0863,0.692 -0.7791,-0.0861 -1.5547,-0.173 -2.3337,-0.0861l-0.26 0c0.9487,-4.4126 1.8146,-9.1704 1.8146,-9.1704l0 -0.26 -0.0823 -0.087 -0.0871 0 -2.3371 -2.5102 -0.4332 0 -14.8859 2.5972c-0.1538,0.068 -0.2781,0.1921 -0.3458,0.346l-0.4286 1.3862 0 0.2553c-0.7836,3.9834 -1.5592,8.049 -2.6808,11.6816 -1.4756,-0.6059 -3.9831,-0.9485 -8.0489,0.5193 -1.9042,0.606 -3.9787,1.9049 -5.884,3.5465 -0.1729,0.0863 -2.3381,0.4332 -3.7187,0.8653 -1.3858,0.3469 -9.6081,3.6326 -9.6081,3.6326 -3.3725,1.2992 -7.5242,3.2911 -9.3388,4.3303l-4.6718 2.5067 -10.5554 5.4506 -16.2666 7.9584c-0.0823,0.0824 -0.1729,0.173 -0.1729,0.346l-0.174 1.2945c0,0 -0.346,1.9922 -0.5154,3.1172 -1.2981,-1.6449 -3.2902,-2.5065 -5.7969,-2.5972 -0.433,0 -0.7791,0 -1.299,0.0907 1.2119,-5.1954 3.2041,-14.4482 3.2041,-14.4482l0 -0.173c0,-0.087 0,-0.0907 -0.0907,-0.0907l0 -0.0824 -0.0825 -0.0907 -2.4251 -2.4205c0,0 -0.0861,0 -0.0861,-0.087l-0.3423 0 -4.5033 2.2475c-3.6751,1.754 -7.4294,3.3419 -11.2479,4.7588l-1.1258 0.5191c-0.0827,0 -8.3915,3.3771 -10.5558,4.1517l-0.0824 0.087c-7.616,3.0312 -14.4526,7.789 -19.4705,13.7553 -6.3043,7.2734 -10.1145,16.2663 -11.3267,26.5629 -1.1262,9.6034 0.3461,17.3878 4.2386,23.1857 1.0392,1.6451 2.4209,3.1127 3.8057,4.3249 2.7714,3.2868 6.4039,5.5379 10.1227,6.2264l0.26 0.0904c6.6629,1.2086 11.1616,1.4722 26.649,-5.5377 4.419,-2.0293 8.8025,-4.1356 13.1491,-6.3168 7.0922,-3.5458 13.2364,-6.6594 27.6844,-12.1103 16.8725,-6.4898 32.8753,-9.5165 48.8818,-8.9965 10.3825,0.2591 20.5052,2.9397 20.6745,2.9397l1.7322 0.4329c0.173,0.0827 0.433,0 0.433,-0.087l0.9475 -1.6451c12.8078,-21.7997 23.9693,-29.152 24.1426,-29.2424l6.053 -3.979 0.1731 0 0 -0.087c0,-0.0823 0.0869,-0.0823 0.0869,-0.0823l0 -0.1777 0.0038 0.0047z"/>
   <path class="fil2" d="M45.0738 80.1265c0,0 6.2264,-2.3345 11.5044,-4.9319l-4.7542 22.4058c0,0 3.9787,-7.2655 9.0835,-7.0916 5.8838,0.2593 5.1909,5.7109 3.8926,12.3693 -0.6929,3.3773 -2.6806,17.5657 -2.6806,17.5657 0,0 -8.135,5.0186 -10.5555,6.4037 0,0 2.3335,-15.3142 3.2857,-21.8913 0.693,-4.3247 -1.2982,-5.1039 -2.8527,-3.1127 -0.8661,1.0391 -1.6452,2.8536 -2.8581,10.1227 -0.9477,5.6248 -2.6798,17.994 -2.6798,17.994 0,0 -8.6506,4.9316 -11.4216,3.2867 0,0 5.7977,-36.941 10.0362,-53.1204zm25.0042 7.3512l0 0 0 0.0046c0,0 -2.1652,14.9675 -3.0314,19.6346 -1.2989,7.5297 2.4252,10.2095 7.1831,7.5297 4.4118,-2.5111 6.3992,-7.0098 6.3992,-7.0098l-0.4286 2.5981 9.2566 -5.1048c1.9878,-13.6738 6.3133,-30.5378 6.3133,-30.5378l-10.2965 5.3602c0,0 -2.3336,11.2486 -3.6327,19.0339 -0.6014,2.8572 -0.8651,3.9787 -1.6406,5.0179 -2.0781,3.0301 -3.9832,2.5111 -3.377,-1.9005 0.433,-2.3381 1.5589,-9.6907 3.4632,-19.6401l-10.2085 5.0141zm65.4033 -27.8527l0 0c0,0 -1.8135,-1.3853 -6.8323,0.2553 -5.0176,1.7322 -12.1136,9.1751 -14.621,20.2462 -2.5113,10.9885 1.2951,16.1794 8.3912,13.062 4.3293,-1.5545 6.923,-5.1872 6.923,-5.1872l2.2475 -9.5201c0,0 -2.7675,5.8839 -6.4863,6.7499 -3.4631,0.8651 -3.5457,-4.9317 -1.9912,-9.8635 1.2982,-3.9787 4.1518,-8.4774 7.1821,-9.5165 1.2573,-0.3541 2.6063,0.0508 3.4596,1.0391l1.7275 -7.2652zm5.6248 -14.0154l0 0 9.7766 -1.7322 -4.4126 18.514c1.299,-3.0267 5.361,-6.7454 9.2574,-7.0923 3.8963,-0.346 5.3638,3.3736 4.2386,8.6515 -1.0389,5.3602 -4.0611,21.9773 -4.0611,21.9773 -2.2557,0.0823 -9.6079,0.9483 -9.6079,0.9483 0,0 2.4206,-12.8031 3.8055,-19.7224 0.6931,-3.4632 -1.2119,-3.8962 -2.8527,-2.5147 -0.7798,0.606 -1.386,1.7313 -1.9918,4.4118 -0.7793,3.3772 -3.546,18.4315 -3.546,18.4315 -2.2512,0.5191 -10.3826,2.3372 -10.3826,2.3372 0,0 2.7667,-14.7072 5.1049,-24.5744 2.1641,-8.9105 4.6715,-19.6355 4.6715,-19.6355zm21.2843 3.1128l0 0c-3.1173,1.5589 -1.7312,5.4518 -0.6922,7.3523 1.0346,1.9051 0,4.5023 0,4.5023 3.8057,-1.4722 5.1002,-5.1909 5.0179,-7.269 0,-1.9875 -1.3852,-5.8838 -4.3257,-4.5856zm20.3286 14.0977l0 0 0.8659 -5.8795c-1.2128,-1.385 -2.6805,-2.3381 -4.9316,-2.7664 -6.0532,-0.9532 -11.9372,2.1642 -13.4915,7.5244 -2.9444,10.2963 10.032,12.3702 8.0408,16.6088 -1.1261,2.5981 -5.1918,1.7321 -6.7464,0.8662 -1.9052,-0.9523 -3.6364,-2.1607 -5.4508,-6.4864l-1.5591 8.5608c1.386,3.2031 5.6247,5.0222 8.5644,5.1952 4.2387,0.2591 11.2487,-0.953 13.6691,-7.2696 4.2388,-11.4217 -8.2139,-15.3969 -7.2652,-18.5142 0.5189,-1.3851 2.9396,-2.5935 5.5378,-1.3851 1.3806,0.693 2.2468,2.0782 2.7666,3.5458zm-83.1394 9.9542l0 0c0,0 5.534,-3.1128 9.9457,-4.845l-1.2084 4.4119c0,0 3.2867,-7.4386 10.2965,-7.875l-4.9317 10.5554c0,0 -6.4037,0.3506 -7.7891,7.789 -1.2944,6.1438 -3.1996,15.9158 -3.1996,15.9158l-9.6069 4.6718c0.0036,0 2.9431,-16.955 6.4936,-30.624z"/>
   <path class="fil2" d="M42.0474 81.5116l-3.4643 15.3142c0,0 -0.9486,-4.5858 -4.4941,-4.1529 -7.1829,0.9486 -16.1793,11.5043 -15.8335,28.2861 0.26,15.5743 11.9371,22.1512 28.5496,12.8938 16.5228,-9.2566 43.431,-27.1645 68.171,-35.1265 24.9181,-7.7844 44.1241,-9.0836 65.4083,-7.6114 0,0 -11.6808,7.3514 -25.0038,30.1039 0,0 -10.3828,-2.7629 -21.4572,-3.0264 -10.8982,-0.3462 -27.6846,0.693 -49.8303,9.1705 -22.2371,8.4773 -25.3508,11.4216 -41.0111,18.5139 -15.6606,7.1828 -19.5531,6.3168 -25.2594,5.2777 -5.6239,-1.0354 -14.885,-7.9583 -13.4129,-28.2858 1.4711,-20.2462 16.1794,-32.88 28.9862,-38.0709 2.6805,-0.8659 6.4865,-2.4204 8.6515,-3.2864z"/>
   <path class="fil0" d="M79.1614 125.5483c-0.6324,0.7512 -1.4322,1.3444 -2.3336,1.7322 -2.5111,1.2084 -3.2912,-0.606 -3.2042,-2.5112 0.173,-2.3381 1.6452,-4.7588 3.8057,-5.7977 0.8659,-0.3416 1.5591,-0.5191 2.1652,-0.4286l-0.173 2.4207c-0.548,-0.26 -1.1842,-0.26 -1.7322,0 -1.0754,0.5254 -1.7973,1.5745 -1.9052,2.7665 -0.0824,1.2122 0.52,1.6498 1.6452,1.2122 0.6929,-0.2601 1.2121,-0.693 1.9052,-1.4676l-0.1731 2.0735zm10.5556 -3.9787l0 0 0.3461 -3.1172 -2.5113 0.9521 -0.346 3.1996 -2.1605 0.8659 0.6929 -8.2172 2.2468 -0.9486 -0.3462 2.936 2.5974 -1.0355 0.26 -3.0267 2.4206 -1.125 -0.779 8.5635 -2.4206 0.953zm8.5643 -2.8572l0 0 0.692 -9.3435 2.6807 -0.9486 -0.7755 9.3389 -2.5971 0.9532zm14.8804 -4.7588l0 0c-0.6669,0.7537 -1.5393,1.2954 -2.5102,1.5591 -2.6807,0.606 -3.3735,-2.1651 -3.0267,-4.5858 0.346,-3.1125 1.9913,-5.7969 4.4119,-6.3991 0.692,-0.1723 1.4221,-0.1134 2.0779,0.1692l-0.2599 3.1175c-0.6061,-0.5237 -1.125,-0.6933 -1.8147,-0.5237 -1.125,0.3459 -1.9912,1.4719 -2.1641,3.0301 -0.173,1.6452 0.433,2.4207 1.6452,2.2512 0.6059,-0.173 1.2085,-0.519 1.9874,-1.4721l-0.3468 2.8537zm10.9896 -0.346l0 0 -1.7322 -5.3602 0 0.0824 -0.8659 5.6239 -2.4208 0.3459 1.8146 -11.7629 2.4244 -0.52 -0.8662 5.3601 3.7196 -6.0533 2.8574 -0.6921 -3.9834 6.4028 2.2522 6.2264 -3.1996 0.3469zm12.4561 -6.0578l0 0 -0.4329 2.5981 3.1172 -0.087 -0.5238 2.9441 -5.6201 0.173 2.2475 -13.4998 5.7969 -0.865 -0.5192 3.1172 -3.1136 0.3462 -0.5192 2.3334 2.9399 -0.1729 -0.5193 2.9441 -2.8536 0.1685zm8.5642 5.7978l0 0 2.8574 -14.8813 2.0735 0 1.9922 8.3089 1.5546 -8.222 2.7701 0 -3.5457 15.9202 -2.0781 -0.3468 -1.905 -8.04 -1.4674 7.6069 -2.2516 -0.3459z"/>
   <path class="fil2" d="M79.5076 143.8024c-0.5192,-0.6921 -0.8661,-1.1251 -1.3854,-1.2989 -0.4329,-0.1731 -0.6929,-0.1731 -0.8659,0.087 -0.4285,0.8659 2.1652,1.8181 1.212,3.8055 -0.5192,1.212 -1.645,1.386 -2.7712,0.866 -0.7745,-0.3459 -1.1215,-0.9485 -1.4674,-1.4719l0.6058 -1.2085c0.4297,0.9484 0.6886,1.299 1.3817,1.6459 0.4331,0.1685 0.6931,0.0826 0.866,-0.26 0.4332,-0.866 -2.1606,-1.8183 -1.2084,-3.8927 0.5156,-0.952 1.5546,-1.2121 2.7667,-0.6929 0.52,0.26 0.9484,0.6069 1.386,1.2085l-0.5199 1.2119zm4.9318 0l0 0 -1.9922 6.0577 -1.2946 -0.4329 1.9875 -6.0578 1.2993 0.433zm8.3903 1.6451l0 0 -0.865 6.3133 -1.2131 -0.1695 -2.4196 -4.5022 -0.6063 4.0656 -1.3858 -0.2554 1.039 -6.2307 1.2121 0.173 2.3381 4.2386 0.5156 -3.8057 1.385 0.173zm8.3044 5.6202l0 0c-0.7792,0.5236 -1.2944,0.7835 -2.1607,0.7835 -2.0781,0.1696 -3.1125,-1.4756 -3.1994,-3.0301 -0.0863,-1.7321 0.8659,-3.3736 3.0264,-3.5467 0.7793,0 1.3863,0.173 1.9922,0.433l0 1.4674c-0.6059,-0.3412 -1.2128,-0.6014 -1.9052,-0.5189 -1.0652,0.048 -1.9042,0.9258 -1.9048,1.9911 0.086,1.126 0.952,1.9875 2.0779,1.9015 0.7792,-0.0824 1.2084,-0.4294 1.9877,-0.866l0.086 1.3851zm6.8368 -4.7542l0 0 0.346 1.2084 -2.4243 0.5193 0.26 1.4719 2.6799 -0.6059 0.2645 1.126 -3.8925 0.9485 -1.5593 -6.1439 3.8927 -1.0354 0.26 1.2121 -2.5074 0.606 0.2563 1.2955 2.4242 -0.6025zm8.0445 -6.1439l0 0 3.1172 5.5378 -1.125 0.606 -3.1137 -5.5378 1.1215 -0.606zm6.4038 -1.9051l0 0c0.346,0.4329 0.4329,0.9532 0.0826,1.1262 -0.1649,0.173 -0.3425,0.173 -0.5156,0.0823l0 1.2166c0.433,0.0826 0.9485,-0.0905 1.212,-0.52l0.4286 2.6807 1.1261 -0.7791 -0.3462 -2.0745c-0.125,-0.8705 -0.4492,-1.7003 -0.9482,-2.4242 -0.3644,-0.48 -0.8853,-0.8154 -1.4723,-0.9486l0 1.2076 0.433 0.433zm-0.433 1.2131l0 0 0 1.2119c-0.5807,-0.0986 -1.1044,-0.4068 -1.4721,-0.866 -0.6931,-1.0389 -0.6931,-2.2512 0.0869,-2.944 0.4132,-0.2566 0.9078,-0.3479 1.3853,-0.2557l0 1.2122c-0.2599,-0.0907 -0.4329,-0.0907 -0.606,0.0824 -0.26,0.173 -0.26,0.6929 0.0862,1.1262 0.1739,0.173 0.3469,0.3504 0.5199,0.433zm5.3648 -6.7501l0 0 -1.2991 1.2122 0.8662 0.866c0.779,-1.039 1.9875,-0.7799 2.7664,0 0.9523,0.7791 0.9523,1.9007 0.0862,2.7666 -0.3462,0.346 -0.8651,0.6921 -1.1217,0.6921l-0.8658 -0.779c0.4328,-0.0826 0.8658,-0.26 1.0389,-0.519 0.4294,-0.3426 0.4294,-0.8662 0,-1.2955 -0.5191,-0.4323 -1.2981,-0.173 -1.8181,0.693l-2.6797 -2.5111 1.9875 -2.0737 1.0391 0.9485zm8.3044 -2.5074l0 0 -1.0355 -0.7791 -1.039 1.4677c-0.6059,-1.6407 -1.2121,-2.6798 -1.8182,-3.1128 -0.9486,-0.6885 -1.9005,-0.5202 -2.5074,0.26 -0.3462,0.5191 -0.4331,0.952 -0.4331,1.7313l1.1262 0.693c-0.1731,-0.6061 -0.0862,-1.2122 0.087,-1.4723 0.259,-0.4329 0.7788,-0.4329 1.2074,-0.087 0.3469,0.2601 0.6931,0.6933 1.039,1.5593 0.4395,0.8369 0.8154,1.7047 1.1262,2.5971l0.086 0.0835 2.1615 -2.9406z"/>
   <path class="fil0" d="M169.3097 126.5015l-1.212 0 0 -4.9318 -1.8145 0 0 -1.039 4.8446 0 0 1.039 -1.8144 0 -0.0037 4.9318zm6.4899 -5.9708l0 0 1.7322 0 0 5.9708 -1.1262 0 0 -5.0189 -1.1251 5.0189 -1.213 0 -1.0346 -5.0189 0 5.0189 -1.2119 0 0 -5.9708 1.8136 0 1.126 4.6716 1.0391 -4.6716z"/>
  </g>
 </g>
</svg>
