<?xml version="1.0" encoding="UTF-8" standalone="no"?>
<!-- Created with Inkscape (http://www.inkscape.org/) -->

<svg
   version="1.1"
   id="svg1"
   width="596.23999"
   height="1056"
   viewBox="0 0 596.23999 1056"
   sodipodi:docname="BofA_Chicago_Marathon_v_rgb.eps"
   xmlns:inkscape="http://www.inkscape.org/namespaces/inkscape"
   xmlns:sodipodi="http://sodipodi.sourceforge.net/DTD/sodipodi-0.dtd"
   xmlns="http://www.w3.org/2000/svg"
   xmlns:svg="http://www.w3.org/2000/svg">
  <defs
     id="defs1" />
  <sodipodi:namedview
     id="namedview1"
     pagecolor="#ffffff"
     bordercolor="#000000"
     borderopacity="0.25"
     inkscape:showpageshadow="2"
     inkscape:pageopacity="0.0"
     inkscape:pagecheckerboard="0"
     inkscape:deskcolor="#d1d1d1">
    <inkscape:page
       x="0"
       y="0"
       inkscape:label="1"
       id="page1"
       width="596.23999"
       height="1056"
       margin="0"
       bleed="0" />
  </sodipodi:namedview>
  <g
     id="g1"
     inkscape:groupmode="layer"
     inkscape:label="1">
    <g
       id="group-R5">
      <path
         id="path2"
         d="m 2405.78,6748.74 c 8.21,0 19.29,-1.48 19.29,8.75 0,7.27 -6.45,8.05 -13.93,8.05 h -14.67 v -16.8 z m 26.8,-32.73 h -9.63 l -16.51,25.89 h -9.97 v -25.89 h -8.29 v 55.98 h 24.72 c 5.05,0 9.63,-0.32 14,-2.79 4.27,-2.26 6.35,-7.26 6.35,-11.88 0,-11.04 -7.86,-15.06 -18.16,-15.42 z m -67.19,28.4 c 0,-22.9 18.59,-40.57 41.8,-40.57 22.89,0 41.16,17.67 41.16,40.57 0,21.87 -18.27,39.75 -41.16,39.75 -23.21,0 -41.8,-17.88 -41.8,-39.75 m -9.74,0 c 0,27.16 22.97,49.55 51.54,49.55 28.25,0 51.14,-22.39 51.14,-49.55 0,-28.08 -22.89,-50.37 -51.14,-50.37 -28.57,0 -51.54,22.29 -51.54,50.37"
         style="fill:#e31837;fill-opacity:1;fill-rule:evenodd;stroke:none"
         transform="matrix(0.13333333,0,0,-0.13333333,0,1056)" />
      <path
         id="path3"
         d="m 4419.29,4925.6 c 8.22,0 19.3,-1.48 19.3,8.75 0,7.27 -6.46,8.05 -13.94,8.05 h -14.67 v -16.8 z m 26.81,-32.73 h -9.63 l -16.51,25.89 h -9.98 v -25.89 h -8.29 v 55.98 h 24.72 c 5.05,0 9.64,-0.32 14.01,-2.79 4.27,-2.26 6.35,-7.26 6.35,-11.89 0,-11.03 -7.87,-15.05 -18.17,-15.41 z m -67.2,28.4 c 0,-22.9 18.59,-40.57 41.8,-40.57 22.89,0 41.16,17.67 41.16,40.57 0,21.87 -18.27,39.75 -41.16,39.75 -23.21,0 -41.8,-17.88 -41.8,-39.75 m -9.73,0 c 0,27.16 22.96,49.55 51.53,49.55 28.26,0 51.15,-22.39 51.15,-49.55 0,-28.08 -22.89,-50.37 -51.15,-50.37 -28.57,0 -51.53,22.29 -51.53,50.37"
         style="fill:#012169;fill-opacity:1;fill-rule:evenodd;stroke:none"
         transform="matrix(0.13333333,0,0,-0.13333333,0,1056)" />
      <path
         id="path4"
         d="m 1557.1,7695.95 c -199.93,-91.98 -408.23,-218.52 -522.17,-290.7 40.44,-18.16 81.35,-34.01 137.78,-61.73 251.57,170.45 448.89,273.71 527.96,308.34 -56.02,18.78 -109.72,33.91 -143.57,44.09 z m 442.89,-169.58 c -53.18,24.7 -110.07,49.37 -155.75,69.7 -134.83,-66.42 -309.61,-167.72 -531.27,-325.3 48.33,-25.42 99.25,-55.84 153.92,-86.65 170.5,126.31 342.64,246.01 533.1,342.25 z M 3975.44,2039.1 c 102.62,210.37 218.99,401.9 352.45,482.83 V 1182.34 L 2163.95,0 159.777,1095.04 c 104.805,80.77 243.77,73.45 456.961,27.93 C 1368.62,958.359 2065.45,780.441 2550.83,677.629 c 46.64,-9.43 89.88,-15.57 129.73,-20.301 551.66,-65.515 736.21,191.262 997.85,731.622 l 17.36,34.21 c 92.19,183.8 183.65,420.5 279.67,615.94"
         style="fill:#012169;fill-opacity:1;fill-rule:nonzero;stroke:none"
         transform="matrix(0.13333333,0,0,-0.13333333,0,1056)" />
      <path
         id="path5"
         d="m 3988.08,2312.73 c -28.07,-45.83 -54.98,-94.15 -80.89,-143.87 l -216.7,242.72 265.48,297.33 z M 3491.87,1287.71 c -0.11,-0.02 -0.22,-0.04 -0.33,-0.06 -66.38,-12.76 -137.73,-19.95 -216.87,-19.95 -409.45,-0.04 -998.06,171.17 -1857.71,526.26 C 843.285,2030.9 482.57,2061.44 257.059,2017.31 171.355,2000.54 105.078,1973.05 54.207,1941.92 34.1523,1929.65 16.418,1916.47 0,1902.92 v 162.27 c 74.8125,42.98 160.625,72.5 257.059,88.81 12.14,2.06 24.734,3.55 37.218,5.18 v 516.27 h 606.309 v 77.12 H 588.613 v 252.42 h 174.434 v 241.75 h 366.923 v -241.75 h 174.43 v -861.52 h 110.58 v 588.36 h 118.58 v 688.14 h 327.66 v 77.12 h -156.66 v 499.56 h 80.57 v 278.74 h 53.94 v -278.74 h 86.24 v 278.74 h 53.94 v -278.74 h 80.57 v -539.17 h 85.62 v -686.07 h -330.05 v -77.12 h 549.04 v -835.63 h 109.48 V 2885.2 l 327.75,-499.96 327.75,499.96 V 1656.67 h 108.18 l 21.72,272.02 379.48,425 231.03,-258.76 c -52.2,-106.33 -100.27,-216.44 -145.49,-320.4 -1.39,-3.21 -2.78,-6.4 -4.17,-9.59 -46.18,-106.21 -148.41,-321.86 -148.41,-321.86 -28.18,-55.52 -54.68,-107.03 -79.88,-155.37 z M 3080.95,2950.92 2801.66,2524.84 2522.38,2950.92 2801.66,3377 Z M 4327.89,1934.25 V 1697.2 c -8.67,-21.64 -25.23,-70.28 -33.61,-91.66 -38.63,-98.69 -73.68,-215.72 -127.58,-318.19 -0.9,-1.38 -113.05,-218.09 -293.93,-281.8 44.35,64.39 77.13,111.87 168.7,268.05 67.66,112.86 119.44,279.55 165.11,396.23 43.27,110.46 79.36,202.27 121.31,264.42 z m 0,377.62 v -110.6 c -95.33,-57.51 -187.26,-287.28 -276.35,-510.28 -50.42,-126.15 -102.54,-256.62 -162.59,-380.35 -55.14,-113.56 -106.45,-207.79 -154.76,-286.72 -113.8,-179.381 -227.11,-204.932 -308.52,-225.49 104.26,92.761 221.43,249.49 370.8,557.13 58.46,120.37 109.89,249.08 159.66,373.57 118.81,297.4 212.67,532.33 361.77,580.16 3.31,1.07 6.66,1.71 9.99,2.58 z m -919.41,-1176.6 c -28.94,-49.57 -57.72,-94.8 -87.11,-134.34 -427.1,2.33 -1020,152.11 -1867.31,458.83 C 594.426,1770.94 214.98,1711.4 48.0625,1606.63 29.3008,1594.85 13.5781,1582.48 0,1570.03 v 163.65 c 283.961,159.23 788.086,109.58 1499.62,-148.01 988.88,-357.98 1555.91,-465.26 1908.86,-450.4 z M 32.4336,1236.64 C 20.0078,1227.63 9.33984,1218.32 0,1208.95 v 165.48 C 267.113,1523.83 765.02,1475.85 1482.03,1231.3 2308.8,949.301 2847.73,867 3215.03,884.449 3112.25,797.66 2946.52,753.332 2800.13,768.832 2435.75,811 2079.47,902.379 1728.59,1010.27 1353.48,1128.34 974.039,1276.34 543.543,1317.77 367.418,1331.5 174.32,1334.3 32.4336,1236.64 Z m 3606.3564,1232.84 -307.54,344.43 307.54,344.43 307.54,-344.43 z m 51.7,746.76 206.51,231.28 40.56,-508 z m -300.38,336.4 h 134.31 v 270.8 h 63.45 v -270.8 h 101.84 v 270.8 h 63.45 v -270.8 h 134.31 l -248.68,-278.51 z m 196.98,-1141.06 -317.63,-355.73 52.15,653.06 z m -206.51,1035.94 -40.56,-508 247.07,276.72 z M 1628.23,7086.14 c 53.94,-32.79 112.82,-77.31 168.89,-114.22 372.77,288.92 740.38,512.99 1145.06,639.34 -56.24,28.37 -105.55,53.83 -167.95,84.36 -243.13,-61.79 -655.8,-227.41 -1146,-609.48 z m 839.62,639.17 c 45.24,14.65 99.37,29.37 145.02,42.18 -133.58,56.22 -300.2,115.17 -448.91,152.51 -23.25,-6.36 -94.63,-26.02 -145.41,-41.45 51.43,-12.55 220.56,-51.6 449.3,-153.24 z m -149.63,-51.42 c -64.2,36.59 -290.08,118.36 -444.87,154.38 -45.66,-17.59 -110.43,-42.38 -154.78,-61.03 55.39,-15.66 265.46,-71.13 444.19,-161.63 47.6,21.55 110.7,49.21 155.46,68.28 z m -344.85,-832.88 c 371.7,295.01 786.99,556.22 1142.23,673.41 74.35,-42.6 140.85,-81.83 183.72,-109.17 -275.45,-106.74 -777.82,-405.08 -1135.37,-711.21 -61.97,50.56 -127.28,101.05 -190.58,146.97"
         style="fill:#e31837;fill-opacity:1;fill-rule:nonzero;stroke:none"
         transform="matrix(0.13333333,0,0,-0.13333333,0,1056)" />
      <path
         id="path6"
         d="m 1964.8,4837.73 c -8.35,-50.12 -24.23,-123.64 -35.09,-167.09 l -20.05,-81.04 h 113.62 l -37.59,158.74 c -7.52,31.75 -10.86,60.99 -16.71,89.39 z m 76.86,-335.85 h -152.05 c -10.03,-42.61 -20.89,-84.38 -31.75,-126.16 h -120.3 c 52.63,191.32 104.43,382.65 156.23,573.97 h 152.05 c 50.13,-191.32 101.09,-382.65 150.39,-573.97 h -124.49 z m 2146.86,104.43 v 342.54 h 121.14 v -573.13 h -119.47 l -152.89,281.55 c -10.86,20.06 -22.56,43.45 -34.26,70.18 -1.67,0 -2.5,-0.83 -4.17,-0.83 v -350.9 h -119.48 v 573.13 h 121.15 l 86.05,-153.72 c 33.42,-59.32 76.86,-137.02 97.75,-188.82 z m -665.8,266.51 c -92.73,0 -104.43,-110.28 -104.43,-212.2 0,-137.02 21.72,-203.86 103.6,-203.86 81.04,0 102.76,81.04 102.76,204.69 0,107.78 -12.53,211.37 -101.93,211.37 z m 0,-505.45 c -179.62,0 -235.6,123.65 -235.6,294.08 0,154.56 57.65,299.1 235.6,299.1 180.46,0 232.26,-144.54 232.26,-297.43 0,-160.41 -61.82,-295.75 -232.26,-295.75 z m -1153.4,8.35 v 483.74 h -129.5 v 91.06 h 381.81 v -91.06 h -128.66 v -483.74 z m -949.33,328.34 c 39.27,0 86.06,12.53 86.06,79.37 0,57.65 -35.93,79.37 -86.89,79.37 h -32.58 v -158.74 z m 116.13,-71.01 118.64,-257.33 h -136.18 l -103.6,240.62 h -28.4 v -240.62 h -123.65 v 574.8 h 182.13 c 136.18,0 189.65,-79.37 189.65,-169.6 0,-48.45 -23.4,-115.29 -98.59,-147.87 z m -619.647,204.68 c -8.352,-50.12 -24.227,-123.64 -35.086,-167.09 l -20.051,-81.04 h 113.621 l -37.598,158.74 c -7.515,31.75 -10.859,60.99 -16.707,89.39 z m 76.863,-335.85 H 841.281 c -10.023,-42.61 -20.886,-84.38 -31.746,-126.16 H 689.23 c 52.633,191.33 104.43,382.65 156.231,573.97 h 152.055 c 50.124,-191.32 101.094,-382.64 150.384,-573.97 h -124.49 z m -695.547,67.67 h 5.012 l 129.496,379.3 H 577.668 V 4375.72 H 457.359 v 312.47 H 454.02 L 344.574,4375.72 h -91.066 l -106.938,310.8 h -4.179 v -310.8 H 24.5898 v 573.13 H 171.633 Z M 2638.99,5748.44 c -10.96,-65.72 -31.77,-162.08 -45.98,-219.05 l -26.29,-106.22 h 148.92 l -49.28,208.08 c -9.86,41.62 -14.21,79.95 -21.9,117.19 z m 100.76,-440.28 h -199.32 c -13.16,-55.84 -27.38,-110.61 -41.63,-165.36 h -157.69 c 69,250.8 136.88,501.59 204.8,752.39 h 199.32 c 65.7,-250.8 132.49,-501.59 197.11,-752.39 h -163.17 z m 1287.1,486.28 c -121.58,0 -136.92,-144.58 -136.92,-278.18 0,-179.61 28.5,-267.24 135.83,-267.24 106.21,0 134.71,106.25 134.71,268.33 0,141.27 -16.42,277.09 -133.62,277.09 z m 0,-662.59 c -235.48,0 -308.87,162.08 -308.87,385.5 0,202.61 75.57,392.07 308.87,392.07 236.56,0 304.44,-189.46 304.44,-389.87 0,-210.28 -81.04,-387.7 -304.44,-387.7 z m -678.94,125.95 c 19.73,0 44.93,2.17 69.01,10.95 v 190.55 h -86.52 v 106.24 h 233.26 v -365.79 c -74.48,-52.56 -160.99,-67.9 -223.4,-67.9 -244.25,0 -307.74,152.22 -308.86,385.5 0,163.17 52.57,390.98 331.85,390.98 62.44,0 135.8,-14.23 183.99,-50.38 l -44.89,-105.14 c -43.8,23.01 -88.73,29.57 -118.28,29.57 -134.71,0 -180.73,-102.94 -180.73,-273.79 0,-152.24 19.73,-250.79 144.57,-250.79 z m -1144.3,498.31 c -43.8,22.99 -81.04,27.38 -110.59,27.38 -116.11,0 -164.3,-98.58 -164.3,-269.42 0,-150.05 26.29,-248.6 154.44,-248.6 43.8,0 83.21,10.95 135.79,33.94 l 42.72,-107.33 c -58.06,-44.89 -150.05,-60.23 -211.37,-60.23 -214.66,0 -293.53,143.46 -293.53,383.31 0,163.19 58.06,394.26 315.44,394.26 62.44,0 128.14,-14.23 176.33,-50.37 z M 1414.75,5142.8 v 753.49 h 163.18 V 5142.8 Z m 1614.98,-767.08 v 257.32 h -163.75 v -257.32 h -126.16 v 574.8 h 126.16 v -229.75 h 163.75 v 229.75 h 126.17 v -574.8 z M 1042.91,5142.8 v 337.31 H 828.246 V 5142.8 H 662.863 v 753.49 h 165.383 v -301.18 h 214.664 v 301.18 H 1208.3 V 5142.8 Z m -592.668,613.31 c -43.804,22.99 -81.043,27.38 -110.594,27.38 -116.109,0 -164.296,-98.58 -164.296,-269.42 0,-150.05 26.289,-248.6 154.433,-248.6 43.801,0 83.215,10.95 135.793,33.94 l 42.719,-107.33 c -58.055,-44.89 -150.051,-60.23 -211.363,-60.23 -214.6645,0 -293.53166,143.46 -293.53166,383.31 0,163.19 58.05466,394.26 315.43366,394.26 62.437,0 128.144,-14.23 176.332,-50.37 z m 3723.238,603.44 32.48,-100.97 h -65.74 z m 33.65,65.35 h -67.7 L 4036.9,6150.97 h 68.09 l 18.4,56.74 h 99 l 18.4,-56.74 h 68.87 z m -243.8,-200.36 c -25.82,-17.6 -48.13,-23.87 -70.83,-23.87 -51.26,0 -86.48,34.83 -86.48,87.26 0,52.44 35.22,87.27 84.92,87.27 22.69,0 44.61,-6.26 69.26,-23.86 v 61.82 c -22.69,12.52 -48.52,17.61 -77.87,17.61 -90.79,0 -147.53,-62.61 -147.93,-142.84 0.4,-80.99 56.36,-142.83 148.32,-142.83 30.52,0 57.13,5.08 80.61,17.6 z m -394.85,-73.57 h 66.53 v 273.93 h -66.53 z m -221.88,223.45 c 27.39,0 41.87,-12.13 41.87,-34.83 0,-23.48 -14.48,-35.22 -41.87,-35.22 h -28.18 v 70.05 z m 49.7,-223.45 h 72.39 l -68.48,116.22 c 37.17,10.18 55.17,36.4 55.17,75.14 0,49.7 -29.74,82.57 -97.05,82.57 h -105.26 v -273.93 h 65.35 v 108.01 h 17.61 z m -441.03,0 h 187.05 v 52.44 h -120.53 v 61.04 h 95.09 v 50.87 h -95.09 v 57.15 h 110.36 l 11.73,52.43 h -188.61 z m -129.14,273.93 h -77.88 l -71.22,-147.92 -70.83,147.92 h -77.88 v -273.93 h 59.88 v 183.14 l 88.05,-183.14 88.04,183.14 v -183.14 h 61.84 z m -532.7,-65.35 32.48,-100.97 h -65.74 z m 33.66,65.35 h -67.71 l -102.53,-273.93 h 68.1 l 18.39,56.74 h 99.01 l 18.39,-56.74 h 68.87 z m -493.5,-273.93 h 66.52 v 108.01 h 86.49 v 52.43 h -86.49 v 61.06 h 104.88 l 11.74,52.43 h -183.14 z m -383.46,136.96 c 0.39,80.23 57.14,142.84 145.96,142.84 88.83,0 145.58,-62.61 145.97,-142.84 -0.39,-80.22 -57.14,-142.83 -145.97,-142.83 -88.82,0 -145.57,62.61 -145.96,142.83 z m 70.43,0 c 0,-54.78 32.88,-88.43 75.53,-88.43 42.66,0 75.53,33.65 75.53,88.43 0,54.79 -32.87,88.45 -75.53,88.45 -42.65,0 -75.53,-33.66 -75.53,-88.45 z m -313.76,-136.96 -90.01,139.32 v -139.32 h -66.52 v 273.93 h 66.52 v -131.87 l 85.71,131.87 h 74.35 l -89.61,-131.49 98.22,-142.44 z M 919.609,6424.9 H 857.777 V 6241.75 L 741.16,6424.9 h -69.656 v -273.93 h 61.828 v 182.75 l 116.617,-182.75 h 69.66 z m -478.203,-65.35 32.477,-100.97 h -65.742 z m 33.657,65.35 H 407.359 L 304.832,6150.97 h 68.094 l 18.387,56.74 h 99.011 l 18.391,-56.74 h 68.875 z m -353.809,-48.13 c 22.691,0 37.957,-9.78 37.957,-32.09 0,-22.31 -15.266,-32.1 -37.957,-32.1 H 89.9453 v 64.19 z m 7.43,-109.58 c 22.695,0 37.961,-10.95 37.961,-34.04 0,-24.26 -15.266,-34.05 -37.961,-34.05 H 89.9453 v 68.09 z M 24.5898,6150.97 H 144.336 c 60.66,0 89.227,31.3 89.227,75.52 0,35.62 -18.786,59.88 -57.918,67.71 34.437,8.6 50.089,29.35 50.089,60.26 0,39.13 -28.57,70.44 -89.218,70.44 H 24.5898 v -273.93"
         style="fill:#012169;fill-opacity:1;fill-rule:nonzero;stroke:none"
         transform="matrix(0.13333333,0,0,-0.13333333,0,1056)" />
    </g>
  </g>
</svg>
