<?xml version="1.0" encoding="UTF-8" standalone="no"?>
<svg
   xmlns:dc="http://purl.org/dc/elements/1.1/"
   xmlns:cc="http://creativecommons.org/ns#"
   xmlns:rdf="http://www.w3.org/1999/02/22-rdf-syntax-ns#"
   xmlns:svg="http://www.w3.org/2000/svg"
   xmlns="http://www.w3.org/2000/svg"
   xmlns:sodipodi="http://sodipodi.sourceforge.net/DTD/sodipodi-0.dtd"
   xmlns:inkscape="http://www.inkscape.org/namespaces/inkscape"
   sodipodi:docname="Bojangles_2020_2.svg"
   inkscape:version="1.0 (4035a4fb49, 2020-05-01)"
   id="svg4821"
   version="1.1"
   viewBox="0 0 81.280003 28.575"
   height="1.125in"
   width="3.2in">
  <defs
     id="defs4815" />
  <sodipodi:namedview
     width="8.5in"
     units="in"
     inkscape:document-rotation="0"
     fit-margin-bottom="0"
     fit-margin-right="0"
     fit-margin-left="0"
     fit-margin-top="0"
     inkscape:window-maximized="1"
     inkscape:window-y="-8"
     inkscape:window-x="-8"
     inkscape:window-height="705"
     inkscape:window-width="1366"
     inkscape:guide-bbox="true"
     showguides="true"
     showgrid="false"
     inkscape:current-layer="g4956"
     inkscape:document-units="mm"
     inkscape:cy="183.07195"
     inkscape:cx="529.4149"
     inkscape:zoom="1"
     inkscape:pageshadow="2"
     inkscape:pageopacity="0.0"
     borderopacity="1.0"
     bordercolor="#666666"
     pagecolor="#ffffff"
     id="base" />
  <metadata
     id="metadata4818">
    <rdf:RDF>
      <cc:Work
         rdf:about="">
        <dc:format>image/svg+xml</dc:format>
        <dc:type
           rdf:resource="http://purl.org/dc/dcmitype/StillImage" />
        <dc:title></dc:title>
      </cc:Work>
    </rdf:RDF>
  </metadata>
  <g
     transform="translate(127.92191,-242.03567)"
     id="layer1"
     inkscape:groupmode="layer"
     inkscape:label="Layer 1">
    <g
       style="stroke-width:2.54399"
       transform="matrix(0.39308297,0,0,0.39308297,-77.637983,201.48415)"
       id="g4956">
      <path
         style="fill:#d0191a;fill-opacity:1;stroke:none;stroke-width:0.201855px;stroke-linecap:butt;stroke-linejoin:miter;stroke-opacity:1"
         d="m -64.407484,113.21721 6.26181,-1.19225 1.90359,-6.84291 3.4465,6.02136 6.97315,-0.91172 -3.72287,5.58225 3.09311,7.32452 -7.46378,-3.55742 -6.33367,3.60508 1.14216,-6.39205 z"
         id="path4836"
         inkscape:connector-curvature="0"
         sodipodi:nodetypes="ccccccccccc" />
      <path
         style="fill:#d0191a;fill-opacity:1;stroke:none;stroke-width:0.201855px;stroke-linecap:butt;stroke-linejoin:miter;stroke-opacity:1"
         d="m -57.358544,126.41598 8.89804,-0.82179 c 1.55669,20.36908 3.96249,32.957 -1.01147,39.52548 -6.44687,8.51354 -17.37498,6.56454 -20.75025,4.56801 l 2.20539,-6.14929 c 4.92208,2.79222 11.28724,1.18917 13.50438,-3.81511 1.90632,-4.30274 0.61316,-17.7316 -2.84609,-33.3073 z"
         id="path4838"
         inkscape:connector-curvature="0"
         sodipodi:nodetypes="ccsccsc" />
      <path
         style="fill:#d0191a;fill-opacity:1;stroke:none;stroke-width:0.201855px;stroke-linecap:butt;stroke-linejoin:miter;stroke-opacity:1"
         d="m 28.112866,114.77161 9.00998,-0.48417 c -1.36815,15.53475 -2.80623,30.98208 -3.3473,47.55068 l -6.44683,-0.63759 z"
         id="path4840"
         inkscape:connector-curvature="0"
         sodipodi:nodetypes="ccccc" />
      <path
         style="fill:#d0191a;fill-opacity:1;stroke:none;stroke-width:0.201855px;stroke-linecap:butt;stroke-linejoin:miter;stroke-opacity:1"
         d="m -12.569724,127.61437 -8.09526,0.38077 c 0.54591,8.60555 0.76036,18.32264 0.40075,29.49564 h 7.03325 c 0.0164,-6.9665 0.19189,-14.05947 0.39378,-20.97421 2.7279,-1.42277 5.7855998,-2.17069 6.6008798,-0.72356 0.6157,1.09288 0.35572,3.65114 -0.21046,8.42164 -0.38021,3.20357 -0.85498,7.41565 -1.45859,12.81075 l 7.42067005,0.81717 c 1.33939,-16.97319 2.56987995,-21.64511 0.8587,-25.6105 -2.20772005,-5.11605 -11.22438985,-2.2924 -13.04924985,-1.13176 0.0354,-1.16178 0.0712,-2.34122 0.10553,-3.48594 z"
         id="path4848"
         inkscape:connector-curvature="0"
         sodipodi:nodetypes="cccccssccscc" />
      <path
         style="opacity:1;fill:#d0191a;fill-opacity:1;stroke:none;stroke-width:0.99179;stroke-linecap:round;stroke-linejoin:miter;stroke-miterlimit:7.5;stroke-dasharray:none;stroke-opacity:1"
         d="m -69.953484,125.55262 c -0.55269,0.004 -1.11386,0.0406 -1.6816,0.10957 -7.36374,0.8944 -10.71166,8.18962 -9.12475,18.44785 1.34992,8.72621 6.97552,15.22039 14.71861,14.0045 7.52574,-1.18176 9.68185,-7.54673 8.93615,-16.34519 -0.98748,-11.65121 -6.32674,-16.25934 -12.84841,-16.21673 z m 4.6488,15.25358 c 0.50472,4.05612 0.35497,8.96865 -2.35464,9.53464 -2.16905,0.45308 -4.61032,-3.10358 -5.37256,-7.93239 -0.7548,-4.78169 -0.39212,-8.82271 2.10144,-9.13109 2.44071,-0.30185 4.95692,2.15381 5.62576,7.52884 z"
         id="path4852"
         inkscape:connector-curvature="0"
         sodipodi:nodetypes="sssssssssss" />
      <path
         inkscape:connector-curvature="0"
         style="fill:#d0191a;fill-opacity:1;stroke:none;stroke-width:0.201855px;stroke-linecap:butt;stroke-linejoin:miter;stroke-opacity:1"
         d="m -99.151734,108.08621 c -7.101186,0.0463 -15.641506,3.61305 -26.040396,9.934 l 4.46041,9.65026 2.53952,-1.07659 17.44642,47.20785 c 8.009406,-2.34923 17.323766,-6.17492 20.740666,-13.26932 0.84819,-1.76108 1.42365,-3.71593 1.75133,-5.75984 -2.32778,-2.77265 -3.89224,-6.41045 -4.52378,-10.44743 -0.47096,-3.01052 -0.56738,-5.73708 -0.28747,-8.16268 -2.0948,-1.89673 -4.90809,-3.17102 -8.57925,-3.57737 10.07651,-9.5123 6.38316,-21.37953 -2.35061,-23.83545 -1.63003,-0.45836 -3.34674,-0.67525 -5.15684,-0.66343 z m -2.111496,11.89657 c 0.52291,-0.003 1.02437,0.0742 1.516866,0.24671 3.86523,1.35425 4.51578,10.92278 -4.610416,13.56547 l -3.61657,-11.542 c 2.83445,-1.29077 4.90549,-2.25996 6.71012,-2.27018 z m 5.360636,22.1475 c 4.64765,0.0478 7.55569,3.43081 8.24404,7.85025 0.95202,6.11238 -0.88867,10.55221 -7.5944,12.86778 l -6.099226,-19.46462 c 2.012616,-0.88342 3.836156,-1.27001 5.449586,-1.25341 z"
         id="path4861" />
      <path
         style="fill:#d0191a;fill-opacity:1;stroke:none;stroke-width:0.201855px;stroke-linecap:butt;stroke-linejoin:miter;stroke-opacity:1"
         d="m -32.349554,125.73952 c -2.86713,-0.0272 -6.09496,0.5497 -9.07469,1.32113 l 0.55511,6.34765 c 2.1106,-1.12333 8.29408,-2.92471 10.23837,-0.92301 0.49167,0.50619 0.46489,1.4231 0.40572,2.4828 -1.69016,0.48732 -3.15405,0.8506 -4.41686,1.23451 -4.33248,1.31714 -6.56705,2.18131 -7.65468,3.57427 -1.59435,2.04194 -1.91717,4.15372 -1.89484,6.87967 0.0683,8.33908 8.78657,9.72227 13.38818,6.26009 l 0.21262,2.83474 6.19965,-0.15776 c 0.20224,-5.22106 0.48489,-10.4035 0.6811,-14.95525 0.21896,-5.07949 0.84152,-8.83455 -1.16787,-11.88262 -1.43626,-2.17869 -4.2224,-2.98542 -7.47181,-3.01622 z m 1.94303,14.45578 -0.21293,6.6018 c -1.53792,1.77178 -4.40379,3.03941 -5.75162,2.32132 -0.87538,-0.46637 -1.46177,-1.6647 -1.52989,-2.98925 -0.0598,-1.16365 0.003,-2.09595 1.0518,-3.26324 0.60009,-0.66808 2.07372,-1.26952 3.53181,-1.76978 1.12021,-0.38434 2.21213,-0.71016 2.91083,-0.90085 z"
         id="path4882"
         inkscape:connector-curvature="0"
         sodipodi:nodetypes="sccscssscccsssccssssc" />
      <path
         style="fill:#d0191a;fill-opacity:1;stroke:none;stroke-width:0.201855px;stroke-linecap:butt;stroke-linejoin:miter;stroke-opacity:1"
         d="m 18.186306,126.74467 -0.18069,3.12191 c -2.11391,-0.77283 -4.22078,-1.28754 -6.11241,-1.28317 -1.50347,0.003 -2.8710502,0.3343 -3.9981102,1.12292 -2.71298,1.89831 -4.05047,6.2616 -4.40291,13.04879 -0.27437,5.28376 0.31929,9.75102 2.34472,12.83632 1.96799,2.99781 7.8245302,3.39192 11.1173802,0.73317 -0.0871,2.00423 -0.13535,9.17285 -10.5782302,6.81877 l -1.2765,5.68065 c 4.9435802,1.72587 13.0850502,0.73683 16.5985702,-5.27943 1.96338,-3.36192 1.75351,-10.9672 2.3565,-18.40988 0.49151,-6.06663 0.94535,-11.83124 1.38328,-17.1977 z m -3.84175,8.43031 c 1.13676,-0.0157 2.3857,0.26164 3.3274,0.62438 l -0.55154,14.47004 c -1.73134,2.09993 -3.98258,2.41635 -5.02527,1.27898 -1.33623,-1.45755 -1.65726,-4.89536 -1.58382,-7.82592 0.0803,-3.20248 0.0952,-6.43003 1.47223,-7.78114 0.548,-0.5377 1.41557,-0.7533 2.361,-0.76634 z"
         id="path4887"
         inkscape:connector-curvature="0"
         sodipodi:nodetypes="ccsssscccssccsccssss" />
      <path
         style="fill:#d0191a;fill-opacity:1;stroke:none;stroke-width:0.201855px;stroke-linecap:butt;stroke-linejoin:miter;stroke-opacity:1"
         d="m 48.734836,130.31243 c -0.3772,0.003 -0.77001,0.0225 -1.17903,0.0606 -9.10351,0.84838 -10.73805,8.92852 -10.36002,16.89798 0.70832,14.93278 12.59938,15.78852 20.60118,10.48617 l -2.21222,-5.01116 c -4.7124,2.6591 -11.28045,2.40651 -11.55812,-4.72029 0,0 -10e-4,-0.0336 -10e-4,-0.0341 4.71627,-0.5845 9.43254,-1.31682 14.14881,-2.16573 -0.53885,-8.4158 -1.76996,-15.56573 -9.43949,-15.51346 z m -1.0174,5.58426 c 1.76958,-0.009 3.00511,1.79414 3.31718,5.80571 l -7.17551,1.00809 c -0.0978,-4.03056 1.92486,-6.8039 3.85833,-6.8138 z"
         id="path4897"
         inkscape:connector-curvature="0"
         sodipodi:nodetypes="scscccccssccs" />
      <path
         style="fill:#d0191a;fill-opacity:1;stroke:none;stroke-width:0.201855px;stroke-linecap:butt;stroke-linejoin:miter;stroke-opacity:1"
         d="m 61.040356,148.72179 c -0.25991,2.14663 -0.55454,4.29806 -0.97194,6.4968 8.9634,3.5717 16.16743,-1.20992 16.12895,-7.67232 -0.0143,-2.40475 -0.85466,-4.95587 -3.2883,-7.60795 -3.16408,-3.44808 -7.09669,-4.77561 -7.09669,-7.04676 0,-1.45816 1.33085,-2.45571 3.214,-2.35999 1.42713,0.0726 3.17087,0.84923 5.1956,1.95435 l 1.62658,-6.56089 c -7.82145,-3.31052 -16.22498,-1.07729 -16.92452,6.70712 -0.17531,1.95087 0.28506,4.12136 2.19101,6.23098 2.62969,2.91069 7.0544,5.11181 7.06866,7.67588 0.0192,3.45141 -3.13327,4.15859 -7.14335,2.18278 z"
         id="path4907"
         inkscape:connector-curvature="0"
         sodipodi:nodetypes="ccssssccsssc" />
      <path
         inkscape:connector-curvature="0"
         style="color:#000000;font-style:normal;font-variant:normal;font-weight:normal;font-stretch:normal;font-size:medium;line-height:normal;font-family:sans-serif;font-variant-ligatures:normal;font-variant-position:normal;font-variant-caps:normal;font-variant-numeric:normal;font-variant-alternates:normal;font-feature-settings:normal;text-indent:0;text-align:start;text-decoration:none;text-decoration-line:none;text-decoration-style:solid;text-decoration-color:#000000;letter-spacing:normal;word-spacing:normal;text-transform:none;writing-mode:lr-tb;direction:ltr;text-orientation:mixed;dominant-baseline:auto;baseline-shift:baseline;text-anchor:start;white-space:normal;shape-padding:0;clip-rule:nonzero;display:inline;overflow:visible;visibility:visible;opacity:1;isolation:auto;mix-blend-mode:normal;color-interpolation:sRGB;color-interpolation-filters:linearRGB;solid-color:#000000;solid-opacity:1;vector-effect:none;fill:#d0191a;fill-opacity:1;fill-rule:nonzero;stroke:none;stroke-width:1.29696;stroke-linecap:round;stroke-linejoin:miter;stroke-miterlimit:7.5;stroke-dasharray:none;stroke-dashoffset:0;stroke-opacity:1;color-rendering:auto;image-rendering:auto;shape-rendering:auto;text-rendering:auto;enable-background:accumulate"
         d="m 74.444826,156.24666 c -1.22182,0 -2.2175,0.99584 -2.2175,2.21765 0,1.22182 0.99568,2.2175 2.2175,2.2175 1.22182,0 2.21764,-0.99568 2.21764,-2.2175 0,-1.22181 -0.99582,-2.21765 -2.21764,-2.21765 z m 0,0.5097 c 0.94629,0 1.70794,0.76166 1.70794,1.70795 0,0.94629 -0.76165,1.70795 -1.70794,1.70795 -0.94629,0 -1.70795,-0.76166 -1.70795,-1.70795 0,-0.94629 0.76166,-1.70795 1.70795,-1.70795 z m -0.71535,0.47965 c -0.0622,0 -0.1122,0.05 -0.1122,0.11219 v 2.26368 c 0,0.0622 0.05,0.1122 0.1122,0.1122 h 0.34372 c 0.0622,0 0.11221,-0.05 0.11221,-0.1122 v -0.7558 h 0.20223 l 0.41827,0.7809 c 0.0258,0.0482 0.0967,0.0871 0.15885,0.0871 h 0.41594 c 0.0622,0 0.0914,-0.0389 0.0656,-0.0871 l -0.47809,-0.89589 c 0.21397,-0.1455 0.33923,-0.41568 0.33923,-0.69505 0,-0.44875 -0.36128,-0.81003 -0.81004,-0.81003 h -0.42416 z m 0.45593,0.49854 h 0.25973 c 0.16832,0 0.30405,0.12826 0.30405,0.28747 0,0.15922 -0.13573,0.28732 -0.30405,0.28732 h -0.25973 z"
         id="path4920" />
    </g>
  </g>
</svg>
