<?xml version="1.0" encoding="utf-8"?>
<!-- Generator: Adobe Illustrator 19.2.1, SVG Export Plug-In . SVG Version: 6.00 Build 0)  -->
<svg version="1.1" id="layer" xmlns="http://www.w3.org/2000/svg" xmlns:xlink="http://www.w3.org/1999/xlink" x="0px" y="0px"
	 viewBox="0 0 652 652" style="enable-background:new 0 0 652 652;" xml:space="preserve">
<style type="text/css">
	.st0{fill:#3E3A39;}
	.st1{fill:#EE7526;}
	.st2{fill:#FFFFFF;}
	.st3{fill:#A19F9C;}
	.st4{fill:#EE7525;}
</style>
<path class="st0" d="M565.6,321.1c0,135-109.4,244.4-244.4,244.4c-135,0-244.5-109.4-244.5-244.4c0-135,109.4-244.4,244.5-244.4
	C456.2,76.7,565.6,186.1,565.6,321.1"/>
<path class="st1" d="M321.2,571.1c-66.8,0-129.6-26-176.8-73.2c-47.2-47.2-73.2-110-73.2-176.8c0-66.8,26-129.6,73.2-176.8
	c47.2-47.2,110-73.2,176.8-73.2c66.8,0,129.6,26,176.8,73.2c47.2,47.2,73.2,110,73.2,176.8c0,66.8-26,129.6-73.2,176.8
	C450.7,545.1,387.9,571.1,321.2,571.1 M321.2,82.2c-131.7,0-238.9,107.2-238.9,238.9C82.3,452.9,189.4,560,321.2,560
	s238.9-107.2,238.9-238.9C560.1,189.4,452.9,82.2,321.2,82.2"/>
<path class="st2" d="M484.1,321.1c0,90-72.9,162.9-162.9,162.9s-162.9-72.9-162.9-162.9c0-90,72.9-162.9,162.9-162.9
	S484.1,231.1,484.1,321.1"/>
<path class="st1" d="M321.2,487.2c-91.6,0-166-74.5-166-166c0-91.6,74.5-166,166-166s166,74.5,166,166
	C487.2,412.7,412.7,487.2,321.2,487.2 M321.2,161.3c-88.1,0-159.8,71.7-159.8,159.8c0,88.1,71.7,159.8,159.8,159.8
	s159.8-71.7,159.8-159.8C480.9,233,409.3,161.3,321.2,161.3"/>
<path class="st3" d="M437,238.4c-0.4,0.9-1.3,1.2-2.2,1.4c-0.3,0-0.5,0-0.8,0c-0.6,0-1-0.1-1-0.1s0.4-0.4,0.8-0.8
	c0.1-0.1,0.3-0.2,0.4-0.3c0.3-0.2,0.2-0.7,0.1-1.1c-0.1-0.4-0.3-0.7-0.3-0.7l-0.8-0.6l-2.7-2l1.8-1.3l0.2-0.6l0.9-3.7l1.7-6.7
	l0.1-0.2c0,0-0.4,0.1-1,0.2c-0.3,0-0.7,0-1,0c-0.5,0-1-0.1-1.5-0.4l-0.9-1l-2.1-2.3l-2-2.3l-2-2.2l-2-2.2l-0.2,0l-0.6-0.2l0.7-0.6
	c1.1-1,1.2-2.6,0.3-3.7l-0.2-0.3c0,0,1.3-0.1,2.5-0.1c0.8,0,1.6,0.1,2,0.4c0.6,0.4,0.7,1.5,0.5,2.4c-0.1,0.8,0.2,1.6,0.7,2.2
	l6.6,7.3c0,0,0.6,0.8,2.1,1.5c0.5,0.2,1.1,0.2,1.8,0.1c1.5-0.2,3.1-1,3.1-1l-1.1,0.9l-1.4,1.1l-3,11.5c-0.1,0.6-0.1,1.1,0.1,1.7
	C437,235.5,437.5,237.2,437,238.4 M419.4,247c0.6-1.1,0.2-2.8-0.1-3.8c-0.2-0.5-0.2-1.1,0-1.7l3.5-11.1l1.5-1.1l1-0.7
	c0,0-1.5,0.6-2.9,0.8c-0.7,0.1-1.5,0.1-2-0.1c-1.5-0.7-2-1.6-2-1.6l-6.1-7.6c-0.5-0.6-0.7-1.4-0.6-2.2c0.2-0.9,0.2-2-0.4-2.4
	c-0.6-0.4-1.9-0.5-3-0.6c-0.8,0-1.5,0-1.5,0l0.2,0.3c0.8,1.2,0.6,2.8-0.5,3.7l-0.7,0.6l0.7,0.2l7.9,9.8c0.4,0.5,1,0.9,1.7,1
	c0.5,0.1,1,0.1,1.4,0c0,0,0.1,0,0.2,0c0.4,0,0.6-0.1,0.6-0.1l0,0.1l-0.2,0.6l-2.8,9.2c-0.2,0.6-0.6,1.2-1.2,1.5l-0.9,0.6l3.3,2.7
	c0,0,0.6,1.4,0.1,1.8c-0.6,0.4-1.3,1-1.3,1s1,0.3,2,0.1C418.2,248.1,419,247.8,419.4,247 M227.7,244.3c1.1-0.6,1.7-2.2,2-3.1
	c0.2-0.5,0.5-1,0.9-1.3l8.9-7.1l1.7-0.1l1.3,0c0,0-1.7-0.4-3-1c-0.6-0.3-1.1-0.7-1.3-1.1c-0.8-1.4-0.8-2.3-0.8-2.3l-0.9-9.4
	c-0.1-0.8,0.2-1.5,0.7-2.1c0.6-0.6,1.2-1.5,1-2.2c-0.2-0.4-0.7-1-1.3-1.4c-0.9-0.8-2-1.4-2-1.4l0,0.4c0,1.4-1,2.6-2.4,2.7l-0.9,0.1
	l0.4,0.5l0.1,0.1l0.3,2.9l0.3,2.9l0.3,2.9l0.3,2.9l0.1,1.3c0.2,0.4,0.5,0.8,0.9,1.1c0.3,0.2,0.6,0.4,0.8,0.6
	c0.5,0.3,0.9,0.4,0.9,0.4l-0.2,0.1l-8,6.5l-0.5,0.4l-2.1,0l0.9,3.1l0.3,0.9c0,0-0.1,0.3-0.2,0.7c-0.1,0.4-0.4,0.8-0.7,0.8
	c-0.2,0-0.3,0-0.5,0c-0.6,0-1.1,0.1-1.1,0.1s0.3,0.3,0.7,0.6c0.2,0.1,0.4,0.3,0.6,0.4C225.9,244.5,226.8,244.8,227.7,244.3
	 M213.3,236c1-0.5,1.7-2,2-2.9c0.2-0.5,0.5-0.9,0.9-1.2l8.8-6.4l1.7,0l1.1,0c0,0-1.4-0.4-2.6-1c-0.6-0.3-1.1-0.7-1.4-1.2
	c-0.7-1.4-0.6-2.3-0.6-2.3l-0.4-9.1c0-0.7,0.2-1.4,0.8-1.9c0.6-0.6,1.3-1.4,1-2c-0.2-0.6-1.1-1.5-1.9-2.1c-0.6-0.5-1.1-0.8-1.1-0.8
	l0,0.3c0,1.3-1.1,2.4-2.4,2.5l-0.8,0l0.4,0.6l0.5,11.8c0,0.6,0.3,1.2,0.7,1.7c0.3,0.3,0.7,0.6,1,0.8c0,0,0.1,0.1,0.1,0.1
	c0.3,0.2,0.5,0.3,0.5,0.3l-0.1,0.1l-0.5,0.4l-7.2,5.3c-0.5,0.4-1.1,0.5-1.7,0.5l-1-0.1l1,3.8c0,0-0.3,1.4-0.9,1.4
	c-0.6,0-1.5,0.1-1.5,0.1s0.6,0.7,1.5,1.2C211.8,236.2,212.5,236.4,213.3,236 M206.9,393.7c-0.6,1.1-0.3,2.9,0,3.9
	c0.2,0.6,0.1,1.1,0,1.7l-3.9,11.2l-1.4,1l-1.1,0.8c0,0,1.7-0.6,3.2-0.7c0.7-0.1,1.3,0,1.8,0.2c1.5,0.8,2,1.6,2,1.6l6,7.9
	c0.5,0.6,0.7,1.4,0.5,2.2c-0.2,0.9-0.3,2,0.3,2.5c0.4,0.3,1.2,0.5,2,0.6c1.2,0.2,2.5,0.1,2.5,0.1l-0.2-0.3c-0.8-1.2-0.5-2.8,0.6-3.7
	l0.7-0.6l-0.6-0.2l-0.2-0.1l-1.8-2.4l-1.8-2.4l-1.9-2.4l-1.9-2.5l-0.9-1.1c-0.4-0.3-0.9-0.4-1.4-0.5c-0.4,0-0.7-0.1-1-0.1
	c-0.6,0-1,0.1-1,0.1l0.1-0.2l2.2-6.6l1.2-3.7l0.2-0.6l1.9-1.1l-2.5-2.2l-0.7-0.6c0,0-0.1-0.3-0.2-0.7c-0.1-0.4-0.1-0.9,0.2-1.1
	c0.1-0.1,0.3-0.2,0.4-0.3c0.5-0.3,0.9-0.7,0.9-0.7s-0.4-0.1-1-0.2c-0.2,0-0.5,0-0.8,0C208.4,392.5,207.4,392.8,206.9,393.7
	 M225.9,387.4c-0.7,1-0.4,2.8-0.2,3.8c0.1,0.6,0.1,1.1-0.1,1.7l-4.4,10.8l-1.6,1l-1,0.6c0,0,1.5-0.5,3-0.5c0.7,0,1.5,0,1.9,0.3
	c1.4,0.8,1.8,1.7,1.8,1.7l5.5,8c0.4,0.6,0.6,1.4,0.4,2.2c-0.2,0.9-0.4,2,0.2,2.4c0.6,0.4,1.9,0.7,2.9,0.8c0.8,0.1,1.5,0.1,1.5,0.1
	l-0.2-0.3c-0.7-1.2-0.4-2.8,0.8-3.7l0.7-0.5l-0.7-0.3l-7.1-10.4c-0.4-0.6-0.9-1-1.6-1.1c-0.5-0.1-1-0.1-1.4-0.1c-0.1,0-0.1,0-0.2,0
	c-0.4,0-0.6,0-0.6,0l0.1-0.1l0.2-0.6l3.6-9c0.2-0.6,0.7-1.1,1.3-1.4l1-0.5l-3.1-2.9c0,0-0.5-1.4,0.1-1.8c0.6-0.3,1.3-0.9,1.3-0.9
	s-1-0.3-2-0.3C227.1,386.4,226.4,386.7,225.9,387.4 M389.7,373.5c-1.2,0.6-1.9,2.3-2.2,3.3c-0.2,0.6-0.5,1-1,1.4l-9.9,7.5l-1.9,0.1
	l-1.5,0.1c0,0,1.9,0.4,3.4,1.1c0.6,0.3,1.2,0.7,1.5,1.1c0.9,1.4,0.9,2.4,0.9,2.4l1.1,9.8c0.1,0.8-0.2,1.6-0.7,2.2
	c-0.7,0.7-1.4,1.6-1.1,2.3c0.2,0.5,0.8,1,1.5,1.5c1.1,0.8,2.3,1.4,2.3,1.4l0-0.4c-0.1-1.4,1.1-2.7,2.6-2.8l1-0.1l-0.4-0.5l-0.1-0.1
	l-0.3-3l-0.3-3l-0.3-3l-0.3-3.1l-0.2-1.4c-0.2-0.4-0.6-0.8-1-1.1c-0.3-0.2-0.6-0.4-0.9-0.6c-0.5-0.3-1-0.4-1-0.4l0.2-0.1l5.7-4.4
	l3.2-2.5l0.5-0.4l2.3,0l-1.1-3.2l-0.3-0.9c0,0,0.1-0.4,0.2-0.7c0.2-0.4,0.4-0.8,0.8-0.8c0.2,0,0.4,0,0.5,0c0.6-0.1,1.2-0.2,1.2-0.2
	s-0.3-0.3-0.8-0.7c-0.2-0.1-0.4-0.3-0.7-0.4C391.6,373.2,390.6,373,389.7,373.5 M407.6,381.5c-1.2,0.5-2,2.1-2.3,3.1
	c-0.2,0.5-0.6,1-1.1,1.3l-10.1,6.9l-2,0h-1.3c0,0,1.7,0.4,3,1.1c0.7,0.4,1.3,0.8,1.6,1.3c0.8,1.4,0.7,2.4,0.7,2.4l0.6,9.7
	c0,0.8-0.3,1.6-0.9,2.1c-0.7,0.6-1.4,1.5-1.2,2.2c0.3,0.7,1.3,1.6,2.2,2.2c0.7,0.5,1.3,0.9,1.3,0.9l0-0.3c0-1.4,1.2-2.6,2.8-2.7
	l0.9-0.1l-0.5-0.6l-0.7-12.6c0-0.7-0.3-1.3-0.8-1.8c-0.4-0.4-0.8-0.6-1.2-0.8c-0.1,0-0.1-0.1-0.2-0.1c-0.3-0.2-0.6-0.3-0.6-0.3
	l0.1-0.1l0.6-0.4l8.3-5.8c0.6-0.4,1.3-0.6,2-0.6l1.2,0.1l-1.2-4.1c0,0,0.3-1.5,1-1.5c0.7,0,1.8-0.1,1.8-0.1s-0.7-0.8-1.7-1.3
	C409.3,381.3,408.5,381.1,407.6,381.5 M425.7,389.3c-1.2,0.5-2.1,2.1-2.5,3.1c-0.2,0.5-0.6,1-1.1,1.3l-10.7,6.6l-1.9-0.1l-1.5-0.1
	c0,0,1.8,0.5,3.2,1.4c0.6,0.4,1.2,0.8,1.4,1.2c0.7,1.5,0.6,2.5,0.6,2.5l0,9.9c0,0.8-0.3,1.6-1,2.1c-0.7,0.6-1.5,1.4-1.3,2.2
	c0.2,0.5,0.7,1.1,1.3,1.6c1,0.9,2.1,1.6,2.1,1.6l0-0.4c0.1-1.4,1.4-2.6,2.9-2.6l1,0l-0.4-0.5l-0.1-0.1l0-3l0-3l0-3.1l0-3.1l0-1.4
	c-0.2-0.5-0.5-0.9-0.9-1.2c-0.3-0.2-0.6-0.5-0.8-0.7c-0.5-0.3-0.9-0.5-0.9-0.5l0.2-0.1l6.2-3.9l3.4-2.2l0.6-0.4l2.3,0.2l-0.7-3.3
	l-0.2-0.9c0,0,0.1-0.3,0.3-0.7c0.2-0.4,0.5-0.8,0.9-0.7c0.2,0,0.4,0,0.5,0c0.6,0,1.2,0,1.2,0s-0.3-0.3-0.7-0.7
	c-0.2-0.2-0.4-0.3-0.7-0.5C427.7,389.3,426.7,388.9,425.7,389.3 M440.2,397.7c-1.2,0.5-1.9,2.2-2.3,3.2c-0.2,0.5-0.5,1-1,1.4
	l-10,7.1l-2,0l-1.3,0c0,0,1.7,0.4,3.1,1c0.7,0.3,1.4,0.8,1.6,1.2c0.8,1.4,0.8,2.4,0.8,2.4l0.7,9.7c0.1,0.8-0.2,1.6-0.8,2.1
	c-0.7,0.6-1.4,1.5-1.1,2.2c0.3,0.7,1.4,1.5,2.3,2.2c0.7,0.5,1.3,0.8,1.3,0.8v-0.3c0-1.4,1.2-2.6,2.7-2.8l0.9-0.1l-0.5-0.6l-0.9-12.6
	c0-0.7-0.3-1.3-0.9-1.8c-0.4-0.3-0.9-0.6-1.2-0.8c0,0-0.1-0.1-0.2-0.1c-0.4-0.2-0.6-0.3-0.6-0.3l0.1-0.1l0.6-0.4l8.2-5.9
	c0.6-0.4,1.3-0.6,2-0.6l1.2,0l-1.2-4.1c0,0,0.3-1.5,1-1.5c0.7,0,1.7-0.1,1.7-0.1s-0.7-0.8-1.7-1.3
	C441.9,397.5,441,397.3,440.2,397.7 M400.9,251.9c0.5-1.1,0.1-2.9-0.3-3.9c-0.2-0.5-0.2-1.1-0.1-1.7l3-11.5l1.4-1.1l1.1-0.9
	c0,0-1.6,0.7-3.1,1c-0.7,0.1-1.3,0.1-1.8-0.1c-1.5-0.7-2.1-1.5-2.1-1.5l-6.6-7.3c-0.5-0.6-0.8-1.4-0.7-2.2c0.1-0.9,0.1-2-0.5-2.4
	c-0.4-0.3-1.2-0.4-2-0.4c-1.2-0.1-2.5,0.1-2.5,0.1l0.2,0.3c0.9,1.1,0.8,2.8-0.3,3.7l-0.7,0.6l0.6,0.2l0.2,0l2,2.2l2,2.2l2,2.3
	l2.1,2.3l0.9,1c0.4,0.2,1,0.3,1.5,0.4c0.4,0,0.7,0,1,0c0.6-0.1,1-0.2,1-0.2l-0.1,0.2l-1.7,6.7l-0.9,3.7l-0.2,0.6l-1.8,1.3l2.7,2
	l0.8,0.6c0,0,0.2,0.3,0.3,0.7c0.1,0.4,0.2,0.9-0.1,1.1c-0.1,0.1-0.3,0.2-0.4,0.3c-0.4,0.4-0.8,0.8-0.8,0.8s0.4,0.1,1,0.1
	c0.2,0,0.5,0,0.8,0C399.5,253.1,400.4,252.8,400.9,251.9 M383.3,260.5c0.6-1.1,0.2-2.8-0.1-3.8c-0.2-0.5-0.2-1.1,0-1.7l3.5-11.1
	l1.5-1.1l1-0.7c0,0-1.5,0.6-2.9,0.8c-0.7,0.1-1.5,0.1-2-0.1c-1.5-0.7-2-1.6-2-1.6l-6.1-7.6c-0.5-0.6-0.7-1.4-0.6-2.2
	c0.2-0.9,0.2-2-0.4-2.4c-0.6-0.4-1.9-0.5-3-0.6c-0.8,0-1.5,0-1.5,0l0.2,0.3c0.8,1.2,0.6,2.8-0.5,3.7l-0.7,0.6l0.7,0.2l7.9,9.8
	c0.4,0.5,1,0.9,1.7,1c0.5,0.1,1,0.1,1.4,0c0,0,0.1,0,0.2,0c0.4,0,0.6-0.1,0.6-0.1l0,0.1l-0.2,0.6l-2.8,9.2c-0.2,0.6-0.6,1.2-1.2,1.5
	l-0.9,0.6l3.3,2.7c0,0,0.6,1.4,0.1,1.8c-0.6,0.4-1.3,1-1.3,1s1,0.3,2,0.1C382.2,261.5,382.9,261.2,383.3,260.5 M258.4,257.4
	c1.1-0.6,1.7-2.2,2-3.1c0.2-0.5,0.5-1,0.9-1.3l8.9-7.1l1.7-0.1l1.3,0c0,0-1.7-0.4-3-1c-0.6-0.3-1.1-0.7-1.3-1.1
	c-0.8-1.4-0.8-2.3-0.8-2.3l-0.9-9.4c-0.1-0.8,0.2-1.5,0.7-2.1c0.6-0.6,1.2-1.5,1-2.2c-0.2-0.4-0.7-1-1.3-1.4c-0.9-0.8-2-1.4-2-1.4
	l0,0.4c0,1.4-1,2.6-2.4,2.7l-0.9,0.1l0.4,0.5l0.1,0.1l0.3,2.9l0.3,2.9l0.3,2.9l0.3,2.9l0.1,1.3c0.2,0.4,0.5,0.8,0.9,1.1
	c0.3,0.2,0.6,0.4,0.8,0.6c0.5,0.3,0.9,0.4,0.9,0.4l-0.2,0.1l-5.1,4.2l-2.9,2.3l-0.5,0.4l-2.1,0l0.9,3.1l0.3,0.9c0,0-0.1,0.3-0.2,0.7
	c-0.1,0.4-0.4,0.8-0.7,0.8c-0.2,0-0.3,0-0.5,0c-0.6,0-1.1,0.1-1.1,0.1s0.3,0.3,0.7,0.6c0.2,0.1,0.4,0.3,0.6,0.4
	C256.6,257.6,257.5,257.8,258.4,257.4 M244,249c1-0.5,1.7-2,2-2.9c0.2-0.5,0.5-0.9,0.9-1.2l8.8-6.4l1.7,0l1.1,0c0,0-1.4-0.4-2.6-1
	c-0.6-0.3-1.1-0.7-1.4-1.2c-0.7-1.4-0.6-2.3-0.6-2.3l-0.4-9.1c0-0.7,0.2-1.4,0.8-1.9c0.6-0.6,1.3-1.4,1-2c-0.2-0.6-1.1-1.5-1.9-2.1
	c-0.6-0.5-1.1-0.8-1.1-0.8l0,0.3c0,1.3-1.1,2.4-2.4,2.5l-0.8,0l0.4,0.6l0.5,11.8c0,0.6,0.3,1.2,0.7,1.7c0.3,0.3,0.7,0.6,1,0.8
	c0,0,0.1,0.1,0.1,0.1c0.3,0.2,0.5,0.3,0.5,0.3l-0.1,0.1l-0.5,0.4l-7.2,5.3c-0.5,0.4-1.1,0.5-1.7,0.5l-1-0.1l1,3.8
	c0,0-0.3,1.4-0.9,1.4c-0.6,0-1.5,0.1-1.5,0.1s0.6,0.7,1.5,1.2C242.5,249.2,243.2,249.4,244,249 M250.4,379.5c-0.6,1.1-0.3,2.9,0,3.9
	c0.2,0.6,0.1,1.1,0,1.7l-3.9,11.2l-1.4,1l-1.1,0.8c0,0,1.7-0.6,3.2-0.7c0.7-0.1,1.3,0,1.8,0.2c1.5,0.8,2,1.6,2,1.6l6,7.9
	c0.5,0.6,0.7,1.4,0.5,2.2c-0.2,0.9-0.3,2,0.3,2.5c0.4,0.3,1.2,0.5,2,0.6c1.2,0.2,2.5,0.1,2.5,0.1l-0.2-0.3c-0.8-1.2-0.5-2.8,0.6-3.7
	l0.7-0.6l-0.6-0.2l-0.2-0.1l-1.8-2.4l-1.8-2.4l-1.9-2.4l-1.9-2.5l-0.9-1.1c-0.4-0.3-0.9-0.4-1.4-0.5c-0.4,0-0.7-0.1-1-0.1
	c-0.6,0-1,0.1-1,0.1l0.1-0.2l2.2-6.6l1.2-3.7l0.2-0.6l1.9-1.1l-2.5-2.2l-0.7-0.6c0,0-0.1-0.3-0.2-0.7c-0.1-0.4-0.1-0.9,0.2-1.1
	c0.1-0.1,0.3-0.2,0.4-0.3c0.5-0.3,0.9-0.7,0.9-0.7s-0.4-0.1-1-0.2c-0.2,0-0.5,0-0.8,0C251.8,378.4,250.9,378.7,250.4,379.5
	 M269.3,373.3c-0.7,1-0.4,2.8-0.2,3.8c0.1,0.6,0.1,1.1-0.1,1.7l-4.4,10.8l-1.6,1l-1,0.6c0,0,1.5-0.5,3-0.5c0.7,0,1.5,0,1.9,0.3
	c1.4,0.8,1.8,1.7,1.8,1.7l5.5,8c0.4,0.6,0.6,1.4,0.4,2.2c-0.2,0.9-0.4,2,0.2,2.4c0.6,0.4,1.9,0.7,2.9,0.8c0.8,0.1,1.5,0.1,1.5,0.1
	l-0.2-0.3c-0.7-1.2-0.4-2.8,0.8-3.7l0.7-0.5l-0.7-0.3l-7.1-10.4c-0.4-0.6-0.9-1-1.6-1.1c-0.5-0.1-1-0.1-1.4-0.1c-0.1,0-0.1,0-0.2,0
	c-0.4,0-0.6,0-0.6,0l0.1-0.1l0.2-0.6l3.6-9c0.2-0.6,0.7-1.1,1.3-1.4l1-0.5l-3.1-2.9c0,0-0.5-1.4,0.1-1.8c0.6-0.3,1.3-0.9,1.3-0.9
	s-1-0.3-2-0.3C270.6,372.3,269.8,372.6,269.3,373.3 M290.5,367.9c-0.7,1-0.5,2.8-0.2,3.9c0.1,0.6,0.1,1.1-0.2,1.7l-4.6,11l-1.5,0.9
	l-1.2,0.7c0,0,1.7-0.5,3.2-0.5c0.7,0,1.3,0.1,1.8,0.3c1.4,0.9,1.9,1.8,1.9,1.8l5.5,8.2c0.4,0.7,0.6,1.5,0.4,2.2
	c-0.2,0.9-0.4,2,0.2,2.5c0.4,0.3,1.1,0.5,1.9,0.7c1.2,0.2,2.5,0.3,2.5,0.3l-0.2-0.3c-0.7-1.2-0.4-2.8,0.8-3.7l0.8-0.5l-0.6-0.2
	l-0.2-0.1l-1.7-2.5l-1.7-2.5l-1.7-2.6l-1.7-2.6l-0.8-1.2c-0.4-0.3-0.9-0.5-1.4-0.6c-0.4-0.1-0.7-0.1-1-0.1c-0.6,0-1,0-1,0l0.1-0.2
	l2.6-6.4l1.5-3.6l0.2-0.6l1.9-1l-2.4-2.3l-0.7-0.7c0,0-0.1-0.3-0.2-0.7c-0.1-0.4-0.1-0.9,0.3-1.1c0.1-0.1,0.3-0.2,0.4-0.3
	c0.5-0.3,0.9-0.7,0.9-0.7s-0.4-0.1-1-0.2c-0.2,0-0.5-0.1-0.8-0.1C292,366.8,291,367,290.5,367.9 M309.8,362.8
	c-0.7,1-0.6,2.7-0.4,3.8c0.1,0.6,0,1.1-0.2,1.7l-5.1,10.5l-2.7,1.4c0,0,1.6-0.4,3-0.4c0.7,0,1.5,0.1,1.9,0.4
	c1.3,0.9,1.7,1.8,1.7,1.8l5,8.3c0.4,0.7,0.5,1.5,0.3,2.2c-0.3,0.8-0.5,1.9,0.1,2.4c0.5,0.5,1.8,0.8,2.9,1c0.8,0.1,1.4,0.2,1.4,0.2
	l-0.2-0.3c-0.7-1.3-0.2-2.9,1-3.6l0.7-0.5l-0.7-0.3l-6.5-10.9c-0.3-0.6-0.9-1-1.5-1.2c-0.5-0.1-1-0.2-1.4-0.2c0,0-0.1,0-0.2,0
	c-0.4,0-0.6,0-0.6,0l0.1-0.1l0.3-0.6l4.1-8.7c0.3-0.6,0.8-1.1,1.4-1.3l1-0.5l-2.9-3.1c0,0-0.4-1.4,0.2-1.7c0.6-0.3,1.4-0.9,1.4-0.9
	s-1-0.4-2-0.4C311.1,361.9,310.3,362.1,309.8,362.8 M356.2,362c-1.1,0.6-1.7,2.3-2,3.3c-0.1,0.6-0.4,1-0.9,1.4l-9.1,7.7l-1.7,0.1
	l-1.4,0.1c0,0,1.8,0.3,3.1,1c0.6,0.3,1.2,0.6,1.4,1.1c0.9,1.4,0.9,2.4,0.9,2.4l1.2,9.8c0.1,0.8-0.1,1.6-0.7,2.2
	c-0.6,0.7-1.2,1.6-0.9,2.3c0.2,0.5,0.8,1,1.4,1.5c1,0.8,2.1,1.4,2.1,1.4l0-0.4c-0.1-1.4,1-2.7,2.4-2.9l0.9-0.1l-0.4-0.5l-0.1-0.1
	l-0.4-3l-0.4-3l-0.4-3l-0.4-3.1l-0.2-1.4c-0.2-0.4-0.6-0.8-1-1.1c-0.3-0.2-0.6-0.4-0.9-0.6c-0.5-0.3-0.9-0.4-0.9-0.4l0.2-0.1
	l8.1-7.1l0.5-0.4l2.2,0l-1.1-3.2l-0.3-0.9c0,0,0-0.4,0.2-0.7c0.1-0.4,0.4-0.8,0.7-0.8c0.2,0,0.3,0,0.5,0c0.6-0.1,1.1-0.2,1.1-0.2
	s-0.3-0.3-0.8-0.6c-0.2-0.1-0.4-0.3-0.7-0.4C358,361.8,357.1,361.5,356.2,362 M370.4,368.7c-1,0.7-1.5,2.4-1.7,3.4
	c-0.1,0.6-0.4,1.1-0.8,1.5l-8.4,8.1l-1.9,0.2l-1.2,0.2c0,0,1.6,0.2,2.9,0.7c0.7,0.3,1.3,0.6,1.7,1.1c0.9,1.3,1,2.3,1,2.3l1.8,9.6
	c0.1,0.8,0,1.6-0.5,2.2c-0.5,0.7-1.1,1.7-0.8,2.3c0.3,0.6,1.4,1.4,2.4,1.9c0.7,0.4,1.3,0.7,1.3,0.7l0-0.3c-0.2-1.4,0.8-2.8,2.2-3
	l0.9-0.2l-0.5-0.6l-2.3-12.4c-0.1-0.7-0.5-1.3-1-1.7c-0.4-0.3-0.9-0.5-1.2-0.7c0,0-0.1,0-0.2-0.1c-0.3-0.1-0.6-0.2-0.6-0.2l0.1-0.1
	l0.5-0.5l6.9-6.8c0.5-0.5,1.1-0.7,1.7-0.8l1.1-0.1l-1.6-3.9c0,0,0.1-1.5,0.8-1.6c0.7-0.1,1.6-0.3,1.6-0.3s-0.8-0.7-1.7-1.1
	C372,368.4,371.2,368.3,370.4,368.7"/>
<path d="M434,238.4c-0.4,0.9-1.3,1.2-2.2,1.4c-0.3,0-0.5,0-0.8,0c-0.6,0-1-0.1-1-0.1s0.4-0.4,0.8-0.8c0.1-0.1,0.3-0.2,0.4-0.3
	c0.3-0.2,0.2-0.7,0.1-1.1c-0.1-0.4-0.3-0.7-0.3-0.7l-0.8-0.6l-2.7-2l1.8-1.3l0.2-0.6l0.9-3.7l1.7-6.7l0.1-0.2c0,0-0.4,0.1-1,0.2
	c-0.3,0-0.7,0-1,0c-0.5,0-1-0.1-1.5-0.4l-0.9-1l-2.1-2.3l-2-2.3l-2-2.2l-2-2.2l-0.2,0l-0.6-0.2l0.7-0.6c1.1-1,1.2-2.6,0.3-3.7
	l-0.2-0.3c0,0,1.3-0.1,2.5-0.1c0.8,0,1.6,0.1,2,0.4c0.6,0.4,0.7,1.5,0.5,2.4c-0.1,0.8,0.2,1.6,0.7,2.2l6.6,7.3c0,0,0.6,0.8,2.1,1.5
	c0.5,0.2,1.1,0.2,1.8,0.1c1.5-0.2,3.1-1,3.1-1l-1.1,0.9l-1.4,1.1l-3,11.5c-0.1,0.6-0.1,1.1,0.1,1.7C434,235.5,434.5,237.2,434,238.4
	 M416.4,247c0.6-1.1,0.2-2.8-0.1-3.8c-0.2-0.5-0.2-1.1,0-1.7l3.5-11.1l1.5-1.1l1-0.7c0,0-1.5,0.6-2.9,0.8c-0.7,0.1-1.5,0.1-2-0.1
	c-1.5-0.7-2-1.6-2-1.6l-6.1-7.6c-0.5-0.6-0.7-1.4-0.6-2.2c0.2-0.9,0.2-2-0.4-2.4c-0.6-0.4-1.9-0.5-3-0.6c-0.8,0-1.5,0-1.5,0l0.2,0.3
	c0.8,1.2,0.6,2.8-0.5,3.7l-0.7,0.6l0.7,0.2l7.9,9.8c0.4,0.5,1,0.9,1.7,1c0.5,0.1,1,0.1,1.4,0c0,0,0.1,0,0.2,0c0.4,0,0.6-0.1,0.6-0.1
	l0,0.1l-0.2,0.6l-2.8,9.2c-0.2,0.6-0.6,1.2-1.2,1.5l-0.9,0.6l3.3,2.7c0,0,0.6,1.4,0.1,1.8c-0.6,0.4-1.3,1-1.3,1s1,0.3,2,0.1
	C415.3,248.1,416,247.8,416.4,247 M224.5,243.5c1.1-0.6,1.7-2.2,2-3.1c0.2-0.5,0.5-1,0.9-1.3l8.9-7.1l1.7-0.1l1.3,0c0,0-1.7-0.4-3-1
	c-0.6-0.3-1.1-0.7-1.3-1.1c-0.8-1.4-0.8-2.3-0.8-2.3l-0.9-9.4c-0.1-0.8,0.2-1.5,0.7-2.1c0.6-0.6,1.2-1.5,1-2.2
	c-0.2-0.4-0.7-1-1.3-1.4c-0.9-0.8-2-1.4-2-1.4l0,0.4c0,1.4-1,2.6-2.4,2.7l-0.9,0.1l0.4,0.5l0.1,0.1l0.3,2.9l0.3,2.9l0.3,2.9l0.3,2.9
	l0.1,1.3c0.2,0.4,0.5,0.8,0.9,1.1c0.3,0.2,0.6,0.4,0.8,0.6c0.5,0.3,0.9,0.4,0.9,0.4l-0.2,0.1l-8,6.5l-0.5,0.4l-2.1,0l0.9,3.1
	l0.3,0.9c0,0-0.1,0.3-0.2,0.7c-0.1,0.4-0.4,0.8-0.7,0.8c-0.2,0-0.3,0-0.5,0c-0.6,0-1.1,0.1-1.1,0.1s0.3,0.3,0.7,0.6
	c0.2,0.1,0.4,0.3,0.6,0.4C222.8,243.7,223.6,244,224.5,243.5 M211,236.1c1-0.5,1.7-2,2-2.9c0.2-0.5,0.5-0.9,0.9-1.2l8.8-6.4l1.7,0
	l1.1,0c0,0-1.4-0.4-2.6-1c-0.6-0.3-1.1-0.7-1.4-1.2c-0.7-1.4-0.6-2.3-0.6-2.3l-0.4-9.1c0-0.7,0.2-1.4,0.8-1.9c0.6-0.6,1.3-1.4,1-2
	c-0.2-0.6-1.1-1.5-1.9-2.1c-0.6-0.5-1.1-0.8-1.1-0.8l0,0.3c0,1.3-1.1,2.4-2.4,2.5l-0.8,0l0.4,0.6l0.5,11.8c0,0.6,0.3,1.2,0.7,1.7
	c0.3,0.3,0.7,0.6,1,0.8c0,0,0.1,0.1,0.1,0.1c0.3,0.2,0.5,0.3,0.5,0.3l-0.1,0.1l-0.5,0.4l-7.2,5.3c-0.5,0.4-1.1,0.5-1.7,0.5l-1-0.1
	l1,3.8c0,0-0.3,1.4-0.9,1.4c-0.6,0-1.5,0.1-1.5,0.1s0.6,0.7,1.5,1.2C209.6,236.2,210.3,236.4,211,236.1 M203.9,394.3
	c-0.6,1.1-0.3,2.9,0,3.9c0.2,0.6,0.1,1.1,0,1.7l-3.9,11.2l-1.4,1l-1.1,0.8c0,0,1.7-0.6,3.2-0.7c0.7-0.1,1.3,0,1.8,0.2
	c1.5,0.8,2,1.6,2,1.6l6,7.9c0.5,0.6,0.7,1.4,0.5,2.2c-0.2,0.9-0.3,2,0.3,2.5c0.4,0.3,1.2,0.5,2,0.6c1.2,0.2,2.5,0.1,2.5,0.1
	l-0.2-0.3c-0.8-1.2-0.5-2.8,0.6-3.7l0.7-0.6l-0.6-0.2l-0.2-0.1l-1.8-2.4l-1.8-2.4l-1.9-2.4l-1.9-2.5l-0.9-1.1
	c-0.4-0.3-0.9-0.4-1.4-0.5c-0.4,0-0.7-0.1-1-0.1c-0.6,0-1,0.1-1,0.1l0.1-0.2l2.2-6.6l1.2-3.7l0.2-0.6l1.9-1.1l-2.5-2.2l-0.7-0.6
	c0,0-0.1-0.3-0.2-0.7c-0.1-0.4-0.1-0.9,0.2-1.1c0.1-0.1,0.3-0.2,0.4-0.3c0.5-0.3,0.9-0.7,0.9-0.7s-0.4-0.1-1-0.2c-0.2,0-0.5,0-0.8,0
	C205.3,393.1,204.4,393.4,203.9,394.3 M222.8,388c-0.7,1-0.4,2.8-0.2,3.8c0.1,0.6,0.1,1.1-0.1,1.7l-4.4,10.8l-1.6,1l-1,0.6
	c0,0,1.5-0.5,3-0.5c0.7,0,1.5,0,1.9,0.3c1.4,0.8,1.8,1.7,1.8,1.7l5.5,8c0.4,0.6,0.6,1.4,0.4,2.2c-0.2,0.9-0.4,2,0.2,2.4
	c0.6,0.4,1.9,0.7,2.9,0.8c0.8,0.1,1.5,0.1,1.5,0.1l-0.2-0.3c-0.7-1.2-0.4-2.8,0.8-3.7l0.7-0.5l-0.7-0.3l-7.1-10.4
	c-0.4-0.6-0.9-1-1.6-1.1c-0.5-0.1-1-0.1-1.4-0.1c-0.1,0-0.1,0-0.2,0c-0.4,0-0.6,0-0.6,0l0.1-0.1l0.2-0.6l3.6-9
	c0.2-0.6,0.7-1.1,1.3-1.4l1-0.5l-3.1-2.9c0,0-0.5-1.4,0.1-1.8c0.6-0.3,1.3-0.9,1.3-0.9s-1-0.3-2-0.3
	C224.1,387,223.3,387.3,222.8,388 M386.3,372.6c-1.2,0.6-1.9,2.3-2.2,3.3c-0.2,0.6-0.5,1-1,1.4l-9.9,7.5l-1.9,0.1l-1.5,0.1
	c0,0,1.9,0.4,3.4,1.1c0.6,0.3,1.2,0.7,1.5,1.1c0.9,1.4,0.9,2.4,0.9,2.4l1.1,9.8c0.1,0.8-0.2,1.6-0.7,2.2c-0.7,0.7-1.4,1.6-1.1,2.3
	c0.2,0.5,0.8,1,1.5,1.5c1.1,0.8,2.3,1.4,2.3,1.4l0-0.4c-0.1-1.4,1.1-2.7,2.6-2.8l1-0.1l-0.4-0.5l-0.1-0.1l-0.3-3l-0.3-3l-0.3-3.1
	l-0.3-3.1l-0.2-1.4c-0.2-0.4-0.6-0.8-1-1.1c-0.3-0.2-0.6-0.4-0.9-0.6c-0.5-0.3-1-0.4-1-0.4l0.2-0.1l5.7-4.4l3.2-2.5l0.5-0.4l2.3,0
	l-1.1-3.2l-0.3-0.9c0,0,0.1-0.3,0.2-0.7c0.2-0.4,0.4-0.8,0.8-0.8c0.2,0,0.4,0,0.5,0c0.6-0.1,1.2-0.2,1.2-0.2s-0.3-0.3-0.8-0.7
	c-0.2-0.1-0.4-0.3-0.7-0.4C388.2,372.4,387.2,372.1,386.3,372.6 M403.9,382.3c-1.2,0.5-2,2.1-2.3,3.1c-0.2,0.5-0.6,1-1.1,1.3
	l-10.1,6.9l-2,0H387c0,0,1.7,0.4,3,1.1c0.7,0.4,1.3,0.8,1.6,1.3c0.8,1.4,0.7,2.4,0.7,2.4l0.6,9.7c0,0.8-0.3,1.6-0.9,2.1
	c-0.7,0.6-1.4,1.5-1.2,2.2c0.3,0.7,1.3,1.6,2.2,2.2c0.7,0.5,1.3,0.9,1.3,0.9l0-0.3c0-1.4,1.2-2.6,2.8-2.7l0.9-0.1l-0.5-0.6
	l-0.7-12.6c0-0.7-0.3-1.3-0.8-1.8c-0.4-0.4-0.8-0.6-1.2-0.8c0,0-0.1-0.1-0.2-0.1c-0.4-0.2-0.6-0.3-0.6-0.3l0.1-0.1l0.6-0.4l8.3-5.8
	c0.6-0.4,1.3-0.6,2-0.6l1.2,0.1l-1.2-4.1c0,0,0.3-1.5,1-1.5c0.7,0,1.8-0.1,1.8-0.1s-0.7-0.8-1.7-1.3
	C405.6,382.1,404.7,381.9,403.9,382.3 M421.9,389.5c-1.2,0.5-2.1,2.1-2.5,3.1c-0.2,0.5-0.6,1-1.1,1.3l-10.7,6.6l-1.9-0.1l-1.5-0.1
	c0,0,1.8,0.5,3.2,1.4c0.6,0.4,1.2,0.8,1.4,1.2c0.7,1.5,0.6,2.5,0.6,2.5l0,9.9c0,0.8-0.3,1.6-1,2.1c-0.7,0.6-1.5,1.4-1.3,2.2
	c0.2,0.5,0.7,1.1,1.3,1.6c1,0.9,2.1,1.6,2.1,1.6l0-0.4c0.1-1.4,1.4-2.6,2.9-2.6l1,0l-0.4-0.5l-0.1-0.1l0-3l0-3l0-3.1l0-3.1l0-1.4
	c-0.2-0.5-0.5-0.9-0.9-1.2c-0.3-0.2-0.6-0.5-0.8-0.7c-0.5-0.3-0.9-0.5-0.9-0.5l0.2-0.1l6.2-3.9l3.4-2.2l0.6-0.4l2.3,0.2l-0.7-3.3
	l-0.2-0.9c0,0,0.1-0.3,0.3-0.7c0.2-0.4,0.5-0.8,0.9-0.7c0.2,0,0.4,0,0.5,0c0.6,0,1.2,0,1.2,0s-0.3-0.3-0.7-0.7
	c-0.2-0.2-0.4-0.3-0.7-0.5C423.9,389.5,422.9,389.1,421.9,389.5 M437.3,398.3c-1.2,0.5-1.9,2.2-2.3,3.2c-0.2,0.5-0.5,1-1,1.4
	l-10,7.1l-2,0l-1.3,0c0,0,1.7,0.4,3.1,1c0.7,0.3,1.4,0.8,1.6,1.2c0.8,1.4,0.8,2.4,0.8,2.4l0.7,9.7c0.1,0.8-0.2,1.6-0.8,2.1
	c-0.7,0.6-1.4,1.5-1.1,2.2c0.3,0.7,1.4,1.5,2.3,2.2c0.7,0.5,1.3,0.8,1.3,0.8v-0.3c0-1.4,1.2-2.6,2.7-2.8l0.9-0.1l-0.5-0.6l-0.9-12.6
	c0-0.7-0.3-1.3-0.9-1.8c-0.4-0.3-0.9-0.6-1.2-0.8c0,0-0.1-0.1-0.2-0.1c-0.4-0.2-0.6-0.3-0.6-0.3l0.1-0.1l0.6-0.4l8.2-5.9
	c0.6-0.4,1.3-0.6,2-0.6l1.2,0l-1.2-4.1c0,0,0.3-1.5,1-1.5c0.7,0,1.7-0.1,1.7-0.1s-0.7-0.8-1.7-1.3
	C439,398.1,438.2,397.9,437.3,398.3 M397.9,251.9c0.5-1.1,0.1-2.9-0.3-3.9c-0.2-0.5-0.2-1.1-0.1-1.7l3-11.5l1.4-1.1l1.1-0.9
	c0,0-1.6,0.7-3.1,1c-0.7,0.1-1.3,0.1-1.8-0.1c-1.5-0.7-2.1-1.5-2.1-1.5l-6.6-7.3c-0.5-0.6-0.8-1.4-0.7-2.2c0.1-0.9,0.1-2-0.5-2.4
	c-0.4-0.3-1.2-0.4-2-0.4c-1.2-0.1-2.5,0.1-2.5,0.1l0.2,0.3c0.9,1.1,0.8,2.8-0.3,3.7l-0.7,0.6l0.6,0.2l0.2,0l2,2.2l2,2.2l2,2.3
	l2.1,2.3l0.9,1c0.4,0.2,1,0.3,1.5,0.4c0.4,0,0.7,0,1,0c0.6-0.1,1-0.2,1-0.2l-0.1,0.2l-1.7,6.7l-0.9,3.7l-0.2,0.6l-1.8,1.3l2.7,2
	l0.8,0.6c0,0,0.2,0.3,0.3,0.7c0.1,0.4,0.2,0.9-0.1,1.1c-0.1,0.1-0.3,0.2-0.4,0.3c-0.4,0.4-0.8,0.8-0.8,0.8s0.4,0.1,1,0.1
	c0.2,0,0.5,0,0.8,0C396.5,253.1,397.4,252.8,397.9,251.9 M380.3,260.5c0.6-1.1,0.2-2.8-0.1-3.8c-0.2-0.5-0.2-1.1,0-1.7l3.5-11.1
	l1.5-1.1l1-0.7c0,0-1.5,0.6-2.9,0.8c-0.7,0.1-1.5,0.1-2-0.1c-1.5-0.7-2-1.6-2-1.6l-6.1-7.6c-0.5-0.6-0.7-1.4-0.6-2.2
	c0.2-0.9,0.2-2-0.4-2.4c-0.6-0.4-1.9-0.5-3-0.6c-0.8,0-1.5,0-1.5,0l0.2,0.3c0.8,1.2,0.6,2.8-0.5,3.7l-0.7,0.6l0.7,0.2l7.9,9.8
	c0.4,0.5,1,0.9,1.7,1c0.5,0.1,1,0.1,1.4,0c0,0,0.1,0,0.2,0c0.4,0,0.6-0.1,0.6-0.1l0,0.1l-0.2,0.6l-2.8,9.2c-0.2,0.6-0.6,1.2-1.2,1.5
	l-0.9,0.6l3.3,2.7c0,0,0.6,1.4,0.1,1.8c-0.6,0.4-1.3,1-1.3,1s1,0.3,2,0.1C379.2,261.5,379.9,261.2,380.3,260.5 M255.2,256.5
	c1.1-0.6,1.7-2.2,2-3.1c0.2-0.5,0.5-1,0.9-1.3l8.9-7.1l1.7-0.1l1.3,0c0,0-1.7-0.4-3-1c-0.6-0.3-1.1-0.7-1.3-1.1
	c-0.8-1.4-0.8-2.3-0.8-2.3L264,231c-0.1-0.8,0.2-1.5,0.7-2.1c0.6-0.6,1.2-1.5,1-2.2c-0.2-0.4-0.7-1-1.3-1.4c-0.9-0.8-2-1.4-2-1.4
	l0,0.4c0,1.4-1,2.6-2.4,2.7l-0.9,0.1l0.4,0.5l0.1,0.1l0.3,2.9l0.3,2.9l0.3,2.9l0.3,2.9l0.1,1.3c0.2,0.4,0.5,0.8,0.9,1.1
	c0.3,0.2,0.6,0.4,0.8,0.6c0.5,0.3,0.9,0.4,0.9,0.4l-0.2,0.1l-5.1,4.2l-2.9,2.3l-0.5,0.4l-2.1,0l0.9,3.1l0.3,0.9c0,0-0.1,0.3-0.2,0.7
	c-0.1,0.4-0.4,0.8-0.7,0.8c-0.2,0-0.3,0-0.5,0c-0.6,0-1.1,0.1-1.1,0.1s0.3,0.3,0.7,0.6c0.2,0.1,0.4,0.3,0.6,0.4
	C253.5,256.7,254.3,257,255.2,256.5 M241.7,249.1c1-0.5,1.7-2,2-2.9c0.2-0.5,0.5-0.9,0.9-1.2l8.8-6.4l1.7,0l1.1,0c0,0-1.4-0.4-2.6-1
	c-0.6-0.3-1.1-0.7-1.4-1.2c-0.7-1.4-0.6-2.3-0.6-2.3l-0.4-9.1c0-0.7,0.2-1.4,0.8-1.9c0.6-0.6,1.3-1.4,1-2c-0.2-0.6-1.1-1.5-1.9-2.1
	c-0.6-0.5-1.1-0.8-1.1-0.8l0,0.3c0,1.3-1.1,2.4-2.4,2.5l-0.8,0l0.4,0.6l0.5,11.8c0,0.6,0.3,1.2,0.7,1.7c0.3,0.3,0.7,0.6,1,0.8
	c0,0,0.1,0.1,0.1,0.1c0.3,0.2,0.5,0.3,0.5,0.3l-0.1,0.1l-0.5,0.4l-7.2,5.3c-0.5,0.4-1.1,0.5-1.7,0.5l-1-0.1l1,3.8
	c0,0-0.3,1.4-0.9,1.4c-0.6,0-1.5,0.1-1.5,0.1s0.6,0.7,1.5,1.2C240.3,249.2,241,249.4,241.7,249.1 M247.3,380.2
	c-0.6,1.1-0.3,2.9,0,3.9c0.2,0.6,0.1,1.1,0,1.7l-3.9,11.2l-1.4,1l-1.1,0.8c0,0,1.7-0.6,3.2-0.7c0.7-0.1,1.3,0,1.8,0.2
	c1.5,0.8,2,1.6,2,1.6l6,7.9c0.5,0.6,0.7,1.4,0.5,2.2c-0.2,0.9-0.3,2,0.3,2.5c0.4,0.3,1.2,0.5,2,0.6c1.2,0.2,2.5,0.1,2.5,0.1
	l-0.2-0.3c-0.8-1.2-0.5-2.8,0.6-3.7l0.7-0.6l-0.6-0.2l-0.2-0.1l-1.8-2.4l-1.8-2.4L254,401l-1.9-2.5l-0.9-1.1
	c-0.4-0.3-0.9-0.4-1.4-0.5c-0.4,0-0.7-0.1-1-0.1c-0.6,0-1,0.1-1,0.1l0.1-0.2l2.2-6.6l1.4-4.3l1.9-1.1l-2.5-2.2l-0.7-0.6
	c0,0-0.1-0.3-0.2-0.7c-0.1-0.4-0.1-0.9,0.2-1.1c0.1-0.1,0.3-0.2,0.4-0.3c0.5-0.3,0.9-0.7,0.9-0.7s-0.4-0.1-1-0.2c-0.2,0-0.5,0-0.8,0
	C248.8,379,247.8,379.3,247.3,380.2 M266.3,373.9c-0.7,1-0.4,2.8-0.2,3.8c0.1,0.6,0.1,1.1-0.1,1.7l-4.4,10.8l-1.6,1l-1,0.6
	c0,0,1.5-0.5,3-0.5c0.7,0,1.5,0,1.9,0.3c1.4,0.8,1.8,1.7,1.8,1.7l5.5,8c0.4,0.6,0.6,1.4,0.4,2.2c-0.2,0.9-0.4,2,0.2,2.4
	c0.6,0.4,1.9,0.7,2.9,0.8c0.8,0.1,1.5,0.1,1.5,0.1l-0.2-0.3c-0.7-1.2-0.4-2.8,0.8-3.7l0.7-0.5l-0.7-0.3l-7.1-10.4
	c-0.4-0.6-0.9-1-1.6-1.1c-0.5-0.1-1-0.1-1.4-0.1c-0.1,0-0.1,0-0.2,0c-0.4,0-0.6,0-0.6,0l0.1-0.1l0.2-0.6l3.6-9
	c0.2-0.6,0.7-1.1,1.3-1.4l1-0.5l-3.1-2.9c0,0-0.5-1.4,0.1-1.8c0.6-0.3,1.3-0.9,1.3-0.9s-1-0.3-2-0.3
	C267.5,372.9,266.8,373.2,266.3,373.9 M287.4,368.3c-0.7,1-0.5,2.8-0.2,3.9c0.1,0.6,0.1,1.1-0.2,1.7l-4.6,11l-1.5,0.9l-1.2,0.7
	c0,0,1.7-0.5,3.2-0.5c0.7,0,1.3,0.1,1.8,0.3c1.4,0.9,1.9,1.8,1.9,1.8l5.5,8.2c0.4,0.7,0.6,1.5,0.4,2.2c-0.2,0.9-0.4,2,0.2,2.5
	c0.4,0.3,1.1,0.5,1.9,0.7c1.2,0.2,2.5,0.3,2.5,0.3l-0.2-0.3c-0.7-1.2-0.4-2.8,0.8-3.7l0.8-0.5l-0.6-0.2l-0.2-0.1l-1.7-2.5l-1.7-2.5
	l-1.7-2.6l-2.5-3.7c-0.4-0.3-0.9-0.5-1.4-0.6c-0.4-0.1-0.7-0.1-1-0.1c-0.6,0-1,0-1,0l0.1-0.2l2.6-6.4l1.5-3.6l0.2-0.6l1.9-1
	l-2.4-2.3l-0.7-0.7c0,0-0.1-0.3-0.2-0.7c-0.1-0.4-0.1-0.9,0.3-1.1c0.1-0.1,0.3-0.2,0.4-0.3c0.5-0.3,0.9-0.7,0.9-0.7s-0.4-0.1-1-0.2
	c-0.2,0-0.5-0.1-0.8-0.1C288.9,367.3,288,367.5,287.4,368.3 M306.7,363.2c-0.7,1-0.6,2.7-0.4,3.8c0.1,0.6,0,1.1-0.2,1.7l-5.1,10.5
	l-2.7,1.4c0,0,1.6-0.4,3-0.4c0.7,0,1.5,0.1,1.9,0.4c1.3,0.9,1.7,1.8,1.7,1.8l5,8.3c0.4,0.7,0.5,1.5,0.3,2.2
	c-0.3,0.8-0.5,1.9,0.1,2.4c0.5,0.5,1.8,0.8,2.9,1c0.8,0.1,1.4,0.2,1.4,0.2l-0.2-0.3c-0.7-1.3-0.2-2.9,1-3.6l0.7-0.5l-0.7-0.3
	l-6.5-10.9c-0.3-0.6-0.9-1-1.5-1.2c-0.5-0.1-1-0.2-1.4-0.2c0,0-0.1,0-0.2,0c-0.4,0-0.6,0-0.6,0l0.1-0.1l0.3-0.6l4.1-8.7
	c0.3-0.6,0.8-1.1,1.4-1.3l1-0.5l-2.9-3.1c0,0-0.4-1.4,0.2-1.7c0.6-0.3,1.4-0.9,1.4-0.9s-1-0.4-2-0.4
	C308,362.3,307.2,362.5,306.7,363.2 M352.7,362.6c-1.1,0.6-1.7,2.3-2,3.3c-0.1,0.6-0.4,1-0.9,1.4l-9.1,7.7l-1.7,0.1l-1.4,0.1
	c0,0,1.8,0.3,3.1,1c0.6,0.3,1.2,0.6,1.4,1.1c0.9,1.4,0.9,2.4,0.9,2.4l1.2,9.8c0.1,0.8-0.1,1.6-0.7,2.2c-0.6,0.7-1.2,1.6-0.9,2.3
	c0.2,0.5,0.8,1,1.4,1.5c1,0.8,2.1,1.4,2.1,1.4l0-0.4c-0.1-1.4,1-2.7,2.4-2.9l0.9-0.1l-0.4-0.5L349,393l-0.4-3l-0.4-3l-0.4-3.1
	l-0.4-3.1l-0.2-1.4c-0.2-0.4-0.6-0.8-1-1.1c-0.3-0.2-0.6-0.4-0.9-0.6c-0.5-0.3-0.9-0.4-0.9-0.4l0.2-0.1l8.1-7.1l0.5-0.4l2.2,0
	l-1.1-3.2l-0.3-0.9c0,0,0-0.4,0.2-0.7c0.1-0.4,0.4-0.8,0.7-0.8c0.2,0,0.3,0,0.5,0c0.6-0.1,1.1-0.2,1.1-0.2s-0.3-0.3-0.8-0.6
	c-0.2-0.1-0.4-0.3-0.7-0.4C354.5,362.4,353.6,362.1,352.7,362.6 M367.9,369.7c-1,0.7-1.5,2.4-1.7,3.4c-0.1,0.6-0.4,1.1-0.8,1.5
	l-8.4,8.1l-1.9,0.2l-1.2,0.2c0,0,1.6,0.2,2.9,0.7c0.7,0.3,1.3,0.6,1.7,1.1c0.9,1.3,1,2.3,1,2.3l1.8,9.6c0.1,0.8,0,1.6-0.5,2.2
	c-0.5,0.7-1.1,1.7-0.8,2.3c0.3,0.6,1.4,1.4,2.4,1.9c0.7,0.4,1.3,0.7,1.3,0.7l0-0.3c-0.2-1.4,0.8-2.8,2.2-3l0.9-0.2l-0.5-0.6
	l-2.3-12.4c-0.1-0.7-0.5-1.3-1-1.7c-0.4-0.3-0.9-0.5-1.2-0.7c0,0-0.1,0-0.2-0.1c-0.3-0.1-0.6-0.2-0.6-0.2l0.1-0.1l0.5-0.5l6.9-6.8
	c0.5-0.5,1.1-0.7,1.7-0.8l1.1-0.1l-1.6-3.9c0,0,0.1-1.5,0.8-1.6c0.7-0.1,1.6-0.3,1.6-0.3s-0.8-0.7-1.7-1.1
	C369.5,369.3,368.6,369.2,367.9,369.7"/>
<path class="st2" d="M160.3,177.4l-9.7,12.4l-3.5-2.7c-1.6-1.3-2.8-1.9-3.5-1.9c-0.7,0-1.3,0.3-1.9,1.1c-0.6,0.8-0.8,1.6-0.5,2.5
	c0.3,0.9,1,1.8,2.2,2.7c1.6,1.2,2.9,1.9,4.1,2.1c1.1,0.2,3.1-0.3,5.8-1.6c7.9-3.5,13.4-5.2,16.7-5.1c3.3,0.1,7.2,1.9,11.8,5.5
	c3.3,2.6,5.5,5,6.4,7c0.9,2.1,0.9,4.8,0.1,8.1c-0.8,3.3-2.5,6.6-5.1,9.8c-2.8,3.6-5.8,6.2-9,7.7c-3.2,1.6-6.1,2-8.6,1.3
	c-2.5-0.7-5.5-2.4-9-5.2l-3.1-2.4l9.7-12.4l5.7,4.4c1.8,1.4,3,2.1,3.8,2.1c0.8,0,1.5-0.4,2.2-1.3c0.7-0.9,0.9-1.8,0.6-2.7
	c-0.3-0.9-1.1-1.9-2.3-2.9c-2.8-2.1-4.9-3.1-6.4-3c-1.5,0.2-4.6,1.2-9.1,3c-4.6,1.8-7.8,2.8-9.5,3.2c-1.7,0.4-3.7,0.3-5.9-0.2
	c-2.2-0.5-4.5-1.8-7-3.7c-3.6-2.8-5.8-5.3-6.7-7.6c-0.9-2.3-0.9-4.9-0.1-7.9c0.8-3,2.5-6.1,5-9.2c2.7-3.5,5.5-6,8.5-7.7
	c2.9-1.7,5.5-2.3,7.7-1.9c2.2,0.4,5.1,2.1,8.8,5 M177.5,137.9l26.4,53.9l14.5-9.9l-5.2-9.4l5-3.4l6.8,8.3l14.3-9.8L197.8,124
	 M207.1,163.9c-2.6-4.6-6.4-12.1-11.4-22.4c6.3,7.7,11.7,14.1,16.2,19.1L207.1,163.9z M259.6,97.6l7.5,25.7l-16.6-23l-13.6,4
	l16.6,57l13.6-4l-7.6-25.9l16,23.5l14.3-4.2l-16.6-57 M351.4,91.4l-6.4,41.3c-0.3,2.2-0.6,3.7-0.9,4.5c-0.2,0.8-0.7,1.3-1.5,1.8
	c-0.8,0.4-1.8,0.5-3,0.4c-0.5-0.1-1.2-0.2-2.2-0.5l-1.6,10.3l8.4,1.3c3.7,0.6,6.5,0.8,8.5,0.5c1.9-0.2,3.5-0.9,4.8-2.1
	c1.3-1.2,2.1-2.6,2.5-4.3c0.4-1.7,1-5.4,2-11.3l6.1-39.2 M427.9,142c2.6-5.5,4.2-9.5,5-11.9c0.7-2.4,0.8-4.8,0.1-7.4
	c-0.7-2.6-2-5-4.1-7.1c-2.1-2.1-4.7-3.9-7.9-5.4c-3.3-1.6-6.5-2.4-9.5-2.6c-3-0.2-5.6,0.3-8,1.5c-2.3,1.2-4.2,2.8-5.5,5
	c-1.3,2.1-3.2,5.9-5.8,11.3l-4.3,9.2c-2.6,5.6-4.2,9.5-5,11.9c-0.7,2.4-0.8,4.8-0.1,7.4c0.7,2.6,2,5,4.1,7.1
	c2.1,2.1,4.7,3.9,7.9,5.4c3.3,1.6,6.5,2.4,9.5,2.6c3,0.2,5.6-0.3,8-1.5c2.3-1.2,4.2-2.8,5.5-5c1.3-2.1,3.2-5.9,5.8-11.3
	 M404.9,151.1c-1.5,3.2-2.6,5.1-3.2,5.8c-0.7,0.7-1.6,0.8-2.6,0.3c-1-0.5-1.5-1.1-1.4-2c0.1-0.9,0.8-2.9,2.3-6l11.7-25.2
	c1.3-2.8,2.3-4.3,3-4.7c0.7-0.4,1.4-0.4,2.2,0c1,0.4,1.4,1.1,1.4,1.9c0,0.8-0.6,2.5-1.8,5L404.9,151.1z M484.9,176.9
	c3.2-3.4,5.1-6.2,5.7-8.4c0.6-2.1,0.2-4.7-1.2-7.8c-1.4-3.1-3.7-6.1-6.9-9.1c-2.9-2.8-5.9-4.7-8.8-5.8c-2.9-1.1-5.5-1.3-7.9-0.6
	s-5.1,2.7-8.2,6c-2.2,2.3-3.6,4.5-4.3,6.6c-0.7,2.1-1,4-0.8,5.8c0.2,1.8,1,5,2.4,9.8c1.4,4.7,2.1,7.8,2.1,9.4c0,1.5-1.1,3.5-3.5,6.1
	c-1.1,1.2-2.1,1.8-3.1,2.1c-1,0.2-1.8-0.1-2.7-0.8c-0.8-0.8-1.2-1.5-1.1-2.3c0.1-0.8,0.9-2,2.4-3.6l4.9-5.3l-11.5-10.8l-2.7,2.8
	c-3,3.3-5,6.1-6,8.6c-0.9,2.4-0.7,5.3,0.5,8.7c1.3,3.3,3.6,6.6,6.9,9.7c3,2.8,6.1,4.8,9.4,6c3.2,1.1,5.9,1.4,8.1,0.6
	c2.2-0.7,4.7-2.6,7.6-5.7c4-4.2,6.1-8,6.5-11.3c0.4-3.3-0.8-9-3.6-17.1c-1-2.8-1.3-4.8-1-5.9c0.3-1.1,1.1-2.4,2.4-3.9
	c1.1-1.1,2-1.8,2.9-2c0.9-0.2,1.7,0.1,2.5,0.8c0.7,0.6,1,1.3,0.9,2c-0.1,0.7-0.8,1.8-2.2,3.3l-3,3.2l11.5,10.8 M466.7,224.5
	l14.9,25.4l10.3-6l-6.3-10.8l11.3-6.6l5.4,9.2l9.8-5.7l-5.4-9.2l9.7-5.7l5.7,9.8l10.3-6l-14.3-24.4 M207.3,477.2
	c3.2-3.7,5.2-6.8,6.1-9.4c0.9-2.6,0.7-5.7-0.6-9.2c-1.3-3.5-3.8-6.9-7.6-10.2c-3.8-3.3-7.7-5.2-11.5-5.6c-3.8-0.5-6.8,0.1-9,1.6
	c-2.2,1.5-5.1,4.4-8.8,8.7l-11.5,13.4c-2.7,3.1-4.5,5.5-5.6,7.3c-1.1,1.8-1.7,3.8-2,6c-0.2,2.3,0.2,4.7,1.3,7.2
	c1.1,2.6,2.7,4.8,4.9,6.7c1.8,1.6,3.7,2.6,5.6,3c1.9,0.4,3.9,0.4,6-0.3l-1.6,4.2l8.1,7l20.8-24.2l-15.1-13l-5.9,6.8l2.6,2.2
	l-4.6,5.3c-1.8,2.1-3.2,3.4-4.1,3.8c-1,0.4-1.9,0.2-2.8-0.6c-0.9-0.7-1.2-1.5-0.9-2.4c0.3-0.9,1.3-2.3,3-4.4l18.6-21.6
	c2-2.3,3.3-3.6,4.1-3.9c0.8-0.3,1.5-0.1,2.3,0.6c0.9,0.8,1.2,1.6,0.9,2.5c-0.3,0.9-1.6,2.6-3.8,5.2l-3.5,4.1l12.9,11.1 M238,472.5
	l-25.2,53.8l15.4,7.2l25.2-53.8 M277.8,488L259,545l17.3,3l2.8-10.3l6,1l-0.9,10.7l17.1,3l0.7-60.2 M280.7,527.3
	c1.3-5.1,3.8-13.1,7.5-24c-0.9,9.9-1.4,18.2-1.8,25L280.7,527.3z M351.1,490.5l3.7,26.5l-13.1-25.2l-14.1,2l8.2,58.8l14.1-2
	l-3.7-26.7l12.5,25.5l14.7-2.1l-8.2-58.8 M381.6,483.6l5.1,10.7l9.1-4.3l20.4,42.9l15.3-7.3l-20.4-42.9l9.1-4.3l-5.1-10.7
	 M466.5,444.9c-3.2-3.5-5.8-5.6-7.9-6.4c-2.1-0.8-4.7-0.6-7.9,0.6c-3.2,1.2-6.4,3.2-9.6,6.2c-3,2.7-5.1,5.5-6.4,8.3
	c-1.3,2.8-1.7,5.4-1.2,7.8c0.5,2.4,2.3,5.3,5.4,8.6c2.1,2.3,4.2,3.9,6.3,4.8c2,0.9,4,1.3,5.7,1.2c1.8-0.1,5.1-0.6,9.9-1.6
	c4.8-1,8-1.5,9.5-1.4c1.5,0.1,3.4,1.4,5.8,4c1.1,1.2,1.7,2.2,1.8,3.2c0.1,1-0.2,1.8-1,2.6c-0.8,0.8-1.6,1.1-2.4,0.9
	c-0.8-0.2-1.9-1.1-3.4-2.7l-4.9-5.3l-11.6,10.7l2.6,2.9c3,3.3,5.7,5.5,8.1,6.6c2.4,1.1,5.3,1.1,8.7,0.1c3.4-1,6.8-3.1,10.2-6.2
	c3-2.8,5.3-5.8,6.6-8.9c1.4-3.1,1.8-5.8,1.2-8c-0.6-2.2-2.3-4.9-5.1-8c-3.9-4.3-7.5-6.7-10.7-7.3c-3.2-0.6-9,0.2-17.3,2.3
	c-2.9,0.7-4.9,0.9-6,0.6c-1.1-0.3-2.3-1.2-3.7-2.7c-1-1.1-1.6-2.2-1.8-3.1c-0.1-0.9,0.2-1.7,0.9-2.4c0.7-0.6,1.4-0.9,2.1-0.7
	c0.7,0.1,1.7,1,3.1,2.5l3,3.2l11.6-10.7"/>
<path class="st0" d="M300.3,196.1l7.6,5.2c6,3.8,8.7,10.7,8.7,14.2c0,0.1,0,5.1,0,8.4c-41.9,0.3-49.5,6.9-58.9,15.3
	c-11.3,9.9-18.5,25.9-18.5,40.8c0,15,5.6,24.1,15.3,34.7c14.6,16,51.4,17.3,62.5,17.4v28.1c-14-3.3-36-13.6-36.3-13.8l-3.1-1.4
	l-1.2,3.1c-5.4,13.9-18.4,46-19.5,48l8-5.2c10.4-11.1,21.9-8.1,22.4-7.9c0,0,22.5,8.3,29.4,10.8c0.1,2.5,0.2,7.2,0.2,7.2
	c0,3.8-9.6,8.8-23.4,9.9c-18,1.4-39.1-6.1-42.8-25.8c-2.1-11.5-0.8-20.1,3.9-25.7c6-7.1,15.7-6.9,15.8-6.9l3.8,0.1l-0.6-3.7
	c-1-5.9-3.9-10.6-8.4-13.7c-5.2-3.5-12.2-4.6-19.3-2.9c-13.4,3.1-29.3,12.8-29.3,41.4c0,19.5,6.4,36,18.5,47.7
	c14.2,13.8,37.2,18.8,49.2,18.8h74.7l11.2,0.1l-9.1-4.9c-9.8-3.8-11.9-12-11.9-15.2l0.1-1.2v-16.7c0-0.2,0-0.4,0-0.6
	c0-0.4,0-0.4,0-0.5c0.1,0,0.3,0.1,0.3,0.1l6.9,1.2l-0.5,0c16.4,2.8,28.9,0.1,29.4,0c8.7-1.9,26.5-11.6,27.5-15.1l-1,1.5
	c13.5-11.2,14.7-35.9,14-38.2l0.1,0.9c-0.3-14.9-5.3-27.9-13.9-36.6l-0.4-0.4c-16.4-16.6-37.3-16.8-37.6-16.8c0,0-17.9-0.6-25.1-0.9
	v-33.1c23.4,5,40.1,14.9,40.2,15l3.2,1.2c0,0,2-5.5,2.4-6.3c5.3-12.1,13.3-30.4,14-31.7l3.7-7.3l-7.6,2.8c-14.8,5.5-28.2,1.1-28.3,1
	c-10.6-2.6-23-7.9-27.5-9.8c0-3.1,0-13.2,0-13.2c0.6-7.1,9.4-13.5,9.4-13.6l7.8-5.7l-9.7,0 M288.6,296.7
	c-13.2-4.4-18.3-9.7-18.3-18.9c0-9,9.4-16.3,18.7-18.9c9.2-2.6,16-3.8,27.2-0.8v40.7C311.2,299.4,299.5,300.3,288.6,296.7
	 M363.2,328.4c0.2,0,0.3-0.1,0.4-0.1c0,0-0.1,0.1-0.1,0.1c9.8-0.3,18.8,4.1,19.7,4.8l0,0l0.3,0.2c7.9,5.1,10.4,12.3,10.7,14.2
	c0,0.4,0.1,0.9,0.1,0.9c0.1,1.3,0.2,2.5,0.2,3.7c0,5.2-1.4,9-4.1,11.5l-1.4,2.7l0.8-2.1c-7.1,7.6-19.5,8.2-19.6,8.2
	c-9.1,1.1-17.7-2.1-21.2-3.7v-39.1C351.5,329.3,355.5,328.8,363.2,328.4"/>
<path class="st2" d="M370.4,440.3l-11.5-0.1h-74.7c-12,0-35-5-49.2-18.8c-12.1-11.8-18.5-28.3-18.5-47.8c0-28.6,15.9-38.4,29.3-41.5
	c7.1-1.6,14.1-0.6,19.4,2.9c4.6,3.1,7.5,7.8,8.4,13.7l0.6,3.8l-3.9-0.1h0c-0.8,0-10,0.2-15.7,6.9c-4.7,5.6-6.1,14.2-3.9,25.7
	c3.7,19.7,24.7,27.2,42.7,25.8c6.4-0.5,12.4-1.9,16.9-3.9c4.1-1.8,6.5-4,6.5-5.9c0,0-0.1-4.6-0.2-7.1l-28.4-10.5
	c-0.7-0.2-0.9-0.3-1-0.4l0,0c0,0-3-0.9-7.4-0.3c-3.8,0.6-9.5,2.4-14.9,8.2l-8.2,5.3l0.1-0.2c1.2-2.1,14.3-34.6,19.5-48l1.3-3.2l0,0
	l3.1,1.4c0.2,0.1,22.2,10.4,36.2,13.7v-28c-6,0-17.7-0.4-29.9-2.7c-15.4-2.9-26.4-7.8-32.6-14.7c-9.7-10.6-15.3-19.8-15.3-34.8
	c0-14.9,7.3-30.9,18.5-40.9c4.6-4.1,9-7.9,17.3-10.7c9.2-3,22.4-4.5,41.6-4.6c0-3.3,0-8.3,0-8.3c0-3.5-2.8-10.4-8.7-14.2l-7.7-5.3
	h0.2l56.5,0l9.9,0l-0.1,0.1l-7.8,5.7c-0.1,0.1-8.8,6.5-9.4,13.5l0,13.2c4.8,2.1,17,7.3,27.4,9.8c0.1,0,13.5,4.5,28.3-1l7.7-2.8
	l-3.8,7.4c-0.7,1.3-9.1,20.6-14,31.7c-0.4,0.8-2.4,6.3-2.4,6.3l0,0l-0.1,0l-3.2-1.2c-0.2-0.1-16.8-10-40.2-15v32.9l24.7,0.9
	c0.2,0,0.3,0,0.4,0v0c0.2,0,21.2,0.2,37.6,16.8l0.4,0.4c8.6,8.6,13.5,21.6,13.9,36.5c0.4,4.7-1.5,27.1-14.1,37.5l-0.2,0.2
	c-4.3,4.3-18.8,11.8-26.4,13.5c-1.3,0.3-13.4,2.8-29.4,0l0,0l-6.3-1.1c0,0-0.2,0-0.3-0.1c0,0,0,0,0,0c0,0.1,0,0.1,0,0.4
	c0,0.2,0,0.4,0,0.6V419l0,1.2c0,3.6,2.5,11.5,11.9,15.1 M252.3,331.5c-2.1,0-4.3,0.2-6.4,0.8c-13.3,3.1-29.2,12.8-29.2,41.4
	c0,19.5,6.4,36,18.5,47.7c14.2,13.8,37.2,18.8,49.1,18.8h74.7l11,0.1l-8.9-4.8c-9.4-3.7-11.9-11.6-11.9-15.2l0.1-1.2v-16.7
	c0-0.2,0-0.4,0-0.6c0-0.3,0-0.4,0-0.4c0,0,0,0,0-0.1l0-0.1l0.1,0c0.1,0,0.3,0.1,0.3,0.1l6.9,1.2l0,0c16,2.7,28.3,0,28.8-0.1
	c7.7-1.7,22.6-9.5,26.5-13.7l1.2-1.7l-0.1,0.3c-0.1,0.3-0.3,0.6-0.6,1c12.1-10.5,14-31.9,13.6-36.9l0,0l-0.1-0.9l0.1,0
	c-0.5-14.5-5.4-27.2-13.8-35.7l-0.4-0.4c-16.4-16.6-37.3-16.8-37.5-16.8H374c-0.7,0-8.7-0.3-15.9-0.6l-9.2-0.3v-33.2l0.1,0
	c23.4,5,40.1,14.9,40.2,15l3.2,1.2c0.2-0.6,2-5.5,2.4-6.3c4.9-11.1,13.3-30.4,14-31.7l3.7-7.1l-7.5,2.7c-14.8,5.5-28.2,1-28.4,1
	c-10.5-2.5-22.7-7.7-27.5-9.8l0,0v0l0-13.2c0.6-7.1,9.4-13.6,9.5-13.6l7.7-5.6h-9.5l-56.3,0l7.4,5.1c6,3.8,8.7,10.7,8.7,14.3
	c0,0,0,5,0,8.4v0.1h-0.1c-42,0.3-49.5,6.9-58.9,15.3c-11.2,9.9-18.5,25.9-18.5,40.8c0,15,5.6,24.1,15.3,34.7
	c6.2,6.8,17.2,11.8,32.5,14.7c12.2,2.3,24,2.7,30,2.7h0.1v28.2l-0.1,0c-14-3.3-36.1-13.7-36.3-13.8l-3-1.4l-1.2,3.1
	c-5.1,13.1-17.8,44.5-19.4,47.8l7.8-5.1c5.4-5.8,11.1-7.6,14.9-8.2c4.4-0.6,7.4,0.3,7.5,0.3l0,0c1,0.4,21.7,8,29.4,10.8l0,0v0
	c0.1,2.5,0.2,7.2,0.2,7.2c0,3.8-9.6,8.8-23.5,9.9c-18.1,1.4-39.2-6.1-42.8-25.9c-2.1-11.5-0.8-20.2,3.9-25.8
	c5.8-6.8,15-6.9,15.8-6.9h0l3.7,0.1l-0.6-3.7c-0.9-5.9-3.8-10.6-8.4-13.7C261.5,332.7,257,331.5,252.3,331.5 M366.8,372.7
	c-7.7,0-14.7-2.6-17.6-3.9l0,0v-39.2l0,0c3.1-0.5,7.8-0.9,14-1.3c0.1,0,0.2,0,0.2-0.1c0.1,0,0.1,0,0.2-0.1l0.2,0l-0.1,0.1
	c0.3,0,0.6,0,0.9,0c9.5,0,17.9,4.2,18.8,4.8l0,0l0.3,0.2c7.6,4.9,10.3,11.9,10.7,14.3c0,0.4,0.1,0.9,0.1,0.9
	c0.1,1.2,0.2,2.5,0.2,3.7c0,5.2-1.4,9.1-4.1,11.5l-1.3,2.7l-0.1,0l0.7-1.9c-7.1,7.5-19.3,8.1-19.5,8.1
	C369.2,372.7,368,372.7,366.8,372.7 M349.3,368.8c3.4,1.5,12.1,4.7,21.2,3.6c0.1,0,12.5-0.6,19.6-8.2l0.2-0.2l-0.5,1.3l0.8-1.7
	c2.7-2.4,4-6.3,4-11.5c0-1.2-0.1-2.4-0.2-3.6c0,0,0-0.4-0.1-0.9c-0.4-2.3-3.1-9.3-10.7-14.2l-0.3-0.2l0,0c-0.9-0.6-9.3-4.8-18.7-4.8
	c-0.3,0-0.7,0-1,0l-0.1,0l0,0h0c-0.1,0-0.2,0.1-0.3,0.1c-6.2,0.3-10.9,0.7-14,1.2V368.8z M306.8,299.4c-5.5,0-12-0.6-18.2-2.7
	c-13.2-4.4-18.4-9.7-18.4-18.9c0-9,9.4-16.4,18.8-19c8.7-2.4,15.7-3.9,27.2-0.8l0,0v40.8h0C313.9,299.1,310.6,299.4,306.8,299.4
	 M288.6,296.6c10.5,3.5,21.7,2.8,27.5,2.1v-40.6c-11.4-3-18.4-1.6-27.1,0.8c-9.3,2.6-18.7,9.9-18.7,18.9
	C270.3,286.9,275.5,292.2,288.6,296.6"/>
<path class="st4" d="M422.7,351.5c-0.6-24.3-13.2-34.5-13.3-34.8c-15.5-15.7-35.1-15.8-35.3-15.8c-0.4,0-28.2-1-28.2-1v-40
	c26.3,4.8,45,16.2,45,16.2c-0.1-1.3,1.1-3.8,1.1-3.8s14.1-32.2,14.1-31.9c-16.1,6-30.4,1-30.4,1c-13.3-3.2-29.6-10.8-29.6-10.8
	s0-15.6,0-15.3c0.7-8.9,10.8-16.1,10.8-16.1h-47.6c10.9,4.3,10.6,16.5,10.6,16.5s0,10.9,0,11.3c-43.6,0-50.8,6.4-60.1,14.6
	c-10.5,9.3-17.4,24.6-17.4,38.4c0,13.9,5.1,22.3,14.4,32.6c16.1,17.7,63.4,16.3,63.4,16.3v35.2c-14.1-2.2-40.8-14.8-40.8-14.8
	s-15.2,38.9-15.9,39.3c10.7-13.3,24.8-8.5,24.8-8.5l31.5,11.6l0.2,9.3c0,7.1-13.2,12-26.3,13.1c-20.9,1.6-42.3-7.8-46.1-28.4
	c-7-37.4,23.4-36.3,23-36.3c-2-12.4-13.5-16.5-23.9-14.1c-25.4,5.9-26.8,28.6-26.8,38.3c0,25.2,10.8,39,17.5,45.5
	c13,12.7,34.5,17.9,47,17.9h74.7c-14.5-4.3-12.9-18-12.9-18v-16.7c-0.4-5.6,4.1-4.1,4.1-4.1s6.2,1.1,6.3,1.1c16.1,2.8,28.2,0,28.2,0
	c10.4-2.2,25.6-12.6,25.2-13C422.7,375.6,423.1,350.8,422.7,351.5 M319.4,301.5c0,0-16.6,3.2-31.7-1.9
	c-13.1-4.4-20.5-10.2-20.5-21.9c0-11,11.2-19.2,21.1-22c9.9-2.7,17.5-4.4,31.2-0.3V301.5z M392.4,366.3c-8,8.6-21.5,9.3-21.9,9.3
	c-12.6,1.5-24.5-4.8-24.5-4.8v-43.7c4.4-1.3,17.8-1.8,17.4-1.8c11.5-0.4,21.9,5.2,21.9,5.6c10.4,6.7,12.6,17,12.2,17.4
	C399,362.3,392.4,366,392.4,366.3"/>
<path class="st2" d="M361.9,437.4h-77.7c-11.5,0-33.6-4.8-47.3-18c-11.5-11.2-17.7-27-17.7-45.8c0-21.5,9.1-34.6,27.2-38.8
	c6.3-1.5,12.6-0.5,17.2,2.5c3.9,2.6,6.4,6.6,7.2,11.7l0.1,0.1l-0.2,0.6h-0.7c-1.9,0-11.3,0.5-17.5,7.7c-5.4,6.2-7,15.7-4.7,28.1
	c4,21.4,26.5,29.6,45.7,28.1c12.6-1,25.9-5.8,25.9-12.7l-0.2-9l-31.2-11.5c-0.1,0-13.9-4.5-24.3,8.4l0,0c-0.1,0.1-0.1,0.1-0.1,0.1
	l-1.7,0.9l1.2-1.5c0,0,0.1-0.1,0.1-0.1c1.1-1.7,10-24.1,15.8-39.1l0.2-0.4l0.4,0.2c0.3,0.1,26.2,12.3,40.2,14.7v-34.3
	c-4.8,0.1-48,0.3-63.3-16.4c-9.2-10.1-14.6-18.8-14.6-32.9c0-13.9,7.1-29.5,17.5-38.7c9.3-8.2,16.6-14.6,59.9-14.7
	c0-2.1,0-10.9,0-10.9c0-0.1,0.2-12-10.3-16.1l-2.1-0.8h51.2l-1.1,0.8c-0.1,0.1-9.8,7.2-10.6,15.8c0,0.6,0,13,0,15
	c2.1,1,17.1,7.7,29.3,10.6c0.2,0.1,14.5,4.9,30.2-1l0,0c0.1-0.1,0.2-0.1,0.2,0l0.3,0.1l0,0.6l-0.1,0.1c-0.9,1.9-10.3,23.3-14,31.7
	c-0.3,0.7-1.1,2.6-1.1,3.6l0.1,0.8l-0.7-0.4c-0.2-0.1-18.7-11.3-44.4-16.1v39.1c9.7,0.4,27.5,1,27.8,1c0.2,0,20,0.2,35.6,16l0.1,0.1
	c0.1,0.1,0.2,0.2,0.3,0.3c8.1,8.1,12.7,20.4,13.1,34.6l0,0.1c0.3,1-0.3,24.6-13.1,35.2c-1.1,1.5-15.6,11-25.5,13.1
	c-0.1,0-12.3,2.8-28.3,0c0,0,0,0-6.3-1.1c-0.1,0-1.6-0.5-2.6,0.3c-0.7,0.6-1.1,1.7-0.9,3.4l-0.3,0h0.3V419
	c-0.1,0.6-1.4,13.5,12.6,17.6 M252.3,335c-1.8,0-3.7,0.2-5.7,0.7c-17.6,4.1-26.5,16.8-26.5,37.9c0,18.5,6,34.1,17.4,45.2
	c13.5,13.1,35.3,17.8,46.7,17.8h72.3c-12.1-5.1-10.8-17.5-10.8-17.6v-16.6c-0.1-1.9,0.3-3.3,1.3-4.1c1.4-1.1,3.3-0.4,3.4-0.4
	c2.3,0.4,6,1.1,6.2,1.1c15.9,2.7,27.9,0,28,0c9.4-2,22.9-10.9,24.7-12.5l-0.1-0.1l0.4-0.3c10.6-8.8,12.7-27.4,12.9-32.9l0,0.1l0-1.7
	c-0.3-14-4.9-26.1-12.8-34.1c-0.2-0.2-0.4-0.4-0.4-0.4c-15.4-15.5-34.8-15.7-35-15.7c-0.4,0-27.1-1-28.3-1l-0.4,0v-40.9l0.5,0.1
	c23.5,4.3,41.1,13.9,44.6,15.9c0.2-1.4,1.1-3.2,1.1-3.3c0,0,3.5-8,7-15.9c4.1-9.4,5.9-13.3,6.7-15c-15.6,5.5-29.6,0.7-29.8,0.7
	c-13.1-3.1-29.5-10.7-29.6-10.8l-0.2-0.1l0-13.2c0-1.3,0-2,0-2.4h0h0c0,0,0,0,0,0h0c0.6-7.4,7.3-13.6,9.9-15.7h-44.4
	c9.2,4.9,9,16,9,16.1c0,0,0,10.9,0,11.3v0.4h-0.4c-43.4,0-50.6,6.4-59.7,14.4c-10.4,9.2-17.3,24.5-17.3,38.1
	c0,13.9,5,22.1,14.3,32.3c15.8,17.4,62.6,16.2,63,16.2l0.4,0v36.1l-0.5-0.1c-13-2.1-37-13.1-40.5-14.7
	c-7.4,18.9-12.3,31.1-14.5,36.2c10.5-10.7,23.2-6.5,23.3-6.5l31.8,11.7l0.2,9.6c0,7.5-13.4,12.5-26.7,13.5
	c-19.6,1.5-42.5-6.8-46.6-28.8c-3.8-20.3,3.5-29.3,10.2-33.3c5-2.9,10.5-3.5,12.6-3.5c0,0,0,0,0.1,0c-0.9-4.7-3.2-8.4-6.8-10.8
	C260.1,336.1,256.3,335,252.3,335 M405.6,240.4L405.6,240.4L405.6,240.4z M366.6,376.3c-11,0-20.6-5-20.7-5.1l-0.2-0.1v-44.3
	l0.3-0.1c2.6-0.7,8.6-1.4,17.1-1.8c0.2,0,0.4,0,0.4,0l0,0.3l0-0.3c0.4,0,0.7,0,1.1,0c10.6,0,20.2,4.8,21,5.6l0.1,0.1
	c9.4,6.1,12.1,15.1,12.3,17.2c0,0.2,0,0.4,0,0.6c0.8,8.2-0.8,14.3-5,18.1c-0.1,0.1-0.1,0.1-0.2,0.2v0l-0.1,0.1
	c-8.2,8.8-22,9.4-22.2,9.4C369.2,376.2,367.9,376.3,366.6,376.3 M346.5,370.5c1.7,0.8,12.6,6,24,4.6c0.2,0,13.7-0.6,21.5-9.1
	c0.1-0.1,0.2-0.2,0.4-0.4c4-3.6,5.6-9.5,4.7-17.4l0-0.2l0.1-0.1c0-1.1-2.3-10.6-12.1-16.8l-0.2-0.1V331c-1.2-0.9-10.9-5.6-21.4-5.3
	v0c0,0,0,0,0,0v0v0c-0.1,0-0.2,0-0.4,0c-8.1,0.4-13.9,1-16.6,1.7V370.5z M307,302.9c-5.8,0-12.8-0.6-19.5-2.9
	c-14.8-4.9-20.8-11.4-20.8-22.3c0-10.8,10.7-19.4,21.4-22.4c10.2-2.8,17.9-4.4,31.4-0.3l0.3,0.1v46.6l-0.3,0.1
	C319.4,301.9,314.2,302.9,307,302.9 M304.4,253.5c-5.5,0-10.3,1.2-16.1,2.8c-10.3,2.9-20.7,11.2-20.7,21.5
	c0,10.5,5.9,16.7,20.2,21.5c13.7,4.6,28.7,2.3,31.2,1.9v-45.3C313.2,254.2,308.6,253.5,304.4,253.5"/>
<path class="st0" d="M400.8,428.6h-2.6v7h-1.8v-7h-2.6v-1.5h6.9 M412.5,435.7h-1.8v-6.8h0l-2.5,6.8h-1.7l-2.4-6.8h0v6.8h-1.8v-8.5h3
	l2,5.6h0l2.1-5.6h3V435.7z"/>
<path class="st2" d="M412.5,435.7h-1.9v-6.7l-2.4,6.7h-1.8l0,0l-2.3-6.6v6.6h-1.9v-8.7h3.1l0,0l2,5.5l2.1-5.5h3.1 M410.8,435.6h1.6
	v-8.5h-2.9l-2.1,5.6h-0.1l0,0l-2-5.5h-2.9v8.4h1.6v-6.8h0.1l0,0l2.4,6.8h1.6l2.5-6.8h0.1V435.6z M398.3,435.7h-1.9v-7h-2.6v-1.6h7
	v1.6h-2.6V435.7z M396.5,435.6h1.6v-7h2.6v-1.4H394v1.4h2.6V435.6z"/>
</svg>
