<?xml version="1.0" encoding="UTF-8"?>
<!-- Created with Inkscape (http://www.inkscape.org/) -->
<svg width="603.44" height="165.92" version="1.1" viewBox="0 0 7214.8 1983.8" xmlns="http://www.w3.org/2000/svg">
 <defs>
  <radialGradient id="SVGID_5_" cx="241.1" cy="-204.3" r="33.277" gradientTransform="matrix(4.0195,0,0,-4.0195,-724.69,-736.26)" gradientUnits="userSpaceOnUse">
   <stop stop-color="#5DAC39" offset=".0078"/>
   <stop stop-color="#CEE1CD" offset=".4549"/>
   <stop stop-color="#5DAC39" offset=".8902"/>
  </radialGradient>
  <radialGradient id="SVGID_6_" cx="204.36" cy="-225" r="47.071" gradientTransform="matrix(4.0195,0,0,-4.0195,-724.69,-736.26)" gradientUnits="userSpaceOnUse">
   <stop stop-color="#5DAC39" offset=".0078"/>
   <stop stop-color="#CEE1CD" offset=".4549"/>
   <stop stop-color="#5DAC39" offset=".8902"/>
  </radialGradient>
  <radialGradient id="SVGID_7_" cx="241" cy="-244.14" r="30.06" gradientTransform="matrix(4.0195,0,0,-4.0195,-724.69,-736.26)" gradientUnits="userSpaceOnUse">
   <stop stop-color="#5DAC39" offset=".0078"/>
   <stop stop-color="#CEE1CD" offset=".4549"/>
   <stop stop-color="#5DAC39" offset=".8902"/>
  </radialGradient>
  <radialGradient id="SVGID_8_" cx="242.42" cy="-242.85" r="9.1257" gradientTransform="matrix(4.0195,0,0,-4.0195,-724.69,-736.26)" gradientUnits="userSpaceOnUse">
   <stop stop-color="#5DAC39" offset=".0078"/>
   <stop stop-color="#CEE1CD" offset=".4549"/>
   <stop stop-color="#5DAC39" offset=".8902"/>
  </radialGradient>
  <radialGradient id="SVGID_9_" cx="212.01" cy="-226.66" r="38.89" gradientTransform="matrix(4.0195,0,0,-4.0195,-724.69,-736.26)" gradientUnits="userSpaceOnUse">
   <stop stop-color="#5DAC39" offset=".0078"/>
   <stop stop-color="#CEE1CD" offset=".4549"/>
   <stop stop-color="#5DAC39" offset=".8902"/>
  </radialGradient>
  <radialGradient id="SVGID_10_" cx="214.09" cy="-243.02" r="33.152" gradientTransform="matrix(4.0195,0,0,-4.0195,-724.69,-736.26)" gradientUnits="userSpaceOnUse">
   <stop stop-color="#5DAC39" offset=".0078"/>
   <stop stop-color="#CEE1CD" offset=".4549"/>
   <stop stop-color="#5DAC39" offset=".8902"/>
  </radialGradient>
  <radialGradient id="SVGID_11_" cx="213.8" cy="-234.61" r="41.211" gradientTransform="matrix(4.0195,0,0,-4.0195,-724.69,-736.26)" gradientUnits="userSpaceOnUse">
   <stop stop-color="#5DAC39" offset=".0196"/>
   <stop stop-color="#CEE1CD" offset=".4667"/>
   <stop stop-color="#5DAC39" offset=".7412"/>
  </radialGradient>
  <filter id="shadow" x="-.069936" y="-.080855" width="1.1399" height="1.1617">
   <feGaussianBlur stdDeviation="4.1146509"/>
  </filter>
  <linearGradient id="SVGID_3_-3" x1="113.12" x2="1.3556" y1="43.82" y2="3.14" gradientTransform="matrix(1,0,0,-1,8.3999,146.1)" gradientUnits="userSpaceOnUse">
   <stop stop-color="#CCE1FF" offset=".4335"/>
   <stop stop-color="#298BED" offset=".7882"/>
  </linearGradient>
  <radialGradient id="SVGID_4_-5" cx="37.329" cy="-62.618" r="36.755" gradientTransform="matrix(.998 .0626 .0487 -.7761 -9.09 79.265)" gradientUnits="userSpaceOnUse">
   <stop stop-color="#fff" stop-opacity=".6" offset="0"/>
   <stop stop-color="#fff" stop-opacity="0" offset=".936"/>
  </radialGradient>
  <radialGradient id="SVGID_5_-4" cx="89.351" cy="57.182" r="99.939" gradientTransform="matrix(1,0,0,-1,8.3999,146.1)" gradientUnits="userSpaceOnUse">
   <stop stop-color="#298BED" offset=".4227"/>
   <stop stop-color="#CCE1FF" offset=".8198"/>
  </radialGradient>
  <linearGradient id="SVGID_1_-6" x1="-5.1665" x2="53.906" y1="38.438" y2="98.281" gradientTransform="matrix(1,0,0,-1,8.3999,146.1)" gradientUnits="userSpaceOnUse">
   <stop stop-color="#FFF1BF" offset="0"/>
   <stop stop-color="#FF7400" offset=".4678"/>
   <stop stop-color="#FF7400" offset=".6179"/>
   <stop stop-color="#FF9735" offset=".8001"/>
  </linearGradient>
  <radialGradient id="SVGID_2_-9" cx="40.93" cy="50.81" r="46.661" gradientTransform="matrix(1,0,0,-1,8.3999,146.1)" gradientUnits="userSpaceOnUse">
   <stop stop-color="#FF7600" offset=".4039"/>
   <stop stop-color="#FFF1BF" offset="1"/>
  </radialGradient>
 </defs>
 <g transform="translate(8.0455e-5 -.01402)">
  <g transform="matrix(11.923,0,0,11.923,-36.246,-20.413)">
   <rect x="3.04" y="48.01" width="59.46" height="59.46" fill="url(#SVGID_1_-6)"/>
   <rect x="11.364" y="56.334" width="42.812" height="42.813" fill="url(#SVGID_2_-9)"/>
  </g>
  <g transform="matrix(11.967,0,0,11.967,-36.936,-38.838)">
   <rect x="19.24" y="76.22" width="92.799" height="92.799" fill="url(#SVGID_3_-3)"/>
   <rect x="19.24" y="91.204" width="71.38" height="71.38" fill="url(#SVGID_4_-5)"/>
   <rect x="29.912" y="86.893" width="71.455" height="71.455" fill="url(#SVGID_5_-4)"/>
  </g>
  <g transform="matrix(10.657,0,0,10.657,-698.51,-816.04)">
   <path d="m251.38 82.102v-0.13264l-139.46-5.3949v0.07235l0.33362 0.26529 15.531 11.982 115.16 0.23786z" fill="url(#SVGID_5_)"/>
   <path d="m242.94 89.128h0.33362l5.3959 119.88v0.0643l11.849 9.9684-9.142-136.94z" fill="url(#SVGID_6_)"/>
   <path d="m260.51 219.25v-0.20499l-11.849-9.9684v0.0724l-112.85 21.199v-0.0724l-12.517 17.734z" fill="url(#SVGID_7_)"/>
   <path d="m248.67 209.01v0.13264-0.0804z" fill="url(#SVGID_8_)"/>
   <path d="m126.72 88.894h1.0732l-15.531-11.982-0.33362-0.26529 11.386 171.36 12.517-17.742z" fill="url(#SVGID_9_)"/>
   <path d="m135.83 230.34v-0.0724z" fill="url(#SVGID_10_)"/>
   <path d="m255.72 215.01-7.566-130.21-130.67-3.8609 10.666 160.21z" fill="url(#SVGID_11_)"/>
   <path d="m246.42 206.01-6.5624-109.57-107.25-1.6342 8.5412 130.25z" fill="#fff"/>
  </g>
  <path transform="matrix(7.581,0,0,7.581,-2631.7,552.33)" d="m489.32-20.237c-1.5102 0-3.0421 0.04452-4.5524 0.0876l-1.3139 3.3647 4.5086-0.10821zm3.1509 5.9539-1.5973 3.8851c2.028 0.10811 4.0351 0.08481 6.0415 0.14943l1.6386-3.9263c-2.0496-0.12841-4.0547-0.04359-6.0827-0.10821zm-8.0253 5.114c-1.2729 0.08616-2.5256 0.0012-3.7769 0.152l-1.1645 2.9551 3.7537-0.152zm20.075 1.5381c-1.6701 0.0042-3.337 0.03607-4.9955 0.03607l-1.8318 4.6838 7.9609 0.064408 1.8756-4.7482c-1.0032-0.03231-2.0071-0.03859-3.0092-0.03607zm4.0655 4.2664-2.414 6.1909 9.8596 0.064408 2.5222-6.2347zm-20.021 0.60286-1.4453 3.6893h4.8976l1.4685-3.5811c-1.6397-0.086989-3.2812-5.061e-4 -4.9208-0.10821zm30.679 3.0633-3.2565 8.1773 11.261 0.064408 3.2797-8.1541zm26.106 0.75487-2.4089 6.0106-11.766 29.048c-7e-3 1.36e-4 -0.0137-1.39e-4 -0.0206 0l-1.2315 3.0942-0.45086 1.113-13.023 32.287-0.56937 1.4144-2.0508 5.0702c4.9405 0.19415 9.9034 0.86124 14.865 1.7674 14.39 2.6968 28.738 9.7955 37.001 21.036l31.8-78.746c-2.3948-3.1284-5.2203-5.827-8.2623-8.2649-12.103-9.7732-29.147-13.894-43.883-13.83zm-3.0324 0.041221c-3.5531 0.0021-7.1196 0.38433-10.669 0.78063l-4.184 10.398 11.908-0.0876 4.4674-11.068c-0.507-0.016181-1.015-0.023487-1.5226-0.023187zm-62.404 0.93006-3.7305 0.17261-1.2083 2.9551c1.2513 0.02154 2.4792-0.084494 3.7305-0.12882zm20.863 1.9271c-1.6838-0.00138-3.3713 0.030992-5.0702 0.015458l-1.6617 4.099c2.2437 0.10853 4.4676 0.12882 6.7114 0.12882l1.703-4.2278c-0.56094-0.011081-1.1211-0.014998-1.6824-0.015458zm6.2631 4.1556c-0.69915-0.00318-1.3985-0.0026-2.0997 0.00258l-2.329 5.6963c2.7831 0.10894 5.5865 0.0437 8.3911 0.06441l2.3316-5.7169c-2.1035 0-4.1965-0.036821-6.294-0.046374zm-21.824 0.34523c-0.40621 6.861e-4 -0.80941 0.014064-1.2032 0.046374l-1.3577 3.6455c1.6181-0.02361 3.2779 0.04236 4.8744-0.0438l1.3603-3.5811c-1.1974 0.032931-2.4552-0.069043-3.6739-0.066984zm30.254 3.9083-2.7412 6.8582 9.4062 0.0876 2.8056-6.8814zm-39.632 0.79609-4.5756 0.152-1.3165 3.3441 4.5524-0.06441zm62.997 0.36584-11.867 0.0438-3.8825 9.6226c3.9913-0.02195 7.9613-0.06399 11.931-0.19323zm-47.657 1.6411-1.6411 4.184 6.6676 0.0438 1.7468-4.1634c-2.2653-0.06462-4.5294-0.0437-6.7732-0.06441zm9.2542 4.1428-2.2646 5.7375h8.3499l2.2646-5.7375zm-21.618 0.23702-1.5741 3.8825 6.0415 0.0876 1.5948-3.8619c-2.0064-0.12841-4.0341-0.02205-6.0621-0.10821zm32.297 3.6043-2.7386 6.817 9.4912 0.06441 2.718-6.8608zm23.324 1.2701-11.995 0.17262-3.8619 9.5994 0.0644 0.04637 11.908-0.17262v-0.0026zm-64.573 0.2396c-0.95468 5e-3 -1.9201 0.02743-2.8262 0.10821l-1.1645 2.9319 3.7305-0.08502 1.2083-2.9551c-0.31284 0-0.62987-0.0017-0.9481 0zm20.062 1.52c-1.3511 0-2.7042 0.01133-4.0526 0.03349l-1.8344 4.658 7.9815 0.06698 1.9426-4.725c-1.3376-0.02216-2.686-0.03349-4.0371-0.03349zm5.0934 4.2175-2.5248 6.1703 0.0876 0.0438 9.8364 0.02061 2.5042-6.2347zm-20.064 0.58225-1.4891 3.6893c1.6397 0.1077 3.3027-0.04432 4.9208 0 0.53941-1.1434 1.0349-2.3955 1.4015-3.5605zm30.702 2.9989-3.2385 8.1129 11.241 0.08502 3.3029-8.1103zm24.313 1.4247-11.931 0.152-3.8387 9.5788 11.972-0.12882zm-63.731 0.56164c-1.2513 0-2.5033 0.0642-3.7331 0.12882l-1.2083 2.9551c1.2298 0.04308 2.4818-0.0845 3.7331-0.12882zm20.933 1.7596c-1.699-0.0027-3.397 0.05619-5.096 0.0077l-1.5973 4.1015 6.6882 0.08502 1.7055-4.1634c-0.56634-0.02133-1.134-0.03002-1.7004-0.03092zm8.3628 4.1041c-1.3996-3e-3 -2.8022 0.0026-4.2046 0.0026l-2.2646 5.6731 8.3499 0.04637 2.3084-5.6757c-1.3916-0.03251-2.7895-0.04342-4.1891-0.04637zm-21.471 0.61832c-1.2419 0.0073-2.4957 0.06176-3.7254 0.07729-0.51779 1.1003-0.99113 2.351-1.3577 3.4729l4.8306 0.02061 1.4891-3.5579c-0.40992-0.01077-0.82267-0.0153-1.2366-0.01288zm27.837 3.5502-2.7386 6.7088 9.4706 0.19322 2.718-6.817zm23.666 0.40964-11.972 0.14943-3.9057 9.839 11.931-0.152 0.0438-0.12882zm-63.319 0.58225c-1.5749 0.06462-3.1082 0.06491-4.64 0.17261l-1.3139 3.2153c1.5102 0.08616 3.019-0.06462 4.5292 0zm15.468 1.6386c-0.58253 1.2513-1.165 2.7639-1.6179 4.1015l6.6676 0.12882c0.58249-1.3808 1.1858-2.8711 1.6824-4.2303zm11.346 4.0474c-0.6978-3.76e-4 -1.3936 0.0026-2.0894 0.0077l-2.3316 5.6963 8.3937 0.0438 2.3084-5.6525c-2.0873-0.06462-4.1877-0.0942-6.2811-0.09532zm-20.116 0.77805c-1.2747 0.0032-2.5474 0.02834-3.8284 0.02834l-1.5329 3.8851 6.1059-0.02319 1.5535-3.8619c-0.76857-0.02423-1.5333-0.03023-2.2981-0.02834zm28.577 3.46-2.785 6.8402 9.4294 0.12882c1.014-2.2653 1.8338-4.6608 2.8262-6.9046zm23.473 0.73168-11.89 0.10821-3.9676 9.7308 0.10563 0.0438 11.931-0.30143v-0.0026zm-48.543 1.9219-1.8988 4.7044c2.6536 0.06462 5.3063 0.08512 7.9815 0.06441l1.9426-4.725c-2.6753 0.04184-5.35-0.0438-8.0253-0.0438zm9.1048 4.1634-2.5248 6.2347 9.9034 0.0876 2.5016-6.2579zm10.679 3.6481-3.3003 8.1103 11.217 0.17262 3.3003-8.1541zm24.38 1.2701-12.019 0.21641-4.1634 10.334c3.9913-0.3231 7.9819-0.28032 11.952-0.17262z" fill="#666" filter="url(#shadow)" opacity=".5"/>
  <g transform="matrix(31.403,0,0,31.403,-11131,-3739.9)">
   <path d="m394.3 153.57 3.2813-8.1354c1.5625-0.0833 4.1042 0.26561 5.6771 0.64582l-3.3802 8.375c-1.5313-0.38541-4.0469-0.83854-5.5781-0.88541" fill="#5494d4"/>
   <path d="m409.07 149.36-3.4167 8.4115c-1.1406-0.93751-4.2708-2.724-5.7708-3.3125l3.3802-8.375c1.526 0.54688 4.7917 2.1823 5.8073 3.276" fill="#fac705"/>
   <path d="m412.42 141.56-3.349 7.7969c-1.099-1-4.2656-2.7135-5.8073-3.276l3.3906-8.3854c1.5417 0.51563 4.7656 2.7188 5.7656 3.8646" fill="#73ca54"/>
   <path d="m397.58 145.44 3.3333-8.2292c1.5573-0.0625 4.1614 0.1823 5.7344 0.48959l-3.3906 8.3854c-1.5521-0.42708-4.125-0.67708-5.6771-0.64582" fill="#f3632e"/>
   <path d="m386.31 148.46-1.6094-0.0312c0.10934-0.32292 0.25-0.68751 0.39063-0.98959h1.625c-0.11987 0.32813-0.26563 0.68751-0.40625 1.0208" fill="#5494d4"/>
   <path d="m388.79 149.81-2.026-0.0107 0.5625-1.375c0.67187-5e-3 1.349 0 2.0208 0.0208l-0.55729 1.3646" fill="#5494d4"/>
   <path d="m392.16 149.46c-0.23959 0.54167-0.43751 1.1198-0.6823 1.6667l-2.276-0.0312 0.67187-1.651 2.2865 0.0156" fill="#5494d4"/>
   <path d="m384.15 146.81-1.1667-5e-3c0.0885-0.27084 0.20314-0.57292 0.32814-0.83854 0.39582-5e-3 0.80208-0.026 1.1979-0.0156l-0.35939 0.85938" fill="#5494d4"/>
   <path d="m382.03 145.1c-0.30208 0.0107-0.60416 0.0416-0.90104 0.0312l0.29167-0.71355c0.29688-0.0156 0.59896-0.0312 0.90104-0.0312l-0.29167 0.71355" fill="#5494d4"/>
   <path d="m387.37 145.82-1.6146-0.0208 0.38541-0.98957c0.54687 0.0156 1.0938-0.0156 1.6406 5e-3l-0.41147 1.0052" fill="#5494d4"/>
   <path d="m389.84 147.18-2.0156-0.0107 0.54688-1.3698c0.67708 0 1.3542-5e-3 2.026 0.0107l-0.55729 1.3698" fill="#5494d4"/>
   <path d="m392.55 148.47-2.2864-0.0469 0.66145-1.6198 2.2813 0.0208-0.65626 1.6458" fill="#5494d4"/>
   <path d="m385.25 144.07c-0.39062-0.0107-0.79166 0.026-1.1875 0l0.35938-0.89063 1.1667 0.0312c-0.0885 0.28124-0.20833 0.58334-0.33855 0.85938" fill="#5494d4"/>
   <path d="m383.13 142.37-0.90106 0.0208 0.28126-0.70834c0.29166-0.026 0.60937-0.026 0.91146-0.026l-0.29166 0.71354" fill="#5494d4"/>
   <path d="m389.55 140.39-1.6094-0.0107 0.39584-1.0104c0.54167 5e-3 1.0885 0 1.6354 0.0156l-0.42188 1.0052" fill="#f3632e"/>
   <path d="m390.03 141.75 0.54688-1.3854h2.0156l-0.54688 1.3854h-2.0156" fill="#f3632e"/>
   <path d="m394.78 142.95-2.2917-0.0156 0.66145-1.6458 2.2865 5e-3 -0.65624 1.6562" fill="#f3632e"/>
   <path d="m387.46 138.62c-0.38542 0.0208-0.78646 5e-3 -1.1771 0.0107l0.32812-0.8802c0.38021-0.0312 0.79166 0.0156 1.1771 5e-3l-0.32812 0.86459" fill="#f3632e"/>
   <path d="m385.33 136.92c-0.30208 0.0107-0.59896 0.0364-0.90104 0.0312l0.29167-0.71355 0.90104-0.0416-0.29167 0.72396" fill="#f3632e"/>
   <path d="m390.65 137.68c-0.54166 0-1.0781-5e-3 -1.6198-0.0312l0.40104-0.98958c0.54686 5e-3 1.0885-0.0107 1.6302 0l-0.41146 1.0208" fill="#f3632e"/>
   <path d="m393.12 139.05c-0.67708-5e-3 -1.3542 0.0107-2.026-0.0156l0.5625-1.375c0.67709-5e-3 1.349 0.0107 2.026 0.0107l-0.5625 1.3802" fill="#f3632e"/>
   <path d="m395.81 140.36-2.2708-0.0208 0.66145-1.6562 2.2865 0.0156-0.67709 1.6615" fill="#f3632e"/>
   <path d="m388.54 135.93h-1.1823l0.34896-0.89063c0.39582 0.026 0.79166 5e-3 1.1875 0.026l-0.35416 0.86458" fill="#f3632e"/>
   <path d="m386.43 134.2-0.90625 0.0364 0.28125-0.71355c0.30208-0.0364 0.60418-0.0156 0.91147-0.0364l-0.28647 0.71354" fill="#f3632e"/>
   <path d="m385.29 151.23c-0.64583 5e-3 -1.2865 0-1.9271-0.0156l0.45833-1.1354c0.64584 0 1.2917 0.0208 1.9375 0.0107l-0.46876 1.1406"/>
   <path d="m399.97 138.65-2.875 0.0208 1.0104-2.5104c0.97917-0.10934 1.9635-0.21355 2.9427-0.1823l-1.0781 2.6719"/>
   <path d="m387.56 131.62-1.0885 0.026 0.31771-0.8125c0.36459-0.0104 0.73437-0.0208 1.099-0.0208l-0.32813 0.80729"/>
   <path d="m389.72 133.23c-0.48437-0.0156-0.96874-0.0104-1.4583-0.0365l0.38541-0.9375c0.48959 0.0156 0.97396-5e-3 1.4688 0.026l-0.39583 0.94792"/>
   <path d="m397.05 137.77-2.7188-0.0156 0.78647-1.974 2.724 0.0208-0.79167 1.9687"/>
   <path d="m391.96 136.39 0.58333-1.4948 2.4062 5e-3 -0.60937 1.5052-2.3802-0.0156"/>
   <path d="m391.83 135.02-1.9219-0.0156 0.4427-1.1302c0.64063 0 1.2865-0.0208 1.9323 0l-0.45312 1.1458"/>
   <path d="m398.92 141.26c-0.95833 0.0312-1.9167 0.0416-2.8802 0.0469l0.93749-2.3229 2.8646-0.0107-0.92187 2.2865"/>
   <path d="m397.84 143.93-2.875 0.0416-0.0156-0.0107 0.93229-2.3177 2.8958-0.0416-0.9375 2.3281"/>
   <path d="m383.21 139.72 0.31771-0.80729 1.1042-0.0364-0.32292 0.82812-1.099 0.0156"/>
   <path d="m393.9 146.6 0.92709-2.3125 2.8802-0.0364-0.91666 2.3177-2.8906 0.0312"/>
   <path d="m386.43 141.38-1.4583-0.0208 0.3802-0.93749c0.48959 0.0208 0.97918-5e-3 1.4636 0.026l-0.38541 0.93229"/>
   <path d="m393.77 145.89-2.7136-0.0208 0.78126-1.9583 2.7292 0.0208-0.79687 1.9583"/>
   <path d="m391.05 144.55-2.375-5e-3 -0.0208-0.0107 0.60938-1.4896h2.3906l-0.60417 1.5052"/>
   <path d="m388.54 143.17-1.9271-0.0156 0.44271-1.125c0.65104-0.0107 1.3073-0.0107 1.9531 0l-0.46875 1.1406"/>
   <path d="m395.7 149.25-0.0107 0.0312-2.8802 0.0364 0.9427-2.375 2.8906-0.0364-0.94271 2.3438"/>
   <path d="m394.61 151.93-2.8802 0.0729-0.026-0.0107 0.95833-2.349 2.8698-0.026-0.92187 2.3125"/>
   <path d="m393.46 154.78c-0.95834-0.026-1.9219-0.0364-2.8854 0.0416l1.0052-2.4948 2.901-0.0521-1.0208 2.5052"/>
   <path d="m383.15 149.55-1.474 5e-3 0.3698-0.93749c0.49479 0 0.98438-0.0156 1.4792 0l-0.375 0.93229"/>
   <path d="m390.51 153.97-2.7083-0.0416 0.79687-1.9583 2.7083 0.0312-0.79686 1.9688"/>
   <path d="m385.41 152.59 0.60937-1.5052 2.3854 0.0156-0.60416 1.5104-2.3906-0.0208"/>
   <path d="m410.93 141.99c-1.0052-1.1458-2.3958-1.9531-3.9427-2.4688l-2.4167 5.9792c1.5364 0.56771 2.901 1.3438 3.9948 2.349zm-3.1354 7.8073c-1.0104-1.0938-2.4636-1.8698-3.9896-2.4115l-2.4531 6.1094c1.5 0.59376 2.901 1.2917 4.0417 2.2344zm6.2136-8.5052-7.6771 19.01c-1.9948-2.7135-5.4583-4.4271-8.9323-5.0781-1.1979-0.21875-2.3958-0.38021-3.5885-0.42708l1-2.474c1.5312 0.0416 3.0677 0.21875 4.6042 0.60416l2.4792-6.1458c-1.5729-0.38021-3.1406-0.42708-4.7031-0.34374l0.80209-2.0156c1.5521-0.0312 3.1042 0.0625 4.6562 0.48957l2.3906-5.9167c-1.5625-0.30208-3.1302-0.41667-4.6927-0.35938l1.0729-2.6771c3.5573-0.0156 7.6719 0.97918 10.594 3.3386 0.73437 0.58853 1.4167 1.2396 1.9948 1.9948" fill-rule="evenodd"/>
   <path d="m381.01 147.86c-0.36459-0.0156-0.72916 0.0208-1.0938 0l0.31771-0.77604c0.36978-0.026 0.73958-0.026 1.1198-0.0416l-0.34374 0.8177"/>
  </g>
  <g transform="matrix(10,0,0,10,1.9573e-6,1.8079e-6)" fill="#59bf45">
   <path d="m613.49 153.04 3.9037 14.196 4.0328-14.196h4.6458v19.68h-3.0649v-16.809l-4.6458 16.809h-2.3874l-4.5813-16.809v16.809h-2.71v-19.68h4.8071"/>
   <path d="m629.08 158.17h3.0327v14.55h-3.0327zm-0.0663-5.1297h3.1618v3.194h-3.1618z"/>
   <path d="m685.31 158.17h3.0005v14.55h-3.0005zm-0.0663-5.1297h3.1617v3.194h-3.1614z"/>
   <path d="m635.08 153.04h3.0004v19.68h-3.0004z"/>
   <path d="m641.01 153.04h3.0327v19.68h-3.0327z"/>
   <path d="m649.4 163.88c0.16105-2.5488 1.0647-3.8715 2.581-3.8715 1.6454 0 2.5165 1.355 2.5165 3.8715zm8.1624 2.0325c-0.0663-2.8391-0.25769-4.0328-1.0646-5.5492-0.83878-1.6131-2.5165-2.5487-4.42-2.5487-3.6134 0-5.8073 2.9682-5.8073 7.8398 0 4.7426 2.0971 7.4204 5.7751 7.4204 1.6453 0 2.9036-0.51599 3.9037-1.5486 0.74246-0.83892 1.1292-1.5486 1.4841-3.065l-2.7423-0.38716c-0.41936 1.968-1.1615 2.7423-2.5488 2.7423-0.93561 0-1.7099-0.45158-2.1938-1.2905-0.45157-0.77393-0.61263-1.6777-0.61263-3.6134h8.2269"/>
   <path d="m662.21 158.17v2.2584c0.80695-1.8713 1.839-2.6133 3.6134-2.6133 1.6132 0 2.8392 0.70945 3.3553 2.0325 0.29052 0.67723 0.38715 1.4519 0.38715 3.4844v9.3884h-3.0004v-9.1948c0-1.4841-0.0663-2.0648-0.29052-2.5165-0.25769-0.51599-0.74172-0.77393-1.4518-0.77393-1.6776 0-2.3552 1.226-2.3552 4.3232v8.1624h-3.0004v-14.55h2.7423"/>
   <path d="m675.21 158.17v2.2584c0.77387-1.8713 1.8067-2.6133 3.5812-2.6133 1.6132 0 2.8392 0.70945 3.3553 2.0325 0.32273 0.67723 0.38715 1.4519 0.38715 3.4844v9.3884h-3.0004v-9.1948c0-1.4841-0.0663-2.0648-0.29052-2.5165-0.25769-0.51599-0.74172-0.77393-1.4518-0.77393-1.6776 0-2.3551 1.226-2.3551 4.3232v8.1624h-3.0004v-14.55h2.7745"/>
   <path d="m694.28 158.17v9.2272c0 1.4518 0.031 1.9035 0.19327 2.3229 0.25768 0.64502 0.67729 0.9356 1.4841 0.9356 0.96788 0 1.6131-0.48378 2.0326-1.5164 0.2899-0.77387 0.38715-1.5486 0.38715-3.9682v-7.0011h3.0004v14.55h-2.7746v-2.1939c-0.9356 1.8713-1.8712 2.5488-3.6456 2.5488-1.5809 0-2.6778-0.64509-3.2263-1.839-0.35494-0.80695-0.45158-1.6776-0.45158-3.7748v-9.2916h3.0005"/>
   <path d="m707.12 158.17v2.2262c0.90339-1.9358 1.8067-2.581 3.5812-2.581 1.9035 0 2.8714 0.80695 3.3553 2.7101 0.77387-1.9036 1.8712-2.7101 3.6779-2.7101 1.5163 0 2.7423 0.64503 3.2908 1.7744 0.35495 0.74172 0.45158 1.7745 0.45158 3.9361v9.1948h-2.9682v-8.969c0-1.4518-0.0966-2.0971-0.29052-2.581-0.22548-0.61263-0.74172-0.93561-1.4841-0.93561-1.5486 0-2.2907 1.2582-2.2907 3.9683v8.5173h-3.0004v-8.9045c-0.031-2.0648-0.031-2.0971-0.19327-2.5164-0.25768-0.74172-0.77386-1.0647-1.6776-1.0647-0.93561 0-1.6131 0.516-1.968 1.5163-0.22609 0.61263-0.25769 1.097-0.25769 2.4842v8.4851h-3.0004v-14.55h2.7745"/>
   <path d="m619.98 176.01v2.6132h-8.0012v5.646h6.259v2.6132h-6.259v6.1622h8.1302v2.6455h-11.389v-19.68h11.26"/>
   <path d="m628.4 189.62c0 1.3228-0.12885 2.1294-0.48379 2.7423-0.48378 0.83891-1.226 1.3228-2.0971 1.3228-1.7744 0-2.5487-1.6454-2.5487-5.4847 0-3.4521 0.80688-5.0652 2.5165-5.0652 0.74166 0 1.355 0.35494 1.8712 1.0324 0.61263 0.80694 0.74166 1.355 0.74166 2.9681zm0-13.615v6.8396c-0.70951-1.355-1.7099-1.9358-3.3231-1.9358-3.0649 0-4.9684 2.9036-4.9684 7.5495 0 4.7426 1.8067 7.5171 4.9039 7.5171 1.7422 0 2.7746-0.70945 3.6456-2.4842v2.1939h2.7424v-19.68h-3.0004"/>
   <path d="m634.3 181.14h3.0327v14.55h-3.0327zm-0.031-5.1297h3.1295v3.1939h-3.1295z"/>
   <path d="m643.92 177.07v4.0652h2.7746v2.4197h-2.7746v6.4525c0 1.9357 0.031 2.2584 0.29052 2.71 0.22548 0.51599 0.80614 0.77393 1.7421 0.77393 0.38715 0 0.6773 0 1.226-0.0663v2.3874c-0.9356 0.16106-1.4518 0.22548-2.1938 0.22548-1.7745 0-2.9359-0.54821-3.4844-1.7099-0.41936-0.83885-0.51599-1.6132-0.51599-4.1296v-6.6461h-1.9035v-2.4197h2.0003l0.12884-3.807 2.71-0.25769"/>
   <path d="m648.47 181.14h3.0327v14.55h-3.0327zm-0.031-5.1297h3.1294v3.1939h-3.1294z"/>
   <path d="m659.44 183.07c1.7744 0 2.581 1.6454 2.581 5.3234 0 3.7101-0.80695 5.3878-2.5488 5.3878-1.7421 0-2.5164-1.6454-2.5164-5.3556 0-3.6457 0.77393-5.3556 2.4842-5.3556zm0.0966-2.2906c-3.8393 0-5.775 2.6133-5.775 7.6786 0 4.9361 1.968 7.5817 5.6782 7.5817 3.7747 0 5.775-2.581 5.775-7.614 0-5.0008-2.0003-7.6463-5.6782-7.6463"/>
   <path d="m670.21 181.14v2.2584c0.80689-1.8713 1.839-2.6133 3.6134-2.6133 1.6132 0 2.8069 0.70951 3.3553 2.0648 0.29051 0.67724 0.38715 1.4196 0.38715 3.4521v9.3884h-3.0327v-9.1949c0-1.4841-0.0663-2.0648-0.2899-2.5165-0.2261-0.48378-0.74246-0.77387-1.4518-0.77387-1.6776 0-2.3551 1.226-2.3551 4.3554v8.1302h-3.0004v-14.55h2.7745"/>
   <path d="m720.8 93.964c-0.90327-3.9361-4.5812-9.3562-11.711-8.1302-32.005 5.5169-28.94 64.17-1.839 55.685 6.7106-2.1293 9.8724-8.1947 7.7108-7.6785-2.1938 0.516-4.2587 3.7424-9.582 3.0327-14.389-1.968-10.647-20.325-10.647-20.325s30.359-3.7426 26.068-22.584zm-20.1 4.5813c3.5489-4.3554 6.6461-6.0976 8.969-5.162 3.6779 1.4841 1.9035 6.6138-0.35494 9.3561-5.9686 7.2268-13.744 7.13-13.744 7.13 0.22547-1.6131 1.6454-6.9687 5.1297-11.324"/>
   <path d="m676.37 131.13c-0.5482-4.7748 0.22548-19.003 5.8718-38.199 5.6459-19.196 2.1615-26.552-4.6136-26.552-6.7752 0-23.552 30.908-23.552 30.908v0.031c0.0966-11.518-0.516-40.425-8.8077-41.199-11.389-1.0324-18.615 23.584-22.068 32.069 1.1292-10.034 1.5163-17.357 1.0646-25.1-0.5482-9.9046-3.1617-11.453-6.1298-10.969-3.678 0.58041-2.7423 3.8392-2.5165 13.002 0.22547 10.55-0.41937 16.035-2.1616 32.617-0.16105 1.3873-5.8718 41.877-4.2909 43.974 1.839 2.4197 5.2588 5.4847 7.0656 1.839 1.8389-3.6779 17.648-75.043 24.358-73.236 6.7106 1.839 0.67723 62.396 1.1937 68.364 0.45157 4.7749 5.5169 4.7749 6.6461 0.61263l2.3551-10.711c8.5819-31.682 21.455-53.749 24.165-50.491 2.8392 3.3875-6.9687 39.973-6.8396 51.846 0.0966 9.1948 4.0328 16.164 10.227 16.615 4.8071 0.35494 7.13-1.9358 6.5816-3.5811-1.1937-3.4844-6.7107 3.6779-8.5495-11.84"/>
  </g>
  <g transform="matrix(10,0,0,10,1.9573e-6,1.8079e-6)">
   <path d="m210.89 79.059h2.581v-19.777l8.0011 19.777h2.0971l8.0979-19.648v19.648h2.8714v-22.1h-4.2909l-7.4849 18.519-7.5172-18.519h-4.3555v22.1"/>
   <path d="m238.8 59.378h2.7101v-2.4197h-2.7101zm0 19.68h2.7101v-16.389h-2.7101z"/>
   <path d="m257.15 68.412 2.5487-0.35494c-0.61263-3.7102-3.0972-5.8395-6.5816-5.8395-4.8393 0-8.1624 3.3876-8.1624 8.6464 0 5.3233 3.1618 8.6141 7.743 8.6141 3.678 0 6.2912-2.0326 7.001-5.6782l-2.452-0.41937c-0.58042 2.581-2.2261 4.0006-4.4522 4.0006-2.8714 0-4.9039-2.4197-4.9039-6.517 0-4.1619 2.1293-6.5816 4.9684-6.5816 2.1616 0 3.9038 1.5164 4.291 4.1296"/>
   <path d="m262.93 79.059h2.7424v-8.2269c0-3.7747 2.2261-6.1299 5.7104-6.1299h0.48378v-2.4519c-0.35494-0.031-0.67724-0.031-1.0002-0.031-2.5165 0-4.2264 1.355-5.3556 4.1296v-3.6456h-2.581v16.357"/>
   <path d="m280.48 79.478c4.8717 0 8.2593-3.3553 8.2593-8.6141 0-5.2912-3.3875-8.6464-8.2593-8.6464-4.8393 0-8.1624 3.3553-8.1624 8.6464 0 5.2588 3.3231 8.6141 8.1624 8.6141zm0-2.0326c-3.1294 0-5.2265-2.4197-5.2265-6.5815 0-4.1942 2.0648-6.5816 5.2265-6.5816 3.1618 0 5.2588 2.4197 5.2588 6.5816 0 4.1296-2.1293 6.5815-5.2588 6.5815"/>
   <path d="m315.42 79.478c4.8717 0 8.2592-3.3553 8.2592-8.6141 0-5.2912-3.3875-8.6464-8.2592-8.6464-4.8393 0-8.1624 3.3553-8.1624 8.6464 0 5.2588 3.3231 8.6141 8.1624 8.6141zm0-2.0326c-3.1294 0-5.2265-2.4197-5.2265-6.5815 0-4.1942 2.0648-6.5816 5.2265-6.5816 3.1618 0 5.2588 2.4197 5.2588 6.5816 0 4.1296-2.1293 6.5815-5.2588 6.5815"/>
   <path d="m330.87 62.992c0-0.19326-0.031-0.41936-0.031-0.61262 0-2.3229 1.0324-3.4198 3.2908-3.4198 0.48378 0 1.226 0.0663 2.1938 0.22548v-2.0325c-0.87112-0.16105-1.7744-0.22547-2.71-0.22547-3.6779 0-5.4524 1.9358-5.4524 5.9364v0.12884h-3.2262v1.7745h3.2262v14.583h2.7101v-14.583h6.9041v8.5173c0 2.0971 0 3.6135 0.77393 4.5813 1.0324 1.3551 2.5165 1.9358 4.6781 1.9358 0.74166 0 1.5163-0.0966 2.2906-0.25769v-2.0326c-0.67729 0.16105-1.3228 0.19326-1.9034 0.19326-2.7746 0-3.0972-1.3227-3.0972-4.3877v-8.5495h4.3554v-1.7745h-4.3554v-4.1618l-2.7424 0.25769v3.9037h-6.9042"/>
   <path d="m290.64 74.606c0.87113 2.9359 3.6457 4.6458 7.6462 4.6458 4.1942 0 6.9365-2.1293 6.9365-5.033 0-2.452-1.8067-3.7425-5.5814-4.6136-3.5166-0.77386-5.5814-0.80688-5.5814-2.8068 0-1.5486 1.3872-2.5487 3.6779-2.5487 2.1938 0 3.6456 0.87099 4.1941 2.5487l2.5165-0.48378c-0.87106-2.6456-3.2263-4.0974-6.5816-4.0974-4.0005 0-6.5494 2.1293-6.5494 4.8395 0 2.71 1.839 3.7424 5.8073 4.6135 3.3553 0.70951 5.291 0.9034 5.291 2.8714 0 1.5809-1.5808 2.7423-4.1296 2.7423-2.5164 0-4.4522-1.1292-5.1942-3.1295l-2.452 0.45157"/>
   <path d="m344.55 94.609 16.744-0.031v6.6138c2.6455-5.162 7.4526-7.9043 13.873-7.9043 11.227 0 15.647 5.4525 15.647 17.293v30.746l-18.293 0.031v-28.23c0-4.3554-1.6132-7.1946-4.7104-7.1946-3.2262 0-5.1942 2.2906-5.1942 6.6461v28.746l-18.099 0.031zm158.05 46.748h13.518l6.9042-26.133 6.2912 26.133h13.679l15.518-46.781h-13.131l-6.8719 23.584-6.0653-23.584h-14.131l-5.8395 22.939-6.7107-22.939h-18.486zm-250.55-0.031h18.615l8.6464-35.457 8.9044 35.457h18.261l17.615-62.041h-15.647l-9.3561 35.747-9.1949-36.005h-17.002l-8.9368 36.36-9.0981-36.36h-20.358zm70.494-50.491h18.325v-11.55h-18.325zm0 3.7424h18.325v46.749h-18.325zm99.562 17.519c0-1.8389 0.0966-4.065-1.1614-5.5491-0.87112-1.1937-2.6133-1.839-4.1619-1.839-4.3878 0-6.872 5.0652-6.872 13.744 0 4.1618 0.80694 11.518 6.8074 11.518 1.9035 0 3.1618-0.80694 4.2264-2.3875 1.355-2.0325 1.1614-3.6779 1.1614-6.0008zm1.1937 29.23v-6.2912h-0.19326c-2.8069 5.162-6.9365 7.1945-13.099 7.1945-14.196 0-19.358-12.615-19.358-24.229 0-12.099 5.0652-24.713 19.938-24.713 4.7103 0 8.7431 1.9358 11.744 4.7749v-19.099h18.583v62.364zm51.427-23.294c0-8.7432-2.9359-12.937-7.4849-12.937-4.5168 0-7.4528 4.1941-7.4528 12.937 0 8.7754 2.9359 12.97 7.485 12.97 4.549 0 7.4527-4.1942 7.4527-12.97zm-33.779 0c0-14.873 10.582-24.713 26.294-24.713 15.809 0 26.294 9.8401 26.294 24.713 0 14.809-10.485 24.745-26.294 24.745-15.712 0-26.294-9.937-26.294-24.745zm110.56 9.9046c2.7423 9.2916 11.679 14.421 25.907 14.421 15.68 0 25.229-7.13 25.229-16.615 0-3.8715-1.5809-7.1946-4.5813-9.7433-3.7102-3.0649-8.0979-3.6779-13.454-4.6135-9.227-1.5164-13.841-1.1615-13.808-4.0651 0-1.5486 1.8389-3.2263 5.5492-3.2263 4.5813 0 7.4849 1.5164 9.2594 4.42l14.97-2.4519c-3.2908-8.0334-11.389-12.453-23.261-12.453-14.809 0-23.358 6.8719-23.358 16.067 0 3.9682 2.0325 7.7752 5.5491 10.292 4.3554 3.1618 9.2272 3.9038 14.809 4.8071 6.9042 1.1615 10.582 0.80695 10.873 3.4198 0.22548 1.8067-2.4197 3.1618-7.001 3.1618-6.4202 0-10.034-1.8067-10.905-5.2266l-15.776 1.8067"/>
  </g>
 </g>
</svg>
