<svg height="157.359158" viewBox="0 0 735.22405 182.48392" width="635.488909" xmlns="http://www.w3.org/2000/svg" xmlns:xlink="http://www.w3.org/1999/xlink"><radialGradient id="a" cx="256.7764" cy="-191.69119" gradientTransform="matrix(2.9700505 0 0 -2.9892771 -804.80313 -505.53758)" gradientUnits="userSpaceOnUse" r="30.8692" xlink:href="#b"/><linearGradient id="b"><stop offset=".25" stop-color="#fff"/><stop offset="1"/></linearGradient><radialGradient id="c" cx="256.77829" cy="-191.69209" gradientTransform="matrix(2.9700505 0 0 -2.9892771 -804.80313 -505.53758)" gradientUnits="userSpaceOnUse" r="30.867001" xlink:href="#b"/><radialGradient id="d" cx="256.77731" cy="-191.6926" gradientTransform="matrix(2.9700505 0 0 -2.9892771 -804.80313 -505.53758)" gradientUnits="userSpaceOnUse" r="30.868799" xlink:href="#b"/><radialGradient id="e" cx="256.7764" cy="-191.6926" gradientTransform="matrix(2.9700505 0 0 -2.9892771 -804.80313 -505.53758)" gradientUnits="userSpaceOnUse" r="30.871201" xlink:href="#b"/><radialGradient id="f" cx="232.4072" cy="-168.50459" gradientTransform="matrix(3.0518398 0 0 -3.0518398 -758.59186 -461.77419)" gradientUnits="userSpaceOnUse" r="33.058399"><stop offset=".0011" stop-color="#d1e7ee"/><stop offset=".0979" stop-color="#cde4ec"/><stop offset=".203" stop-color="#c0dce8"/><stop offset=".2985" stop-color="#add0e1"/><stop offset=".6504" stop-color="#3982b1"/><stop offset=".7203" stop-color="#3474aa"/><stop offset=".899" stop-color="#285699"/><stop offset="1" stop-color="#244b93"/></radialGradient><radialGradient id="g" cx="232.3887" cy="-168.27609" gradientTransform="matrix(3.0518398 0 0 -3.0518398 -758.59186 -461.77419)" gradientUnits="userSpaceOnUse" r="33.259701" xlink:href="#h"/><linearGradient id="h"><stop offset=".0036" stop-color="#d8eeed"/><stop offset=".1733" stop-color="#98d8d7"/><stop offset=".2237" stop-color="#8ed3d3"/><stop offset=".3088" stop-color="#74c6ca"/><stop offset=".4176" stop-color="#49b1ba"/><stop offset=".4477" stop-color="#3caab5"/><stop offset=".56" stop-color="#2e81a4"/><stop offset=".6836" stop-color="#215b94"/><stop offset=".783" stop-color="#19448b"/><stop offset=".8448" stop-color="#163b87"/><stop offset="1" stop-color="#0b317d"/></linearGradient><radialGradient id="i" cx="232.3857" cy="-168.4431" gradientTransform="matrix(3.0518398 0 0 -3.0518398 -758.59186 -461.77419)" gradientUnits="userSpaceOnUse" r="33.177502" xlink:href="#j"/><linearGradient id="j"><stop offset=".0036" stop-color="#d8eeed"/><stop offset=".1733" stop-color="#98d8d7"/><stop offset=".2237" stop-color="#8ed3d3"/><stop offset=".3088" stop-color="#74c6ca"/><stop offset=".4176" stop-color="#49b1ba"/><stop offset=".4477" stop-color="#3caab5"/><stop offset=".56" stop-color="#2e81a4"/><stop offset=".6836" stop-color="#215b94"/><stop offset=".783" stop-color="#19448b"/><stop offset=".8448" stop-color="#163b87"/><stop offset="1" stop-color="#152469"/></linearGradient><radialGradient id="k" cx="232.4102" cy="-168.4158" gradientTransform="matrix(3.0518398 0 0 -3.0518398 -758.59186 -461.77419)" gradientUnits="userSpaceOnUse" r="33.192299" xlink:href="#h"/><linearGradient id="l" gradientTransform="matrix(3.0518398 0 0 -3.0518398 -758.59186 -461.77419)" gradientUnits="userSpaceOnUse" x1="230.5762" x2="225.40559" y1="-169.54131" y2="-187.72929"><stop offset="0" stop-color="#98d8d7"/><stop offset="1" stop-color="#152469"/></linearGradient><radialGradient id="m" cx="232.418" cy="-168.40359" gradientTransform="matrix(3.0518398 0 0 -3.0518398 -758.59186 -461.77419)" gradientUnits="userSpaceOnUse" r="33.309898" xlink:href="#j"/><linearGradient id="n" gradientTransform="matrix(3.0518398 0 0 -3.0518398 -758.59186 -461.77419)" gradientUnits="userSpaceOnUse" x1="200.4502" x2="207.3149" xlink:href="#o" y1="-178.6882" y2="-178.6882"/><linearGradient id="o"><stop offset="0" stop-color="#def3f1"/><stop offset="1" stop-color="#5085bc"/></linearGradient><linearGradient id="p" gradientTransform="matrix(3.0518398 0 0 -3.0518398 -758.59186 -461.77419)" gradientUnits="userSpaceOnUse" x1="223.9028" x2="230.8896" xlink:href="#o" y1="-179.9543" y2="-179.9543"/><linearGradient id="q" gradientTransform="matrix(3.0518398 0 0 -3.0518398 -758.59186 -461.77419)" gradientUnits="userSpaceOnUse" x1="206.6411" x2="230.79491" y1="-167.06129" y2="-167.06129"><stop offset="0" stop-color="#094992"/><stop offset=".6685" stop-color="#8bcde2"/><stop offset="1" stop-color="#e6f6f9"/></linearGradient><linearGradient id="r" gradientTransform="matrix(3.0518398 0 0 -3.0518398 -758.59186 -461.77419)" gradientUnits="userSpaceOnUse" x1="207.2256" x2="230.31841" y1="-167.47681" y2="-167.47681"><stop offset=".0056" stop-color="#bbc7e1"/><stop offset=".2247" stop-color="#7090c3"/><stop offset=".5449" stop-color="#c8eaef"/><stop offset="1" stop-color="#fff"/></linearGradient><linearGradient id="s" gradientTransform="matrix(3.0518398 0 0 -3.0518398 -758.59186 -461.77419)" gradientUnits="userSpaceOnUse" x1="206.6963" x2="230.79491" y1="-166.7756" y2="-166.7756"><stop offset=".0056" stop-color="#7090c3"/><stop offset=".5449" stop-color="#c1e7ed"/><stop offset="1" stop-color="#fff"/></linearGradient><radialGradient id="t" cx="206.6226" cy="-167.59891" gradientTransform="matrix(3.0518398 0 0 -3.0518398 -758.59186 -461.77419)" gradientUnits="userSpaceOnUse" r=".0815"><stop offset="0" stop-color="#7e9ec4"/><stop offset="1" stop-color="#0a50a1"/></radialGradient><radialGradient id="u" cx="190.71919" cy="-188.16721" gradientTransform="matrix(3.0518398 0 0 -3.0518398 -758.59186 -461.77419)" gradientUnits="userSpaceOnUse" r="40.776699"><stop offset=".0036" stop-color="#d8eeed"/><stop offset=".1733" stop-color="#98d8d7"/><stop offset=".2237" stop-color="#8ed3d3"/><stop offset=".3088" stop-color="#74c6ca"/><stop offset=".4176" stop-color="#49b1ba"/><stop offset=".4477" stop-color="#3caab5"/><stop offset=".4987" stop-color="#369fb5"/><stop offset=".6306" stop-color="#2a88b4"/><stop offset=".7129" stop-color="#257fb4"/><stop offset="1" stop-color="#4161ab"/></radialGradient><radialGradient id="v" cx="232.37891" cy="-169.2312" gradientTransform="matrix(3.0518398 0 0 -3.0518398 -758.59186 -461.77419)" gradientUnits="userSpaceOnUse" r="30.7768"><stop offset="0" stop-color="#fcf5b0"/><stop offset=".1657" stop-color="#f7eda0"/><stop offset=".2849" stop-color="#f3e591"/><stop offset=".65" stop-color="#fcd118"/><stop offset=".8024" stop-color="#f7a50c"/><stop offset=".9288" stop-color="#f38603"/><stop offset="1" stop-color="#f27b00"/></radialGradient><linearGradient id="w" gradientTransform="matrix(3.0518398 0 0 -3.0518398 -758.59186 -461.77419)" gradientUnits="userSpaceOnUse" x1="252.8213" x2="252.6933" y1="-194.2585" y2="-194.73621"><stop offset="0" stop-color="#de980d"/><stop offset="1" stop-color="#a85d10"/></linearGradient><linearGradient id="x" gradientTransform="matrix(3.0518398 0 0 -3.0518398 -758.59186 -461.77419)" gradientUnits="userSpaceOnUse" x1="252.8291" x2="258.91409" y1="-184.0251" y2="-184.0251"><stop offset="0" stop-color="#deb150"/><stop offset="1" stop-color="#fff8b3"/></linearGradient><linearGradient id="y" gradientTransform="matrix(3.0518398 0 0 -3.0518398 -758.59186 -461.77419)" gradientUnits="userSpaceOnUse" x1="258.85349" x2="258.85349" y1="-173.2937" y2="-173.6902"><stop offset=".0056" stop-color="#c67c0c"/><stop offset="1" stop-color="#de980d"/></linearGradient><linearGradient id="z" gradientTransform="matrix(3.0518398 0 0 -3.0518398 -758.59186 -461.77419)" gradientUnits="userSpaceOnUse" x1="257.9805" x2="258.22781" xlink:href="#A" y1="-172.8289" y2="-173.24049"/><linearGradient id="A"><stop offset=".0056" stop-color="#fed40f"/><stop offset="1" stop-color="#a85d10"/></linearGradient><linearGradient id="B" gradientTransform="matrix(3.0518398 0 0 -3.0518398 -758.59186 -461.77419)" gradientUnits="userSpaceOnUse" x1="258.62601" x2="258.4733" xlink:href="#A" y1="-173.14529" y2="-173.32719"/><linearGradient id="C" gradientTransform="matrix(3.0518398 0 0 -3.0518398 -758.59186 -461.77419)" gradientUnits="userSpaceOnUse" x1="233.9707" x2="257.9707" y1="-173.1165" y2="-173.1165"><stop offset="0" stop-color="#fff8fb"/><stop offset="1" stop-color="#fec236"/></linearGradient><linearGradient id="D" gradientTransform="matrix(3.0518398 0 0 -3.0518398 -758.59186 -461.77419)" gradientUnits="userSpaceOnUse" x1="255.3418" x2="254.8069" y1="-183.53" y2="-183.37669"><stop offset="0" stop-color="#b37e00"/><stop offset="1" stop-color="#ff9e00"/></linearGradient><linearGradient id="E" gradientTransform="matrix(3.0518398 0 0 -3.0518398 -758.59186 -461.77419)" gradientUnits="userSpaceOnUse" x1="252.5498" x2="252.2829" y1="-193.9778" y2="-194.5773"><stop offset=".0056" stop-color="#ffd100"/><stop offset="1" stop-color="#a8710a"/></linearGradient><linearGradient id="F" gradientTransform="matrix(3.0518398 0 0 -3.0518398 -758.59186 -461.77419)" gradientUnits="userSpaceOnUse" x1="227.62601" x2="252.08591" y1="-194.56419" y2="-194.56419"><stop offset="0" stop-color="#de980d"/><stop offset=".4" stop-color="#fdda10"/><stop offset="1" stop-color="#de980d"/></linearGradient><linearGradient id="G" gradientTransform="matrix(3.0518398 0 0 -3.0518398 -758.59186 -461.77419)" gradientUnits="userSpaceOnUse" x1="227.4561" x2="227.06281" y1="-192.8821" y2="-192.4453"><stop offset="0" stop-color="#de980d"/><stop offset=".1" stop-color="#de980d"/><stop offset=".7" stop-color="#fdda10"/><stop offset="1" stop-color="#de980d"/></linearGradient><linearGradient id="H" gradientTransform="matrix(3.0518398 0 0 -3.0518398 -758.59186 -461.77419)" gradientUnits="userSpaceOnUse" x1="227.4678" x2="227.745" y1="-192.1497" y2="-192.6497"><stop offset="0" stop-color="#de980d"/><stop offset=".4" stop-color="#febf0f"/><stop offset=".8" stop-color="#fed40f"/><stop offset="1" stop-color="#de980d"/></linearGradient><radialGradient id="I" cx="233.6602" cy="-170.8503" gradientTransform="matrix(3.0518398 0 0 -3.0518398 -758.59186 -461.77419)" gradientUnits="userSpaceOnUse" r=".3021"><stop offset="0" stop-color="#feeb71"/><stop offset="1" stop-color="#de980d"/></radialGradient><linearGradient id="J" gradientTransform="matrix(3.0518398 0 0 -3.0518398 -758.59186 -461.77419)" gradientUnits="userSpaceOnUse" x1="230.9463" x2="230.3831" y1="-181.7717" y2="-181.61031"><stop offset=".0056" stop-color="#ffefbb"/><stop offset="1" stop-color="#ffbf00"/></linearGradient><linearGradient id="K" gradientTransform="matrix(3.0518398 0 0 -3.0518398 -758.59186 -461.77419)" gradientUnits="userSpaceOnUse" x1="232.79491" x2="258.86661" y1="-173.37621" y2="-173.37621"><stop offset=".0056" stop-color="#fca859"/><stop offset=".2135" stop-color="#fdc30f"/><stop offset="1" stop-color="#b51c00"/></linearGradient><linearGradient id="L" gradientTransform="matrix(3.0518398 0 0 -3.0518398 -758.59186 -461.77419)" gradientUnits="userSpaceOnUse" x1="233.00591" x2="258.91409" y1="-173.71561" y2="-173.71561"><stop offset=".0056" stop-color="#fff6d8"/><stop offset=".525" stop-color="#fdda10"/><stop offset="1" stop-color="#f9bd0c"/></linearGradient><linearGradient id="M" gradientTransform="matrix(3.0518398 0 0 -3.0518398 -758.59186 -461.77419)" gradientUnits="userSpaceOnUse" x1="252.125" x2="251.763" y1="-194.0168" y2="-193.7038"><stop offset="0" stop-color="#eab949"/><stop offset=".0722" stop-color="#edc25a"/><stop offset=".2779" stop-color="#f3d883"/><stop offset=".4784" stop-color="#f8e9a4"/><stop offset=".6698" stop-color="#fcf5bc"/><stop offset=".8479" stop-color="#fefcca"/><stop offset="1" stop-color="#ffffcf"/></linearGradient><radialGradient id="N" cx="231.4404" cy="-164.9973" gradientTransform="matrix(3.0518398 0 0 -3.0518398 -758.59186 -461.77419)" gradientUnits="userSpaceOnUse" r="29.2155"><stop offset=".0036" stop-color="#efd916"/><stop offset=".1053" stop-color="#efd516"/><stop offset=".216" stop-color="#edc715"/><stop offset=".3308" stop-color="#ebb213"/><stop offset=".4485" stop-color="#e89312"/><stop offset=".5673" stop-color="#e36d0f"/><stop offset=".65" stop-color="#e04d0d"/><stop offset=".7851" stop-color="#ce2907"/><stop offset=".9224" stop-color="#bf0b02"/><stop offset="1" stop-color="#b90000"/></radialGradient><linearGradient id="O" gradientTransform="matrix(3.0518398 0 0 -3.0518398 -758.59186 -461.77419)" gradientUnits="userSpaceOnUse" x1="213.8618" x2="213.98241" xlink:href="#P" y1="-142.1819" y2="-142.1819"/><linearGradient id="P"><stop offset="0" stop-color="#fd7e36"/><stop offset="1" stop-color="#bd6f4f"/></linearGradient><linearGradient id="Q" gradientTransform="matrix(3.0518398 0 0 -3.0518398 -758.59186 -461.77419)" gradientUnits="userSpaceOnUse" x1="213.9214" x2="238.01559" xlink:href="#R" y1="-141.4929" y2="-141.4929"/><linearGradient id="R"><stop offset="0" stop-color="#fc2b21"/><stop offset=".236" stop-color="#ff590a"/><stop offset=".2478" stop-color="#fb570b"/><stop offset=".3274" stop-color="#e74c0e"/><stop offset=".4172" stop-color="#d84511"/><stop offset=".5247" stop-color="#d04013"/><stop offset=".6966" stop-color="#cd3f13"/><stop offset=".7958" stop-color="#d04213"/><stop offset=".8688" stop-color="#d84b14"/><stop offset=".9334" stop-color="#e65b16"/><stop offset=".9927" stop-color="#f97219"/><stop offset="1" stop-color="#fc7519"/></linearGradient><linearGradient id="S" gradientTransform="matrix(3.0518398 0 0 -3.0518398 -758.59186 -461.77419)" gradientUnits="userSpaceOnUse" x1="207.71831" x2="214.4888" xlink:href="#P" y1="-153.4045" y2="-153.4045"/><linearGradient id="T" gradientTransform="matrix(3.0518398 0 0 -3.0518398 -758.59186 -461.77419)" gradientUnits="userSpaceOnUse" x1="239.4238" x2="215.336" xlink:href="#U" y1="-144.7278" y2="-139.3586"/><linearGradient id="U"><stop offset="0" stop-color="#fe560d"/><stop offset="1" stop-color="#8c1501"/></linearGradient><linearGradient id="V" gradientTransform="matrix(3.0518398 0 0 -3.0518398 -758.59186 -461.77419)" gradientUnits="userSpaceOnUse" x1="225.95509" x2="225.6814" xlink:href="#U" y1="-144.4333" y2="-136.9538"/><linearGradient id="W" gradientTransform="matrix(3.0518398 0 0 -3.0518398 -758.59186 -461.77419)" gradientUnits="userSpaceOnUse" x1="231.084" x2="238.1152" y1="-154.55881" y2="-154.55881"><stop offset="0" stop-color="#fd7e36"/><stop offset="1" stop-color="#fc895b"/></linearGradient><linearGradient id="X" gradientTransform="matrix(3.0518398 0 0 -3.0518398 -758.59186 -461.77419)" gradientUnits="userSpaceOnUse" x1="207.73489" x2="231.8037" y1="-163.009" y2="-163.009"><stop offset="0" stop-color="#fd9b20"/><stop offset=".25" stop-color="#fd9b20"/><stop offset=".3365" stop-color="#fdb830"/><stop offset=".4292" stop-color="#fed23e"/><stop offset=".4851" stop-color="#fedb43"/><stop offset=".75" stop-color="#fe8411"/><stop offset="1" stop-color="#fe560d"/></linearGradient><linearGradient id="Y" gradientTransform="matrix(3.0518398 0 0 -3.0518398 -758.59186 -461.77419)" gradientUnits="userSpaceOnUse" x1="213.8618" x2="213.98309" xlink:href="#P" y1="-142.1819" y2="-142.1819"/><linearGradient id="Z" gradientTransform="matrix(3.0518398 0 0 -3.0518398 -758.59186 -461.77419)" gradientUnits="userSpaceOnUse" x1="213.92039" x2="238.01559" xlink:href="#R" y1="-141.49339" y2="-141.49339"/><radialGradient id="aa" cx="232.2451" cy="-168.24001" gradientTransform="matrix(3.0518398 0 0 -3.0518398 -758.59186 -461.77419)" gradientUnits="userSpaceOnUse" r="33.430199"><stop offset=".005" stop-color="#d1e787"/><stop offset=".1227" stop-color="#cee583"/><stop offset=".2473" stop-color="#c4de76"/><stop offset=".3751" stop-color="#b3d361"/><stop offset=".5051" stop-color="#9cc443"/><stop offset=".6356" stop-color="#7fb01d"/><stop offset=".6495" stop-color="#7bae19"/><stop offset=".7789" stop-color="#578d19"/><stop offset=".922" stop-color="#366e1a"/><stop offset="1" stop-color="#29621a"/></radialGradient><linearGradient id="ab" gradientTransform="matrix(3.0518398 0 0 -3.0518398 -758.59186 -461.77419)" gradientUnits="userSpaceOnUse" x1="241.248" x2="265.39261" xlink:href="#ac" y1="-147.9348" y2="-147.9348"/><linearGradient id="ac"><stop offset="0" stop-color="#d3ed89"/><stop offset="1" stop-color="#5f821c"/></linearGradient><linearGradient id="ad" gradientTransform="matrix(3.0518398 0 0 -3.0518398 -758.59186 -461.77419)" gradientUnits="userSpaceOnUse" x1="238.1963" x2="237.6232" y1="-156.675" y2="-156.5107"><stop offset=".2822" stop-color="#d3ed89"/><stop offset=".4045" stop-color="#d3ed89"/><stop offset="1" stop-color="#5f821c"/></linearGradient><linearGradient id="ae" gradientTransform="matrix(3.0518398 0 0 -3.0518398 -758.59186 -461.77419)" gradientUnits="userSpaceOnUse" x1="241.27251" x2="240.7211" y1="-145.8098" y2="-145.7713"><stop offset="0" stop-color="#7aa922"/><stop offset=".2" stop-color="#d3ed89"/><stop offset=".525" stop-color="#d3ed89"/><stop offset="1" stop-color="#7aa922"/></linearGradient><linearGradient id="af" gradientTransform="matrix(3.0518398 0 0 -3.0518398 -758.59186 -461.77419)" gradientUnits="userSpaceOnUse" x1="259.50201" x2="266.21881" y1="-158.343" y2="-158.343"><stop offset=".0056" stop-color="#7aa922"/><stop offset=".1685" stop-color="#1d4a20"/><stop offset=".382" stop-color="#26551b"/><stop offset="1" stop-color="#7aa922"/></linearGradient><linearGradient id="ag" gradientTransform="matrix(3.0518398 0 0 -3.0518398 -758.59186 -461.77419)" gradientUnits="userSpaceOnUse" x1="259.53909" x2="258.99619" y1="-168.9465" y2="-168.9086"><stop offset="0" stop-color="#7aa922"/><stop offset="1" stop-color="#d3ed89"/></linearGradient><linearGradient id="ah" gradientTransform="matrix(3.0518398 0 0 -3.0518398 -758.59186 -461.77419)" gradientUnits="userSpaceOnUse" x1="259.7822" x2="259.43851" y1="-168.99631" y2="-169.3781"><stop offset="0" stop-color="#5f821c"/><stop offset="1" stop-color="#26551b"/></linearGradient><linearGradient id="ai" gradientTransform="matrix(3.0518398 0 0 -3.0518398 -758.59186 -461.77419)" gradientUnits="userSpaceOnUse" x1="234.8242" x2="259.27731" y1="-169.6702" y2="-169.6702"><stop offset="0" stop-color="#7aa922"/><stop offset=".4" stop-color="#d3ed89"/><stop offset="1" stop-color="#7aa922"/></linearGradient><linearGradient id="aj" gradientTransform="matrix(3.0518398 0 0 -3.0518398 -758.59186 -461.77419)" gradientUnits="userSpaceOnUse" x1="234.6748" x2="234.2885" y1="-167.7971" y2="-167.3681"><stop offset="0" stop-color="#1d3a19"/><stop offset=".1" stop-color="#26551b"/><stop offset=".65" stop-color="#7aa922"/><stop offset="1" stop-color="#d3ed89"/></linearGradient><linearGradient id="ak" gradientTransform="matrix(3.0518398 0 0 -3.0518398 -758.59186 -461.77419)" gradientUnits="userSpaceOnUse" x1="234.6611" x2="234.9424" y1="-167.10381" y2="-167.6113"><stop offset="0" stop-color="#5f821c"/><stop offset=".4045" stop-color="#7aa922"/><stop offset=".8" stop-color="#5f821c"/><stop offset="1" stop-color="#5f821c"/></linearGradient><linearGradient id="al" gradientTransform="matrix(3.0518398 0 0 -3.0518398 -758.59186 -461.77419)" gradientUnits="userSpaceOnUse" x1="265.94339" x2="266.02328" xlink:href="#am" y1="-147.6521" y2="-147.3804"/><linearGradient id="am"><stop offset="0" stop-color="#5b7f30"/><stop offset="1" stop-color="#d3ed89"/></linearGradient><linearGradient id="an" gradientTransform="matrix(3.0518398 0 0 -3.0518398 -758.59186 -461.77419)" gradientUnits="userSpaceOnUse" x1="265.44821" x2="240.8642" y1="-151.0808" y2="-144.0314"><stop offset="0" stop-color="#1d3419"/><stop offset=".2277" stop-color="#26551b"/><stop offset="1" stop-color="#7aa922"/></linearGradient><linearGradient id="ao" gradientTransform="matrix(3.0518398 0 0 -3.0518398 -758.59186 -461.77419)" gradientUnits="userSpaceOnUse" x1="262.67871" x2="262.1095" y1="-158.1414" y2="-157.9781"><stop offset="0" stop-color="#5f821c"/><stop offset="1" stop-color="#75c146"/></linearGradient><linearGradient id="ap" gradientTransform="matrix(3.0518398 0 0 -3.0518398 -758.59186 -461.77419)" gradientUnits="userSpaceOnUse" x1="265.25" x2="266.35449" xlink:href="#ac" y1="-147.5471" y2="-147.5471"/><linearGradient id="aq" gradientTransform="matrix(3.0518398 0 0 -3.0518398 -758.59186 -461.77419)" gradientUnits="userSpaceOnUse" x1="265.3428" x2="240.8306" y1="-151.33859" y2="-144.30991"><stop offset="0" stop-color="#93bf81"/><stop offset=".2277" stop-color="#26551b"/><stop offset="1" stop-color="#bde256"/></linearGradient><linearGradient id="ar" gradientTransform="matrix(3.0518398 0 0 -3.0518398 -758.59186 -461.77419)" gradientUnits="userSpaceOnUse" x1="265.94531" x2="266.02551" xlink:href="#am" y1="-147.65359" y2="-147.38091"/><linearGradient id="as" gradientTransform="matrix(3.0518398 0 0 -3.0518398 -758.59186 -461.77419)" gradientUnits="userSpaceOnUse" x1="265.25" x2="266.35641" xlink:href="#ac" y1="-147.5481" y2="-147.5481"/><g transform="translate(146.85014 36.648613)"><path d="m549.41953 106.624 32.14384-77.91261h-43.05454v-4.852431h49.86512v1.448026l-33.18717 81.317015z"/><path d="m311.88514 19.132771v36.527344h-.23242c-3.72939-6.382149-9.63644-9.576172-17.7168-9.576172-8.19357 0-14.7607 2.940655-19.67773 8.824219-4.92369 5.889559-7.38867 13.758981-7.38867 23.605471-.00001 9.23669 2.31065 16.50974 6.92578 21.818357 4.422 5.155 10.27091 7.73047 17.54101 7.73047 9.15921 0 15.93437-3.82492 20.31641-11.484377h.23242v10.046877h9.46484v-87.492189zm-121.72852 1.09375c-1.69155 0-3.14563.584784-4.35546 1.759766-1.20984 1.174981-1.81446 2.628359-1.81446 4.357422 0 1.809645.60462 3.287868 1.81446 4.445312 1.20983 1.152561 2.66391 1.734375 4.35546 1.734375 1.73594 0 3.20619-.604224 4.41602-1.792969 1.2165-1.192296 1.82031-2.656767 1.82031-4.386718 0-1.729063-.60381-3.182441-1.82031-4.357422-1.20983-1.174982-2.68008-1.759766-4.41602-1.759766zm-118.54882 3.636719 24.18164 82.76172h11.25586l17.13867-60.658205c.77474-2.653419 1.29193-5.406601 1.56055-8.257812h.23046c.11322 2.968198.53698 5.756743 1.26954 8.371094l17.02929 60.544923h11.36914l23.36914-82.76172h-10.5039l-16.90625 63.710933c-.89017 3.30651-1.40321 5.94632-1.5586 7.90625h-.22851c-.313-2.76463-.77376-5.3212-1.38867-7.67382l-17.48438-63.943363h-9.34766l-18.36132 63.484373c-.99672 3.49875-1.57091 6.26879-1.72852 8.30664h-.22656c-.23309-2.92224-.71444-5.68785-1.44922-8.30664l-17.59961-63.484373zm289.79687 22.216797c-8.96165 0-16.1177 2.616247-21.46094 7.849609-5.77835 5.620731-8.66211 13.562607-8.66211 23.833987 0 9.00271 2.53811 16.25722 7.61719 21.75586 5.1923 5.697087 12.23715 8.542967 21.1211 8.542967 9.00383 0 16.1635-2.84588 21.46679-8.542967 5.31439-5.68844 7.9668-13.24983 7.9668-22.68164 0-9.57589-2.47181-17.093923-7.41992-22.558598-4.93479-5.47-11.816-8.199218-20.62891-8.199218zm-142.50195 11.255853h-.22656v-9.808594h-9.47071v59.097654h9.47071v-33.705067c0-5.42827 1.54416-9.906962 4.63867-13.449221 3.10338-3.540706 7.01748-5.3125 11.74804-5.3125 9.15922 0 13.73633 6.255149 13.73633 18.761721v33.705077h9.46875v-36.189457c0-7.769571-1.70355-13.776057-5.11328-18.00781-3.40308-4.22909-8.3554-6.34375-14.85742-6.343753-8.50657-.000003-14.9681 3.74965-19.39453 11.25195zm278.14062-11.251953c-6.11798 0-11.1161 1.621369-15.00976 4.873047-3.88257 3.250123-5.82617 7.343889-5.82617 12.267578 0 4.387585 1.2521 7.940495 3.7539 10.673825 2.07115 2.3109 5.59912 4.54297 10.56055 6.69336 4.81048 2.11754 8.04097 3.92097 9.69922 5.42383 1.64937 1.49997 2.47851 3.40639 2.47851 5.71484 0 5.49931-3.7532 8.25782-11.25195 8.25782-5.62073 0-10.74034-1.88637-15.35547-5.66016v10.156243c4.15561 2.38992 9.04387 3.57813 14.66016 3.57813 6.84832 0 12.25155-1.72924 16.2207-5.19336 3.61396-3.192843 5.42383-7.211133 5.42383-12.064453 0-4.3887-1.44397-8.00119-4.33203-10.84375-2.2332-2.23186-5.86713-4.40891-10.90625-6.52734-4.50414-1.92064-7.46182-3.55293-8.88477-4.90039-1.57833-1.46113-2.36719-3.50368-2.36719-6.119142 0-2.420999.94372-4.408713 2.82618-5.945312 1.88689-1.5366 4.40415-2.306641 7.55859-2.306641 5.04579 0 9.5022 1.406388 13.38477 4.208984v-9.519531c-3.72718-1.84716-7.93778-2.767578-12.63282-2.767578zm-311.73242 1.4375v59.097663h9.46289v-59.097657zm205.9375 0 17.83789 59.097653h9.46094l13.2168-42.416013c.69038-2.193905 1.09355-3.964457 1.20898-5.308593h.23242c.19313 2.076696.49983 3.882477.92383 5.427733l12.17969 42.296873h9.80859l17.7168-59.097653h-9.34766l-12.06445 44.55859c-.53499 2.03874-.84662 3.80663-.91992 5.3086h-.46094c-.15539-2.11843-.42624-3.88388-.8125-5.3086l-12.29102-44.55859h-8.6582l-13.5625 44.32617c-.61047 1.96149-.97859 3.77024-1.0918 5.42383h-.46679c-.15095-2.00144-.42065-3.76778-.80469-5.30859l-12.18164-44.44141zm-30.5293 6.636719c5.95816 0 10.59224 1.908197 13.9043 5.714843 3.42305 3.965368 5.13281 9.736278 5.13281 17.312498 0 7.23458-1.59492 12.80999-4.78711 16.73828-3.2721 4.03818-8.02102 6.06055-14.25 6.06055-6.00477 0-10.79628-1.99259-14.37695-5.97461-3.57844-3.9758-5.36523-9.50874-5.36523-16.5957 0-7.53715 1.86658-13.36908 5.59375-17.478518 3.54515-3.846603 8.2591-5.777343 14.14843-5.777343zm-65.57031.0039c4.88817 0 8.92448 1.692412 12.1211 5.076172 3.07453 3.234363 4.61523 7.216119 4.61523 11.953119v8.70703c0 5.6971-1.57798 10.42965-4.73242 14.19922-3.34758 3.92386-7.71144 5.89063-13.10352 5.89063-5.07686 0-9.19321-1.81444-12.34765-5.42774-3.42306-3.92474-5.13672-9.4453-5.13672-16.56445 0-7.46168 1.65278-13.30243 4.96484-17.509762 3.30539-4.218656 7.84967-6.324219 13.61914-6.324219z"/><path d="m524.09073 56.03498c-1.16322 1.149009-2.59726 1.71863-4.30435 1.71863-1.7204 0-3.14557-.556745-4.28214-1.675342-1.13214-1.111493-1.70043-2.527553-1.70043-4.240189 0-1.673566.57717-3.091402 1.72929-4.240411 1.15655-1.150563 2.59059-1.728175 4.30878-1.728175 1.67601 0 3.09451.548976 4.23331 1.652699 1.16987 1.122149 1.75592 2.551306 1.75592 4.272378 0 1.684887-.57939 3.095841-1.74038 4.24041zm-.51946-7.995114c-1.02336-1.007603-2.27537-1.513069-3.74937-1.513069-1.5295 0-2.79705.509906-3.80265 1.523502-1.01005 1.024252-1.50952 2.278927-1.50952 3.774681 0 1.52439.51723 2.796602 1.5628 3.815526 1.01892 1.001387 2.27093 1.507075 3.74937 1.507075 1.46068 0 2.71047-.509906 3.73827-1.52883 1.03891-1.014484 1.54948-2.282256 1.54948-3.793771 0-1.513069-.50613-2.774848-1.53838-3.785114zm-.84133 7.529382h-1.30085l-.83023-1.836505c-.424-.919251-.87463-1.38143-1.36745-1.38143h-.69926v3.217935h-1.07886v-7.648146h2.16216c.94789 0 1.66713.214219 2.16438.643543.41512.365836.61935.843554.61935 1.442033 0 .517675-.16871.971196-.50835 1.341472-.33521.362506-.8147.611354-1.42961.737v.03463c.42844.09545.85022.568066 1.26755 1.413618zm-1.84472-6.389031c-.27304-.227093-.74588-.339863-1.4074-.339863h-.94567v2.604805h1.14546c1.05222 0 1.57833-.436872 1.57833-1.313724 0-.436872-.11987-.753427-.37072-.951218z"/><path d="m39.289349 128.80798c-1.682668 1.6649-3.760473 2.49476-6.237857 2.49476-2.495143 0-4.568509-.81079-6.213439-2.42799-1.651589-1.62164-2.472944-3.67414-2.472944-6.15419 0-2.43476.836894-4.48726 2.512902-6.16105 1.673788-1.66735 3.758253-2.50602 6.244517-2.50602 2.444085 0 4.493033.80226 6.153502 2.39947 1.698206 1.63272 2.5462 3.70275 2.5462 6.19834 0 2.44275-.841334 4.4917-2.532881 6.15668zm1.485098-6.11158c0-2.1939-.743659-4.02353-2.230977-5.48731-1.489538-1.46712-3.303179-2.1999-5.443141-2.1999-2.219878 0-4.060157.737-5.516397 2.21566-1.465119 1.47666-2.195459 3.30207-2.195459 5.47155 0 2.20856.756978 4.05816 2.268715 5.53669 1.480659 1.4542 3.294299 2.1878 5.443141 2.1878 2.124423 0 3.931404-.73966 5.429822-2.21555 1.496197-1.47853 2.244296-3.31237 2.244296-5.50894zm-3.45413 5.43524h-1.882456l-1.209834-2.66483c-.612686-1.33792-1.27421-2.003-1.977911-2.003h-1.023364v4.66783h-1.558354v-11.09948h3.127808c1.382984 0 2.428546.30968 3.143347.93235.601587.53499.90571 1.23115.90571 2.09312 0 .75876-.248626 1.40563-.741439 1.9424-.490593.53166-1.183195.89416-2.073366 1.08219v.0435c.619346.14296 1.232032.82379 1.838059 2.04628zm-2.672733-9.27496c-.404018-.32521-1.08774-.48726-2.048947-.48726h-1.371885v3.78067h1.664908c1.525057 0 2.288695-.63733 2.288695-1.90776 0-.63733-.17981-1.09418-.532771-1.38565z"/><path d="m-87.394643 47.976757c-3.332611.08217-6.848329.427256-10.452554 1.025415-3.781223.62868-7.791343 1.553383-11.911333 2.755812-4.29699 1.245136-8.86559 2.838188-13.56542 4.727304l-.0336.004c-.15868.0672-.27162.198348-.32655.372408l-18.73219 63.466074c-.10375.33557.0824.68057.29602.86366l1.25431.93081s.0214.0121.0397.0324c.30213.19835.60732.19228.72939.17406.006 0 .0397-.0121.0397-.0121 7.01618-2.63373 13.2694-4.52284 19.12283-5.78628 5.70389-1.2238 10.84013-1.8067 15.70477-1.78229 4.06809.0283 7.892052.4456 11.697697 1.27262 3.433319.7538 6.77203 1.82808 10.2023 3.2899 4.809699 2.09353 9.219607 4.7273 12.524749 6.78424l.03036.0202v.008c.103748.0518.408944.19227.701923.064 0 0 .827047-.47299 1.074245-.61949l.08545-.0579c.167867-.11294.396735-.26838.463882-.55849l.01214-.064s.0061.008.0093.0162c.03643-.119 18.643689-61.805858 18.643689-61.805858l.640889-2.117985c.0093-.05181.01821-.112936.01821-.17406 0-.241255-.106824-.466925-.286875-.595123-.0061 0-.02145-.003-.02145-.003v-.0031c-7.937834-5.206414-16.907191-10.232817-28.730017-11.758715-2.975545-.390623-6.076215-.540193-9.231815-.466926z" fill="url(#a)" opacity=".2"/><path d="m-40.820518 66.776072c-.216685.01214-.439465.09472-.775166.29914 0 .0081-.0031.0081-.0031.0081h-.0093l-.0031.0081c-.08545.05788-.302136.201585-.549329.390622-.503555.381313-.811791.692799-.897242.903371h-.0031c0 .01619-.01822.05505-.01822.05505l.003-.01619-.003.02024v.0081l-18.75342 62.886195c-.323508.94304.540177 1.45879.637837 1.51068 4.812751 3.12506 9.399665 5.58793 14.026253 7.51364 2.710036 1.13831 5.481105 2.09965 8.24607 2.86871 2.993858.83925 6.070111 1.4893 9.155521 1.92267 3.308194.4547 6.720152.68972 10.141266.68057 3.63779-.0202 7.406814-.30197 11.1941458-.84536 4.0009643-.57683 8.14536202-1.4649 12.3202769-2.64292 4.388547-1.22987 8.9296843-2.81989 13.5135463-4.71811.0061 0 .02753-.0162.02753-.0162.128197-.0793.43336-.26555.58595-.57375 0-.008 18.314093-61.863875 18.320197-61.882171 0-.003-.0061-.01214-.0061-.01214v-.004c.02429-.09148.02753-.186204.02753-.268376 0-.509672-.326544-.817879-.32958-.823991 0 .0081-1.535079-1.178021-1.535079-1.178021l-.003-.01214c-.100711-.106865-.36929-.277686-1.025419-.182965-4.699835 1.541158-9.234867 2.816855-13.501342 3.817861-4.113876.955224-8.09958 1.675468-11.8563948 2.133245-7.0833216.866697-13.4921855.866697-19.5867092 0-5.368185-.762989-10.443394-2.206512-15.515555-4.406871-4.09862-1.77618-8.273535-4.077252-13.138168-7.254208l-.01538-.0081h.0061c-.305172-.128319-.494399-.182965-.67751-.182965z" fill="url(#c)" opacity=".2"/><path d="m-19.393551-9.8128951c-.0031 0-.320432.2227966-.320432.2227966-.64394.4669338-1.028471.8270515-1.135287 1.0742489l-.0031.00607s0 .00305-.0031.00305c0 .00931-.06408.2136484-.06408.2136484 0 .012144-18.814592 63.0327032-18.814592 63.0327032-.05189.152606-.07323.293068-.07323.415031 0 .689723.637832 1.043752.65004 1.046788h.0031c1.492348.967449 3.030475 1.898265 4.577758 2.755813 7.220655 4.36109 14.355854 7.257285 21.81455 8.850337 4.3214045.936928 8.8137155 1.428263 13.35485237 1.467932 4.90735873.04898 10.04665463-.433369 15.25919663-1.419114 7.736415-1.187169 15.597954-3.521798 23.355733-6.921551 0-.0081.02145-.01214.02145-.01214.146494-.07003.463882-.277686.62868-.579822 0-.01619 19.131984-63.6095292 19.131984-63.6095292.03643-.11577.05493-.2198011.05493-.3266658 0-.5462646-.479142-1.0040421-.94302-1.4007771-.256353-.2380168-.610367-.5401928-.857568-.6439406-.518812-.2380167-1.049832-.1619161-1.208526-.067195-.0031 0-.01214.012144-.01214.012144l-.0031.00304c-4.684473 1.8707747-9.234766 3.4394184-13.528705 4.6723694-4.107776 1.17494456-8.111789 2.0722029-11.896069 2.6673257-3.601173.5676376-7.122995.875845-10.473915.9247032-3.155604.042503-6.268478-.1404623-9.247075-.5584893-5.346824-.7507647-10.46781091-2.2400695-15.6376277-4.5564015-5.1362475-2.2980355-9.7414703-5.1637085-13.1839453-7.4038872-.589007-.2593896-.848413-.2410936-1.446576.131233z" fill="url(#d)" opacity=".2"/><path d="m-80.28996-27.446426c-6.491264 1.361124-13.583737 3.57676-21.07601 6.576718-.0671.02753-.27772.106824-.34791.378439l-.97354 3.244107-18.03943 60.426424c-.0215.06396-.0275.13439-.0275.213729 0 .293069.13123.656165.27772.76299.0275.02024.0641.03643.0855.04898l.003.0081.12512.09148 1.11087.842328.0336.02024c.0364.02833.0763.05505.10071.07003.22887.09148.28687.09148.34484.08541h.0215c0-.004.009-.004.009-.004v-.0031l.0336-.0081c.16479-.01214.54933-.180132.55238-.186204 16.43111-6.308172 29.57233-8.603131 41.355487-7.20539 5.026379.595123 9.88796 1.882964 14.868562 3.927722 3.964339 1.632722 8.05991 3.769003 12.869609 6.720127l.06715.03238h.01538l.05801.03238h.0031.0061l.01538.0081.01822.01214h-.0061c.0031 0 .381475.182965.695819.100793 0-.003 1.184113-.51882 1.184113-.51882l.05493-.03643c.155642-.109698.399811-.277686.469982-.579822l11.865556-39.6769861 6.37529-21.3201349.42726-1.406898c0-.0031.0031-.03036.0031-.03036l.308247-1.034576c.0093-.03036.01214-.06715.01822-.106824v-.08545c0-.241093-.100712-.445569-.277727-.564593-3.769023-2.471991-6.759825-4.257315-9.698749-5.777132l-.198388-.100712c-8.481062-4.376335-16.644737-6.500416-25.687337-6.683527-5.297994-.10986-11.035452.469982-17.044525 1.736494z" fill="url(#e)" opacity=".2"/><path d="m-127.73386 49.874981c38.245653-15.753592 56.758114-7.348808 73.335709 3.906348l-19.147245 65.806851c-16.638629-11.18804-34.729934-20.401554-73.128184-4.52588l18.71388-65.09272z" fill="url(#f)"/><path d="m-145.26363 116.99716c.12512.0162.34484-.10363.34484-.10363.27465.19228.4944.31736.4944.31736s-.43336.10079-.83926-.21373z" fill="url(#g)"/><path d="m-74.210697 120.32976s.250241.24125.549333.16799l-1.14444.68361c-.366214.16475-.753804-.1008-.753804-.1008z" fill="#152469"/><path d="m-144.89436 116.90256s-.22886.12832-.35403.1097l-1.26346-.97049-.0214-.0243c.18312.049.38451.0243.46082.0121z" fill="url(#i)"/><path d="m-73.560652 119.41728c.128156.0761.262466.19228.387586.45166-.06715.34772-.341805.51575-.521863.63783-.231945.049-.55849-.15867-.55849-.15867.189199-.15585.494399-.37848.692771-.93078z" fill="#152469"/><path d="m-146.51183 116.04194c-.24413-.20766-.40895-.57375-.30825-.9003l.2228-.10079c-.0885.49133.25331.83621.51576 1.001.003 0-.18006.0793-.43031 0z" fill="#172e65"/><path d="m-144.97371 116.84455c36.53053-14.26736 52.888389-6.49126 69.533122 4.20238-9.967307-6.418-20.209281-11.52066-34.354562-11.62445-9.47291-.049-20.66095 2.34685-34.66584 7.78829 0 0-.27773-.11294-.51272-.36634z" fill="url(#k)"/><path d="m-74.219849 120.38165c-16.641686-11.20026-33.881521-19.74235-71.831151-4.32445-.25332-.15585-.6592-.54323-.55544-1.01627 38.52032-16.391421 56.425467-6.8178 73.064096 4.37635-.173938.59816-.488294.81788-.677505.96437z" fill="#094b8f"/><path d="m-74.195437 120.38165-1.351963.6958c-16.629477-10.69363-33.46648-18.10045-69.34696-4.17489l-1.19022-.86062c37.95879-15.42094 55.238306-6.86055 71.889143 4.33971z" fill="#094b8f"/><path d="m-73.569809 119.43254 19.171658-65.654247c.210572.134391.323508.247327.43336.369169l-19.208279 65.754918c-.10986-.2959-.396735-.46996-.396735-.46996z" fill="url(#l)"/><path d="m-54.276078 53.326628.03036.0081c.244129.17406.341805.509631.280763.814843l-.01214.04048c-.10986-.112936-.21972-.235183-.427256-.375241z" fill="url(#m)"/><path d="m-146.59728 115.04093-.2228.10363 18.64064-65.236103.22279.05505z" fill="#063367" opacity=".66"/><path d="m-128.17943 49.908578-.88503 3.125063-17.75561 62.111039c-.0977.32342.0641.69276.30825.90029l1.26346.96745s.003-.003.003 0c.16479.11294.32043.15868.45473.18904l18.89089-65.468046-.0427-.05181-2.01421-1.715138zm-18.38428 65.120122v-.0121c.0916-.0324.18005-.064.26246-.0947-.0916.0324-.1709.0672-.26246.10686zm.48219 1.01324c-.12513-.0826-.27162-.20766-.37844-.36027.10986.15261.25635.27769.37844.34772.003 0 .003 0 0 .0121z" fill="url(#n)" opacity=".42"/><path d="m-54.041085 53.610427-.363178.216563-1.590009 1.565607c.0061 0 .0061 0 .0061.01214-2.58491 8.829004-17.093355 58.369523-19.290678 65.788523.137345.0405.305171.0518.46693-.0162l1.144439-.68361h-.01214c.170903-.12832.427261-.28983.503556-.6195v.0243l18.573494-63.572898.634785-2.182063c.01821-.119009 0-.225873-.01822-.335571-.0093-.07003-.03036-.125081-.05493-.198348z" fill="url(#p)" opacity=".42"/><path d="m-54.404255 53.808814-1.590009 1.586941c-5.517726-3.665256-20.71894-13.101527-37.885538-11.70075-13.934698 1.135275-26.203098 5.615374-32.022958 8.035494l-2.05694-1.763955.14649-.454741c38.407407-15.887861 56.925971-7.440371 73.549344 3.817861l-.01214.0081h.02753z" fill="url(#q)"/><path d="m-126.17132 51.492482c38.413507-15.884824 55.5679-5.386505 70.473083 3.613362l-.292987.28983c-15.344652-9.506462-31.662837-19.260129-69.902396-3.649995z" fill="url(#r)" opacity=".33"/><path d="m-127.7888 49.453837c38.407409-15.884825 56.153857-7.72421 73.543239 3.878903l-.14953.448589c-18.262211-11.819757-34.876427-19.681313-73.115979-4.077251z" fill="url(#s)" opacity=".33"/><path d="m-127.95665 49.963508-.22279-.05505c.0824-.268376.28076-.375241.3418-.390623l.0275-.0081c0-.003-.0364.131152-.1465.454742z" fill="url(#t)"/><path d="m-74.174072 120.36943c-16.638633-11.18804-33.881528-19.73321-71.828098-4.32446-.25332-.14937-.66225-.531-.56154-1.01015 38.52642-16.400571 56.428515-6.81477 73.067144 4.37024-.170902.6073-.485242.8118-.677506.96437z" fill="url(#u)" opacity=".5"/><path d="m-44.366753 60.144432c16.626421 11.185005 33.631272 19.388325 72.710083 6.027369l-18.240846 63.450809c-38.355524 15.86345-56.773377 6.88188-73.381489-4.37938z" fill="url(#v)"/><path d="m13.340483 131.87487c-.170902.35095-.512707.55237-.622576.61649-.03036 0-.05189.0162-.05189.0162s-.317396.0324-.601215-.1862c.753805-.41507.967433-1.23603.967433-1.23603s.439465.36917.308248.79044z" fill="url(#w)"/><path d="m13.340483 131.87487c.06715-.36027-.338769-.6958-.338769-.6958l18.185912-63.374507s.292988.259471.381475.46385z" fill="url(#x)"/><path d="m31.563021 68.298934s-.05493-.195514-.381475-.454701c.146494-.616496.03643-.753801.03643-.753801l.04578.03238c0-.0031.46693.439441.2991 1.177981z" fill="url(#y)"/><path d="m29.747176 66.763888s-.494399-.604271-1.52287-.427257c.05189-.229111.137345-.506635.466933-.637868.616472-.09472.909447.05788 1.043728.198347.0763.06719.09768.128319.09768.128319.08849.360263-.08545.73858-.08545.73858z" fill="url(#z)"/><path d="m29.734967 65.900186 1.528974 1.217691c.0763.402766-.08241.817919-.08241.817919l-1.504562-1.205506c0-.003.146493-.466926.05797-.830104z" fill="url(#B)"/><path d="m12.965109 131.40183-1.590009-1.37333 18.289676-63.40807 1.535075 1.232951-18.155395 63.389769z" fill="#b37e00" opacity=".66"/><path d="m28.288396 66.40071c-38.51727 13.135124-56.150801 5.328498-72.771122-5.871768.0336-.12508.10986-.408919-.06715-.698871 16.623372 11.194154 35.0107041 18.820729 73.244155 5.871768-.299099.198347-.32958.469962-.405895.698871z" fill="url(#C)"/><path d="m-66.147734 126.00006 18.683363-64.686756 1.278721-.866737-18.518565 64.558603-1.443519 1.1475z" fill="#d9a200"/><path d="m9.9132687 129.67451 18.3110373-63.356216c.03036 0 .06408-.05505.10986-.05788.955224-.09148 1.413002.405884 1.413002.405884l-18.243899 63.273792c0 .003-.766013-.60427-1.5900084-.26554z" fill="url(#D)" opacity=".66"/><path d="m12.72096 132.49136c-37.613924 16.07402-61.732614 6.18301-78.352935-5.00199l.173939-.15868c16.608112 11.18804 42.200842 20.51142 77.519782 4.91039.286875.24125.659197.25016.659197.25016z" fill="#a85d10"/><path d="m11.488017 129.91864 1.556439 1.32451s-.207536.73854-1.043728 1.09561l-1.580856-1.29703c.833156-.35703 1.068145-1.12309 1.068145-1.12309z" fill="url(#E)" opacity=".66"/><path d="m9.9437859 129.58905c-.1464937.97964.7904261 1.58391.7904261 1.58391-39.860077 14.41993-56.941227 5.80765-74.648001-4.86157.283839-.22588.442517-.39386.613419-1.07731.0336.0121.25939-.0283.2991 0 17.120819 10.53799 36.905896 19.26931 72.9450721 4.35497z" fill="url(#F)"/><path d="m-65.451916 127.41614 1.538127-1.10783c15.231732 9.49428 36.564091 19.88274 74.431321 4.6846l1.556439 1.31532c-35.184659 15.60099-60.914723 6.2868-77.525887-4.89209z" fill="#c67c0c"/><path d="m-65.320687 127.46192-.177015.12508s-.99795-.55545-.65004-1.5839c.08545 1.00712.827047 1.45878.827047 1.45878z" fill="#de980d"/><path d="m-66.147734 126.00006 1.443519-1.18409c-.07934 1.05594.94302 1.44963.94302 1.44963l-1.583905 1.21158c0 .003-.881981-.42725-.802634-1.47712z" fill="url(#G)"/><path d="m-64.807979 124.86175c.515763-.19835.99185.0324 1.541182.35095-.183127.68058-.311283.91859-.592058 1.11698-.350953-.19511-1.034576-.60123-.949124-1.46793z" fill="url(#H)"/><path d="m-45.935401 59.903338-.280763.549341-1.284824.921627c.09156-.430292 1.147491-1.193241 1.474036-1.416038.04578-.03643.09156-.05505.09156-.05505z" fill="#de980d"/><path d="m-44.497982 60.519794c-.762961-.433369-1.446575-.210491-1.718186-.0672.04578-.143295.20446-.509671.20446-.509671.619524-.387384.89419-.387384 1.461832-.112937.161754.283758.09768.527968.05189.689723z" fill="url(#I)"/><path d="m-63.126415 125.32256c-.546277-.32059-1.168853-.56152-1.696821-.35095l18.634533-64.525043c.286875-.13439.946072-.366335 1.705977.08258z" fill="url(#J)"/><path d="m-47.140875 60.882972c5.688629 4.93484 30.390221 25.12886 78.404816 6.234905l-1.528974-1.217691c-.131233-.140462-.424204-.295901-1.040675-.198347-38.2334517 12.948961-56.620783 5.322386-73.244156-5.871768v.01619c-.558485-.283758-.836204-.283758-1.449623.112936-.769066.531005-.769066.524933-1.141388.924704z" fill="url(#K)" opacity=".33"/><path d="m31.263941 67.117877c-48.014595 18.893955-72.719239-1.300065-78.404816-6.234905-.149529.137224-.265502.28983-.320432.415072v.01619l-.01822.04898c0 .003-.0061.01214-.0061.01214h.0061l-.0093.03238c4.959241 4.339717 29.770697 25.965076 79.067066 6.41192-.05493-.433369-.31432-.698871-.31432-.698871z" fill="url(#L)" opacity=".33"/><path d="m10.520584 130.99898s-.7080271-.43029-.573746-1.40993c.970485-.25947 1.565596.35096 1.565596.35096s-.155642.69887-.99185 1.05897z" fill="url(#M)"/><path d="m-51.208978 41.918826c-10.006985-6.741501-20.776926-13.043561-36.075801-13.156457-10.08938-.07934-22.107521 2.792406-37.363671 9.09143l18.90004-65.498593c38.373837-15.869568 56.813051-6.872741 73.436424 4.370235z" fill="url(#N)"/><g fill="#bc1b00"><path d="m-51.230342 41.900529 18.912251-65.172036c.207536.131233.292988.241093.396735.36929l-18.900043 65.266636c-.106824-.274853-.408948-.46389-.408943-.46389z"/><path d="m-122.83261 39.7551c6.05485-2.481163 11.64887-4.321421 16.84616-5.587929 1.26651-.311284 2.38654-.57375 3.72324-.83314 1.22074-.25016 2.432318-.485262 3.610331-.662277 1.846362-.271615 3.643894-.509631 5.407857-.650013 1.489301-.119008 2.945029-.201585 4.370235-.213729 1.37638-.01214 2.734448 0 4.052846.07003 1.1658.0672 2.31024.158678 3.442475.28983.955224.106864 1.886036.231945 2.813795.387789 1.944022.332738 3.830058.747729 5.648955 1.260436 7.354936 2.081351 13.885873 5.627598 19.891893 9.622434-.04882.02834-.192275-.04048-.247205-.07003-.05797-.02833-.08545-.02833-.143417-.06112-8.114845-5.142335-16.824797-9.628546-27.588635-10.949984-11.001882-1.345848-23.85013.549341-41.14185 7.400701 0 0-.38759.180132-.55238.198347-.13427.04048-.10375-.0672-.13427-.201585z"/><path d="m-51.880383 42.858789s.247205.17406.537124.112937l-1.184117.53408c-.323508.08541-.708023-.109698-.708023-.109698z"/></g><path d="m-122.8265 39.764248s.0793.131152.12815.210491c-.10374.01619-.13123.04291-.41505-.08541-.0427-.01214-.0916-.05788-.14342-.100793l-1.22989-.95826-.11597-.09148c.16479-.0081.28688.06396.37233.05505z" fill="#b81a00"/><path d="m-51.208978 41.912754c.128197.08217.286875.131152.399812.399933-.08242.360263-.375362.537116-.537125.656165-.296023.08217-.576798-.137224-.576798-.137224.186164-.137224.521864-.372407.714132-.918591z" fill="#e82e00"/><path d="m-32.205174-23.720128.02145.0061c.244129.170903.332656.488295.259389.805687l-.01538.02753c-.09764-.115973-.170902-.238057-.381474-.396735z" fill="#f83603"/><path d="m-124.57826 38.778502c-.18616-.13439-.3601-.692758-.25635-1.022379l.24417-.0761c-.0977.473038.19227 1.022379.45472 1.174985.003 0-.18005.106864-.44251-.07651z" fill="#e32e00"/><path d="m-105.74231-27.632585-.18005-.04578c.0732-.289911.27162-.378439.34484-.399812l.0243-.0061c0-.0031-.0885.134269-.1892.451673z" fill="url(#O)"/><path d="m-51.843762 42.871014c-17.886833-12.408768-39.792938-20.197056-72.328608-4.031469l1.33061.939964c35.556981-14.526753 54.087755-6.677423 69.694861 3.613361z" fill="#e82e00"/><path d="m-51.880383 42.858789c-10.241974-6.683494-19.812546-12.225641-34.992396-12.659009-11.078178.222635-19.589761 1.638834-37.266011 8.655025-.26247-.143295-.59511-.515784-.50966-.99797 15.31718-6.518704 27.469607-9.341671 37.555939-9.240959 15.289718.149367 25.876548 6.552301 35.883533 13.281617-.170902.598159-.497451.820915-.671405.961296z" fill="#e82e00"/><path d="m-105.92236-27.684467.17393.05189-18.85731 65.458887c-.0427-.03238-.23195-.07327-.23195-.07327z" fill="#e32e00"/><path d="m-32.311986-23.271507c-16.635582-11.255185-35.233493-19.962084-73.427264-4.361078.0793-.332657.16175-.445569.16175-.445569 38.379942-15.869568 56.755069-6.897159 73.372334 4.358026z" fill="url(#Q)" opacity=".66"/><path d="m-34.50931-21.113857c-13.550172-8.798455-31.461417-19.818647-69.6552-4.220693.0855-.326544.18313-.497451.18313-.497451 38.373839-15.866516 56.462091-3.77818 69.609415 4.242058z" fill="#fe8411" opacity=".33"/><path d="m-105.11668-27.199225c-.10682.04271-.47608-.0093-.47608-.0093l-19.074 66.057066 1.40995.946076c.0488.04291.10071.08541.14342.100793.24109.106865.28991.106865.36621.09148l18.68641-65.605409.058-.195312z" fill="url(#S)" opacity=".36"/><path d="m-34.414706-21.538061c.0061.0093.01214.01214.02145.02429 0-.02429.0031-.03036.0031-.0427z" fill="url(#T)" opacity=".5"/><path d="m-33.950825-23.039566c-6.308152-4.226801-16.809536-11.087334-32.169444-12.161583-16.293772-1.14444-36.939471 7.147408-38.996411 8.001924l1.11087 1.382485-.058.195311c.058-.01214.11293-.04578.16786-.06715 38.044239-16.360914 61.476267-1.586956 69.481239 4.150502l.02753-.01822 1.196322-.979641c-.244129-.161755-.497451-.332657-.759909-.503552z" fill="url(#V)" opacity=".5"/><path d="m-105.11668-27.199225c2.05999-.854516 22.702639-9.146364 38.996411-8.001924 15.359908 1.074249 25.861292 7.937834 32.169444 12.161583.25939.173938.512708.341805.753805.503551l1.181061-.94912c-.05189-.07934-.08545-.170903-.170903-.225833-16.254098-11.011039-34.214174-19.827803-70.891188-5.374289-.82095.332657-1.64189.650041-2.47809 1.001003z" fill="#fff4c5" opacity=".5"/><path d="m-32.205174-23.695711-.106825.424204-.885033.735492-1.19327.979641c0 .0093-.0031.01822-.0031.04271-3.961287 13.5867692-16.342602 56.004348-18.967186 64.845456.03036.01214.05189.02024.08545.04291.0093.0081.03036.02024.03967.02024s.38451.195514.708023.109698l1.184117-.53408c-.0031.0081-.01214 0-.0336.0081.01214-.0081.02145 0 .02753-.0081.14953-.122247.439465-.295902.521864-.610383l.0031-.02024c0-.0081.0093-.0081.0093-.02024l18.121822-62.587155.448621-1.541178.01538-.06408.302136-1.025415c.06104-.21972.02145-.662249-.277727-.79653z" fill="url(#W)" opacity=".6"/><path d="m-51.84071 42.825232c-10.235869-6.683534-19.812546-12.228717-34.983239-12.665122-11.084282.225873-19.592811 1.638835-37.269071 8.655026-.27161-.137224-.59511-.509672-.50966-.988822 15.31719-6.524816 27.469614-9.347784 37.562051-9.243996 15.283613.158678 25.873496 6.54619 35.877429 13.281578-.173938.595122-.500503.823991-.67751.961336z" fill="url(#X)" opacity=".5"/><path d="m-105.74231-27.986599c-.0702.06104-.14038.152606-.18005.302136l-.97048 3.332607-17.94177 62.104943c-.10375.332738.0702.88807.25636 1.022379.0182.01214.0304.01214.0488.02024l.0397.03643-.18005.01214 19.074-66.054034s.37233.05189.47609.0093z" fill="none"/><path d="m-32.205174-23.720128.02145.01214c.244129.16479.332656.482191.259389.799583l-.01538.02752c-.09764-.115972-.170902-.231944-.381474-.396735z" fill="#f83603"/><path d="m-105.74231-27.632585-.17701-.04578c.0763-.280763.27161-.375362.3418-.399812l.0275-.0061c0-.0031-.0916.134269-.19227.451673z" fill="url(#Y)"/><path d="m-32.311986-23.271507c-16.626425-11.255185-35.233493-19.95598-73.430324-4.358026.0824-.323509.16479-.445569.16479-.445569 38.379946-15.869568 56.755073-6.897159 73.372338 4.358026z" fill="url(#Z)" opacity=".66"/><path d="m50.98798-12.162813c-38.32195 15.8359911-56.7337033 6.9307242-73.323503-4.245105l-18.906147 65.556583c16.577595 11.239896 36.6098691 20.456487 73.350967 4.019245z" fill="url(#aa)"/><path d="m50.908633-12.113983c-38.318902 15.8329429-56.6604565 6.9246401-73.25026-4.239005.03967-.146494.100712-.427256 0-.704975 16.5898035 11.1697495 35.386083 20.1665395 73.683621 4.324457-.314361.18005-.33877.399811-.433361.619523z" fill="url(#ab)"/><path d="m-44.055465 49.432464 18.781018-65.001126 1.376381-.979641-18.716933 64.979761-1.440466 1.147499z" fill="#8cac42"/><path d="m-41.201997 49.173074c-.573746-.332738-1.004054-.991858-1.522866-.784322l18.756606-64.903486c.289911-.131233 1.010159-.372326 1.699873.161754z" fill="url(#ad)"/><path d="m-23.730212-16.963355-.189199.460829-1.367224.985742c.122085-.445569 1.174957-1.181061 1.48014-1.413002.06408-.02753.0763-.0336.0763-.0336z" fill="#5f821c"/><path d="m-22.332471-16.407918c-.711079-.430312-1.361119-.213648-1.644942-.09156.03967-.143417.167866-.430312.167866-.430312.619524-.384551.875882-.399812 1.464884-.128197.0763.21972.103748.43336.01214.650045z" fill="url(#ae)"/><path d="m53.865866-10.569752-19.05569 65.291045-1.443519-1.254284 18.951926-65.2636z" fill="url(#af)" opacity=".81"/><path d="m35.182502 55.200443c.04578-.378479-.341805-.677497-.341805-.677497l18.9977-65.153732s.308247.268578.38455.457773z" fill="#476e32"/><path d="m34.547718 55.804714c-10.238921 4.654037-19.919358 7.055861-28.9161802 7.834071-15.5399675 1.748694-28.1104978-1.617462-38.3677328-6.662162-3.997908-1.834146-7.602129-3.909425-10.806563-6.067079l.177015-.131152c3.24716 2.169838 6.772034 4.306119 10.629557 6.198271 10.431189 4.788347 23.447288 7.950043 38.3677319 6.665198 8.4932711-.970485 17.8837811-3.482128 28.2569831-8.072087.292988.219801.659197.235183.659197.235183z" fill="#1d3419"/><path d="m32.475519 54.5901s-.723287-.653129-.60121-1.605277c1.004054-.262304 1.635786.357025 1.635786.357025s-.198388.88807-1.034576 1.248212z" fill="url(#ag)"/><path d="m33.510095 53.341889 1.355015 1.211578s-.204459.750765-1.028471 1.110866l-1.419106-1.205466c.84536-.357025 1.092562-1.116978 1.092562-1.116978z" fill="url(#ah)"/><path d="m32.109297 52.951226c-.134268.9583.573746 1.663283.573746 1.663283-38.3005894 15.842079-58.033784 6.530929-74.629688-4.71512.292987-.201585.332657-.201585.524916-.888069 16.583699 11.236859 41.65150915 19.107563 73.531026 3.939906z" fill="url(#ai)"/><path d="m-43.365751 50.84243 1.428262-.949112c16.592852 10.684482 36.1917657 19.919329 74.467943 4.535028l1.373328 1.20243c-36.7410986 16.211369-60.240265 7.193165-77.269533-4.788346z" fill="#26551b"/><path d="m35.182502 55.200443c-.177014.350954-.518811.555454-.634784.604271-.02429.01619-.03967.01619-.03967.01619s-.253318.04898-.616472-.192275c.762961-.399933.973537-1.239023.973537-1.239023s.433361.384551.317397.811766z" fill="#5f821c"/><path d="m-43.307765 50.827169-.167866.13439s-.924712-.509671-.576798-1.528974c.08545 1.016267.744648 1.394705.744648 1.394705z" fill="#26551b"/><path d="m-44.055465 49.432464 1.38248-1.089494c-.08545 1.05286.814843 1.480157.814843 1.480157l-1.397741 1.083381c0 .0081-.872829-.430292-.799582-1.474044z" fill="url(#aj)"/><path d="m-42.706554 48.34297c.476086-.155439.89419.347715 1.467936.805695-.192276.671386-.347917.552377-.640889.756837-.338769-.186204-.921655-.695794-.827047-1.562532z" fill="url(#ak)"/><path d="m53.99099-11.244206c.01822.241094-.161754.646989-.161754.646989l-1.470988-1.184113s.213648-.485242.106824-.851464c.494395.207536 1.443519 1.245151 1.525918 1.388588z" fill="url(#al)" opacity=".72"/><path d="m53.960473-11.305244c-.286875-.387587-.726339-.73244-1.071197-1.04678-.646988-.592058-1.452675-.463881-1.64189-.350953l-.0093.02145c-38.218187 15.7780367-56.9961575 6.7812062-73.576805-4.379391.03643.08242.03967.16479.04882.24417-.0093-.07934-.01214-.161754-.04882-.24417-.585954-.268578-.84536-.256354-1.464883.128197-.238058.167867-.854513.625628-1.211578 1.016263 6.37529 5.37124 33.4817339 26.608981 78.975509 4.611332zm-76.292944-5.102674-.0093.01214c0-.01214-.0031-.01214-.0093-.01538.0061.0031.0093.0031.01822.0031.03967-.08849.03967-.170903.04578-.256354-.0061.103748-.01822.192275-.04578.256354z" fill="url(#an)" opacity=".33"/><path d="m31.932291 53.100796 18.945821-65.233087c1.034575-.192276 1.528974.396735 1.528974.396735l-18.896991 65.071332c0 .0081-.77517-.576785-1.577804-.234778z" fill="url(#ao)" opacity=".72"/><path d="m50.908633-12.113983c.05493-.250241.08849-.360101.335693-.589002.192275-.112937.994902-.241093 1.64189.350953.646989.582902 1.641891 1.260408 1.336707 2.179011-.07934-.189199-.36929-.427256-.36929-.427256l-1.446571-1.138335s-.466934-.558486-1.498453-.375363z" fill="url(#ap)" opacity=".6"/><path d="m-25.018089-15.913523c-.09768.119008-.192275.222796-.238057.326544l-.01538.01822-.06715.222796c5.771028 4.882942 33.1338253 27.353658 79.601138 4.7334-.02753-.253317-.137345-.485242-.2991-.695818-45.4968273 22.000709-72.603271.762961-78.981614-4.605227z" fill="url(#aq)" opacity=".3"/><path d="m53.99099-11.241153c.01822.238057-.161754.640884-.161754.640884l-1.467936-1.184113s.213649-.48219.115973-.851465c.48219.213608 1.431314 1.254308 1.513717 1.394694z" fill="url(#ar)" opacity=".72"/><path d="m50.908633-12.113983c.05493-.250241.08849-.360101.341805-.589002.189199-.112937.994902-.241093 1.635786.357066.646989.579846 1.644943 1.251251 1.339759 2.175958-.08545-.192275-.372326-.427256-.372326-.427256l-1.446571-1.144439c.0031.0031-.466934-.555434-1.498453-.372327z" fill="url(#as)" opacity=".6"/></g></svg>