<svg xmlns="http://www.w3.org/2000/svg" width="101.957" height="101.958">
  <path d="M50.478.002c-13.146.12-25.53 5.201-34.996 14.386C5.708 23.87.212 36.588.006 50.204c-.207 13.619 4.9 26.5 14.382 36.272 9.481 9.774 22.2 15.27 35.817 15.476 13.615.207 26.496-4.9 36.27-14.382 9.773-9.484 15.27-22.204 15.476-35.818.207-13.615-4.9-26.496-14.383-36.27C78.087 5.708 65.368.212 51.752.006a52.102 52.102 0 0 0-1.274-.004zm.017 1.785a49.742 49.742 0 0 1 1.23.004c13.138.199 25.413 5.502 34.562 14.935 9.15 9.43 14.08 21.86 13.88 34.998-.2 13.14-5.503 25.413-14.935 34.563-9.431 9.15-21.861 14.078-35 13.879-13.14-.198-25.413-5.503-34.563-14.935C6.52 75.8 1.59 63.37 1.79 50.232c.2-13.139 5.503-25.413 14.934-34.561C25.862 6.806 37.812 1.904 50.495 1.787zm.472 15.577c-18.593 0-33.665 15.073-33.665 33.666 0 18.592 15.072 33.664 33.665 33.664 18.592 0 33.664-15.072 33.664-33.664 0-18.593-15.072-33.666-33.664-33.666zM9.785 53.867c-.78 0-1.416.635-1.416 1.413a1.414 1.414 0 1 0 1.416-1.413zm82.558 0c-.781 0-1.417.635-1.417 1.413a1.414 1.414 0 1 0 1.417-1.413z" fill="#c02827"/>
  <path d="M53.444 4.956l-5.477.05a.454.454 0 0 0-.325.138.456.456 0 0 0-.131.324l.07 7.695a.457.457 0 0 0 .456.456l5.484-.049a.463.463 0 0 0 .456-.463l-.009-.897a.461.461 0 0 0-.459-.455l-4.088.038-.015-1.616 3.631-.033a.458.458 0 0 0 .454-.465l-.007-.896a.46.46 0 0 0-.458-.455l-3.638.033-.012-1.555 4.084-.038a.452.452 0 0 0 .323-.136.454.454 0 0 0 .132-.327l-.007-.893a.461.461 0 0 0-.459-.456zm4.173.485a.464.464 0 0 0-.45.356.443.443 0 0 0 .032.299l1.984 4.039-3.714 2.88a.469.469 0 0 0-.156.248.472.472 0 0 0 .063.353.44.44 0 0 0 .274.201l.992.229a.597.597 0 0 0 .141.016.83.83 0 0 0 .495-.16l2.706-2.124 1.5 3.098a.84.84 0 0 0 .509.408l.984.227.005.002.018.002a.461.461 0 0 0 .527-.351.451.451 0 0 0-.04-.312 7204.787 7204.816 0 0 0-2.03-4.198l1.516-1.18c.958-.746 1.98-1.542 2.009-1.563a.456.456 0 0 0 .171-.264.463.463 0 0 0-.345-.554l-.96-.223a.7.7 0 0 0-.141-.015c-.181 0-.37.06-.496.156l-2.565 2-1.435-2.926a.836.836 0 0 0-.51-.404l-.982-.227a.457.457 0 0 0-.102-.012zM35.62 7.595a.565.565 0 0 0-.184.034l-.689.254a.65.65 0 0 0-.399.518l-.125 1.409-.64 7.183a.432.432 0 0 0 .166.391.456.456 0 0 0 .287.093.398.398 0 0 0 .136-.025l.962-.355a.654.654 0 0 0 .399-.521l.128-1.48 3.772-1.394 1.058 1.041a.67.67 0 0 0 .464.171.593.593 0 0 0 .179-.033l.96-.354a.448.448 0 0 0 .278-.328.433.433 0 0 0-.127-.406c-.059-.057-5.793-5.668-6.17-6.028l.002-.002a.65.65 0 0 0-.456-.168zm32.276.552a.316.316 0 0 0-.091.018c-.128.044-.231.166-.346.406a1.1 1.1 0 0 0-.092.278c-.09.499.193.95.437 1.172l-2.77 5.763a.469.469 0 0 0-.035.112.449.449 0 0 0 .246.484l.865.416a.44.44 0 0 0 .34.02.441.441 0 0 0 .255-.23l.987-2.053 1.493.719c.819.393 1.678.525 2.418.373.861-.178 1.534-.726 1.948-1.585l.01-.02a3.031 3.031 0 0 0 .253-.77c.242-1.332-.535-2.57-2.076-3.31l-3.609-1.733a.48.48 0 0 0-.234-.06zm-31.88 2.111l1.985 2.02-2.179.805zm33.441.598l1.496.718c.753.362 1.116.852 1.02 1.377a1.21 1.21 0 0 1-.097.295l-.01.02a.988.988 0 0 1-.724.555c-.346.07-.75-.002-1.17-.203l-1.495-.718.981-2.044zm-42.04 1.45c-.931.017-1.864.34-2.701.936l-3.054 2.17c-.078.055-.172.135-.194.264-.02.132.035.28.188.498.3.423.76.478 1.006.473a1.426 1.426 0 0 0 .43-.072l3.706 5.21a.446.446 0 0 0 .623.104l2.287-1.625c2.143-1.523 2.648-4.105 1.202-6.14l-.014-.019c-.83-1.168-2.098-1.824-3.48-1.8zm50.064 1.118a.454.454 0 0 0-.37.168l-4.893 5.958a.448.448 0 0 0 .06.628l.743.609a.443.443 0 0 0 .268.1.444.444 0 0 0 .36-.162l1.646-2 1.266 1.04-.114 3.468a.801.801 0 0 0 .272.592l.8.656a.466.466 0 0 0 .281.107.45.45 0 0 0 .365-.166.475.475 0 0 0 .106-.28l.108-3.366a3.315 3.315 0 0 0 .752.117c.581.019 1.414-.128 2.082-.942l.015-.02c.493-.6.694-1.3.58-2.027-.126-.79-.63-1.567-1.46-2.248l-2.595-2.13a.454.454 0 0 0-.272-.102zm-50.12.74c.8-.014 1.538.367 2.02 1.047l.014.017c.843 1.186.541 2.65-.737 3.56l-1.141.81-2.892-4.07 1.14-.81c.497-.352 1.048-.544 1.595-.554zm50.326 1.652l1.435 1.179c1.124.922.955 1.423.683 1.755l-.012.015a.85.85 0 0 1-.715.328c-.338-.011-.727-.19-1.126-.517l-1.514-1.242zm-58.913 2.371a.446.446 0 0 0-.316.151l-.615.709a.441.441 0 0 0-.108.325.438.438 0 0 0 .153.306l3.595 3.12-6.452-.097h-.035a.84.84 0 0 0-.55.261l-.404.467a.454.454 0 0 0 .045.63l5.833 5.062a.444.444 0 0 0 .312.108.443.443 0 0 0 .318-.152l.614-.709a.446.446 0 0 0-.045-.63l-3.637-3.157 6.534.099h.038c.156-.007.37-.066.495-.211l.415-.48a.454.454 0 0 0-.045-.637l-5.832-5.058a.443.443 0 0 0-.313-.107zm66.962 2.847a.456.456 0 0 0-.306.096l-6.06 4.74a.455.455 0 0 0-.08.646l3.374 4.314a.46.46 0 0 0 .644.078l.706-.552a.456.456 0 0 0 .078-.645l-2.514-3.216 1.272-.994 2.237 2.858a.461.461 0 0 0 .645.079l.706-.552a.461.461 0 0 0 .08-.645l-2.24-2.862 1.227-.956 2.516 3.218a.458.458 0 0 0 .34.176.454.454 0 0 0 .305-.098l.704-.55a.45.45 0 0 0 .173-.307.447.447 0 0 0-.093-.339l-3.375-4.314a.459.459 0 0 0-.307-.174c-.011 0-.022-.002-.032-.001zm4.331 8.706a2.208 2.208 0 0 0-.827.209l-.019.01c-1.237.582-1.561 1.722-1.12 3.936.336 1.682.087 1.8-.115 1.896a.618.618 0 0 1-.302.056c-.362-.025-.74-.367-.986-.89-.373-.792-.388-1.233-.243-2.238a.471.471 0 0 0-.041-.263.466.466 0 0 0-.347-.262l-.866-.141a.482.482 0 0 0-.54.355c-.017.059-.42 1.56.394 3.287.55 1.17 1.504 1.913 2.549 1.985a2.393 2.393 0 0 0 1.198-.227l.02-.01c1.19-.56 1.532-1.751 1.111-3.862-.35-1.746-.087-1.87.125-1.968a.461.461 0 0 1 .224-.035c.289.02.694.25.97.835a3.374 3.374 0 0 1 .297 1.633v.002l-.003.018a.498.498 0 0 0 .047.251.49.49 0 0 0 .337.273l.87.178a.458.458 0 0 0 .347-.07.438.438 0 0 0 .19-.28c.011-.043.281-1.204-.444-2.745-.526-1.118-1.498-1.858-2.536-1.93a2.308 2.308 0 0 0-.29-.003zm-79.782.35a.643.643 0 0 0-.448.192.588.588 0 0 0-.11.15l-.323.66a.648.648 0 0 0 .068.65l.879 1.109 4.484 5.647a.435.435 0 0 0 .392.17.465.465 0 0 0 .271-.13.43.43 0 0 0 .082-.113l.452-.92a.66.66 0 0 0-.071-.653l-.926-1.16 1.773-3.61 1.486.026a.666.666 0 0 0 .452-.197.54.54 0 0 0 .107-.146l.452-.919a.45.45 0 0 0-.023-.428.436.436 0 0 0-.372-.207c-.084 0-8.104-.117-8.625-.12zm1.675 1.85l2.83.098-1.025 2.083zm-2.8 5.275a2.733 2.733 0 0 0-.199.005c-1.35.08-2.37 1.127-2.726 2.799l-.831 3.917c-.02.094-.035.215.036.325.074.113.216.185.476.24a1.058 1.058 0 0 0 .292.023c.506-.03.878-.411 1.035-.701l6.254 1.33a.447.447 0 0 0 .53-.345l.2-.938a.446.446 0 0 0-.345-.53l-2.228-.474.345-1.621c.19-.888.115-1.754-.208-2.437-.375-.795-1.067-1.32-2-1.52l-.022-.003a3.16 3.16 0 0 0-.61-.07zm84.198.989a2.289 2.289 0 0 0-.564.046l-.018.004c-1.34.288-1.914 1.323-1.988 3.581-.056 1.713-.327 1.772-.545 1.818a.597.597 0 0 1-.154.013c-.412-.017-.769-.457-.91-1.118-.182-.856-.097-1.288.272-2.236a.464.464 0 0 0-.257-.597l-.812-.335a.48.48 0 0 0-.157-.033.477.477 0 0 0-.449.254c-.03.055-.763 1.426-.366 3.293.328 1.534 1.36 2.56 2.626 2.616a2.46 2.46 0 0 0 .624-.053l.022-.004c1.285-.275 1.89-1.356 1.96-3.508.059-1.78.341-1.84.57-1.889a.317.317 0 0 1 .091-.006c.323.014.738.35.889 1.058a3.394 3.394 0 0 1-.082 1.657l-.008.02a.501.501 0 0 0-.011.253.484.484 0 0 0 .265.342l.809.372a.46.46 0 0 0 .173.041.448.448 0 0 0 .429-.259c.054-.11.539-1.15.192-2.774-.31-1.451-1.38-2.503-2.6-2.556zm-84.25.874a1.156 1.156 0 0 1 .308.027l.02.004c.323.068.57.266.713.573.149.32.175.728.078 1.185l-.344 1.622-2.219-.47.345-1.622c.174-.818.564-1.286 1.098-1.319z" fill="#1a1b21"/>
  <path d="M13.22 64.62c-.49 0-.974.104-1.439.306-1.793.783-2.562 2.708-1.791 4.477.03.067.059.132.09.194l.032.06c.02.042.04.084.065.124l.038.066.045.079.013.022.046.068c.02.033.041.065.062.095l.047.066a2.525 2.525 0 0 0 .065.086l.047.059.068.08.051.057.077.08.044.044c.03.03.057.053.085.08l.042.037c.09.078.181.15.271.212l.043.03.097.063.042.024.112.068h.001l.05.027.037.018.057.03.061.03.07.034.02.01.111.047a.484.484 0 0 0 .183.037.502.502 0 0 0 .461-.316l.167-.415a.519.519 0 0 0-.257-.655 4.052 4.052 0 0 1-.196-.103l-.046-.029a1.881 1.881 0 0 1-.132-.082l-.035-.024-.03-.021a1.395 1.395 0 0 1-.1-.077l-.061-.053c-.03-.027-.06-.054-.088-.083a1.367 1.367 0 0 1-.136-.155l-.021-.025-.013-.017-.02-.025a2.568 2.568 0 0 1-.077-.12l-.019-.03-.018-.031a2.245 2.245 0 0 1-.106-.213 1.744 1.744 0 0 1 .007-1.43c.204-.456.593-.828 1.093-1.047a2.189 2.189 0 0 1 .878-.189c.752 0 1.376.402 1.669 1.075.028.064.054.13.078.207l.009.034.008.03a1.759 1.759 0 0 1 .043.19l.003.021.018.129.004.077c.003.043.003.086.003.144v.024l-.002.034a1.474 1.474 0 0 1-.011.131l-.008.076a2.13 2.13 0 0 1-.03.166l-.005.038a3.192 3.192 0 0 1-.049.193.5.5 0 0 0 .327.618l.497.155a.513.513 0 0 0 .634-.336 3.553 3.553 0 0 0 .064-.244l.01-.043a3.76 3.76 0 0 0 .046-.25l.006-.04c.01-.09.019-.176.023-.265l.002-.024a3.122 3.122 0 0 0 0-.273l-.002-.024a3.324 3.324 0 0 0-.026-.282l-.008-.046a2.989 2.989 0 0 0-.056-.288l-.012-.05a4.185 4.185 0 0 0-.087-.3l-.018-.047a4.06 4.06 0 0 0-.128-.328c-.556-1.277-1.743-2.071-3.096-2.071zm74.108.028a.507.507 0 0 0-.46.286l-.221.475a.495.495 0 0 0-.015.384.488.488 0 0 0 .258.28l3.06 1.423-4.403 1.004a.853.853 0 0 0-.538.435l-.195.418a.495.495 0 0 0-.016.382.494.494 0 0 0 .26.28l5.142 2.39a.497.497 0 0 0 .664-.24l.221-.477a.494.494 0 0 0 .015-.382.497.497 0 0 0-.258-.28l-3.174-1.475 4.557-1.04a.86.86 0 0 0 .538-.436l.154-.328a.498.498 0 0 0 .017-.381.494.494 0 0 0-.258-.282l-5.145-2.391a.47.47 0 0 0-.203-.046zm-69.498 5.89a.491.491 0 0 0-.277.083l-4.679 3.208a.501.501 0 0 0-.128.696l.307.446a.501.501 0 0 0 .416.214c.102 0 .197-.03.278-.085l1.752-1.202 1.426 2.08-1.752 1.203a.5.5 0 0 0-.128.694l.306.446a.497.497 0 0 0 .694.128l4.677-3.206a.493.493 0 0 0 .209-.32.494.494 0 0 0-.078-.373l-.307-.447a.503.503 0 0 0-.417-.215.49.49 0 0 0-.278.084l-1.722 1.18-1.427-2.079 1.722-1.18a.503.503 0 0 0 .13-.696l-.307-.446a.502.502 0 0 0-.416-.214zm66.062.837a.501.501 0 0 0-.41.204l-2.368 3.3a.5.5 0 0 0 .113.697l4.607 3.306a.491.491 0 0 0 .292.095.499.499 0 0 0 .405-.208l2.395-3.336a.49.49 0 0 0 .086-.373.494.494 0 0 0-.2-.323l-.346-.249a.488.488 0 0 0-.287-.09.503.503 0 0 0-.41.204l-1.788 2.49-.995-.714 1.529-2.129a.499.499 0 0 0-.115-.696l-.346-.25a.485.485 0 0 0-.286-.09.504.504 0 0 0-.41.204l-1.529 2.131-.816-.587-.003-.108h-.124l1.754-2.444a.5.5 0 0 0-.115-.695l-.346-.249a.487.487 0 0 0-.287-.09zm-61.41 5.285a.499.499 0 0 0-.338.128l-4.162 3.851a.501.501 0 0 0-.028.707l.368.397a.5.5 0 0 0 .705.028l4.165-3.85a.499.499 0 0 0 .026-.708l-.367-.397a.5.5 0 0 0-.367-.156zm57.095.277a.494.494 0 0 0-.348.139l-.39.376a.5.5 0 0 0-.15.353.491.491 0 0 0 .142.354l1.455 1.497-1.81 1.76-1.454-1.497a.503.503 0 0 0-.36-.148.494.494 0 0 0-.347.138l-.388.377a.5.5 0 0 0-.01.707l3.954 4.067a.496.496 0 0 0 .358.15.503.503 0 0 0 .348-.14l.388-.379a.495.495 0 0 0 .151-.35.493.493 0 0 0-.142-.356l-1.478-1.522 1.808-1.76 1.48 1.523a.499.499 0 0 0 .707.01l.387-.377a.499.499 0 0 0 .011-.706l-3.953-4.067a.501.501 0 0 0-.36-.148zM24.994 79.27a.507.507 0 0 0-.393.184l-3.55 4.423a.499.499 0 0 0 .078.701l.407.327a.492.492 0 0 0 .31.107.506.506 0 0 0 .393-.184l2.19-2.729-.08 4.673a.862.862 0 0 0 .294.628l.284.227a.501.501 0 0 0 .313.11.494.494 0 0 0 .389-.187l3.55-4.422a.494.494 0 0 0 .106-.367.494.494 0 0 0-.183-.335l-.409-.328a.486.486 0 0 0-.308-.106.501.501 0 0 0-.393.184l-2.112 2.63.078-4.513a.862.862 0 0 0-.295-.628l-.36-.288a.491.491 0 0 0-.31-.107zm49.189 2.93l-.19.006-.049.004-.058.006-.053.005a2.857 2.857 0 0 0-.161.022c-.051.007-.1.019-.152.028l-.064.016-.058.013-.053.015-.065.02-.023.007a1.217 1.217 0 0 0-.076.023.43.43 0 0 0-.035.011l-.03.011a2.225 2.225 0 0 0-.105.04l-.05.02-.02.007a2.273 2.273 0 0 0-.1.044l-.071.033-.079.038-.027.013-.067.034-.096.053-.02.013-.058.031a5.556 5.556 0 0 0-.182.113c-.804.521-1.344 1.301-1.519 2.196-.172.872.012 1.783.518 2.566.65 1 1.719 1.597 2.858 1.597.648 0 1.289-.194 1.853-.56.062-.04.121-.08.177-.12l.057-.043.105-.08.064-.052.042-.035.049-.041.06-.055a1.986 1.986 0 0 0 .081-.078c.024-.022.041-.038.058-.056l.028-.029.045-.048.052-.058a1.79 1.79 0 0 0 .058-.07l.056-.067.035-.046.04-.053.03-.044c.018-.025.035-.05.051-.077l.023-.034.02-.032a.474.474 0 0 0 .025-.04l.013-.02.05-.091c.027-.05.053-.1.078-.153l.021-.048.012-.025.036-.082.022-.06.038-.096.023-.064.011-.036.02-.058.02-.07a2.283 2.283 0 0 0 .028-.098l.03-.115a.498.498 0 0 0-.382-.591l-.437-.096a.525.525 0 0 0-.605.361 3.594 3.594 0 0 1-.068.208l-.022.054a1.982 1.982 0 0 1-.059.144l-.034.068-.009.016a1.52 1.52 0 0 1-.05.097l-.036.058a1.582 1.582 0 0 1-.076.115l-.049.064a1.973 1.973 0 0 1-.094.108.955.955 0 0 1-.04.044 1.95 1.95 0 0 1-.108.097l-.03.027-.02.017a2.429 2.429 0 0 1-.197.144 1.75 1.75 0 0 1-.955.289c-.652 0-1.276-.363-1.67-.97-.299-.46-.416-.983-.33-1.476.085-.488.366-.907.788-1.182.063-.04.125-.076.189-.11l.016-.007h.003l.018-.008.029-.013c.04-.018.084-.038.128-.055l.017-.006.036-.012.021-.008c.038-.013.08-.025.121-.038l.043-.01.033-.007c.038-.008.08-.016.12-.022l.022-.004.054-.008a1.602 1.602 0 0 1 .131-.01l.036-.004.035-.002a2.13 2.13 0 0 1 .171.002h.044a3.553 3.553 0 0 1 .196.016.497.497 0 0 0 .557-.424l.072-.515a.503.503 0 0 0-.418-.568l-.084-.01a1.764 1.764 0 0 0-.096-.009l-.211-.014c-.034-.002-.065-.002-.095-.002zm-42.898 1.698a.508.508 0 0 0-.446.265l-2.662 5.007a.497.497 0 0 0-.037.38.499.499 0 0 0 .243.296l3.627 1.926a.494.494 0 0 0 .675-.207l.2-.374a.502.502 0 0 0-.206-.676l-2.708-1.439.575-1.082 2.315 1.23a.484.484 0 0 0 .229.057.512.512 0 0 0 .447-.263l.2-.375a.497.497 0 0 0 .035-.38.494.494 0 0 0-.242-.295l-2.316-1.23.55-1.037 2.67 1.42a.5.5 0 0 0 .675-.208l.2-.376a.499.499 0 0 0-.209-.676l-3.586-1.906a.488.488 0 0 0-.229-.057zm37.13 1.414a.492.492 0 0 0-.19.038l-4.137 1.769a.495.495 0 0 0-.267.273.497.497 0 0 0 .005.383l.181.423a.51.51 0 0 0 .464.302.488.488 0 0 0 .191-.037l1.267-.542.048-.002.058-.002 1.837 4.295a.497.497 0 0 0 .458.302.482.482 0 0 0 .197-.04l.505-.216a.496.496 0 0 0 .264-.656l-1.853-4.332 1.356-.58a.502.502 0 0 0 .262-.654l-.181-.425a.51.51 0 0 0-.465-.3zm-30.16 1.837c-.947 0-1.678.509-1.955 1.36-.4 1.22.272 1.93 1.485 2.677 1.009.607 1.028.826.941 1.09-.093.286-.357.345-.562.345-.138 0-.29-.027-.45-.08a2.702 2.702 0 0 1-.231-.087 1.527 1.527 0 0 0-.042-.02l-.027-.013a2.37 2.37 0 0 1-.142-.072 2.424 2.424 0 0 1-.076-.044 2.452 2.452 0 0 1-.116-.076c-.023-.015-.042-.03-.06-.043l-.016-.012a2.336 2.336 0 0 1-.105-.084 2.47 2.47 0 0 1-.063-.053 2.925 2.925 0 0 1-.117-.116 2.055 2.055 0 0 1-.054-.053 5.22 5.22 0 0 1-.098-.116l-.023-.027a6.448 6.448 0 0 1-.148-.196l-.037-.05a.52.52 0 0 0-.426-.22.488.488 0 0 0-.257.072l-.4.247a.494.494 0 0 0-.181.646l.025.042.031.049.053.072.018.023.019.028a2.87 2.87 0 0 0 .196.243l.037.042a3.637 3.637 0 0 0 .254.26c.05.047.102.094.155.138l.115.094c.056.044.112.083.168.123l.019.012.014.01a2.727 2.727 0 0 0 .275.172l.03.019.087.049c.072.038.144.07.213.103l.039.02.037.016.032.014c.123.052.232.093.337.127.346.113.684.17 1.003.17.963 0 1.682-.51 1.972-1.399.33-1.011-.096-1.796-1.428-2.62-1.089-.668-1.09-.868-1.001-1.138.068-.206.254-.32.528-.32.119 0 .25.023.384.068a2.203 2.203 0 0 1 .17.064.161.161 0 0 1 .022.012l.03.013c.039.018.076.037.111.055l.06.034c.034.02.067.04.099.062l.028.019.038.026c.027.02.06.043.092.07.022.016.04.031.058.046.033.026.065.054.095.083l.058.052c.035.033.072.073.11.113l.035.037c.043.046.087.1.131.154a.51.51 0 0 0 .4.193.494.494 0 0 0 .296-.098l.37-.275a.506.506 0 0 0 .121-.686l-.019-.025c-.015-.02-.028-.034-.04-.049l-.017-.022a6.12 6.12 0 0 0-.133-.16 3.405 3.405 0 0 0-.06-.062l-.019-.02a4.588 4.588 0 0 0-.13-.132l-.067-.062-.022-.019a3.572 3.572 0 0 0-.136-.115l-.023-.017-.073-.058h-.003l-.014-.01a3.299 3.299 0 0 0-.136-.095 2.818 2.818 0 0 0-.268-.162l-.02-.012a3.001 3.001 0 0 0-.282-.138l-.03-.013-.027-.012-.034-.015a4.437 4.437 0 0 0-.313-.116 2.928 2.928 0 0 0-.91-.151zm23.611.645a.491.491 0 0 0-.13.018l-.523.147a.494.494 0 0 0-.3.236.497.497 0 0 0-.045.38l1.532 5.46a.5.5 0 0 0 .614.348l.522-.148a.501.501 0 0 0 .346-.616l-1.532-5.46a.503.503 0 0 0-.484-.364zm-18.244.829a.502.502 0 0 0-.494.426l-.816 5.612a.488.488 0 0 0 .094.37.5.5 0 0 0 .327.197l4.064.59a.501.501 0 0 0 .566-.422l.061-.421a.492.492 0 0 0-.094-.37.497.497 0 0 0-.327-.197l-3.034-.44.176-1.213 2.593.378a.504.504 0 0 0 .567-.42l.061-.424a.499.499 0 0 0-.422-.566l-2.595-.377.17-1.16 2.989.435a.503.503 0 0 0 .567-.422l.06-.422a.494.494 0 0 0-.423-.565l-4.019-.584a.58.58 0 0 0-.072-.005zm14.96.032l-.01.002-.02.001-.486.064a.96.96 0 0 0-.587.35l-2.036 2.812-.3-2.273a.502.502 0 0 0-.494-.435.656.656 0 0 0-.067.004l-.536.071a.497.497 0 0 0-.33.192.494.494 0 0 0-.098.369l.74 5.624a.5.5 0 0 0 .565.428l.533-.07a.495.495 0 0 0 .33-.192.492.492 0 0 0 .099-.369l-.188-1.425.621-.833 2.096 2.118a.86.86 0 0 0 .652.226l.54-.071a.275.275 0 0 0 .084-.024.466.466 0 0 0 .33-.446.475.475 0 0 0-.123-.32l-2.665-2.685 1.746-2.36a.212.212 0 0 0 .028-.05.454.454 0 0 0 .068-.235.472.472 0 0 0-.472-.471z" fill="#1a1b21"/>
  <path d="M48.276 27.968a17.353 17.353 0 0 0-.903.02 17.03 17.03 0 0 0-5.582 1.23c-.015.007-.034.01-.048.018a17.083 17.083 0 0 0-5.982 4.12l-.01.01a16.956 16.956 0 0 0-2.562 3.55c-.022.04-.047.082-.07.126a.373.373 0 0 0-.02.045c-.331.67-1.97 4.186-1.954 8.793 0 0-.115 3.042 1.856 6.508a13.368 13.368 0 0 0 1.121 1.722c.077.102.157.203.237.3a8.999 8.999 0 0 0 .24.283.138.138 0 0 0 .021.028l.228.255.044.049c.07.077.142.149.215.224 1.402 1.503 3.205 2.434 5.067 4.198.212.207.43.423.637.606.442.365.663.542 1.187.826a.042.042 0 0 0 .014.009l.002.002v.002c.03.014.059.032.089.045a7.144 7.144 0 0 0 .854.382 9.344 9.344 0 0 0 3.406.593c2.867 0 5.244-1.378 7.619-2.694a69.195 69.195 0 0 1 2.442-1.273c.578-.28 1.199-.587 1.585-.796l1.034-.614c6.86-4.163 6.236-11.915 6.236-11.915-.17-9.226-7.702-16.652-16.969-16.652zm18.483 6.649c-.352.833-.883 1.69-1.628 2.556 1.698 1.94 3.078 3.998 4.091 6.52 1.49 3.716 2.16 8.025 2.19 12.017 0 0-.018.756 1.43.779.637-.012 1.194-.342 1.406-.485 1.124-.786 2.155-2.412 2.169-5.116v-.043c0-.118-.004-.234-.006-.35-.09-3.733-1.523-6.736-2.327-8.134a11.016 11.016 0 0 0-.576-.913 31.557 31.557 0 0 0-6.75-6.832z" fill="#fff"/>
  <path d="M36.445 25.49c-4.503.063-9.614 5.373-3.353 11.602l.007-.005a.338.338 0 0 1 .02-.046c.023-.044.047-.084.07-.125a16.959 16.959 0 0 1 2.563-3.55l.009-.011a17.086 17.086 0 0 1 5.982-4.12c.014-.007.033-.011.049-.017l.002-.004c-.719-1.596-2.181-3.325-4.46-3.666a5.476 5.476 0 0 0-.889-.06zm24.416.302a5.566 5.566 0 0 0-.76.035c-1.773.207-3.705 1.752-4.953 3.576 5.876 2.587 10.005 8.413 10.132 15.218 0 0 .622 7.752-6.236 11.914a7.24 7.24 0 0 0-.197.124c-.027.015-.053.032-.079.048l-.239.142-.028.02c-.085.048-.167.098-.249.144l-.008.004-.234.132a.283.283 0 0 1-.035.02l-.012.007a.078.078 0 0 0-.025.013.058.058 0 0 0-.012.007l-.025.012-.013.007a.4.4 0 0 1-.025.014l-.014.008a.174.174 0 0 1-.027.013l-.012.008-.081.04a.05.05 0 0 1-.013.007 1.138 1.138 0 0 1-.031.016l-.014.008a1.024 1.024 0 0 0-.03.015l-.014.008a.447.447 0 0 1-.032.015c-.004.003-.007.005-.013.007l-.035.02a.019.019 0 0 0-.01.005l-.095.046-.009.005-.036.018c-.005.004-.01.004-.015.006a.398.398 0 0 1-.034.019l-.014.008-.038.018-.012.008a1.126 1.126 0 0 0-.044.02l-.004.004-.103.05-.006.003c-.015.007-.03.015-.045.02a.04.04 0 0 1-.01.007.371.371 0 0 1-.04.02l-.014.007-.04.018-.011.006-.048.025-.004.002-.105.052-.008.004a2.537 2.537 0 0 0-.045.02l-.012.008a.322.322 0 0 1-.041.018.538.538 0 0 1-.013.008l-.04.017-.013.007a.508.508 0 0 1-.044.02.024.024 0 0 1-.007.006c-.018.009-.037.016-.053.026h-.001l-.05.024-.019.008c-.009.007-.021.011-.032.016l-.007.004a68.75 68.75 0 0 0-2.443 1.273c-2.375 1.315-4.753 2.695-7.62 2.695h-.236l-.092-.003a9.35 9.35 0 0 1-3.078-.59 6.958 6.958 0 0 1-.854-.381c-.03-.016-.057-.032-.088-.046v-.002l-.002-.002a.042.042 0 0 1-.013-.01c-.525-.284-.746-.46-1.187-.826-.207-.183-.427-.399-.638-.604-1.862-1.766-3.666-2.697-5.067-4.2-.073-.075-.144-.147-.215-.224l-.044-.05-.227-.254a.129.129 0 0 1-.022-.027 8.898 8.898 0 0 1-.236-.278c0-.002-.001-.003-.004-.006a7.967 7.967 0 0 1-.237-.3c-.023-.03-.046-.062-.07-.091a.211.211 0 0 1-.02-.027c-.018-.022-.032-.045-.05-.068-.007-.01-.015-.02-.02-.03a2.502 2.502 0 0 1-.06-.078l-.01-.014-.068-.094-.016-.025-.051-.073-.02-.028-.053-.079c-.005-.005-.008-.012-.013-.018l-.066-.098c-.005-.004-.006-.01-.009-.015l-.056-.084-.017-.026-.052-.08a.148.148 0 0 1-.013-.021c-.044-.066-.085-.134-.128-.204l-.012-.02-.052-.086-.012-.02c-.041-.07-.083-.14-.123-.211-.003-.005-.008-.01-.01-.015l-.051-.092-.01-.02A1.67 1.67 0 0 1 33 52.39a15.142 15.142 0 0 1-.512-.983c-.687 1.09-1.069 2.009-1.55 3.49-1.014 3.09-1.504 6.767-.866 10.013.768 3.944 2.305 7.578 5.248 10.232 1.914 1.724 4.142 2.78 6.736 3.14 2.335.333 4.481-1.045 4.481-3.55 0-1.8-1.491-3.528-1.637-5.296-.217-2.565 1.35-4.863 3.997-4.604 1.299.127 2.815 1.044 3.032 2.943.174 1.538-.068 2.421-.9 3.942-.941 1.721-2.006 3.094-1.96 4.67h-.005s0 .05.008.136l.005.06c.005.048.012.105.022.168.006.042.007.082.015.123.007.045.023.092.033.14.01.047.02.095.034.147.01.042.02.083.032.122.272.947 1.027 2.387 3.169 2.824.589.12 1.59.174 2.376.116 2.935-.21 9.154-1.575 13.73-10.22 0 0 9.581.73 9.581-15.081l-.002.01v-.008l.003-.002a23.789 23.789 0 0 0-.036-1.064 23.378 23.378 0 0 0-.156-1.726l-.002-.012a16.668 16.668 0 0 0-.088-.596 22.045 22.045 0 0 0-.17-.96 22.01 22.01 0 0 0-.75-2.713c-.747-2.157-1.783-4.084-2.915-5.764-.119-.172-.24-.343-.358-.51l.074.109c.096.144.24.37.415.677.803 1.398 2.235 4.4 2.327 8.134.002.116.004.232.004.35l.002.036v.007c-.014 2.703-1.044 4.33-2.168 5.115-.214.144-.771.473-1.408.486-1.447-.022-1.43-.78-1.43-.78-.03-3.992-.7-8.3-2.19-12.016-1.013-2.522-2.394-4.579-4.091-6.52.744-.865 1.276-1.723 1.628-2.556 2.063-4.884-2.075-8.745-5.9-8.825zM40.235 42.987c-1.57.032-3.271 1.335-3.931 4.027-.826 3.369 1.669 5.66 2.651 5.654.834 0 1.216-.638 1.216-.638.165-.22.29-.486.388-.796.263-.819.71-1.56 1.648-2.988 1.578-2.403.545-4.391-.71-4.99a2.785 2.786 0 0 0-1.262-.27zm11.652.494a2.888 2.888 0 0 0-1.136.204c-1.35.535-2.565 2.534-1.085 5.147.877 1.551 1.29 2.355 1.508 3.226.091.368.22.68.405.936l.027.035c.082.106.174.203.28.284.207.167.509.34.885.35h.035c1.066-.01 3.707-2.21 3.091-5.706-.52-2.965-2.32-4.44-4.01-4.476zm-12.642 3.303a.947.947 0 0 1 .961 1.008.934.934 0 0 1-.99.868.935.935 0 0 1-.868-.992.951.951 0 0 1 .897-.885zm13.18.769a.944.944 0 0 1 .96 1.007.932.932 0 0 1-.987.87.935.935 0 0 1-.87-.993.95.95 0 0 1 .898-.884zm-9.43 8.449a.552.552 0 0 0-.424.91c.792.926 2.071.716 2.313 1.851.01.052.027.102.049.147a.038.038 0 0 0 .007.012c.02.035.041.067.065.098a.552.552 0 0 0 .423.198.547.547 0 0 0 .5-.32.357.357 0 0 0 .03-.087c.305-1.056 1.746-.822 2.61-1.578a.618.618 0 0 0 .153-.183.591.591 0 0 0 .063-.253.547.547 0 0 0-.514-.546c-.598-.03-.752.149-2.658.064-1.905-.084-1.972-.286-2.576-.313z" fill="#1a1b21"/>
  <path d="M87.131 90.515a2.61 2.61 0 1 0 0 5.222 2.61 2.61 0 0 0 0-5.222zm0 .46a2.15 2.15 0 1 1 0 4.301 2.15 2.15 0 0 1 0-4.3zm-.96.874a.036.036 0 0 0-.036.036v2.499c0 .02.017.038.036.038h.378a.036.036 0 0 0 .038-.038v-.824c0-.02.015-.036.035-.036h.494a.08.08 0 0 1 .058.03l.59.836a.08.08 0 0 0 .057.03h.46c.02 0 .026-.013.014-.03l-.651-.914c-.012-.015-.006-.033.013-.04.341-.105.579-.36.579-.77 0-.505-.363-.817-.955-.817zm.451.412h.622c.334 0 .533.147.533.43 0 .264-.205.433-.53.433h-.625a.036.036 0 0 1-.036-.036v-.791a.036.036 0 0 1 .036-.036z" fill="#231f20"/>
</svg>