<?xml version="1.0" encoding="UTF-8" standalone="no"?>
<svg
   id="Logo"
   viewBox="0 0 1894.1649 621.77675"
   width="1919.8884"
   height="630.17914"
   version="1.1"
   xmlns="http://www.w3.org/2000/svg"
   xmlns:svg="http://www.w3.org/2000/svg">
  <defs
     id="defs25" />
  <path
     d="m 718.12248,44.325 h 31.635 l 23.175,83.61 22.965,-83.61 h 38.085 l 22.98,83.61 23.175,-83.61 h 30.825 l -34.05,119.88 h -40.305 l -21.96,-79.38 -21.975,79.38 h -40.5 z"
     id="path1"
     style="stroke-width:15" />
  <path
     d="M 1052.1725,164.205 V 44.325 h 32.64 V 63.06 a 22.62,22.62 0 0 1 23.565,-18.735 h 21.975 v 30.42 h -23.58 c -14.505,0 -21.555,9 -21.555,23.775 v 65.685 z"
     id="path3"
     style="stroke-width:15" />
  <path
     d="m 1142.0225,0 h 33 v 164.205 h -33 z"
     id="path4"
     style="stroke-width:15" />
  <path
     d="m 1186.9475,104.16 c 0,-36 22.5,-62.46 53.4,-62.46 a 43.935,43.935 0 0 1 36.27,16.935 V 0 h 33 v 164.205 h -32.595 v -15.3 a 45,45 0 0 1 -37.275,18 c -30.435,-0.075 -52.8,-26.67 -52.8,-62.745 z m 61.725,35.265 c 16.5,0 28.41,-14.7 28.41,-35.46 0,-20.76 -11.685,-34.86 -28.215,-34.86 -16.53,0 -27.6,14.1 -27.6,35.055 0,20.955 11.025,35.265 27.405,35.265 z"
     id="path5"
     style="stroke-width:15" />
  <path
     d="m 716.92248,340.215 c 0,-21.765 16.32,-35.67 45.135,-38.49 l 36,-3.63 c -0.46504,-23.68687 -37.24828,-27.91925 -42.435,-5.235 h -32.85 c 2.025,-25.59 22.17,-41.1 53.61,-41.1 34.845,0 55.005,18.54 55.005,50.565 v 72 h -32.715 v -19.35 c -7.23622,14.80319 -22.89937,23.56141 -39.3,21.975 -26.7,-0.06 -42.45,-13.77 -42.45,-36.735 z m 49.155,10.5 c 15.95314,0.0391 29.59485,-11.46432 32.25,-27.195 l -31.845,3.42 c -10.065,1.02 -15.915,5.64 -15.915,12.9 0,7.26 5.445,10.845 15.51,10.845 z"
     id="path6"
     style="stroke-width:15" />
  <path
     d="m 848.65248,374.325 v -120 h 32.64 v 16.125 a 43.5,43.5 0 0 1 38.28,-18.735 c 28.215,0 44.325,18.93 44.325,51.78 v 70.83 h -33 v -66 c 0,-18.135 -8.25,-28.605 -22.155,-28.605 -16.32,0 -27,14.1 -27,35.865 v 58.74 z"
     id="path7"
     style="stroke-width:15" />
  <path
     d="m 987.22248,254.325 v -25.95 h 33.00002 v 25.95 h 28.41 v 28.62 h -28.41 v 51.78 c 0,8.67 3.825,11.685 11.085,11.685 h 14.91 v 27.915 h -24.975 c -21.57002,0 -34.06502,-10.275 -34.06502,-32.04 V 282.99 h -16.005 v -28.665 z"
     id="path8"
     style="stroke-width:15" />
  <path
     d="m 1061.3525,210.045 h 33.855 v 30.42 h -33.855 z m 0.6,44.325 h 33 v 119.955 h -33 z"
     id="path9"
     style="stroke-width:15" />
  <path
     d="m 1113.3125,297.33 h 54.9 v 26.565 h -54.9 z"
     id="path10"
     style="stroke-width:15" />
  <path
     d="m 1186.4075,314.22 c 0,-36 22.5,-62.46 53.4,-62.46 a 44.01,44.01 0 0 1 36.27,16.92 v -58.635 h 33 v 164.28 h -32.64 V 358.95 a 45,45 0 0 1 -37.275,18 c -30.39,-0.06 -52.755,-26.625 -52.755,-62.73 z m 61.665,35.265 c 16.5,0 28.41,-14.715 28.41,-35.46 0,-20.745 -11.685,-34.86 -28.215,-34.86 -16.53,0 -27.6,14.1 -27.6,35.055 0,20.955 11.085,35.265 27.405,35.265 z"
     id="path11"
     style="stroke-width:15" />
  <path
     d="M 1462.1675,411.54 V 254.325 h 32.64 v 15.315 a 45,45 0 0 1 37.275,-18 c 30.42,0 52.785,26.595 52.785,62.655 0,36.06 -22.5,62.475 -53.4,62.475 a 43.92,43.92 0 0 1 -36.255,-16.935 v 51.585 z m 88.5,-97.125 c 0,-21 -11.085,-35.25 -27.405,-35.25 -16.32,0 -28.41,14.7 -28.41,35.46 0,20.76 11.685,34.86 28.2,34.86 16.515,0 27.57,-14.16 27.57,-35.07 z"
     id="path13"
     style="stroke-width:15" />
  <path
     d="m 1596.5075,210.045 h 33.855 v 30.42 h -33.855 z m 0.6,44.325 h 33 v 119.955 h -33 z"
     id="path14"
     style="stroke-width:15" />
  <path
     d="m 1647.8075,374.325 v -120 h 32.64 v 16.125 a 43.5,43.5 0 0 1 38.28,-18.735 c 28.215,0 44.34,18.93 44.34,51.78 v 70.83 h -33 v -66 c 0,-18.135 -8.25,-28.605 -22.155,-28.605 -16.32,0 -27,14.1 -27,35.865 v 58.74 z"
     id="path15"
     style="stroke-width:15" />
  <path
     d="m 1825.7075,251.76 c 14.1537,-0.55534 27.6375,6.04564 35.88,17.565 v -15 h 32.64 v 106.59 c 0,32.04 -21.57,50.58 -58.845,50.58 -32.835,0 -52.185,-14.31 -56.415,-41.91 h 33.855 c 1.815,9.465 10.5,15.12 23.175,15.12 25.6853,0.15898 25.185,-18.73053 25.185,-37.38 -8.4464,11.0642 -21.7625,17.30789 -35.67,16.725 -29.0458,-2.65405 -51.2639,-27.0374 -51.2132,-56.20415 0.051,-29.16675 22.3534,-53.47275 51.4082,-56.02585 z m -18.2599,56.01 c -0.1753,15.53654 11.0864,28.87337 26.5249,28.815 15.73,0.20875 28.3774,-12.89208 27.615,-28.605 0.6875,-15.79487 -12.0007,-28.9416 -27.81,-28.815 -15.3061,-0.0168 -26.2242,12.73732 -26.3299,28.605 z"
     id="path16"
     style="stroke-width:15" />
  <path
     d="m 716.92248,550.275 c 0,-21.765 16.32,-35.67 45.135,-38.49 l 36,-3.63 c -0.44951,-23.87808 -37.4402,-27.0799 -42.435,-5.235 h -32.85 c 2.025,-25.59 22.17,-41.1 53.61,-41.1 34.845,0 55.005,18.54 55.005,50.565 v 71.94 h -32.715 v -19.35 c -7.23622,14.80319 -22.89937,23.56141 -39.3,21.975 -26.7,0 -42.45,-13.71 -42.45,-36.675 z m 49.155,10.5 c 15.95314,0.0391 29.59485,-11.46432 32.25,-27.195 l -31.845,3.42 c -10.065,1.02 -15.915,5.64 -15.915,12.9 0,7.26 5.445,10.845 15.51,10.845 z"
     id="path17"
     style="stroke-width:15" />
  <path
     d="m 894.28248,461.82 c 14.13728,-0.56387 27.61201,6.01288 35.865,17.505 v -14.91 h 32.64 v 106.59 c 0,32.04 -21.555,50.58 -58.83,50.58 -32.85,0 -52.185,-14.31 -56.415,-41.91 h 33.84 c 1.815,9.465 10.5,15.12 23.175,15.12 14.64709,1.47043 26.89745,-10.98423 25.185,-25.605 v -11.865 c -8.44494,11.0577 -21.75324,17.30035 -35.655,16.725 -29.0458,-2.65405 -51.26389,-27.0374 -51.21321,-56.20415 0.0507,-29.16675 22.35336,-53.47275 51.40821,-56.02585 z m -18.04591,55.78102 c 0.10714,15.06798 10.88971,29.0597 26.31091,29.04398 15.72798,0.20927 28.37142,-12.89456 27.6,-28.605 0.69605,-15.79472 -11.98539,-28.94838 -27.795,-28.83 -15.31434,-0.0167 -25.55219,10.68322 -26.11591,28.39102 z"
     id="path18"
     style="stroke-width:15" />
  <path
     d="m 973.85748,524.88 a 59.82,59.82 0 0 1 62.47502,-63 58.35,58.35 0 0 1 62.265,57.825 65.22,65.22 0 0 1 -1.005,11.685 h -89.265 a 28.635,28.635 0 0 0 29.82,28.215 24,24 0 0 0 25.38,-17.745 h 33.645 c -2.835,27 -26.805,45.15 -59.655,45.15 a 59.25,59.25 0 0 1 -63.66002,-62.13 z m 36.67502,-15.315 h 53.4 a 27.69,27.69 0 0 0 -53.4,0 z"
     id="path19"
     style="stroke-width:15" />
  <path
     d="M 1111.0775,584.325 V 464.43 h 32.595 v 16.125 a 43.5,43.5 0 0 1 38.295,-18.735 c 28.2,0 44.325,18.93 44.325,51.78 v 70.725 h -33 V 518.43 c 0,-18.135 -8.265,-28.605 -22.17,-28.605 -16.32,0 -27,14.1 -27,35.865 v 58.635 z"
     id="path20"
     style="stroke-width:15" />
  <path
     d="m 1237.7675,524.325 c -0.2205,-35.39765 27.0624,-64.74133 62.46,-62.46 32.64,0 55.215,18.54 57.225,47.145 h -33.645 c -1.3814,-11.8755 -11.8474,-20.57179 -23.775,-19.755 -16.935,0 -28.005,13.71 -28.005,34.875 0,21.165 11.475,35.46 28.605,35.46 11.8649,0.90514 22.3411,-7.68729 23.775,-19.5 h 33.66 c -1.62,28.005 -24.795,46.95 -57.84,46.95 -35.4907,2.25619 -62.342,-27.00486 -62.46,-62.715 z"
     id="path21"
     style="stroke-width:15" />
  <path
     d="m 1391.4875,464.43 29.685,87.255 24.99,-87.255 h 33.855 l -37.89,127.95 c -3.7198,18.42951 -20.7835,31.05389 -39.495,29.22 h -28.005 v -28.605 h 19.95 c 11.9408,1.59394 15.8805,-8.21338 19.14,-17.34 h -18.045 l -39,-111.225 z"
     id="path22"
     style="stroke-width:15" />
  <path
     d="M -0.06251429,584.325 H 573.67248 v -540 H -0.06251429 Z"
     style="fill:#25b216;stroke-width:15"
     id="path23" />
  <path
     d="m 77.607485,198.825 c 1.185,-2.88 12.825,1.35 13.5,-1.815 0.9,-4.08 -1.995,-3.99 -1.695,-6.555 0.12,-1.14 0.99,-3.3 3,-3.435 a 75.72,75.72 0 0 0 15.824995,-2.52 c 4.155,-2.67 8.505,-8.19 11.37,-8.655 7.5,-1.2 16.29,1.95 18.15,-3 1.995,-5.295 13.92,-7.5 16.74,-7.38 7.215,-1.185 12.465,1.5 18.66,-1.11 1.905,-0.825 2.07,-3.345 8.04,-4.725 a 111.945,111.945 0 0 1 26.52,-1.575 c 17.1,0 93.45,0.66 142.335,-2.505 7.59,-0.495 27.705,-4.14 35.43,-5.235 9,-1.29 62.01,-5.04 82.83,12.315 13.875,11.55 12,12 15.96,22.635 a 35.19,35.19 0 0 1 7.08,25.215 c 0,47.205 -47.37,66.945 -85.185,63.225 -61.62,-6.075 -76.185,-1.5 -111.93,-7.875 a 327.795,327.795 0 0 0 -37.695,2.22 263.355,263.355 0 0 1 -42.6,-5.91 32.445,32.445 0 0 0 -11.175,-2.565 229.35,229.35 0 0 1 -37.74,-0.825 c -3.33,-0.525 -22.5,-1.35 -35.355,-3.63 -2.085,-0.375 -6,-0.78 -6.48,-2.025 a 5.22,5.22 0 0 1 -0.57,-3.39 c 0.21,-1.5 -0.48,-1.26 -2.34,-1.74 -3.285,-0.825 -0.6,-3.9 -1.905,-4.32 -1.305,-0.42 -7.995,-2.565 -8.64,-5.235 -0.495,-2.01 0.21,-1.71 5.16,-1.71 4.59,0 1.38,-1.5 -1.605,-3.855 -1.695,-1.335 6.105,-3 2.13,-4.29 -3.975,-1.29 -9.18,-4.62 -13.365,-6.165 -1.89,-0.705 -3.584995,-1.965 -5.339995,-2.64 l -1.17,-0.435 c -3,-1.095 -7.245,-6.81 -9.195,-8.64 -3.165,-3 -10.05,-8.625 -8.745,-11.85"
     style="fill:#ffffff;stroke-width:15"
     id="path24" />
  <path
     d="m 484.91748,439.92 a 67.17,67.17 0 0 1 -38.625,34.665 116.73,116.73 0 0 1 -54,3.87 c -36.495,-3.765 -83.085,-6 -91.125,-6.195 -8.52,-0.225 -64.29,-0.735 -72.945,-2.34 -21.375,-3.93 -55.875,-14.685 -61.245,-15.48 -11.04,-2.355 -26.535,2.565 -37.35,-0.855 a 60.585,60.585 0 0 1 -9.57,-5.865 16.2,16.2 0 0 0 -3,-2.04 120.975,120.975 0 0 0 -14.43,-3.105 c -1.5,-0.45 -1.38,-4.365 0.09,-4.995 0.66,-0.3 0.09,-2.355 -1.035,-2.88 -2.384995,-1.155 -8.534995,-1.005 -9.974995,-2.715 -2.055,-2.43 -18.48,-5.28 -19.83,-8.67 -0.99,-2.49 7.125,-11.265 7.845,-12.18 0.54,-0.69 0,-2.295 -0.24,-3 -0.24,-0.705 -0.975,-0.93 0,-1.5 a 35.61,35.61 0 0 1 5.91,-0.24 c 1.815,-0.255 2.745,-0.165 5.37,-0.51 0.87,-0.12 0.375,-3 3.525,-3.75 6.179995,-1.5 4.5,-4.38 1.77,-6 -1.245,-0.705 -1.5,-3.285 -1.74,-4.185 -0.81,-3.72 2.13,-0.81 4.86,-4.08 1.259995,-1.5 2.174995,-4.98 0.51,-6.33 -0.555,-0.435 -0.915,-1.635 -0.12,-2.055 a 11.775,11.775 0 0 1 1.604995,-0.66 180.075,180.075 0 0 1 31.77,-3.66 42.6,42.6 0 0 0 14.58,-6.96 37.02,37.02 0 0 1 12.615,-6.105 c 61.11,-9.615 164.43,-2.34 200.37,-5.925 42.585,-4.23 109.5,-15.075 129.225,37.125 a 64.35,64.35 0 0 1 -4.74,46.635"
     style="fill:#ffffff;stroke-width:15"
     id="path25" />
  <path
     d="m 1387.7332,251.39449 c 25.127,0.76507 47.3587,16.4881 56.4512,39.92419 9.0925,23.43604 3.2814,50.03744 -14.7545,67.54899 -18.0358,17.51155 -44.7971,22.53563 -67.9547,12.75593 -23.1578,-9.77972 -38.2183,-32.46548 -38.242,-57.60411 -0.9994,-35.74021 28.8048,-64.67805 64.5,-62.625 z m -2.1403,97.725 c 18.2635,-0.88592 32.7541,-13.56653 32.7248,-35.1 -0.1694,-20.96687 -13.9082,-34.65606 -32.0571,-35.26381 -18.7461,-0.62775 -32.8596,14.20636 -33.9406,35.78098 -0.03,18.82113 14.9853,33.73008 33.2729,34.58283 z"
     id="path2-4"
     style="stroke-width:15" />
  <path
     d="m 977.18762,41.651171 c 25.12638,0.76507 47.35808,16.4881 56.45058,39.92419 9.0925,23.436039 3.2814,50.037439 -14.7545,67.548989 -18.0358,17.51155 -44.79648,22.53563 -67.95408,12.75593 -23.1578,-9.77972 -38.2183,-32.46548 -38.242,-57.60411 -0.9994,-35.740209 28.8048,-64.678049 64.5,-62.624999 z m -2.1403,97.724999 c 18.2635,-0.88592 32.75348,-13.56653 32.72418,-35.1 -0.1694,-20.966869 -13.90758,-34.656059 -32.05648,-35.263809 -18.7461,-0.62775 -32.8596,14.20636 -33.9406,35.780979 -0.03,18.82113 14.9853,33.73008 33.2729,34.58283 z"
     id="path2-4-4"
     style="stroke-width:15" />
</svg>
