<?xml version="1.0" encoding="UTF-8"?>
<svg xmlns="http://www.w3.org/2000/svg" xmlns:xlink="http://www.w3.org/1999/xlink" width="471pt" height="135pt" viewBox="0 0 471 135" version="1.1">
<g id="surface1">
<path style=" stroke:none;fill-rule:nonzero;fill:rgb(0.784314%,28.235294%,61.568627%);fill-opacity:1;" d="M 86.753906 25.230469 C 86.753906 25.230469 84.464844 22.691406 81.4375 22.691406 C 81.4375 22.691406 74.816406 22.691406 70.316406 37.027344 C 70.316406 37.027344 66.472656 49.558594 66.472656 68.15625 C 66.472656 68.15625 66.472656 85.6875 70.070312 98.054688 C 70.070312 98.054688 73.667969 110.589844 78.902344 110.589844 C 78.902344 110.589844 82.582031 110.589844 85.691406 103.707031 C 85.691406 103.707031 88.796875 96.828125 90.105469 85.605469 L 99.921875 83.144531 C 99.921875 83.144531 97.386719 104.035156 89.535156 117.550781 C 89.535156 117.550781 81.4375 131.152344 71.214844 131.152344 C 71.214844 131.152344 58.949219 131.152344 50.28125 112.71875 C 50.28125 112.71875 41.613281 94.289062 41.613281 68.15625 C 41.613281 68.15625 41.613281 42.023438 50.28125 23.429688 C 50.28125 23.429688 58.949219 4.914062 71.214844 4.914062 C 71.214844 4.914062 83.484375 4.914062 92.234375 23.753906 L 86.753906 25.230469 "/>
<path style=" stroke:none;fill-rule:nonzero;fill:rgb(0.784314%,28.235294%,61.568627%);fill-opacity:1;" d="M 121.265625 50.378906 C 121.265625 50.378906 104.335938 64.386719 77.351562 71.1875 C 77.351562 71.1875 50.28125 77.902344 28.773438 73.480469 C 28.773438 73.480469 7.265625 68.894531 4.078125 55.703125 C 4.078125 55.703125 1.378906 44.726562 13.234375 32.601562 C 13.234375 32.601562 24.929688 20.5625 45.945312 12.53125 L 47.335938 17.9375 C 47.335938 17.9375 35.070312 23.183594 28.28125 29.816406 C 28.28125 29.816406 21.332031 36.78125 22.886719 42.761719 C 22.886719 42.761719 24.929688 50.378906 39.324219 52.671875 C 39.324219 52.671875 53.632812 54.882812 72.199219 50.296875 C 72.199219 50.296875 90.597656 45.710938 102.375 36.945312 C 102.375 36.945312 113.984375 28.097656 112.023438 20.398438 C 112.023438 20.398438 110.386719 13.761719 98.613281 10.894531 L 96.8125 3.847656 C 96.8125 3.847656 112.105469 4.421875 122.246094 9.5 C 122.246094 9.5 132.632812 14.582031 134.757812 23.183594 C 134.757812 23.183594 138.109375 36.289062 121.265625 50.378906 "/>
<path style=" stroke:none;fill-rule:nonzero;fill:rgb(0.784314%,28.235294%,61.568627%);fill-opacity:1;" d="M 218.089844 20.804688 L 218.089844 20.96875 L 218.742188 21.214844 L 219.5625 20.96875 L 219.972656 20.722656 L 220.789062 20.804688 C 220.789062 20.804688 221.769531 21.050781 222.585938 20.804688 L 222.832031 20.804688 L 218.742188 20.316406 L 218.089844 20.804688 "/>
<path style=" stroke:none;fill-rule:nonzero;fill:rgb(0.784314%,28.235294%,61.568627%);fill-opacity:1;" d="M 192.492188 6.714844 C 192.246094 6.960938 191.921875 7.042969 191.921875 7.042969 L 192.984375 9.5 L 192.246094 9.5 L 192.984375 11.878906 C 193.476562 14.582031 193.476562 19.90625 193.476562 19.90625 L 193.148438 21.296875 L 192.738281 22.773438 L 192.984375 25.476562 C 192.902344 26.539062 191.675781 27.769531 191.675781 27.769531 L 191.675781 29.082031 C 186.933594 30.800781 186.277344 31.703125 186.277344 31.703125 L 183.742188 32.4375 C 182.597656 33.175781 180.226562 34.078125 180.226562 34.078125 C 178.671875 35.632812 177.039062 35.878906 177.039062 35.878906 L 176.792969 36.042969 L 176.546875 36.042969 L 176.546875 36.125 L 175.890625 36.125 C 176.792969 34.324219 175.890625 32.4375 175.890625 32.4375 L 175.320312 31.457031 L 174.664062 29 C 174.09375 27.03125 173.683594 26.867188 173.683594 26.867188 L 172.949219 28.015625 L 172.375 29.488281 L 171.886719 29.488281 L 170.820312 32.191406 L 169.839844 34.652344 L 168.53125 38.253906 C 168.613281 38.664062 167.058594 41.859375 167.058594 41.859375 L 166.40625 42.515625 C 166.40625 44.808594 165.425781 45.464844 165.425781 45.464844 L 164.769531 47.101562 C 164.28125 48.332031 164.199219 48.167969 164.199219 48.167969 C 164.28125 48.824219 163.789062 52.261719 163.789062 52.261719 C 163.542969 55.703125 164.6875 56.359375 164.6875 56.359375 C 165.179688 57.097656 164.933594 57.34375 164.933594 57.34375 L 166.160156 59.800781 L 166.570312 59.71875 L 167.058594 60.535156 C 167.878906 62.421875 169.59375 61.929688 169.59375 61.929688 L 172.703125 61.027344 L 173.355469 63.8125 C 173.683594 65.617188 174.339844 66.105469 174.339844 66.105469 L 176.710938 66.597656 L 179.164062 66.84375 L 181.535156 65.78125 L 186.851562 64.550781 C 190.285156 63.8125 192.003906 62.914062 192.003906 62.914062 C 193.394531 65.535156 193.148438 67.664062 193.148438 67.664062 L 192.902344 71.921875 L 193.394531 73.726562 L 193.71875 75.445312 L 193.882812 83.390625 L 194.703125 85.851562 L 194.375 86.832031 L 194.375 89.78125 L 195.191406 92.238281 L 195.4375 95.023438 L 195.929688 95.023438 L 195.683594 92.484375 L 196.582031 92.648438 L 196.746094 93.878906 L 196.992188 93.796875 L 196.828125 92.238281 C 195.929688 91.910156 195.929688 90.273438 195.929688 90.273438 C 195.929688 88.796875 196.582031 87.816406 196.582031 87.816406 C 197.074219 87.980469 197.808594 90.683594 197.808594 90.683594 C 198.464844 92.730469 198.542969 94.042969 198.542969 94.042969 L 200.261719 94.042969 L 200.261719 94.777344 L 199.773438 94.371094 C 198.953125 94.859375 198.789062 97.480469 198.789062 97.480469 C 198.707031 100.105469 199.199219 100.183594 199.199219 100.183594 C 199.445312 100.183594 200.753906 99.203125 200.753906 99.203125 L 200.425781 99.695312 L 200.425781 99.941406 L 200.917969 99.941406 L 201.160156 101.332031 C 201.734375 101.332031 201.734375 97.972656 201.734375 97.972656 L 202.0625 97.972656 L 202.632812 98.464844 L 202.878906 98.21875 L 202.878906 95.023438 L 203.535156 95.597656 L 204.351562 94.859375 L 204.839844 93.796875 C 205.003906 93.058594 204.597656 90.929688 204.597656 90.929688 C 205.25 87.652344 205.332031 85.933594 205.332031 85.933594 L 205.332031 84.128906 L 207.703125 78.804688 C 208.359375 76.757812 208.441406 73.480469 208.441406 73.480469 L 208.683594 67.992188 L 209.667969 66.597656 C 210.566406 65.78125 210.648438 65.289062 210.648438 65.289062 L 212.527344 59.964844 C 214 56.113281 214.980469 55.703125 214.980469 55.703125 L 219.726562 54.640625 C 222.832031 53.65625 222.585938 52.015625 222.585938 52.015625 C 224.140625 52.015625 224.796875 45.21875 224.796875 45.21875 L 226.105469 38.5 L 227.25 36.289062 L 227.738281 31.128906 L 228.640625 26.050781 C 228.882812 23.671875 227.496094 22.527344 227.496094 22.527344 C 226.59375 21.707031 224.058594 21.050781 224.058594 21.050781 L 223.8125 21.214844 C 224.386719 21.542969 225.613281 21.953125 225.613281 21.953125 C 226.757812 22.527344 227.003906 23.429688 227.003906 23.429688 C 227.332031 24.738281 226.511719 26.867188 226.511719 26.867188 C 225.777344 28.753906 224.550781 29.816406 224.550781 29.816406 L 224.632812 30.71875 C 224.304688 31.867188 222.425781 34.078125 222.425781 34.078125 L 219.808594 37.683594 L 217.515625 39.15625 C 214.410156 39.238281 213.429688 40.222656 213.429688 40.222656 L 213.019531 39.894531 C 212.527344 39.15625 212.527344 35.386719 212.527344 35.386719 L 212.203125 32.4375 C 212.691406 31.703125 212.691406 31.210938 212.691406 31.210938 L 212.691406 29.570312 C 213.511719 28.589844 218.335938 26.785156 218.335938 26.785156 C 222.667969 24.984375 223.160156 23.265625 223.160156 23.265625 L 223.40625 23.507812 C 223.324219 24.246094 224.058594 24.410156 224.058594 24.410156 C 224.058594 23.183594 224.878906 23.183594 224.878906 23.183594 L 226.59375 23.507812 L 226.59375 23.265625 L 223.8125 22.035156 C 223.8125 22.691406 223.324219 22.691406 223.324219 22.691406 L 222.261719 22.527344 L 222.179688 23.019531 L 222.585938 23.265625 L 222.015625 24.164062 L 221.769531 24.164062 C 221.769531 23.753906 220.214844 23.753906 220.214844 23.753906 L 220.707031 21.953125 C 219.316406 21.296875 219.234375 22.527344 219.234375 22.527344 L 219.070312 22.527344 L 218.824219 22.035156 L 218.582031 22.035156 L 218.5 22.445312 L 217.515625 22.445312 L 216.863281 23.183594 L 216.128906 22.9375 L 216.617188 22.445312 L 216.128906 21.460938 C 217.109375 21.460938 217.597656 20.316406 217.597656 20.316406 L 211.546875 20.722656 C 211.546875 21.542969 213.265625 21.296875 213.265625 21.296875 C 215.144531 21.050781 215.390625 21.707031 215.390625 21.707031 L 213.511719 21.542969 L 211.792969 21.789062 L 211.546875 22.527344 L 211.058594 22.199219 L 210.566406 21.789062 L 209.339844 21.296875 C 208.605469 21.789062 208.195312 21.707031 208.195312 21.707031 L 207.375 21.214844 L 206.558594 20.398438 C 205.578125 19.660156 201.242188 12.285156 201.242188 12.285156 C 198.054688 6.960938 192.492188 6.714844 192.492188 6.714844 Z M 191.675781 36.78125 L 192.65625 40.710938 L 193.230469 43.335938 C 193.71875 44.972656 193.476562 46.039062 193.476562 46.039062 L 191.921875 48.332031 L 190.039062 50.789062 C 187.832031 52.179688 186.195312 52.671875 186.195312 52.671875 L 182.027344 53.246094 C 179.980469 53.492188 177.691406 55.621094 177.691406 55.621094 C 175.402344 57.585938 174.582031 57.507812 174.582031 57.507812 C 174.175781 57.75 173.683594 57.832031 173.683594 57.832031 C 173.195312 56.605469 174.175781 55.867188 174.175781 55.867188 C 173.847656 55.375 174.421875 53.984375 174.421875 53.984375 L 175.648438 52.507812 L 176.546875 50.789062 L 177.039062 48.660156 C 177.9375 48.085938 177.773438 47.429688 177.773438 47.429688 L 182.027344 42.515625 L 187.175781 40.222656 C 190.859375 38.664062 191.675781 36.78125 191.675781 36.78125 Z M 191.675781 36.78125 "/>
<path style=" stroke:none;fill-rule:nonzero;fill:rgb(0.784314%,28.235294%,61.568627%);fill-opacity:1;" d="M 275.335938 20.316406 L 278.523438 19.085938 L 281.796875 18.183594 L 284.738281 17.855469 L 285.964844 17.367188 L 289.320312 17.203125 L 292.671875 17.367188 L 293.980469 17.449219 L 295.371094 17.9375 L 296.351562 19.414062 L 297.496094 21.542969 C 297.496094 21.542969 296.84375 24.738281 297.496094 25.394531 C 297.496094 25.394531 297.003906 26.375 296.761719 32.683594 L 296.105469 39.484375 L 295.617188 44.316406 L 296.023438 51.117188 C 296.023438 51.117188 296.023438 52.425781 295.371094 54.640625 C 295.371094 54.640625 296.105469 58.078125 295.371094 58.816406 C 295.371094 58.816406 297.003906 69.136719 296.761719 69.710938 L 295.859375 71.921875 L 295.125 74.054688 L 295.042969 75.28125 L 295.371094 75.691406 L 295.125 77.167969 L 295.289062 78.558594 C 295.289062 78.558594 295.125 79.625 294.632812 79.625 L 293.40625 78.804688 L 292.425781 77.65625 L 292.425781 77.574219 C 292.425781 77.574219 290.300781 75.773438 289.320312 76.265625 C 289.320312 76.265625 289.320312 79.296875 291.28125 82.328125 L 291.691406 82.574219 C 291.691406 82.574219 291.933594 83.964844 294.226562 87.570312 L 294.46875 88.0625 L 296.351562 93.632812 C 296.351562 93.632812 297.742188 95.597656 303.140625 98.054688 L 303.628906 97.972656 L 303.628906 97.5625 C 303.628906 97.5625 304.121094 97.5625 305.265625 96.253906 C 305.265625 96.253906 306.738281 94.371094 306.902344 92.238281 L 306.902344 88.0625 L 307.390625 85.113281 L 307.390625 82.082031 L 306.65625 79.378906 C 306.65625 79.378906 306.246094 77.25 307.144531 76.921875 C 307.144531 76.921875 307.144531 72.578125 306.738281 72.332031 C 306.738281 72.332031 307.472656 68.972656 306.984375 65.125 L 307.144531 62.09375 L 307.144531 58.980469 L 306.65625 52.179688 L 306.492188 45.21875 L 306.246094 38.992188 L 305.511719 33.09375 C 305.511719 33.09375 305.757812 31.375 306.164062 30.71875 C 306.164062 30.71875 305.917969 29.734375 306.246094 26.621094 C 306.246094 26.621094 305.183594 26.539062 305.757812 22.691406 L 306.492188 17.9375 C 306.492188 17.9375 306.246094 16.710938 304.121094 14.007812 L 301.09375 10.648438 C 301.09375 10.648438 299.214844 9.664062 298.230469 9.910156 L 291.691406 10.894531 C 291.691406 10.894531 287.109375 11.386719 285.882812 12.777344 L 284.25 12.613281 L 282.53125 13.023438 L 282.285156 13.269531 L 279.179688 13.597656 L 276.726562 14.089844 L 275.824219 14.089844 L 272.636719 15.234375 L 269.773438 16.628906 L 266.910156 17.695312 C 266.910156 17.695312 264.375 19.824219 263.066406 19.578125 C 263.066406 19.578125 257.507812 20.96875 255.300781 22.28125 C 255.300781 22.28125 255.300781 22.445312 256.769531 22.773438 C 256.769531 22.773438 258.242188 23.183594 258.40625 24 L 260.042969 24.492188 C 260.042969 24.492188 263.96875 25.148438 266.175781 23.671875 C 266.175781 23.671875 266.667969 23.917969 269.445312 22.691406 C 269.445312 22.691406 270.019531 21.953125 271.410156 21.953125 L 273.125 20.96875 L 275.335938 20.316406 "/>
<path style=" stroke:none;fill-rule:nonzero;fill:rgb(0.784314%,28.235294%,61.568627%);fill-opacity:1;" d="M 203.613281 96.007812 L 203.535156 99.367188 C 203.535156 99.367188 204.105469 99.367188 204.105469 97.808594 C 204.105469 97.808594 204.269531 96.335938 203.613281 96.007812 "/>
<path style=" stroke:none;fill-rule:nonzero;fill:rgb(0.784314%,28.235294%,61.568627%);fill-opacity:1;" d="M 196.417969 97.808594 L 196.828125 99.203125 L 196.992188 99.203125 L 197.316406 98.464844 L 197.316406 96.992188 L 197.074219 96.992188 L 196.992188 97.074219 L 197.238281 96.253906 L 196.089844 95.597656 C 196.089844 95.597656 195.847656 96.335938 196.417969 97.808594 "/>
<path style=" stroke:none;fill-rule:nonzero;fill:rgb(0.784314%,28.235294%,61.568627%);fill-opacity:1;" d="M 198.054688 100.183594 L 198.21875 99.941406 C 198.21875 99.941406 198.464844 97.480469 197.972656 96.992188 C 197.972656 96.992188 197.316406 97.5625 197.808594 100.183594 L 198.054688 100.183594 "/>
<path style=" stroke:none;fill-rule:nonzero;fill:rgb(0.784314%,28.235294%,61.568627%);fill-opacity:1;" d="M 196.335938 105.917969 L 196.335938 115.09375 L 204.023438 115.09375 L 204.023438 105.917969 L 210.648438 105.917969 L 210.648438 127.957031 L 204.023438 127.957031 L 204.023438 118.535156 L 196.335938 118.535156 L 196.335938 127.957031 L 189.632812 127.957031 L 189.632812 105.917969 L 196.335938 105.917969 "/>
<path style=" stroke:none;fill-rule:nonzero;fill:rgb(0.784314%,28.235294%,61.568627%);fill-opacity:1;" d="M 173.847656 111.082031 C 173.847656 111.082031 171.886719 113.046875 171.886719 116.898438 L 171.886719 117.144531 C 171.886719 117.144531 171.886719 121.15625 173.683594 123.121094 C 173.683594 123.121094 175.8125 125.007812 178.917969 125.007812 L 182.761719 124.597656 L 185.214844 124.023438 L 185.214844 127.300781 L 182.761719 128.039062 L 178.507812 128.285156 C 178.507812 128.285156 172.457031 128.285156 168.613281 125.582031 C 168.613281 125.582031 164.933594 122.875 164.933594 117.550781 L 164.933594 116.570312 C 164.933594 116.570312 164.933594 111.570312 168.777344 108.625 C 168.777344 108.625 172.621094 105.511719 178.425781 105.511719 L 182.597656 105.757812 L 185.214844 106.410156 L 185.214844 109.851562 L 182.84375 109.277344 L 179.492188 109.03125 C 179.492188 109.03125 175.890625 109.03125 173.847656 111.082031 "/>
<path style=" stroke:none;fill-rule:nonzero;fill:rgb(0.784314%,28.235294%,61.568627%);fill-opacity:1;" d="M 289.15625 48.167969 C 289.15625 48.167969 289.320312 49.558594 287.683594 51.363281 L 287.191406 52.015625 L 287.109375 52.261719 L 286.621094 53.246094 L 286.375 54.394531 L 285.636719 54.882812 L 285.394531 55.375 L 285.636719 55.457031 C 285.636719 55.457031 286.457031 55.703125 287.847656 54.964844 L 289.15625 54.640625 L 290.707031 54.476562 L 291.773438 54.394531 L 292.425781 54.230469 C 292.425781 54.230469 293.898438 54.722656 295.042969 53 L 295.289062 50.789062 L 295.042969 49.558594 L 294.632812 48.660156 L 294.144531 48.414062 L 293.40625 48.085938 L 291.691406 47.921875 L 291.445312 47.675781 L 289.808594 46.9375 L 288.582031 46.445312 L 289.15625 48.167969 "/>
<path style=" stroke:none;fill-rule:nonzero;fill:rgb(0.784314%,28.235294%,61.568627%);fill-opacity:1;" d="M 283.511719 23.671875 L 281.386719 24.246094 L 279.015625 24.738281 L 274.515625 25.722656 L 272.226562 27.03125 L 270.265625 27.523438 C 270.265625 27.523438 269.9375 27.769531 269.445312 27.851562 L 268.546875 28.015625 L 267.648438 28.261719 L 264.375 29.734375 L 262.742188 30.71875 L 261.597656 30.964844 L 261.269531 31.210938 L 261.105469 31.375 L 260.53125 32.109375 L 259.386719 32.683594 L 257.996094 33.667969 C 257.996094 33.667969 255.460938 33.667969 255.953125 35.550781 L 256.445312 35.550781 C 256.445312 35.550781 256.445312 35.878906 259.550781 37.191406 L 259.632812 38.664062 C 259.632812 38.664062 259.878906 39.730469 260.613281 40.222656 L 263.886719 40.222656 L 264.949219 40.386719 L 266.667969 40.386719 C 266.667969 40.386719 267.15625 40.386719 267.15625 40.710938 L 267.402344 42.351562 L 267.566406 43.578125 L 267.402344 45.464844 L 266.828125 46.691406 L 265.4375 46.9375 L 264.375 47.59375 L 261.269531 48.824219 L 260.042969 49.804688 L 258.160156 51.035156 L 257.179688 52.015625 L 257.261719 52.425781 L 257.261719 52.753906 L 256.28125 53.65625 L 256.445312 54.640625 L 256.769531 54.882812 L 257.914062 55.949219 L 259.550781 56.195312 L 260.289062 57.507812 L 261.269531 58.488281 L 262.496094 58.734375 L 263.476562 58.570312 L 263.3125 59.308594 C 263.3125 59.308594 262.984375 60.046875 263.3125 60.046875 L 262.824219 61.683594 L 262.25 62.832031 L 262.003906 63.402344 L 260.53125 64.550781 L 259.796875 65.535156 L 259.0625 66.84375 L 259.0625 67.417969 L 258.488281 68.648438 L 257.996094 69.382812 L 257.996094 70.367188 L 258.652344 72.167969 L 259.386719 73.316406 C 259.386719 73.316406 259.878906 73.972656 260.042969 73.808594 C 260.042969 73.808594 260.042969 73.972656 260.859375 74.300781 C 260.859375 74.300781 262.578125 74.546875 263.558594 74.300781 L 266.910156 73.5625 L 268.792969 72.578125 L 272.144531 71.433594 L 272.882812 70.859375 C 272.882812 70.859375 273.371094 70.859375 275.335938 69.382812 C 275.335938 69.382812 275.742188 69.628906 276.726562 68.648438 C 276.726562 68.648438 276.726562 68.730469 278.03125 67.992188 L 279.179688 67.664062 C 279.179688 67.664062 279.832031 67.417969 280.40625 67.007812 L 282.039062 66.515625 L 284.25 65.042969 L 285.882812 63.648438 C 285.882812 63.648438 286.703125 63.160156 286.945312 62.175781 L 287.355469 61.4375 L 287.601562 61.027344 L 286.621094 61.027344 C 286.621094 61.027344 285.964844 61.027344 286.375 60.046875 L 286.945312 58.980469 L 284.984375 58.816406 C 284.984375 58.816406 283.757812 58.816406 283.757812 58.324219 L 280.324219 58.570312 L 280.648438 57.261719 L 280.8125 56.195312 L 281.304688 54.882812 C 281.304688 54.882812 280.894531 54.882812 280.894531 54.148438 L 281.386719 53.738281 L 282.285156 53.65625 L 284.25 50.871094 L 286.375 48.660156 L 286.457031 48.085938 L 286.945312 47.101562 L 286.945312 46.039062 L 286.703125 44.808594 L 285.394531 43.496094 L 283.023438 41.859375 L 282.039062 41.367188 L 281.632812 40.957031 L 280.8125 40.386719 L 281.058594 39.976562 C 281.058594 39.976562 281.058594 38.910156 281.632812 37.683594 L 284.085938 35.058594 C 284.085938 35.058594 284.738281 35.058594 285.882812 32.683594 L 286.703125 31.621094 L 286.945312 30.554688 L 286.863281 29.488281 L 287.109375 28.753906 L 286.945312 27.605469 L 285.71875 25.476562 L 285.148438 24.65625 C 285.148438 24.65625 285.148438 23.671875 283.511719 23.671875 "/>
<path style=" stroke:none;fill-rule:nonzero;fill:rgb(0.784314%,28.235294%,61.568627%);fill-opacity:1;" d="M 263.230469 79.625 L 261.351562 80.117188 L 258.488281 80.117188 L 257.179688 80.359375 L 255.707031 80.277344 L 257.261719 83.71875 C 257.261719 83.71875 258.816406 86.585938 259.304688 86.667969 L 260.777344 87.078125 L 263.066406 86.421875 C 263.066406 86.421875 264.703125 86.09375 264.949219 85.605469 L 265.4375 85.605469 C 265.4375 85.605469 267.566406 85.113281 268.054688 84.375 L 270.671875 83.71875 L 273.125 82.574219 L 274.269531 82.246094 L 276.070312 81.34375 L 278.03125 80.117188 L 283.101562 76.511719 C 283.101562 76.511719 285.148438 75.199219 289.808594 72.988281 L 290.953125 71.921875 L 290.953125 71.679688 L 290.21875 71.679688 C 290.21875 71.679688 289.5625 72.167969 286.945312 72.824219 L 284.492188 73.808594 L 283.757812 73.972656 L 281.550781 74.789062 L 279.015625 75.199219 L 275.578125 76.675781 L 273.863281 77.003906 L 272.144531 77.820312 L 271.164062 77.902344 L 268.792969 78.394531 C 268.792969 78.394531 266.828125 79.378906 266.339844 79.542969 L 265.195312 79.296875 L 263.230469 79.625 "/>
<path style=" stroke:none;fill-rule:nonzero;fill:rgb(0.784314%,28.235294%,61.568627%);fill-opacity:1;" d="M 251.128906 27.03125 L 250.390625 29.242188 C 250.390625 29.242188 249.984375 30.472656 250.148438 31.867188 L 250.390625 32.847656 L 250.390625 36.289062 L 250.636719 38.417969 L 250.230469 39.976562 L 250.148438 42.597656 L 249.65625 43.742188 L 248.921875 46.855469 L 249.164062 47.429688 L 249.164062 50.050781 L 248.757812 51.527344 L 248.757812 52.671875 L 248.511719 54.964844 L 248.101562 56.605469 L 247.773438 61.765625 L 247.613281 61.765625 L 247.367188 63.320312 L 246.792969 64.632812 C 246.792969 64.632812 246.546875 66.515625 247.039062 67.664062 L 247.121094 69.21875 L 247.285156 71.351562 C 247.285156 71.351562 247.367188 72.496094 246.875 73.070312 L 246.628906 75.035156 C 246.628906 75.035156 246.386719 79.542969 249.003906 81.753906 C 249.003906 81.753906 249.902344 82.574219 250.636719 82.328125 L 251.210938 81.589844 C 251.210938 81.589844 252.191406 80.277344 252.191406 77.902344 L 251.863281 73.972656 L 251.617188 72.824219 L 252.109375 69.136719 C 252.109375 69.136719 252.109375 67.5 252.355469 66.84375 C 252.355469 66.84375 251.128906 66.027344 251.945312 62.09375 L 252.109375 59.800781 L 252.191406 58.324219 C 252.191406 58.324219 252.4375 57.097656 252.601562 57.097656 L 252.84375 55.867188 L 253.089844 54.964844 L 254.316406 49.148438 L 255.460938 45.792969 L 255.460938 45.21875 L 254.972656 44.316406 L 254.972656 43.007812 L 255.300781 42.105469 L 255.707031 40.140625 L 255.542969 40.140625 L 255.707031 38.664062 L 255.542969 37.191406 C 255.542969 37.191406 254.972656 37.191406 254.972656 33.175781 L 254.234375 30.800781 L 253.582031 30.0625 L 252.84375 28.589844 L 252.109375 26.296875 L 251.457031 25.722656 L 251.128906 27.03125 "/>
<path style=" stroke:none;fill-rule:nonzero;fill:rgb(0.784314%,28.235294%,61.568627%);fill-opacity:1;" d="M 221.441406 22.9375 L 221.523438 22.445312 L 221.199219 21.789062 L 221.199219 22.773438 L 221.441406 22.9375 "/>
<path style=" stroke:none;fill-rule:nonzero;fill:rgb(0.784314%,28.235294%,61.568627%);fill-opacity:1;" d="M 222.832031 22.199219 L 221.6875 21.789062 L 221.6875 22.199219 L 222.832031 22.199219 "/>
<path style=" stroke:none;fill-rule:nonzero;fill:rgb(0.784314%,28.235294%,61.568627%);fill-opacity:1;" d="M 253.335938 105.917969 L 253.335938 127.957031 L 250.472656 127.957031 L 235.671875 114.113281 L 235.671875 127.957031 L 230.847656 127.957031 L 230.847656 105.917969 L 234.445312 105.917969 L 248.675781 119.027344 L 248.675781 105.917969 L 253.335938 105.917969 "/>
<path style=" stroke:none;fill-rule:nonzero;fill:rgb(0.784314%,28.235294%,61.568627%);fill-opacity:1;" d="M 224.304688 105.917969 L 224.304688 127.957031 L 217.597656 127.957031 L 217.597656 105.917969 L 224.304688 105.917969 "/>
<path style=" stroke:none;fill-rule:nonzero;fill:rgb(0.784314%,28.235294%,61.568627%);fill-opacity:1;" d="M 265.929688 105.917969 L 255.953125 127.957031 L 261.351562 127.957031 L 263.558594 122.714844 L 273.453125 122.714844 L 275.578125 127.957031 L 282.53125 127.957031 L 272.144531 105.917969 Z M 268.382812 111.328125 L 272.144531 119.519531 L 264.949219 119.519531 Z M 268.382812 111.328125 "/>
<path style=" stroke:none;fill-rule:nonzero;fill:rgb(0.784314%,28.235294%,61.568627%);fill-opacity:1;" d="M 292.917969 105.917969 L 312.707031 105.917969 L 312.707031 109.113281 L 306.246094 109.113281 L 306.246094 127.957031 L 299.539062 127.957031 L 299.539062 109.113281 L 292.917969 109.113281 L 292.917969 105.917969 "/>
<path style=" stroke:none;fill-rule:nonzero;fill:rgb(0.784314%,28.235294%,61.568627%);fill-opacity:1;" d="M 437.417969 18.839844 L 438.316406 17.695312 L 439.21875 17.855469 L 439.789062 17.695312 L 442.488281 17.449219 C 442.488281 17.449219 442.652344 17.9375 440.035156 17.9375 L 438.5625 18.59375 L 439.464844 19.085938 L 442.242188 19.414062 C 442.242188 19.414062 443.144531 19.578125 444.371094 20.5625 L 446.003906 22.28125 L 444.777344 23.671875 L 443.714844 24.164062 L 442.652344 24.246094 L 438.398438 25.148438 L 435.128906 25.394531 L 432.511719 26.132812 L 427.03125 26.785156 L 424.742188 27.523438 L 423.351562 28.34375 L 423.109375 28.34375 L 422.863281 27.851562 L 422.207031 28.507812 C 422.207031 28.507812 421.960938 29 421.960938 29.734375 C 421.960938 29.734375 421.960938 30.800781 422.617188 31.210938 L 424.089844 31.621094 C 424.089844 31.621094 425.070312 32.109375 425.5625 32.109375 L 428.667969 31.210938 L 432.019531 30.554688 L 435.128906 29.734375 L 440.199219 29 L 456.226562 28.589844 L 460.316406 28.015625 L 461.542969 28.261719 L 462.6875 28.34375 C 462.6875 28.34375 464.160156 27.605469 464.652344 27.851562 L 464.8125 27.03125 L 464.8125 25.394531 L 465.796875 24.738281 C 465.796875 24.738281 467.757812 23.429688 467.023438 22.445312 L 464.40625 21.707031 L 461.460938 21.789062 L 457.210938 21.789062 C 457.210938 21.789062 455.65625 21.789062 455.738281 20.96875 L 455.902344 19.824219 C 455.902344 19.824219 455.410156 18.347656 455.65625 17.855469 L 455.492188 15.316406 L 453.855469 14.089844 L 452.875 14.007812 L 451.8125 13.105469 L 447.230469 11.140625 L 445.515625 10.648438 L 444.535156 10.894531 L 442.980469 13.515625 L 442.898438 13.761719 L 442 13.515625 L 440.933594 14.253906 L 441.015625 14.335938 L 440.445312 14.746094 L 438.5625 16.136719 C 438.5625 16.136719 437.417969 17.203125 438.316406 16.957031 L 438.5625 16.957031 L 438.074219 17.367188 L 435.703125 18.183594 L 435.457031 18.921875 L 436.109375 19.167969 L 437.417969 18.839844 "/>
<path style=" stroke:none;fill-rule:nonzero;fill:rgb(0.784314%,28.235294%,61.568627%);fill-opacity:1;" d="M 350.898438 17.855469 L 350.652344 20.5625 C 350.652344 20.5625 349.261719 22.773438 348.933594 23.917969 C 348.933594 23.917969 347.789062 32.683594 347.054688 33.585938 L 345.664062 34.816406 L 344.109375 35.550781 L 342.390625 36.699219 L 338.140625 39.730469 L 338.058594 39.894531 L 339.777344 40.140625 L 340.757812 41.203125 L 342.71875 40.628906 L 344.847656 40.386719 L 344.925781 42.023438 L 345.335938 42.597656 L 343.945312 44.808594 C 343.945312 44.808594 343.945312 46.691406 337.324219 51.117188 C 337.324219 51.117188 337.078125 50.378906 337.324219 47.839844 L 337.8125 44.480469 L 337.648438 43.089844 L 336.667969 41.367188 C 336.667969 41.367188 335.523438 39.894531 335.441406 39.238281 C 335.441406 39.238281 334.050781 38.992188 333.96875 37.761719 L 333.234375 36.289062 C 333.234375 36.289062 332.988281 36.289062 332.578125 37.761719 L 331.84375 39.484375 L 331.597656 40.386719 L 331.351562 40.46875 C 331.351562 40.46875 331.351562 41.203125 330.371094 42.515625 L 329.390625 44.234375 C 329.390625 44.234375 329.144531 45.300781 329.390625 50.132812 L 328.980469 54.964844 L 328.246094 59.71875 L 327.261719 62.914062 C 327.261719 62.914062 326.527344 64.550781 327.261719 66.351562 C 327.261719 66.351562 327.671875 67.089844 329.226562 67.992188 C 329.226562 67.992188 330.78125 68.730469 331.597656 68.894531 L 332.578125 69.957031 C 332.578125 69.957031 333.070312 71.1875 333.480469 71.351562 L 335.933594 73.070312 L 338.304688 73.480469 L 340.265625 74.21875 L 341.65625 79.871094 C 341.65625 79.871094 342.882812 84.703125 344.4375 85.195312 L 344.601562 85.195312 C 344.601562 85.195312 344.683594 85.6875 345.582031 86.339844 L 346.808594 87.078125 C 346.808594 87.078125 349.015625 88.554688 350.734375 89.042969 L 355.066406 89.699219 L 358.828125 89.78125 L 363.164062 90.191406 C 363.164062 90.191406 366.84375 89.78125 367.253906 89.042969 L 371.015625 88.554688 C 371.015625 88.554688 375.105469 87.570312 374.859375 87.160156 L 375.347656 87.078125 L 382.710938 85.195312 L 384.507812 84.457031 L 384.179688 84.457031 L 384.507812 83.71875 L 384.753906 83.71875 L 384.671875 83.226562 L 384.917969 83.226562 L 385.164062 83.472656 L 385.246094 83.226562 L 385.164062 82.984375 L 385.488281 82.492188 L 385.164062 82.574219 L 385.734375 81.507812 L 386.632812 80.605469 L 386.714844 80.605469 L 386.714844 81.097656 L 387.371094 80.277344 L 387.535156 80.277344 L 387.535156 80.359375 L 387.207031 80.605469 L 387.371094 80.851562 C 387.371094 80.851562 387.207031 81.097656 387.535156 81.015625 L 387.617188 80.523438 L 388.023438 80.277344 L 388.105469 80.359375 L 388.515625 79.871094 L 388.761719 79.789062 L 388.761719 79.050781 L 388.269531 78.804688 L 388.023438 79.132812 L 388.023438 78.558594 L 387.78125 78.394531 L 387.78125 78.640625 L 387.535156 78.558594 L 387.535156 78.148438 L 387.207031 77.820312 L 387.78125 77.414062 L 387.617188 77.167969 L 386.960938 77.820312 L 387.207031 77.003906 L 387.617188 77.003906 L 387.78125 76.757812 L 386.714844 76.675781 L 386.390625 76.921875 L 386.226562 76.757812 L 386.390625 76.183594 L 385.652344 76.019531 L 386.144531 75.773438 L 385.898438 75.527344 L 385.898438 75.28125 L 386.226562 75.445312 L 386.226562 75.28125 L 385.734375 74.789062 L 385.652344 74.953125 L 385.246094 74.464844 L 385.164062 74.300781 L 384.671875 74.464844 L 384.507812 74.21875 L 384.507812 74.546875 L 384.917969 74.546875 L 384.917969 75.28125 L 384.753906 75.28125 L 384.261719 74.300781 L 384.019531 74.21875 L 383.773438 74.300781 L 384.261719 73.972656 L 384.425781 73.972656 L 383.527344 73.808594 C 383.527344 73.808594 383.035156 73.808594 382.953125 74.21875 L 382.054688 74.707031 L 380.664062 75.691406 L 379.191406 76.019531 L 377.71875 76.675781 L 372.894531 77.574219 L 368.808594 78.804688 L 367.335938 79.050781 L 359.402344 79.871094 L 357.359375 79.132812 C 357.359375 79.132812 356.949219 79.132812 356.703125 78.804688 L 356.457031 77.902344 C 356.457031 77.902344 354.824219 74.546875 355.066406 73.726562 L 357.359375 70.695312 L 358.585938 69.628906 C 358.585938 69.628906 359.402344 68.972656 360.792969 69.136719 L 362.183594 68.894531 L 363.898438 68.648438 L 364.964844 67.992188 L 366.355469 67.746094 L 367.742188 67.417969 L 369.050781 67.089844 L 374.613281 66.351562 L 375.347656 65.78125 L 376.003906 64.796875 L 377.148438 63.160156 C 377.148438 63.160156 378.375 62.175781 378.457031 61.191406 L 378.457031 59.964844 L 378.867188 58.488281 L 377.640625 55.621094 L 376.332031 52.917969 L 378.703125 46.855469 L 379.109375 45.300781 C 379.109375 45.300781 379.4375 44.070312 379.847656 44.070312 L 380.175781 42.351562 L 380.582031 40.46875 C 380.582031 40.46875 381.074219 39.402344 380.910156 38.746094 L 380.664062 37.191406 L 380.910156 36.125 L 380.582031 34.894531 C 380.582031 34.894531 380.09375 34.160156 380.09375 33.667969 L 378.867188 31.867188 L 377.882812 29.082031 C 377.882812 29.082031 377.394531 27.851562 375.347656 27.03125 L 375.023438 27.277344 L 373.140625 26.539062 C 373.140625 26.539062 371.914062 25.722656 370.769531 26.050781 L 368.234375 25.640625 L 363.738281 27.769531 L 358.828125 30.472656 L 357.359375 30.472656 L 358.339844 24.164062 C 358.339844 24.164062 358.585938 20.804688 355.066406 19.167969 L 353.105469 18.183594 Z M 366.109375 32.847656 L 369.789062 33.667969 L 369.707031 34.160156 L 370.441406 35.140625 L 370.441406 35.878906 C 370.441406 35.878906 370.441406 36.535156 369.460938 37.519531 L 368.070312 37.519531 C 368.070312 37.519531 364.226562 40.222656 361.9375 40.710938 L 360.054688 40.957031 L 359.15625 40.957031 C 359.15625 40.957031 358.175781 41.203125 357.113281 40.957031 C 357.113281 40.957031 355.558594 40.710938 355.3125 39.894531 L 355.558594 38.171875 C 355.558594 38.171875 355.96875 36.945312 356.292969 36.78125 C 356.292969 36.78125 356.292969 36.125 357.441406 35.632812 L 358.585938 35.140625 C 358.585938 35.140625 359.566406 34.652344 361.363281 34.160156 L 362.753906 33.421875 L 364.636719 32.929688 Z M 366.84375 46.9375 L 367.089844 47.183594 C 367.089844 47.183594 367.5 47.59375 367.253906 48.085938 L 366.433594 52.015625 L 365.863281 53 C 365.863281 53 365.207031 53.902344 361.9375 55.375 C 361.9375 55.375 358.585938 57.585938 356.703125 56.195312 L 356.050781 54.476562 L 356.457031 53.164062 C 356.457031 53.164062 356.292969 52.015625 356.621094 51.363281 L 357.683594 50.132812 L 360.382812 48.660156 L 363.898438 47.429688 Z M 340.265625 55.457031 L 341.902344 56.113281 C 341.902344 56.113281 342.636719 56.851562 342.148438 59.0625 L 341.164062 62.09375 L 341.003906 62.667969 L 340.265625 63.8125 L 338.550781 64.140625 C 338.550781 64.140625 338.058594 64.140625 336.421875 65.042969 C 336.421875 65.042969 335.6875 65.535156 334.789062 65.863281 L 334.214844 66.515625 L 334.050781 66.351562 L 334.707031 64.304688 L 334.460938 63.078125 L 334.789062 61.929688 L 334.949219 60.78125 L 335.933594 58.078125 L 336.339844 56.851562 L 336.421875 56.851562 C 336.421875 56.851562 337.324219 56.851562 338.550781 56.113281 L 340.265625 55.621094 Z M 340.265625 55.457031 "/>
<path style=" stroke:none;fill-rule:nonzero;fill:rgb(0.784314%,28.235294%,61.568627%);fill-opacity:1;" d="M 411.25 27.03125 L 411.25 27.769531 C 411.25 27.769531 410.269531 30.71875 410.269531 32.109375 L 408.632812 34.652344 L 408.386719 35.550781 L 407.898438 36.535156 L 406.507812 39.484375 L 404.296875 44.316406 L 403.070312 45.792969 L 401.191406 48.660156 L 400.617188 50.542969 L 399.964844 52.507812 L 400.128906 54.394531 L 400.210938 57.261719 C 400.210938 57.261719 400.617188 57.507812 400.863281 57.585938 L 401.683594 58.816406 L 401.84375 61.4375 L 401.683594 64.140625 L 402.089844 63.566406 L 402.417969 62.585938 L 402.417969 62.421875 L 402.582031 62.421875 L 402.664062 62.585938 L 402.417969 63.078125 L 402.582031 63.320312 L 402.828125 63.320312 L 403.234375 62.585938 L 403.972656 60.292969 L 405.28125 58.816406 L 406.015625 58.324219 L 411.085938 53.410156 C 411.085938 53.410156 412.558594 52.917969 413.457031 54.964844 L 413.703125 56.851562 L 414.195312 60.535156 L 414.195312 65.289062 L 413.621094 67.992188 L 413.050781 72.824219 L 412.3125 75.035156 L 411.332031 80.769531 L 411.25 86.914062 C 411.25 86.914062 411.25 89.535156 413.703125 89.78125 L 414.847656 88.472656 C 414.847656 88.472656 416.648438 88.554688 415.910156 87.570312 L 415.910156 86.585938 L 416.890625 85.851562 L 417.792969 85.851562 L 419.019531 83.882812 L 419.507812 80.117188 L 420.246094 71.921875 L 420.492188 69.136719 L 420.980469 66.351562 L 421.882812 55.457031 C 421.882812 55.457031 421.472656 53 421.636719 52.015625 L 422.371094 50.296875 C 422.371094 50.296875 422.699219 49.558594 422.699219 47.59375 L 422.453125 46.691406 L 421.71875 46.039062 L 420.980469 45.21875 C 420.980469 45.21875 420.410156 44.972656 419.671875 44.5625 L 417.300781 43.496094 L 415.828125 43.824219 L 416.15625 42.351562 L 416.648438 41.121094 L 416.8125 38.664062 L 417.136719 37.4375 C 417.136719 37.4375 417.300781 35.796875 416.320312 33.667969 L 414.601562 30.226562 L 414.4375 29.242188 L 413.621094 27.113281 L 411.742188 25.476562 L 411.25 27.03125 "/>
<path style=" stroke:none;fill-rule:nonzero;fill:rgb(0.784314%,28.235294%,61.568627%);fill-opacity:1;" d="M 345.417969 105.917969 L 345.417969 124.761719 L 356.457031 124.761719 L 356.457031 127.957031 L 338.792969 127.957031 L 338.792969 105.917969 L 345.417969 105.917969 "/>
<path style=" stroke:none;fill-rule:nonzero;fill:rgb(0.784314%,28.235294%,61.568627%);fill-opacity:1;" d="M 322.4375 109.113281 L 322.4375 115.175781 L 331.269531 115.175781 L 331.269531 118.535156 L 322.4375 118.535156 L 322.4375 124.761719 L 334.542969 124.761719 L 334.542969 127.957031 L 315.816406 127.957031 L 315.816406 105.917969 L 333.804688 105.917969 L 333.804688 109.113281 L 322.4375 109.113281 "/>
<path style=" stroke:none;fill-rule:nonzero;fill:rgb(0.784314%,28.235294%,61.568627%);fill-opacity:1;" d="M 360.875 105.917969 L 378.949219 105.917969 L 378.949219 109.113281 L 367.582031 109.113281 L 367.582031 115.175781 L 376.332031 115.175781 L 376.332031 118.535156 L 367.582031 118.535156 L 367.582031 124.761719 L 379.847656 124.761719 L 379.847656 127.957031 L 360.875 127.957031 L 360.875 105.917969 "/>
<path style=" stroke:none;fill-rule:nonzero;fill:rgb(0.784314%,28.235294%,61.568627%);fill-opacity:1;" d="M 391.542969 111.082031 C 391.542969 111.082031 389.496094 113.210938 389.496094 116.898438 L 389.496094 117.144531 C 389.496094 117.144531 389.496094 121.15625 391.296875 123.121094 C 391.296875 123.121094 393.585938 125.007812 396.53125 125.007812 L 400.375 124.597656 L 402.828125 124.023438 L 402.828125 127.300781 L 400.375 128.039062 L 396.121094 128.285156 C 396.121094 128.285156 389.988281 128.285156 386.390625 125.582031 C 386.390625 125.582031 382.546875 122.875 382.546875 117.550781 L 382.546875 116.570312 C 382.546875 116.570312 382.546875 111.570312 386.390625 108.625 C 386.390625 108.625 390.234375 105.511719 396.121094 105.511719 L 400.210938 105.757812 L 402.828125 106.410156 L 402.828125 109.851562 L 400.617188 109.277344 L 397.265625 109.03125 C 397.265625 109.03125 393.667969 109.03125 391.542969 111.082031 "/>
<path style=" stroke:none;fill-rule:nonzero;fill:rgb(0.784314%,28.235294%,61.568627%);fill-opacity:1;" d="M 418.117188 105.511719 C 418.117188 105.511719 412.066406 105.511719 409.042969 108.625 C 409.042969 108.625 405.769531 111.734375 405.769531 116.40625 L 405.769531 117.632812 C 405.769531 117.632812 405.769531 122.714844 409.285156 125.582031 C 409.285156 125.582031 412.476562 128.285156 418.039062 128.285156 C 418.039062 128.285156 423.597656 128.285156 426.789062 125.582031 C 426.789062 125.582031 430.304688 122.714844 430.304688 117.632812 L 430.304688 116.40625 C 430.304688 116.40625 430.304688 111.734375 427.03125 108.625 C 427.03125 108.625 424.089844 105.511719 418.117188 105.511719 Z M 418.039062 108.785156 C 418.039062 108.785156 421.636719 108.785156 422.453125 110.589844 C 422.453125 110.589844 423.433594 112.800781 423.433594 116.652344 L 423.433594 117.304688 C 423.433594 117.304688 423.433594 121.238281 422.207031 123.367188 C 422.207031 123.367188 420.980469 125.253906 418.039062 125.253906 C 418.039062 125.253906 414.601562 125.253906 413.621094 123.449219 C 413.621094 123.449219 412.558594 121.976562 412.558594 117.304688 L 412.558594 116.652344 C 412.558594 116.652344 412.558594 112.226562 413.703125 110.507812 C 413.703125 110.507812 414.601562 108.785156 418.039062 108.785156 Z M 418.039062 108.785156 "/>
<path style=" stroke:none;fill-rule:nonzero;fill:rgb(0.784314%,28.235294%,61.568627%);fill-opacity:1;" d="M 453.609375 33.09375 L 451.15625 33.09375 C 451.15625 33.09375 449.441406 33.09375 448.703125 32.601562 L 445.597656 32.601562 L 442.980469 33.339844 L 440.527344 34.324219 C 440.527344 34.324219 440.035156 34.40625 439.789062 35.058594 C 439.789062 35.058594 439.464844 35.878906 439.953125 36.78125 C 439.953125 36.78125 440.527344 37.519531 441.507812 37.761719 L 444.613281 39.402344 L 445.351562 40.140625 L 449.683594 42.105469 L 451.8125 42.597656 L 454.753906 42.597656 L 455.738281 43.007812 C 455.738281 43.007812 456.226562 43.253906 456.636719 43.007812 C 456.636719 43.007812 457.210938 42.597656 458.191406 40.628906 L 458.84375 39.894531 L 458.84375 38.910156 L 458.925781 37.761719 L 457.863281 36.78125 L 457.210938 35.140625 C 457.210938 35.140625 456.144531 34.816406 455.65625 34.570312 L 454.675781 33.585938 L 453.609375 33.09375 "/>
<path style=" stroke:none;fill-rule:nonzero;fill:rgb(0.784314%,28.235294%,61.568627%);fill-opacity:1;" d="M 441.671875 45.464844 L 436.683594 46.28125 L 436.601562 46.855469 C 436.601562 46.855469 436.355469 47.347656 436.601562 47.921875 L 437.417969 49.558594 L 438.644531 51.117188 L 440.933594 53 C 440.933594 53 441.507812 53.65625 442.652344 53.902344 L 445.105469 53.984375 L 447.230469 54.394531 C 447.230469 54.394531 448.214844 54.476562 449.929688 55.457031 L 451.648438 55.210938 L 452.875 55.210938 L 454.101562 54.640625 C 454.101562 54.640625 455.410156 54.394531 455.492188 54.230469 C 455.492188 54.230469 456.144531 53.984375 456.71875 52.917969 L 457.453125 51.035156 L 457.453125 50.296875 L 457.617188 49.640625 C 457.617188 49.640625 457.699219 49.148438 458.355469 48.90625 L 459.171875 48.414062 L 459.171875 46.691406 C 459.171875 46.691406 459.171875 46.445312 457.945312 46.203125 L 456.390625 46.039062 L 454.675781 46.28125 L 449.929688 45.21875 L 447.3125 45.054688 L 441.671875 45.464844 "/>
<path style=" stroke:none;fill-rule:nonzero;fill:rgb(0.784314%,28.235294%,61.568627%);fill-opacity:1;" d="M 430.140625 66.027344 L 430.875 69.382812 C 430.875 69.382812 430.550781 71.351562 430.792969 73.070312 L 430.875 77.003906 L 430.792969 79.871094 L 432.101562 85.359375 L 432.347656 85.933594 L 432.347656 87.980469 C 432.347656 87.980469 432.59375 89.042969 433.492188 89.453125 L 434.964844 89.78125 L 436.929688 90.683594 L 437.582031 91.503906 C 437.582031 91.503906 437.910156 91.992188 438.398438 91.910156 C 438.398438 91.910156 438.808594 91.746094 438.808594 90.683594 L 439.789062 88.960938 L 439.953125 87.078125 L 440.445312 85.113281 L 440.773438 83.71875 L 441.507812 77.003906 L 441.179688 76.019531 L 440.527344 75.035156 L 440.691406 73.726562 L 440.691406 72.496094 L 440.933594 72.332031 L 444.613281 72.496094 L 446.003906 70.941406 C 446.003906 70.941406 448.050781 68.972656 449.359375 68.484375 L 449.929688 69.382812 C 449.929688 69.382812 450.421875 70.695312 450.09375 72.742188 L 447.3125 75.9375 L 445.597656 77.65625 C 445.597656 77.65625 444.535156 78.558594 444.289062 79.625 L 443.714844 80.035156 L 443.632812 80.851562 L 443.46875 83.144531 C 443.46875 83.144531 443.46875 85.113281 443.714844 85.605469 L 444.777344 86.339844 L 446.003906 86.832031 L 446.988281 87.652344 L 450.910156 87.980469 L 455 87.160156 L 457.371094 87.652344 L 460.480469 87.570312 L 461.789062 86.832031 L 462.769531 86.421875 L 463.667969 85.441406 L 463.667969 84.128906 L 463.914062 81.097656 L 462.769531 80.523438 L 462.523438 80.359375 L 461.214844 79.296875 L 461.050781 78.3125 L 462.933594 73.316406 L 463.015625 70.613281 C 463.015625 70.613281 462.6875 69.957031 463.179688 68.648438 L 463.179688 66.105469 L 461.789062 64.550781 L 460.316406 62.339844 L 458.597656 60.945312 L 457.863281 60.292969 L 455.902344 59.800781 L 453.855469 59.964844 L 452.792969 59.472656 L 448.949219 62.09375 L 441.261719 65.863281 L 440.28125 66.269531 L 439.300781 66.515625 C 439.300781 66.515625 438.316406 66.515625 437.910156 66.105469 L 437.089844 65.125 L 436.355469 64.304688 L 435.863281 63.078125 L 434.394531 62.421875 L 432.839844 61.765625 C 432.839844 61.765625 432.101562 61.4375 431.777344 60.699219 L 431.367188 60.210938 L 430.792969 60.453125 L 430.304688 63.566406 L 430.140625 66.027344 "/>
<path style=" stroke:none;fill-rule:nonzero;fill:rgb(0.784314%,28.235294%,61.568627%);fill-opacity:1;" d="M 438.398438 127.957031 L 433.902344 127.957031 L 433.902344 105.917969 L 438.808594 105.917969 L 449.929688 121.976562 L 461.296875 105.917969 L 465.632812 105.917969 L 465.632812 127.957031 L 459.582031 127.957031 L 459.582031 115.339844 L 450.585938 127.957031 L 446.988281 127.957031 L 438.398438 115.339844 L 438.398438 127.957031 "/>
</g>
</svg>
