<?xml version="1.0" encoding="UTF-8" standalone="no"?>
<!-- Creator: CorelDRAW X6 -->

<svg
   xmlns:dc="http://purl.org/dc/elements/1.1/"
   xmlns:cc="http://creativecommons.org/ns#"
   xmlns:rdf="http://www.w3.org/1999/02/22-rdf-syntax-ns#"
   xmlns:svg="http://www.w3.org/2000/svg"
   xmlns="http://www.w3.org/2000/svg"
   xmlns:sodipodi="http://sodipodi.sourceforge.net/DTD/sodipodi-0.dtd"
   xmlns:inkscape="http://www.inkscape.org/namespaces/inkscape"
   xml:space="preserve"
   width="315"
   height="117"
   version="1.1"
   style="fill-rule:evenodd"
   viewBox="0 0 8890.0002 3301.9999"
   id="svg2"
   inkscape:version="0.48.2 r9819"
   sodipodi:docname="China Netcom Corporation(CNC) logo.svg"><metadata
   id="metadata177"><rdf:RDF><cc:Work
       rdf:about=""><dc:format>image/svg+xml</dc:format><dc:type
         rdf:resource="http://purl.org/dc/dcmitype/StillImage" /></cc:Work></rdf:RDF></metadata><sodipodi:namedview
   pagecolor="#ffffff"
   bordercolor="#666666"
   borderopacity="1"
   objecttolerance="10"
   gridtolerance="10"
   guidetolerance="10"
   inkscape:pageopacity="0"
   inkscape:pageshadow="2"
   inkscape:window-width="1366"
   inkscape:window-height="706"
   id="namedview175"
   showgrid="false"
   inkscape:zoom="1.7941507"
   inkscape:cx="329.2523"
   inkscape:cy="85.44654"
   inkscape:window-x="-8"
   inkscape:window-y="-8"
   inkscape:window-maximized="1"
   inkscape:current-layer="_110705632" />
 <defs
   id="defs4">
  <style
   type="text/css"
   id="style6">
   
    .fil8 {fill:#B04B87}
    .fil6 {fill:#5FA776}
    .fil7 {fill:#F08519}
    .fil0 {fill:#004794}
    .fil2 {fill:#007241}
    .fil3 {fill:#00A344}
    .fil4 {fill:#25221E}
    .fil1 {fill:white}
    .fil5 {fill:#0055A4}
    .fil9 {fill:#332C2B;fill-rule:nonzero}
    .fil10 {fill:#D82128;fill-rule:nonzero}
   
  </style>
 </defs>
 <g
   id="图层_x0020_1"
   transform="translate(0,-17698.001)">
  <metadata
   id="CorelCorpID_0Corel-Layer" />
  <g
   id="_110705632">
   <g
   id="g11"
   transform="matrix(1.1281033,0,0,1.1281033,-17312.691,8061.1793)">
    <path
   class="fil0"
   d="m 18265,10013 c 0,789 -650,1427 -1438,1427 -789,0 -1438,-638 -1438,-1427 0,-789 650,-1438 1438,-1438 789,0 1438,650 1438,1438 l 0,0 z"
   id="path13"
   inkscape:connector-curvature="0"
   style="fill:#004794" />
    <path
   class="fil1"
   d="m 17094,9364 c 81,186 151,383 186,580 81,476 -46,754 -278,626 -128,-70 -267,-255 -371,-487 186,452 441,812 684,940 383,209 580,-244 441,-1021 -58,-371 -186,-742 -336,-1056 l -325,418 z"
   id="path15"
   inkscape:connector-curvature="0"
   style="fill:#ffffff" />
    <path
   class="fil1"
   d="m 16560,10663 c -81,-186 -151,-383 -186,-592 -81,-464 46,-742 278,-626 128,81 267,267 371,499 -186,-452 -441,-812 -684,-951 -383,-197 -580,255 -441,1032 58,371 186,742 336,1056 l 325,-418 z"
   id="path17"
   inkscape:connector-curvature="0"
   style="fill:#ffffff" />
    <polygon
   class="fil2"
   points="20458,9329 20353,10222 20527,10419 20620,9526 "
   id="polygon19"
   style="fill:#007241" />
    <path
   class="fil2"
   d="m 23207,9341 c 0,0 -174,-81 -441,-81 0,0 -638,0 -661,603 l -46,12 -70,-290 70,-197 313,-267 360,-46 302,46 70,35 70,35 35,151 z"
   id="path21"
   inkscape:connector-curvature="0"
   style="fill:#007241" />
    <path
   class="fil2"
   d="m 23114,10361 0,-93 -116,-93 -545,81 -476,-116 -186,-139 c 0,0 209,452 766,476 0,0 302,0 557,-116 l 0,0 z"
   id="path23"
   inkscape:connector-curvature="0"
   style="fill:#007241" />
    <polygon
   class="fil2"
   points="21502,10257 21200,10257 21293,10419 21629,10419 "
   id="polygon25"
   style="fill:#007241" />
    <polygon
   class="fil2"
   points="20191,10419 20086,10257 20400,10257 20527,10419 "
   id="polygon27"
   style="fill:#007241" />
    <path
   class="fil2"
   d="m 20086,9341 c 0,0 -162,-81 -406,-81 0,0 -661,-12 -684,603 l -93,-23 -35,-220 186,-313 325,-209 348,-12 244,58 70,70 46,128 z"
   id="path29"
   inkscape:connector-curvature="0"
   style="fill:#007241" />
    <path
   class="fil2"
   d="m 20005,10361 c 0,0 -174,104 -545,104 0,0 -534,0 -742,-441 l 348,174 615,81 232,-81 46,12 46,151 z"
   id="path31"
   inkscape:connector-curvature="0"
   style="fill:#007241" />
    <polygon
   class="fil2"
   points="23149,9004 23114,9213 23207,9341 23218,9143 "
   id="polygon33"
   style="fill:#007241" />
    <polygon
   class="fil2"
   points="23137,10153 23067,10002 23033,10222 23114,10361 "
   id="polygon35"
   style="fill:#007241" />
    <polygon
   class="fil2"
   points="21734,9120 21594,8935 21502,10257 21629,10419 "
   id="polygon37"
   style="fill:#007241" />
    <polygon
   class="fil2"
   points="20110,9143 20040,9004 20005,9225 20086,9341 "
   id="polygon39"
   style="fill:#007241" />
    <polygon
   class="fil2"
   points="19913,10222 19947,10002 20028,10141 20005,10361 "
   id="polygon41"
   style="fill:#007241" />
    <path
   class="fil3"
   d="m 20040,9004 -35,220 c 0,0 -116,-104 -383,-104 0,0 -580,-23 -696,487 0,0 -70,429 580,487 0,0 220,12 441,-93 l -35,220 c 0,0 -174,104 -429,116 0,0 -928,35 -951,-708 0,0 -12,-673 974,-742 0,0 348,-12 534,116 l 0,0 z"
   id="path43"
   inkscape:connector-curvature="0"
   style="fill:#00a344" />
    <polygon
   class="fil3"
   points="21502,10257 21200,10257 20481,9387 20400,10257 20086,10257 20202,8946 20469,8946 21200,9805 21304,8935 21594,8935 "
   id="polygon45"
   style="fill:#00a344" />
    <path
   class="fil3"
   d="m 23067,10002 c 0,0 -197,93 -406,93 0,0 -603,23 -626,-452 0,0 0,-476 684,-534 0,0 220,0 394,104 l 35,-209 c 0,0 -151,-116 -452,-116 0,0 -963,-35 -1056,742 0,0 -35,603 800,696 0,0 290,23 592,-104 l 35,-220 z"
   id="path47"
   inkscape:connector-curvature="0"
   style="fill:#00a344" />
    <path
   class="fil4"
   d="m 20028,10825 603,0 -12,93 -220,0 -12,81 197,0 0,93 -81,0 c 0,0 58,35 81,70 0,0 -35,23 -35,35 l 46,0 -12,93 -615,0 12,-81 220,0 23,-116 -209,0 12,-93 209,0 0,-81 -220,0 12,-93 z m 418,267 -70,0 -12,104 104,0 c 0,0 -46,-46 -81,-70 0,0 35,-35 58,-35 l 0,0 z m -522,244 70,-650 -162,0 -81,754 882,0 c 0,0 128,12 151,-139 l 58,-534 c 0,0 12,-81 -81,-81 l -684,0 -12,93 580,0 c 0,0 35,-12 23,35 l -46,464 c 0,0 0,70 -70,58 l -626,0 z m -882,-684 -23,116 -174,0 0,104 162,0 -23,244 -244,0 35,-348 -174,0 -46,452 406,0 -23,232 35,0 c 0,0 151,0 174,-151 l 12,-70 244,0 c 0,0 186,0 209,-162 l 23,-232 c 0,0 12,-70 -70,-70 l -360,0 12,-116 -174,0 z m 151,220 220,0 c 0,0 35,0 23,35 l -23,139 c 0,0 12,70 -70,70 l -174,0 23,-244 z m 3433,81 104,0 0,35 -116,0 12,-35 z m 267,0 128,0 0,35 -128,0 0,-35 z m -290,128 116,0 0,23 -116,0 0,-23 z m 278,0 128,0 0,23 -139,0 12,-23 z m -708,-128 232,0 -46,325 c 0,0 -12,70 81,70 l 742,0 -23,93 -777,0 c 0,0 -186,12 -174,-139 l 35,-255 -81,0 12,-93 z m 23,-220 c 0,0 93,-23 116,-58 0,0 104,81 104,104 0,0 35,35 -12,58 l -70,58 c 0,0 -35,-81 -139,-162 l 0,0 z m 302,-46 0,81 325,0 c 0,0 -58,46 -139,58 l 58,35 -267,0 -46,441 35,0 c 0,0 116,0 128,-104 l 116,0 -12,116 23,0 c 0,0 116,12 139,-93 l 0,-23 139,0 c 0,0 0,35 -35,35 l -70,0 c 0,0 23,58 35,93 l 58,0 c 0,0 174,12 162,-116 l 35,-278 c 0,0 12,-58 -70,-70 l -162,12 186,-93 c 0,0 46,-23 23,-70 l -35,-23 -626,0 z m -1288,209 c 0,0 46,-12 81,-35 0,0 35,23 58,58 0,0 35,-46 35,-116 0,0 128,23 139,12 l -35,104 c 0,0 70,-12 104,-46 0,0 23,23 46,58 0,0 35,-58 35,-116 l 139,23 c 0,0 -23,104 -81,209 0,0 46,58 81,139 0,0 -70,35 -116,70 0,0 -23,-70 -35,-81 0,0 -93,104 -139,139 0,0 -70,-46 -116,-58 0,0 116,-81 186,-197 0,0 -46,-70 -104,-128 0,0 -23,70 -58,104 0,0 46,58 70,116 0,0 -70,23 -116,58 0,0 0,-58 -12,-70 0,0 -58,81 -128,139 0,0 -35,-70 -70,-116 l -12,116 c 0,0 0,162 -186,162 l 81,-754 174,0 -23,209 z m 93,-209 -12,93 534,0 c 0,0 35,0 35,35 l -46,464 c 0,0 -12,58 -70,58 l -81,0 46,104 139,0 c 0,0 104,-12 116,-116 l 58,-568 c 0,0 12,-70 -81,-70 l -638,0 z m -104,220 c 0,0 70,58 104,104 0,0 -58,93 -128,128 l 23,-232 z"
   id="path49"
   inkscape:connector-curvature="0"
   style="fill:#25221e" />
   </g>
   
   
   
   
   
  </g>
 </g>
</svg>