<?xml version="1.0" encoding="utf-8"?>
<!-- Generator: Adobe Illustrator 19.2.1, SVG Export Plug-In . SVG Version: 6.00 Build 0)  -->
<svg version="1.1" id="layer" xmlns="http://www.w3.org/2000/svg" xmlns:xlink="http://www.w3.org/1999/xlink" x="0px" y="0px"
	 viewBox="0 0 652 652" style="enable-background:new 0 0 652 652;" xml:space="preserve">
<path d="M88.5,321.7l37.3-50.1h-15.4c-6.1-0.3-11.9,2.5-15.3,7.5l-19.8,26.3l-19-26.7c-3.6-4.9-9.5-7.6-15.6-7H25l37.2,50.5
	l-40.7,54.6h14.9c6.1,0.3,11.9-2.5,15.3-7.5L75.2,338l55.2,76.3c3.4,5,9.2,7.8,15.3,7.5h16.2L88.5,321.7z M390.1,376.7h21.3V271.6
	h-21.3V376.7z M221,376.7h21.4V271.6H221V376.7z M544.3,413.9l77.2-142.3h-11.6c-6.1-0.7-12.1,2.2-15.3,7.5l-30.4,56.5l-26.1-56.5
	c-3.1-5.5-9.3-8.5-15.6-7.5h-11.1l40.5,85.7l-35.4,64.6h11.6C534.6,422.4,540.8,419.4,544.3,413.9z M267.8,271.6v105.1h21.3v-72.4
	c6.2-9.5,16.7-15.3,28.1-15.3c15.7,0,26.1,9.9,26.1,29.8v47.6c-0.3,5.3,3.8,9.9,9.1,10.2c0.3,0,0.5,0,0.8,0h11.4v-61.5
	c0-27.3-17.4-46.3-42.6-46.3c-12.3-0.2-24.1,4.3-33.1,12.6v-9.7H267.8z M450.9,339.7c-1.5,20.2,13.5,37.8,33.7,39.3
	c1.9,0.1,3.7,0.1,5.6,0c5.3,0.1,10.5-0.6,15.6-2.1l-4.3-18.6c-3.2,0.7-6.5,1.1-9.7,1c-10,0.8-18.7-6.6-19.5-16.5
	c-0.1-1.2-0.1-2.4,0.1-3.6v-49H502l-8.6-18.6h-21.1v-42.9L451,238v33.6h-22.6v18.6h22.5L450.9,339.7z M155.2,290.6v86.5h21.3v-87
	h27.6v-18.6h-27.4v-8.7c0-18,10.8-24,21.3-24c2.4,0,4.9,0.4,7.2,1l4.3-18.9c-4.3-1.3-8.7-1.9-13.2-1.7c-26.1,0-41,19.7-41,43.5v8.7
	h-11.2l-13.4,18.6L155.2,290.6z"/>
</svg>
