<?xml version="1.0" encoding="UTF-8" standalone="no"?>
<svg
   xmlns:dc="http://purl.org/dc/elements/1.1/"
   xmlns:cc="http://creativecommons.org/ns#"
   xmlns:rdf="http://www.w3.org/1999/02/22-rdf-syntax-ns#"
   xmlns:svg="http://www.w3.org/2000/svg"
   xmlns="http://www.w3.org/2000/svg"
   xmlns:sodipodi="http://sodipodi.sourceforge.net/DTD/sodipodi-0.dtd"
   xmlns:inkscape="http://www.inkscape.org/namespaces/inkscape"
   viewBox="0 0 120 190"
   width="120"
   height="190"
   id="svg3029"
   version="1.1"
   inkscape:version="0.48.1 "
   sodipodi:docname="afa shirtlogo 2024.svg">
  <metadata
     id="metadata3071">
    <rdf:RDF>
      <cc:Work
         rdf:about="">
        <dc:format>image/svg+xml</dc:format>
        <dc:type
           rdf:resource="http://purl.org/dc/dcmitype/StillImage" />
      </cc:Work>
    </rdf:RDF>
  </metadata>
  <defs
     id="defs3069" />
  <sodipodi:namedview
     pagecolor="#ffffff"
     bordercolor="#666666"
     borderopacity="1"
     objecttolerance="10"
     gridtolerance="10"
     guidetolerance="10"
     inkscape:pageopacity="0"
     inkscape:pageshadow="2"
     inkscape:window-width="1280"
     inkscape:window-height="657"
     id="namedview3067"
     showgrid="false"
     inkscape:zoom="2.0621798"
     inkscape:cx="88.491348"
     inkscape:cy="91.455173"
     inkscape:window-x="-8"
     inkscape:window-y="-8"
     inkscape:window-maximized="1"
     inkscape:current-layer="svg3029"
     showguides="true"
     inkscape:guide-bbox="true" />
  <style
     id="style3031">
		tspan { white-space:pre }
		.shp0 { fill: #d5b048 } 
		.shp1 { fill: #fffffe } 
		.shp2 { fill: #43a1d5 } 
		.shp3 { fill: #173e69 } 
	</style>
  <g
     id="g3140"
     transform="matrix(1.8881068,0,0,1.8881068,-12.857803,-14.088659)">
    <path
       class="shp0"
       d="m 11.486004,50.590276 c -0.110001,0.201278 -0.363481,0.895149 -0.559569,1.551947 -0.200872,0.651496 -0.425657,1.509568 -0.506962,1.906821 -0.08609,0.397259 -0.191305,0.932226 -0.243915,1.186474 l -0.09565,0.471408 C 9.8025109,54.785295 9.5633785,54.186763 9.3672897,53.784212 9.171201,53.381656 8.8651109,52.873171 8.6881529,52.661303 8.5111949,52.444138 8.343802,52.274639 8.3246715,52.290532 c -0.019131,0.01058 -0.076522,0.264837 -0.1291316,0.572044 -0.07174,0.444926 -0.062175,0.826292 0.043044,1.991576 0.066957,0.794507 0.1721756,1.615501 0.229567,1.827375 0.057393,0.211867 0.129132,0.593234 0.1626104,0.847476 0.028693,0.25954 0.1052185,0.677984 0.1673926,0.932226 0.057393,0.25954 0.1721758,0.736245 0.2534807,1.064642 0.076523,0.323105 0.277394,1.054052 0.4447868,1.610209 0.1673928,0.561455 0.3491343,1.133505 0.4017432,1.276516 0.047826,0.137713 0.2439144,0.598531 0.4256554,1.016969 0.186523,0.418444 0.449569,0.926929 0.583483,1.128207 l 0.248699,0.370771 c -0.148263,1.075237 -0.344352,1.922714 -0.526092,2.574215 -0.181742,0.656794 -0.392178,1.477788 -0.463917,1.827375 -0.07174,0.349581 -0.1673933,0.768025 -0.210437,0.932226 L 9.874251,70.558976 C 9.4916385,69.504924 9.2812015,68.985844 9.1616356,68.726304 9.0372865,68.466764 8.7838063,68.037725 8.5925002,67.772893 8.401194,67.508056 8.2051053,67.29089 8.1524961,67.29089 c -0.057392,0 -0.1147836,0.164196 -0.1434795,0.402551 -0.028697,0.222463 -0.028697,0.842179 -0.00479,1.382449 0.028695,0.534967 0.081305,1.281808 0.124349,1.652579 0.043044,0.376069 0.1482621,1.022273 0.2391325,1.446008 0.09087,0.418444 0.1769585,0.895149 0.1960888,1.05935 0.019129,0.164196 0.1721759,0.8104 0.3443506,1.440711 0.1769585,0.630311 0.4495693,1.57843 0.61218,2.102807 0.1626102,0.524372 0.4400032,1.271212 0.6169625,1.652579 0.172176,0.386664 0.430439,0.873964 0.569136,1.085832 l 0.248697,0.381366 c -0.119566,0.98519 -0.129131,1.710846 -0.105219,2.25111 0.02869,0.534973 0.06218,1.144094 0.08609,1.355967 0.01913,0.211868 0.07174,0.667389 0.110002,1.01697 0.04304,0.349587 0.09087,0.725656 0.114784,0.83159 0.01913,0.100636 0.0096,0.185385 -0.02392,0.185385 -0.03347,0 -0.176958,-0.180088 -0.32522,-0.397253 -0.148263,-0.217166 -0.506962,-0.656799 -0.803486,-0.974601 -0.2965245,-0.317802 -0.5595704,-0.577347 -0.5930495,-0.577347 -0.033474,0 -0.1004356,-0.04766 -0.153045,-0.111231 -0.052608,-0.05826 -0.2582626,-0.211868 -0.4591347,-0.338987 L 8.439446,82.910965 c -0.00481,0.492592 0.043042,0.789209 0.1052185,0.974601 0.057392,0.185385 0.2104369,0.598526 0.3443511,0.911035 0.1291314,0.317802 0.2391328,0.593235 0.2391328,0.619717 0,0.02117 0.248697,0.545567 0.5547877,1.165284 0.3013064,0.619716 0.5882669,1.165283 0.6360929,1.207658 0.04783,0.04766 0.296525,0.476705 0.554788,0.958708 0.263046,0.476705 0.506961,0.868661 0.550004,0.868661 0.04304,0 0.07652,0.04766 0.08131,0.10594 0,0.05826 0.129131,0.296617 0.286958,0.529669 0.153046,0.233058 0.411309,0.593234 0.573919,0.805107 0.157828,0.211868 0.358699,0.476706 0.444786,0.593235 0.08609,0.121826 0.487831,0.593234 0.894357,1.054046 0.406524,0.460819 0.827399,0.88456 0.932617,0.942821 0.105218,0.06356 0.502178,0.482003 0.880008,0.942821 0.377829,0.455521 0.927835,1.022268 1.224358,1.26592 0.296525,0.243648 0.650441,0.492598 0.789138,0.556157 0.138697,0.06886 0.248699,0.148309 0.248699,0.185386 -0.0048,0.03707 0.05739,0.08475 0.129131,0.105934 0.07174,0.02649 0.200871,0.09534 0.286959,0.148309 0.08609,0.05826 0.30609,0.233057 0.497396,0.386664 0.191305,0.1536 0.406525,0.275427 0.478265,0.275427 0.07174,-0.0055 0.133914,0.02649 0.133914,0.05827 -0.0048,0.03707 0.186523,0.158898 0.416091,0.275427 0.229567,0.116529 0.401743,0.243653 0.382612,0.275432 -0.01913,0.03707 -0.55957,0.05826 -1.200445,0.04766 -0.679137,-0.01058 -1.348708,0.02649 -1.606972,0.08474 -0.301307,0.07415 -0.463917,0.153606 -0.516526,0.275432 -0.04304,0.09004 -0.07652,0.174791 -0.07652,0.190683 -0.0048,0.01059 0.05739,0.09534 0.133916,0.190684 0.07174,0.09004 0.205652,0.211867 0.286958,0.264832 0.08609,0.05298 0.291741,0.121826 0.459135,0.153606 0.167393,0.03181 0.435221,0.116529 0.593048,0.180093 0.157828,0.06886 0.382613,0.121821 0.497396,0.121821 0.114784,0 0.425656,0.07945 0.688702,0.169499 0.263046,0.09534 0.650441,0.169493 0.860878,0.169493 0.210436,0 0.401742,0.03708 0.420873,0.08475 0.01913,0.0477 0.186524,0.0847 0.363481,0.0847 0.176958,0 0.516527,0.0371 0.746094,0.0795 0.229568,0.0477 0.61218,0.10594 0.841747,0.13242 0.229567,0.0265 1.042618,0.0847 1.798277,0.13242 0.755659,0.0424 1.688277,0.053 2.066106,0.0212 0.37783,-0.0318 0.722181,-0.0636 0.765224,-0.0688 0.04304,-0.005 0.196089,-0.0371 0.344351,-0.0689 0.148263,-0.0318 0.463917,-0.0795 0.707833,-0.10064 0.320438,-0.0318 0.454352,-0.0106 0.497396,0.0741 0.03347,0.0636 0.143479,0.13242 0.248698,0.15891 0.105218,0.0212 0.674353,0.18538 1.26262,0.36017 0.588266,0.1748 1.114358,0.36019 1.17175,0.41315 0.05261,0.053 0.07174,0.12183 0.03826,0.15361 -0.03347,0.0318 -0.21522,0.1483 -0.406525,0.26483 -0.191307,0.11653 -0.569136,0.34429 -0.841747,0.50319 -0.272611,0.1589 -0.650441,0.40256 -0.841747,0.53497 -0.191306,0.13242 -0.511744,0.39726 -0.712616,0.58794 -0.205654,0.19068 -0.435221,0.4767 -0.521309,0.64091 -0.0813,0.1642 -0.129131,0.3178 -0.100435,0.33899 0.02392,0.0265 0.516526,0.0583 1.090445,0.0742 0.578701,0.0159 1.391752,-0.0212 1.812625,-0.0742 0.420873,-0.0583 1.090445,-0.21187 1.492187,-0.34429 0.401743,-0.13242 1.147837,-0.42903 1.659581,-0.6515 0.516526,-0.22246 0.9374,-0.37607 0.9374,-0.33899 0.0048,0.0371 -0.02392,0.0742 -0.05261,0.0847 -0.03347,0.0106 -0.272612,0.30722 -0.526093,0.6568 -0.258263,0.34958 -0.679136,1.00109 -0.937399,1.44601 -0.363482,0.61972 -0.4687,0.87396 -0.4687,1.12291 l 0,0.3178 1.645232,0 c 0.205655,-0.75743 0.39696,-1.26062 0.554787,-1.61021 0.162611,-0.35488 0.487832,-0.964 0.722182,-1.36126 0.239132,-0.39725 0.631309,-0.964 0.880007,-1.26062 0.243916,-0.30191 0.54044,-0.59853 0.655224,-0.66209 0.138697,-0.0741 0.492613,-0.11653 1.052183,-0.11653 0.559571,0 0.913486,0.0424 1.052183,0.11653 0.114784,0.0636 0.411309,0.36018 0.655224,0.66209 0.243915,0.29662 0.645658,0.86337 0.884791,1.26062 0.243915,0.39726 0.583483,1.04876 0.750876,1.44601 0.167394,0.39196 0.353916,0.90045 0.411308,1.12291 l 0.110001,0.40255 1.645233,0 c 0,-0.46081 -0.06218,-0.73624 -0.143481,-0.91103 -0.07652,-0.1748 -0.277392,-0.52438 -0.440003,-0.77862 -0.16261,-0.24895 -0.492613,-0.72566 -0.731746,-1.05935 -0.239133,-0.3337 -0.48783,-0.67269 -0.554788,-0.75214 -0.06696,-0.0794 -0.119566,-0.16949 -0.119566,-0.19068 0,-0.0265 0.420874,0.1536 0.9374,0.39196 0.516527,0.24364 1.109576,0.4926 1.320012,0.56145 0.210436,0.0689 0.554788,0.17479 0.765224,0.24365 0.210437,0.0636 0.607397,0.14831 0.880008,0.18009 0.272612,0.0371 1.071314,0.0636 1.774365,0.0636 0.698267,0 1.296099,-0.0265 1.320011,-0.0636 0.02391,-0.0317 -0.01436,-0.1695 -0.08609,-0.29662 -0.07174,-0.12712 -0.28696,-0.41315 -0.478266,-0.63561 -0.191307,-0.22246 -0.373048,-0.40255 -0.406526,-0.40255 -0.03347,0 -0.220002,-0.12182 -0.420874,-0.26484 -0.200871,-0.14831 -0.674354,-0.43963 -1.052183,-0.6462 -0.377829,-0.21187 -0.765224,-0.45552 -0.860877,-0.54556 -0.129132,-0.11653 -0.148263,-0.17479 -0.07652,-0.23306 0.05261,-0.0476 0.23435,-0.11652 0.401743,-0.1642 0.167393,-0.0477 0.511744,-0.1483 0.765225,-0.22246 0.25348,-0.0795 0.784354,-0.23306 1.186097,-0.34429 0.621745,-0.17479 0.798703,-0.19597 1.224359,-0.12712 0.272611,0.0424 0.946965,0.10064 1.492187,0.13242 0.545223,0.0265 1.544797,0.0106 2.219151,-0.0371 0.674354,-0.0477 1.54958,-0.12712 1.951321,-0.17479 0.401744,-0.0477 1.052185,-0.14831 1.453926,-0.22247 0.401741,-0.0742 1.138273,-0.222537 1.64523,-0.333768 0.50696,-0.111232 1.071316,-0.25954 1.262624,-0.323099 0.191309,-0.06356 0.626528,-0.238356 0.975665,-0.386664 0.387393,-0.164201 0.62174,-0.307212 0.607393,-0.370772 -0.01437,-0.05827 -0.301305,-0.19598 -0.631309,-0.301914 -0.468704,-0.148309 -0.88479,-0.20657 -1.831756,-0.243648 -1.195659,-0.05298 -1.219577,-0.05827 -0.975664,-0.190683 0.138698,-0.07415 0.65523,-0.402556 1.143056,-0.730953 0.492615,-0.328397 0.927834,-0.635609 0.975659,-0.683275 0.04299,-0.05298 0.229565,-0.195981 0.406527,-0.317808 0.176957,-0.127118 0.593048,-0.4873 0.918269,-0.805102 0.325222,-0.317807 0.731749,-0.773322 0.899147,-1.011677 0.167387,-0.238356 0.444778,-0.534973 0.612176,-0.651496 0.167387,-0.121827 0.650437,-0.614424 1.07131,-1.09113 0.420868,-0.482002 0.942185,-1.101724 1.157404,-1.382449 0.215213,-0.280724 0.502172,-0.699168 0.645661,-0.932226 0.143477,-0.233057 0.387382,-0.614418 0.545216,-0.847476 0.162616,-0.233058 0.334791,-0.482003 0.387399,-0.55086 0.04788,-0.07415 0.129125,-0.206576 0.172175,-0.296617 0.04305,-0.09534 0.200867,-0.381366 0.353908,-0.640906 0.14827,-0.254243 0.444794,-0.8104 0.650443,-1.228843 0.20566,-0.418444 0.411309,-0.858072 0.459145,-0.974601 0.04782,-0.116529 0.224777,-0.540264 0.39217,-0.937523 0.167393,-0.391956 0.349137,-0.873959 0.396963,-1.059345 0.05265,-0.185385 0.08131,-0.460818 0.06695,-0.609126 l -0.02391,-0.270135 c -0.726966,0.4873 -1.05697,0.741542 -1.19567,0.884559 -0.143472,0.143011 -0.449565,0.4873 -0.67913,0.762727 -0.234352,0.28073 -0.502178,0.619717 -0.59783,0.762733 -0.09088,0.137714 -0.186526,0.233052 -0.200883,0.211868 -0.01908,-0.02649 0.01437,-0.386664 0.07175,-0.8104 0.05739,-0.418443 0.124344,-0.969303 0.143483,-1.228843 0.02391,-0.254242 0.06217,-0.884553 0.08608,-1.398341 0.02868,-0.513783 0.01437,-1.223546 -0.02874,-1.573127 -0.07173,-0.609127 -0.06695,-0.646204 0.110008,-0.911041 0.100439,-0.153606 0.186521,-0.296617 0.186521,-0.317802 0,-0.02649 0.143483,-0.323105 0.32044,-0.656799 0.172174,-0.338992 0.468704,-1.03816 0.655225,-1.551942 0.186515,-0.513783 0.363477,-1.085832 0.396957,-1.271218 0.03833,-0.190683 0.186521,-0.77862 0.330003,-1.318884 0.14826,-0.534973 0.325222,-1.2977 0.392176,-1.694959 0.07175,-0.397253 0.181744,-1.011678 0.243921,-1.361259 0.06695,-0.349587 0.148254,-0.842184 0.181728,-1.101724 0.03833,-0.254243 0.06697,-1.001083 0.07175,-1.652579 0,-0.656799 -0.02391,-1.255325 -0.05265,-1.334777 -0.02874,-0.07945 -0.09086,-0.121826 -0.138701,-0.08475 -0.04299,0.03181 -0.234341,0.270135 -0.425649,0.524377 -0.186532,0.25954 -0.396969,0.561455 -0.468704,0.677984 -0.06695,0.121821 -0.277391,0.635609 -0.463923,1.149391 l -0.339558,0.93229 C 67.170334,70.0345 67.050767,69.536604 66.950333,69.118161 66.849905,68.694425 66.739902,68.201827 66.711199,68.011144 66.682459,67.825758 66.558163,67.38613 66.438591,67.036544 66.314247,66.686962 66.175547,66.067241 66.118162,65.66469 L 66.0225,64.92851 c 0.368276,-0.572049 0.669577,-1.175873 0.903934,-1.710845 0.239123,-0.534973 0.521296,-1.260623 0.626517,-1.615507 0.110003,-0.349582 0.296518,-1.01697 0.41609,-1.483086 0.119562,-0.46611 0.28696,-1.154688 0.373048,-1.52546 0.08609,-0.376069 0.215218,-1.027565 0.286959,-1.446008 0.07174,-0.418444 0.162611,-0.974601 0.196085,-1.228843 0.03822,-0.25954 0.100445,-0.715061 0.143483,-1.022267 0.04305,-0.301915 0.0813,-0.587943 0.0813,-0.635609 0,-0.04766 -0.01908,-0.4873 -0.04305,-0.974601 -0.02391,-0.492598 -0.07652,-0.932226 -0.109998,-0.9746 -0.04299,-0.05298 -0.176957,0.05298 -0.363477,0.28073 -0.157835,0.20657 -0.392187,0.529669 -0.511754,0.72565 -0.119561,0.190683 -0.291736,0.54027 -0.387382,0.773322 -0.09566,0.233058 -0.253486,0.693876 -0.349143,1.016975 l -0.181744,0.598532 c -0.258256,-1.250027 -0.44,-2.033945 -0.569126,-2.547733 -0.129142,-0.513782 -0.344355,-1.260622 -0.47348,-1.657876 -0.129137,-0.397253 -0.291742,-0.831589 -0.363489,-0.969303 -0.07652,-0.132416 -0.167393,-0.25954 -0.210436,-0.275432 -0.04305,-0.0159 -0.138696,0.111231 -0.220001,0.291325 -0.07652,0.17479 -0.253475,0.640901 -0.392175,1.03816 -0.162611,0.46611 -0.339568,1.255325 -0.492614,2.208735 -0.129132,0.815697 -0.253481,1.573132 -0.272614,1.679066 -0.02391,0.100637 -0.07174,0.190683 -0.11478,0.190683 -0.04305,0 -0.248698,-0.450223 -0.463916,-1.001082 -0.215224,-0.545562 -0.411309,-1.016975 -0.444794,-1.03816 -0.02868,-0.02117 -0.162606,-0.233058 -0.301301,-0.466116 -0.133913,-0.233052 -0.320445,-0.524377 -0.416091,-0.640901 -0.09565,-0.116529 -0.234357,-0.243652 -0.306093,-0.275432 -0.11478,-0.05297 -0.133913,-0.01058 -0.133913,0.25954 0,0.174791 0.03345,0.74684 0.07652,1.271218 0.04299,0.524377 0.181739,1.641989 0.306094,2.484168 0.124349,0.836887 0.258256,1.610209 0.296523,1.716143 0.03822,0.105934 0.124344,0.460818 0.196085,0.789215 0.06695,0.323099 0.191309,0.842179 0.277396,1.144093 0.08609,0.301915 0.210437,0.741543 0.277396,0.974601 0.06695,0.233058 0.181733,0.561455 0.258262,0.720353 0.07652,0.164201 0.267821,0.603829 0.425655,0.979898 0.157829,0.370771 0.416085,0.916333 0.578707,1.207658 0.157823,0.29132 0.291742,0.566747 0.291742,0.614419 0,0.04766 0.02391,0.08475 0.05739,0.08475 0.03345,0 0.08608,0.429033 0.114779,0.953411 0.0574,0.921631 0.05265,0.985195 -0.167403,1.721441 -0.124339,0.418443 -0.315647,1.281812 -0.420862,1.912124 -0.105221,0.630311 -0.196091,1.26592 -0.196091,1.41952 0,0.153606 -0.02391,0.275433 -0.05739,0.28073 -0.03351,0 -0.172169,-0.296617 -0.315652,-0.656793 -0.143483,-0.365479 -0.330009,-0.836887 -0.416091,-1.043457 -0.08609,-0.211874 -0.258262,-0.556158 -0.382606,-0.768031 -0.124354,-0.20657 -0.36827,-0.540264 -0.540445,-0.741542 -0.17218,-0.201273 -0.368271,-0.360177 -0.430437,-0.360177 -0.09566,0 -0.105221,0.08475 -0.05739,0.529675 0.03345,0.29132 0.09087,0.953411 0.133913,1.467193 0.04305,0.513782 0.110003,1.101725 0.148264,1.313592 0.03828,0.211868 0.110003,0.651496 0.157829,0.974601 0.04787,0.328397 0.176962,0.995785 0.282178,1.488383 0.105215,0.4873 0.210436,0.98519 0.229564,1.101719 0.01909,0.116529 0.06696,0.291319 0.100434,0.381366 0.03345,0.09534 0.138701,0.418444 0.224777,0.72565 0.0861,0.301915 0.157845,0.614425 0.157845,0.699168 0,0.07945 0.03345,0.148309 0.07651,0.148309 0.04305,0 0.07652,0.05827 0.07652,0.127124 0,0.06886 0.119567,0.402551 0.263044,0.741543 0.143488,0.338991 0.277396,0.69387 0.301311,0.783917 0.02391,0.09534 0.272603,0.57205 0.545222,1.064642 0.478269,0.85278 0.497397,0.911041 0.502179,1.440716 0,0.492593 -0.02868,0.598532 -0.26305,0.974601 -0.148259,0.233052 -0.382606,0.619716 -0.530865,0.852774 -0.143488,0.233052 -0.506966,0.889851 -0.808272,1.461895 -0.301305,0.57205 -0.569132,1.03816 -0.602617,1.03816 -0.03351,0 -0.0813,-0.524372 -0.114785,-1.165278 -0.02868,-0.640907 -0.08131,-1.186469 -0.11479,-1.207659 -0.03345,-0.02649 -0.100428,-0.217165 -0.148249,-0.429033 -0.04788,-0.206575 -0.16261,-0.561454 -0.248703,-0.783917 -0.08609,-0.222463 -0.191309,-0.402551 -0.234352,-0.402551 -0.043,0 -0.09565,0.105934 -0.119562,0.233052 -0.02391,0.127124 -0.110003,0.482003 -0.191303,0.783918 -0.08131,0.307212 -0.253485,1.048755 -0.382622,1.657881 -0.12912,0.609121 -0.272608,1.408931 -0.31087,1.779703 -0.04299,0.376069 -0.110003,0.873958 -0.153041,1.107016 -0.03833,0.233058 -0.105216,1.016976 -0.148265,1.737328 -0.04299,0.820995 -0.04787,1.800893 -0.0044,2.590108 0.04305,0.783917 0.138706,1.604912 0.248704,2.134581 l 0.181744,0.858072 c -0.473481,0.524377 -0.683923,0.76803 -0.774792,0.879261 -0.138695,0.174791 -0.25348,0.211868 -0.880013,0.264838 -0.392175,0.03181 -1.214788,0.164195 -1.826969,0.286022 -0.612183,0.121826 -1.26262,0.238355 -1.45393,0.25954 l -0.344346,0.04239 c 0.29652,-0.286022 0.487826,-0.466116 0.612176,-0.587937 0.124352,-0.121826 0.43522,-0.429038 0.688702,-0.688578 0.253479,-0.254243 0.564352,-0.614419 0.688703,-0.799805 0.12435,-0.185385 0.306091,-0.471413 0.396966,-0.640906 0.09086,-0.169499 0.167393,-0.376069 0.17217,-0.455521 0,-0.08475 -0.01437,-0.148308 -0.03351,-0.148308 -0.01914,0 -0.492613,0.222463 -1.052182,0.503193 -0.559574,0.275427 -1.119144,0.556157 -1.243489,0.614418 -0.12435,0.06356 -0.607399,0.3231 -1.071315,0.587937 -0.463917,0.264837 -0.946965,0.55086 -1.080879,0.635609 -0.129132,0.09005 -0.473482,0.312509 -0.765224,0.497895 -0.28696,0.190683 -0.717399,0.492598 -0.946965,0.683276 -0.229568,0.185385 -0.526093,0.413146 -0.650442,0.503192 -0.124348,0.08475 -0.502178,0.391956 -0.836965,0.677984 -0.330002,0.280725 -0.918268,0.847477 -1.30088,1.250028 -0.382613,0.402551 -0.798703,0.889851 -0.923052,1.080534 -0.124349,0.190683 -0.291742,0.344289 -0.363481,0.344289 -0.07174,0.0055 -0.454352,-0.132421 -0.841748,-0.301914 -0.387394,-0.169499 -0.731745,-0.3231 -0.765223,-0.338992 -0.03348,-0.02117 0.02869,-0.137714 0.133914,-0.270135 0.105218,-0.127119 0.368263,-0.476705 0.583483,-0.783917 0.220002,-0.301915 0.492613,-0.78921 0.61218,-1.080535 0.119566,-0.291319 0.25348,-0.683275 0.296525,-0.868661 0.05261,-0.22776 0.05261,-0.354884 0,-0.381366 -0.04304,-0.02649 -0.583485,0.111231 -1.205229,0.296617 -0.621745,0.185385 -1.420448,0.439628 -1.779146,0.556157 -0.3587,0.121826 -1.013924,0.333694 -1.453927,0.471407 -0.440004,0.143017 -1.128706,0.434336 -1.530448,0.651502 -0.597832,0.328396 -0.841747,0.529675 -1.382187,1.117611 -0.358699,0.397254 -0.808269,0.948113 -0.994792,1.218248 l -0.339569,0.487301 -2.21915,0 C 36.996937,99.283161 36.53302,98.727004 36.13606,98.28737 c -0.621745,-0.677978 -0.827399,-0.842179 -1.449144,-1.170575 -0.401742,-0.211868 -1.037835,-0.482003 -1.415665,-0.598532 -0.37783,-0.116529 -1.238707,-0.397254 -1.913061,-0.619716 -0.674354,-0.227761 -1.506535,-0.487301 -1.855669,-0.587942 -0.349133,-0.09534 -0.65044,-0.174791 -0.669572,-0.174791 -0.01913,0 -0.03826,0.06356 -0.03826,0.148308 0,0.07945 0.06217,0.376069 0.138696,0.656794 0.0813,0.28073 0.191306,0.603829 0.243915,0.720358 0.05739,0.116529 0.344352,0.566752 0.645659,1.001083 0.296524,0.434336 0.573918,0.789215 0.612179,0.783917 0.04783,0 0.04783,0.02649 0,0.07945 -0.03826,0.04765 -0.39696,0.222463 -0.798702,0.386664 -0.401744,0.164195 -0.779573,0.296617 -0.841747,0.301909 -0.06217,0 -0.200872,-0.09004 -0.310873,-0.195975 -0.105218,-0.105934 -0.23435,-0.296618 -0.286959,-0.423741 -0.04783,-0.132416 -0.210436,-0.3231 -0.3587,-0.429034 -0.143479,-0.100641 -0.267828,-0.22776 -0.263045,-0.275432 0,-0.04239 -0.21522,-0.301915 -0.483048,-0.57205 -0.263046,-0.264832 -0.616962,-0.593234 -0.789138,-0.720352 -0.172175,-0.127124 -0.463916,-0.365474 -0.650441,-0.529675 -0.186523,-0.164201 -0.396958,-0.333694 -0.468699,-0.381367 -0.07174,-0.04766 -0.263046,-0.185385 -0.420874,-0.307206 -0.162609,-0.121827 -0.483047,-0.354885 -0.712614,-0.51908 -0.229567,-0.164201 -0.559571,-0.386664 -0.726964,-0.497895 -0.167392,-0.105934 -0.70305,-0.429039 -1.186098,-0.715061 -0.483048,-0.29132 -0.999574,-0.582639 -1.147836,-0.656793 -0.148263,-0.07416 -0.717399,-0.349587 -1.262621,-0.609127 -0.545222,-0.264838 -1.037834,-0.476705 -1.090444,-0.476705 -0.05261,0 -0.09565,0.01058 -0.09565,0.02649 -0.0048,0.01058 0.04783,0.164201 0.114784,0.338992 0.06217,0.174791 0.291741,0.556157 0.511744,0.847476 0.220002,0.291326 0.588266,0.730954 0.822615,0.974601 0.234351,0.243653 0.492614,0.471408 0.578701,0.503193 0.08609,0.03181 0.282177,0.164195 0.440005,0.296617 0.210437,0.174791 0.25348,0.254242 0.172176,0.286022 -0.06217,0.02117 -0.191307,0.04239 -0.28696,0.04239 -0.09565,0 -0.310872,-0.05298 -0.478265,-0.116529 -0.167393,-0.06356 -0.530874,-0.143011 -0.803486,-0.169493 -0.27261,-0.03181 -0.688702,-0.111231 -0.91827,-0.185386 -0.229567,-0.06886 -0.760441,-0.153606 -1.176532,-0.190683 l -0.755659,-0.06356 C 16.063271,93.705725 15.8624,93.419698 15.8624,93.350841 c 0.0048,-0.06886 0.03826,-0.280725 0.08131,-0.46611 0.04783,-0.185386 0.14348,-0.858072 0.215219,-1.488383 0.07652,-0.667389 0.129132,-1.636692 0.124349,-2.330568 -0.0048,-0.656793 -0.05261,-1.668471 -0.105218,-2.25111 -0.05261,-0.582645 -0.129131,-1.175879 -0.167393,-1.313592 -0.03826,-0.143011 -0.07174,-0.370772 -0.07174,-0.513783 0,-0.137713 -0.04783,-0.497895 -0.105218,-0.805102 -0.05739,-0.301914 -0.16261,-0.778625 -0.229567,-1.05935 -0.06696,-0.280724 -0.157828,-0.720358 -0.200872,-0.9746 -0.04304,-0.25954 -0.157828,-0.72565 -0.248698,-1.043458 -0.09565,-0.317801 -0.205654,-0.561454 -0.248697,-0.545562 -0.04304,0.0159 -0.176959,0.333695 -0.296525,0.704466 -0.119566,0.365474 -0.248698,0.74684 -0.291742,0.842179 -0.03826,0.09005 -0.09087,0.672686 -0.124348,1.292408 -0.02869,0.619716 -0.08131,1.138796 -0.119567,1.149391 -0.03826,0.01058 -0.191307,-0.238355 -0.344351,-0.550859 -0.153045,-0.317808 -0.449569,-0.889857 -0.655223,-1.276516 -0.210437,-0.386664 -0.521309,-0.911041 -0.698268,-1.170581 -0.172175,-0.254242 -0.353916,-0.550859 -0.406525,-0.656793 -0.04783,-0.105934 -0.08609,-0.429039 -0.09087,-0.720358 0,-0.492593 0.02869,-0.577342 0.368265,-1.165279 0.200871,-0.349587 0.564353,-1.107022 0.803485,-1.679066 0.243915,-0.572049 0.440004,-1.085832 0.440004,-1.144094 -0.0048,-0.05827 0.02392,-0.137719 0.05739,-0.180093 0.02869,-0.04239 0.119567,-0.27013 0.191306,-0.508485 0.07652,-0.243647 0.243915,-0.873959 0.373047,-1.414229 0.129132,-0.534972 0.282177,-1.202361 0.334785,-1.483085 0.05261,-0.28073 0.172176,-0.948119 0.258264,-1.488383 0.09087,-0.534973 0.16261,-1.117612 0.16261,-1.292402 0,-0.174797 0.0287,-0.386664 0.06696,-0.466116 0.03826,-0.08475 0.08131,-0.598532 0.09565,-1.149391 0.02392,-0.757436 0.0048,-0.995785 -0.06696,-0.995785 -0.05261,0 -0.258263,0.201272 -0.459135,0.450223 -0.200871,0.248945 -0.444786,0.625014 -0.540439,0.831584 -0.100436,0.206576 -0.229567,0.471413 -0.286959,0.587942 -0.05739,0.116523 -0.229567,0.545562 -0.377829,0.95341 -0.148264,0.407849 -0.291743,0.741543 -0.325221,0.741543 -0.03348,0.0055 -0.100436,-0.333694 -0.157828,-0.741543 -0.05261,-0.407848 -0.133914,-0.932226 -0.176958,-1.165283 -0.03826,-0.233053 -0.105218,-0.625014 -0.148262,-0.873959 -0.03826,-0.243653 -0.157828,-0.699168 -0.267829,-1.016975 -0.186523,-0.540265 -0.191306,-0.625014 -0.133914,-1.530758 0.03348,-0.524377 0.08131,-0.95341 0.100436,-0.95341 0.01913,0 0.105218,-0.153606 0.191306,-0.338992 0.08609,-0.190683 0.172176,-0.338992 0.191306,-0.338992 0.01913,0.0055 0.205654,-0.386664 0.411308,-0.868667 0.200872,-0.476705 0.430439,-1.00638 0.502179,-1.170575 0.07174,-0.158904 0.27261,-0.773323 0.449569,-1.355967 0.172176,-0.582639 0.41609,-1.520163 0.545223,-2.081617 0.124348,-0.556157 0.282175,-1.324182 0.34435,-1.694954 0.06217,-0.376068 0.186523,-1.281812 0.272612,-2.018057 0.08131,-0.736246 0.153044,-1.562538 0.153044,-1.843262 0,-0.349587 -0.0287,-0.513788 -0.09565,-0.513788 -0.05261,-0.0055 -0.215219,0.137719 -0.363481,0.317807 -0.148263,0.174791 -0.430439,0.609127 -0.626528,0.958708 -0.196088,0.349587 -0.459135,0.921631 -0.593048,1.271218 -0.129132,0.349586 -0.267828,0.69387 -0.310873,0.768025 -0.06696,0.111231 -0.08609,0.111231 -0.148262,0 -0.03826,-0.07415 -0.110001,-0.455516 -0.157827,-0.852775 -0.04783,-0.397253 -0.138698,-0.98519 -0.200873,-1.313586 -0.06217,-0.328403 -0.143478,-0.746841 -0.18174,-0.932226 -0.03347,-0.190684 -0.181741,-0.667389 -0.330002,-1.064648 -0.14348,-0.397253 -0.310874,-0.826292 -0.368266,-0.95341 -0.05739,-0.132422 -0.124348,-0.238356 -0.148261,-0.233058 -0.01913,0 -0.129132,0.164201 -0.239133,0.360176 z"
       id="path3055"
       inkscape:connector-curvature="0"
       style="fill:#d5b048" />
    <g
       transform="matrix(0.4911891,0,0,0.4911891,6.9597974,-1.8571518)"
       style="fill:#d6b249;fill-opacity:1"
       id="g3911">
      <rect
         style="fill:#d6b249;fill-opacity:1;stroke:none"
         id="rect3120"
         width="112.17572"
         height="27.540588"
         x="8.3027325"
         y="75.727356" />
      <path
         style="fill:#d6b249;fill-opacity:1"
         inkscape:connector-curvature="0"
         id="path3039"
         d="m 22.255525,71.195391 0.01932,4.384994 -13.8310813,0.07727 c 0.00966,9.117696 0.057951,11.851073 0.1255615,11.957317 0.077269,0.144879 1.0914192,0.193172 4.2401148,0.193172 l 4.133871,0 -0.07727,3.100403 -8.4126197,0.07727 c -0.00966,9.880723 0.048293,11.995953 0.1448787,12.015263 0.086927,0.01 2.829963,0.029 6.10422,0.0483 3.274258,0.0193 6.316709,0.0483 6.761004,0.058 l 0.81132,0.029 c 0,60.1343 0.04829,71.32859 0.173854,72.70977 0.09659,1.08176 0.338051,2.63679 0.540881,3.43845 0.20283,0.81132 0.637466,1.99932 0.965857,2.63679 0.328392,0.63747 0.782345,1.43913 1.014151,1.77718 0.222147,0.33805 0.87893,1.13971 1.448786,1.76752 0.569856,0.6278 1.593665,1.56469 2.269766,2.07659 0.6761,0.51191 1.864105,1.22664 2.627132,1.59367 0.840297,0.40566 2.057277,0.82098 3.090745,1.06244 0.936882,0.21249 2.569181,0.46361 3.631625,0.55054 1.062443,0.0773 4.056602,0.21249 6.6451,0.29941 3.361185,0.10625 5.176997,0.23181 6.336026,0.43464 0.888589,0.1642 2.424303,0.55054 3.399819,0.86927 1.004492,0.31874 2.395327,0.91757 3.196989,1.37152 0.792003,0.44429 1.999325,1.26527 2.694742,1.81581 0.695418,0.55054 1.680593,1.49708 2.182839,2.08626 0.502246,0.59883 1.130053,1.48742 1.400493,1.98 0.27044,0.48293 0.540881,0.88859 0.608491,0.88859 0.06761,0 0.115903,-0.0676 0.115903,-0.15454 0,-0.0869 0.40566,-0.76302 0.907906,-1.50673 0.579514,-0.87893 1.390835,-1.80616 2.279424,-2.60782 0.753369,-0.68576 1.999325,-1.6323 2.762353,-2.10557 0.763027,-0.46361 2.124886,-1.13971 3.013475,-1.48742 0.888589,-0.34771 2.318059,-0.77269 3.168013,-0.93688 0.849955,-0.17386 2.134546,-0.38634 2.858939,-0.48293 0.724393,-0.0869 3.11972,-0.19317 5.331534,-0.24146 2.211814,-0.0386 4.578165,-0.11591 5.254266,-0.15454 0.6761,-0.0483 1.893081,-0.18351 2.704401,-0.29942 0.81132,-0.12556 2.124887,-0.44429 2.936207,-0.71473 0.811321,-0.27044 1.709568,-0.60849 2.008984,-0.76303 0.299416,-0.15454 1.101078,-0.63747 1.777178,-1.09142 0.676097,-0.44429 1.728887,-1.31356 2.327717,-1.9124 0.59883,-0.60849 1.44878,-1.62264 1.87376,-2.2601 0.42498,-0.63747 0.87893,-1.37152 1.00449,-1.62264 0.12557,-0.26079 0.4443,-1.09142 0.71474,-1.85445 0.26078,-0.77269 0.55054,-1.85445 0.64712,-2.40499 0.0966,-0.55054 0.23181,-2.01864 0.28976,-3.24528 0.058,-1.2363 0.10624,-17.82973 0.10624,-36.87644 -0.01,-34.50044 -0.01,-34.626 0.29942,-34.69361 0.17385,-0.0386 3.19699,-0.0483 6.72237,-0.029 3.52538,0.0193 6.4809,0.01 6.56783,-0.0193 0.0966,-0.0386 0.14488,-2.17318 0.1159,-6.084901 l -0.0386,-6.03661 -8.34501,0 0,-3.100403 c 6.17183,0 8.04559,-0.05795 8.14218,-0.115903 0.13522,-0.08693 0.19317,-1.661276 0.21249,-6.075245 l 0.029,-5.959341 -13.71517,-0.07727 c 0.0386,-5.341193 0.0193,-7.301884 -0.029,-7.813788 l -0.0773,-0.927224 -84.242099,-0.03863 0.02898,4.394652 z"
         class="shp0" />
    </g>
    <path
       class="shp1"
       d="m 32.286271,30.987852 c 0.14707,0.01898 0.403256,0.01898 0.569303,0 0.166046,-0.01424 0.04744,-0.02846 -0.265675,-0.02846 -0.313116,0 -0.450698,0.01423 -0.303628,0.02846 z m 27.122521,2.149118 c 0,0.31786 0.01426,0.450698 0.03318,0.308372 0.01426,-0.14707 0.01426,-0.403256 0,-0.574047 -0.01897,-0.166046 -0.03318,-0.04744 -0.03318,0.265675 z m -48.200946,3.463256 c 0.0048,0.332093 0.01423,0.450698 0.03321,0.265675 0.01423,-0.189768 0.01423,-0.46493 0,-0.607256 -0.01897,-0.14707 -0.03321,0.0048 -0.03321,0.341581 z"
       id="path3041"
       inkscape:connector-curvature="0"
       style="fill:#fffffe" />
    <path
       class="shp2"
       d="m 12.740219,36.685622 c -0.03321,0.02847 -0.05693,0.782791 -0.05219,1.674698 l 0.01424,1.622512 52.076946,-0.03795 c 0.02852,-2.851257 0.0095,-3.24028 -0.06168,-3.268745 -0.05221,-0.02372 -11.756093,-0.03795 -26.002888,-0.03795 -14.251539,0 -25.941217,0.01897 -25.974426,0.04744 z"
       id="path3043"
       inkscape:connector-curvature="0"
       style="fill:#ffffff" />
    <path
       class="shp2"
       d="m 12.740219,44.214648 c -0.03321,0.02846 -0.05693,0.778046 -0.05219,1.669954 l 0.01424,1.622511 52.072196,0 c 0.03318,-2.623535 0.0095,-3.249768 -0.03795,-3.287722 -0.04266,-0.02847 -11.741862,-0.05219 -26.002889,-0.05693 -14.261028,0 -25.960194,0.02372 -25.993404,0.05219 z"
       id="path3047"
       inkscape:connector-curvature="0"
       style="fill:#ffffff" />
    <path
       class="shp1"
       d="m 11.207846,45.723299 c 0.0048,0.332093 0.01423,0.450698 0.03321,0.265674 0.01423,-0.189767 0.01423,-0.46493 0,-0.607256 -0.01897,-0.147069 -0.03321,0.0048 -0.03321,0.341582 z m 54.961412,1.100652 c 0,0.355813 0.0095,0.493395 0.02846,0.303627 0.01426,-0.185023 0.01426,-0.479163 0,-0.645209 -0.01897,-0.166047 -0.02846,-0.01424 -0.02846,0.341582 z M 11.21259,48.043206 c 0,0.351072 0.0095,0.48865 0.02847,0.303629 0.01423,-0.189766 0.01423,-0.479165 0,-0.649957 -0.01898,-0.166046 -0.02847,-0.0095 -0.02847,0.346328 z m 0.692652,0.73535 c 0.123349,0.01896 0.365302,0.01896 0.531349,0 0.166046,-0.01425 0.06642,-0.02844 -0.227721,-0.02844 -0.29414,0 -0.426977,0.01424 -0.303628,0.02844 z m 2.239257,0 c 0.189767,0.01896 0.460185,0.01896 0.607256,0 0.147069,-0.01425 -0.0095,-0.02844 -0.341582,-0.02844 -0.332093,0 -0.455442,0.01424 -0.265674,0.02844 z m 2.277209,0 c 0.189767,0.01896 0.460186,0.01896 0.607256,0 0.14707,-0.01425 -0.0095,-0.02844 -0.341581,-0.02844 -0.332093,0 -0.455442,0.01424 -0.265675,0.02844 z m 45.5442,0 c 0.189768,0.01896 0.460182,0.01896 0.607257,0 0.147069,-0.01425 -0.0095,-0.02844 -0.341586,-0.02844 -0.332093,0 -0.455438,0.01424 -0.265671,0.02844 z m 2.277209,0 c 0.189767,0.01896 0.460187,0.01896 0.607256,0 0.14707,-0.01425 -0.0095,-0.02844 -0.34158,-0.02844 -0.332093,0 -0.455444,0.01424 -0.265676,0.02844 z"
       id="path3049"
       inkscape:connector-curvature="0"
       style="fill:#fffffe" />
    <path
       class="shp1"
       d="m 59.408792,51.38786 c 0,0.313113 0.01426,0.450696 0.03318,0.303629 0.01426,-0.147072 0.01426,-0.403257 0,-0.569304 -0.01897,-0.170791 -0.03318,-0.04745 -0.03318,0.265675 z"
       id="path3053"
       inkscape:connector-curvature="0"
       style="fill:#fffffe" />
    <path
       class="shp1"
       d="m 59.408792,58.266929 c 0.0049,0.332093 0.01426,0.455445 0.03318,0.265675 0.01426,-0.189767 0.01426,-0.460186 0,-0.607253 -0.01897,-0.147072 -0.03318,0.0049 -0.03318,0.341578 z"
       id="path3057"
       inkscape:connector-curvature="0"
       style="fill:#fffffe" />
    <g
       transform="matrix(0.4911891,0,0,0.4911891,7.0745955,-1.8571518)"
       style="fill:#ffffff"
       id="g3898">
      <path
         style="fill:#ffffff"
         inkscape:connector-curvature="0"
         id="path3051"
         d="m 40.046622,105.8407 c 0,0.12557 0.386343,0.98518 0.859614,1.90274 0.47327,0.90791 1.188005,2.11523 1.584006,2.66577 0.396002,0.55054 0.927224,1.2363 1.178347,1.52606 0.260781,0.28975 0.87893,0.91756 1.371517,1.39083 0.502246,0.48293 1.303908,1.16869 1.777178,1.52606 0.482929,0.35736 1.400494,0.9079 2.03796,1.22664 0.637466,0.30907 1.641958,0.73405 2.24079,0.93688 0.598831,0.20283 1.883422,0.56985 2.858938,0.82098 0.975516,0.25112 2.404986,0.56019 3.168013,0.68576 0.763028,0.13522 1.670934,0.24146 2.008984,0.25112 0.33805,0 0.705076,0.0483 0.811321,0.1159 0.144878,0.0869 0.183513,4.86792 0.154537,22.37892 l -0.03863,22.26302 c -2.511229,0.89825 -3.554356,1.31357 -3.940699,1.5164 -0.386343,0.19317 -1.043126,0.60849 -1.468103,0.92722 -0.424978,0.30907 -0.975516,0.81132 -1.216981,1.10108 -0.251123,0.28976 -0.579514,0.80166 -0.734052,1.14937 -0.154537,0.33805 -0.280098,0.87893 -0.289757,1.19766 0,0.41532 0.106244,0.68576 0.386343,0.96586 0.318733,0.31873 0.482929,0.36703 0.965858,0.28976 0.318733,-0.0483 1.062443,-0.34771 1.641958,-0.65679 0.589173,-0.30907 1.21698,-0.64712 1.390835,-0.75336 0.183513,-0.10625 0.74371,-0.26079 1.255615,-0.34771 0.511904,-0.0869 1.448786,-0.15454 2.086252,-0.15454 0.637466,-0.01 1.680592,0.12556 2.318058,0.28976 0.637466,0.15453 1.545373,0.48293 2.008984,0.71473 0.560198,0.2801 1.352201,0.94654 2.318059,1.93172 1.120394,1.13971 1.728885,1.6323 2.588498,2.06693 0.618149,0.30908 1.661275,0.70508 2.318058,0.86927 0.801662,0.21249 1.709568,0.30908 2.743036,0.30908 0.849955,0 1.893081,-0.0869 2.318058,-0.20283 0.424978,-0.11591 1.081761,-0.36703 1.468104,-0.5602 0.386343,-0.20283 1.043126,-0.61815 1.468104,-0.93688 0.424977,-0.30908 0.965857,-0.8403 1.207322,-1.16869 0.280098,-0.396 0.444294,-0.83064 0.463611,-1.24596 0.01932,-0.3477 -0.07727,-0.82097 -0.20283,-1.06244 -0.125561,-0.2318 -0.424977,-0.52156 -0.656783,-0.63747 -0.231806,-0.1159 -0.637466,-0.21248 -0.888589,-0.21248 -0.251123,0 -1.110736,0.18351 -1.893081,0.40566 -1.033468,0.28975 -1.641958,0.38634 -2.202155,0.32839 -0.424978,-0.0483 -1.188005,-0.28976 -1.69991,-0.55054 -0.511904,-0.25112 -1.796495,-1.11074 -2.858938,-1.89308 -1.081761,-0.80166 -2.540206,-1.72889 -3.322551,-2.09591 -0.763027,-0.35737 -1.864105,-0.80166 -2.433961,-0.98518 l -1.043126,-0.31873 0,-22.60107 6.181489,0 0,6.19115 4.481579,0 0,-17.80076 -4.404311,0.0773 -0.07727,5.80481 -6.181489,0 -0.0097,-16.79627 c 1.381177,-0.31873 2.704402,-0.76303 3.834455,-1.17835 1.130053,-0.41531 2.588499,-0.88858 3.245282,-1.06244 0.656783,-0.16419 1.825471,-0.36702 2.588498,-0.45395 0.830638,-0.0773 1.893081,-0.0869 2.627133,0 0.6761,0.0773 1.651616,0.2801 2.163521,0.45395 0.511905,0.17386 1.274932,0.52156 1.699909,0.76303 0.424978,0.2318 1.332884,0.84995 2.008984,1.36186 0.676101,0.5119 1.893081,1.34254 2.704402,1.85444 0.81132,0.50225 1.854446,1.07211 2.318058,1.27494 0.463612,0.19317 1.197663,0.38634 1.622641,0.42497 0.482929,0.0483 0.975516,-0.01 1.313566,-0.15453 0.299416,-0.12556 0.734052,-0.4443 0.965858,-0.70508 0.231806,-0.27044 0.47327,-0.74371 0.521563,-1.06244 0.05795,-0.31874 0.05795,-1.38118 0.0097,-2.36635 -0.04829,-0.97552 -0.222147,-2.26977 -0.386343,-2.85894 -0.154537,-0.59883 -0.47327,-1.43913 -0.695417,-1.86411 -0.212489,-0.42497 -0.695418,-1.14937 -1.072102,-1.62264 -0.367026,-0.46361 -1.159029,-1.21698 -1.748202,-1.66127 -0.589173,-0.4443 -1.555031,-1.01415 -2.153863,-1.26528 -0.598832,-0.25112 -1.497079,-0.56985 -2.008984,-0.70507 -0.511904,-0.13522 -1.555031,-0.31874 -2.318058,-0.40566 -1.014151,-0.12556 -1.873764,-0.12556 -3.168013,0 -0.975516,0.0966 -2.163521,0.27044 -2.627133,0.37668 -0.463611,0.1159 -2.066935,0.59883 -3.554356,1.0721 -1.487421,0.47327 -3.438453,1.0045 -4.327042,1.17835 -0.888589,0.17385 -2.356693,0.396 -3.245282,0.48293 -0.888589,0.0869 -3.100403,0.15454 -4.906556,0.15454 -2.008984,0 -3.988992,-0.0869 -5.099729,-0.23181 -0.994833,-0.12556 -2.51123,-0.37668 -3.361184,-0.5602 -0.849955,-0.17385 -2.347034,-0.5602 -3.322551,-0.85961 -0.975516,-0.29942 -2.511229,-0.84996 -3.399818,-1.24596 -0.888589,-0.38634 -2.008984,-0.91756 -2.472596,-1.17834 -0.463612,-0.25113 -1.043126,-0.59884 -1.274932,-0.75337 -0.231806,-0.15454 -0.463612,-0.2801 -0.502246,-0.2801 -0.03863,0 -0.07727,0.10624 -0.07727,0.2318 z"
         class="shp3" />
      <path
         style="fill:#ffffff"
         inkscape:connector-curvature="0"
         id="path3059"
         d="m 41.224969,124.45278 c -0.03863,0.0676 -0.946541,2.90723 -2.028301,6.30705 -1.081761,3.40948 -2.066936,6.53886 -2.192497,6.97349 -0.125562,0.42498 -0.328392,1.08176 -0.463612,1.46811 -0.125561,0.37668 -1.120395,3.51572 -2.211814,6.96383 -1.091419,3.44811 -2.153862,6.78998 -2.356692,7.42745 -0.20283,0.63746 -0.502246,1.59366 -0.666442,2.12488 l -0.299416,0.96586 -3.168013,0.01 c 0,4.07592 0.04829,5.28324 0.115903,5.30256 0.06761,0.029 2.685084,0.01 5.824121,-0.0386 l 5.708219,-0.0773 -0.04829,-5.10938 c -4.008309,-0.0773 -4.027626,-0.0869 -3.950358,-0.42498 0.03863,-0.19317 0.299416,-1.31357 0.579515,-2.48225 l 0.502246,-2.12489 c 9.948334,0 11.213607,0.0386 11.2619,0.19317 0.03863,0.10624 0.299416,1.18801 0.579514,2.40499 0.289758,1.21698 0.492588,2.24079 0.453954,2.27942 -0.02898,0.0386 -0.956199,0.0773 -2.047619,0.0773 l -1.980008,0 0,5.09973 11.744829,0 0,-5.09973 c -3.341867,0 -3.399819,-0.0193 -3.467429,-0.34771 -0.03863,-0.19317 -1.361859,-5.05144 -2.936207,-10.79829 -1.574348,-5.74685 -3.090744,-11.25224 -3.351526,-12.22776 -0.27044,-0.98517 -0.753369,-2.72371 -1.072102,-3.87309 -0.318733,-1.14937 -0.74371,-2.68508 -0.927223,-3.39981 -0.193172,-0.7244 -0.424978,-1.41016 -0.521563,-1.5164 -0.115903,-0.14488 -0.608491,-0.20283 -1.584007,-0.19317 -0.782345,0 -1.458445,0.058 -1.497079,0.1159 z m 43.569837,0.0773 c -0.03863,0.10624 -0.396001,1.20732 -0.782344,2.44362 -0.396002,1.2363 -0.927224,2.90723 -1.188005,3.70889 -0.251123,0.81132 -0.656783,2.09591 -0.898248,2.8686 -0.241464,0.76303 -0.830637,2.64645 -1.303908,4.18216 -0.482928,1.52606 -1.265273,3.99865 -1.738543,5.48607 -0.463612,1.49708 -1.36186,4.31739 -1.989667,6.26842 -0.618149,1.96069 -1.390835,4.38499 -1.719227,5.38949 l -0.589173,1.82547 -3.168013,-0.01 0.07727,5.34119 c 0.898247,0 3.52538,-0.0193 6.413294,-0.0386 l 5.254266,-0.0386 0,-5.26392 c -3.110062,0 -4.046943,-0.0579 -4.075919,-0.1159 -0.02898,-0.0676 0.173854,-1.02381 0.453953,-2.13455 0.280099,-1.10108 0.511904,-2.16352 0.521563,-2.35669 0.0097,-0.24147 0.115903,-0.35737 0.357367,-0.38635 0.193172,-0.0193 2.743036,-0.01 5.669585,0.0386 l 5.331534,0.0773 c 0.74371,3.11972 1.004492,4.21114 1.062443,4.4526 l 0.106244,0.42498 -4.172504,0 0.07727,5.02246 11.744826,0 0.0773,-5.02246 -3.457769,-0.0773 c -1.410152,-5.04178 -2.153862,-7.72686 -2.569181,-9.21428 -0.415319,-1.48742 -0.888589,-3.22597 -1.062443,-3.87309 -0.164196,-0.63747 -0.830638,-3.07143 -1.477763,-5.4088 -0.637466,-2.34704 -1.3522,-4.92588 -1.574348,-5.72754 -0.212488,-0.81132 -0.637466,-2.34703 -0.927223,-3.40948 -0.289757,-1.06244 -0.627807,-2.27942 -0.753369,-2.7044 -0.115903,-0.42498 -0.280099,-1.02381 -0.347709,-1.32322 l -0.13522,-0.54088 c -2.743035,-0.0773 -3.168013,-0.0386 -3.216306,0.1159 z"
         class="shp3" />
    </g>
    <path
       class="shp1"
       d="m 59.408792,60.510929 c 0,0.313119 0.01426,0.450695 0.03318,0.303632 0.01426,-0.147075 0.01426,-0.403259 0,-0.569303 -0.01897,-0.170792 -0.03318,-0.04744 -0.03318,0.265671 z"
       id="path3061"
       inkscape:connector-curvature="0"
       style="fill:#fffffe" />
    <path
       class="shp0"
       d="m 49.412788,63.381164 c -0.01897,0.02846 -0.104373,0.294138 -0.185024,0.588276 -0.08539,0.294144 -0.327349,1.114892 -0.540837,1.826514 -0.213488,0.706884 -0.474419,1.565581 -0.574047,1.897674 -0.09963,0.336836 -0.317861,1.062706 -0.488651,1.617772 -0.170791,0.550322 -0.308372,1.02474 -0.308372,1.04372 0,0.01897 0.887163,0.03795 1.973582,0.03795 1.086419,0 1.973582,-0.02374 1.973582,-0.05693 0.0048,-0.03318 -0.374791,-1.62251 -0.839721,-3.53442 -0.464931,-1.911905 -0.872931,-3.477485 -0.910884,-3.477485 -0.03321,0 -0.08065,0.02374 -0.09963,0.05693 z m -21.476937,0.147069 c -0.02372,0.07591 -0.151814,0.498137 -0.279907,0.934606 -0.132837,0.441207 -0.336837,1.124373 -0.460186,1.522888 -0.118605,0.393766 -0.460187,1.522883 -0.749582,2.504925 -0.29414,0.986791 -0.536093,1.812283 -0.536093,1.845488 0,0.03323 0.887163,0.05693 1.973582,0.05693 l 1.973582,0 c -0.06168,-0.3226 -0.445954,-1.888181 -0.896651,-3.681483 -0.445954,-1.793303 -0.84921,-3.273493 -0.896652,-3.292468 -0.0427,-0.01426 -0.104372,0.03318 -0.128093,0.109115 z"
       id="path3063"
       inkscape:connector-curvature="0"
       style="fill:#d6b249;fill-opacity:1" />
    <path
       class="shp1"
       d="m 59.408792,67.390008 c 0.0049,0.336831 0.01426,0.455438 0.03318,0.265671 0.01426,-0.189768 0.01426,-0.460188 0,-0.607257 -0.01897,-0.147069 -0.03318,0.0095 -0.03318,0.341586 z m 0,2.243997 c 0,0.313119 0.01426,0.4507 0.03318,0.303626 0.01426,-0.147069 0.01426,-0.403259 0,-0.569302 -0.01897,-0.170793 -0.03318,-0.04744 -0.03318,0.265676 z m 0,6.879073 c 0.0049,0.336837 0.01426,0.455438 0.03318,0.265671 0.01426,-0.185024 0.01426,-0.460182 0,-0.607257 -0.01897,-0.147069 -0.03318,0.0095 -0.03318,0.341586 z m 0,2.243998 c 0,0.313118 0.01426,0.4507 0.03318,0.303625 0.01426,-0.147064 0.01426,-0.403253 0,-0.569302 -0.01897,-0.166044 -0.03318,-0.04744 -0.03318,0.265677 z"
       id="path3065"
       inkscape:connector-curvature="0"
       style="fill:#fffffe" />
    <path
       sodipodi:nodetypes="ccccccccccccccccccsccsscsssscsscscsccccccccccccc"
       class="shp0"
       d="m 38.452997,9.0995704 c -0.05548,0.116504 -0.238558,0.6324562 -0.410542,1.1428596 -0.177531,0.515951 -0.421638,1.253816 -0.54369,1.647715 -0.127601,0.38835 -0.271847,0.848823 -0.316229,1.020807 -0.04993,0.171985 -0.249654,0.771153 -0.449377,1.337035 -0.194176,0.560334 -0.404994,1.048548 -0.471568,1.087381 -0.06103,0.03884 -1.575593,0.06103 -3.367554,0.04438 -1.786412,-0.01109 -3.278787,0 -3.306527,0.02219 -0.03328,0.02219 0.294037,0.305132 0.721223,0.626908 0.432733,0.327324 0.981973,0.72677 1.220531,0.893207 0.244105,0.166436 0.504854,0.349515 0.576976,0.410541 0.07766,0.06103 0.416091,0.310681 0.760058,0.565882 0.343967,0.249654 0.821083,0.588074 1.06519,0.748961 0.244105,0.166436 0.593622,0.432734 0.776701,0.593622 l 0.33842,0.294036 c -0.26075,0.760059 -0.549238,1.636621 -0.804442,2.446609 -0.260749,0.804439 -0.504855,1.547854 -0.54369,1.642168 -0.04438,0.09986 -0.216366,0.6491 -0.38835,1.226077 -0.171984,0.57143 -0.31068,1.081834 -0.31068,1.131765 0,0.04993 0.127601,-0.0056 0.288488,-0.1276 0.160888,-0.116507 0.532595,-0.388352 0.837727,-0.599171 0.299585,-0.210819 0.859921,-0.610265 1.242723,-0.88211 0.382802,-0.271845 0.754509,-0.554786 0.826631,-0.626908 0.07213,-0.07213 0.393898,-0.305133 0.710126,-0.5215 0.316228,-0.210817 0.787798,-0.560335 1.042999,-0.771153 0.255202,-0.21082 0.527047,-0.382802 0.59917,-0.382802 0.07212,0 0.305132,0.144244 0.510403,0.321776 0.205271,0.177531 0.454925,0.36061 0.554786,0.410543 0.09986,0.04992 0.199723,0.116504 0.221914,0.149792 0.02219,0.02774 0.266298,0.216365 0.532595,0.416089 0.266299,0.199723 0.787798,0.57143 1.153956,0.821084 0.36616,0.249653 0.743414,0.527047 0.843276,0.615812 0.09986,0.09431 0.355063,0.277393 0.576978,0.41609 0.221913,0.138697 0.57143,0.382804 0.776701,0.54924 0.305133,0.244105 0.377255,0.271844 0.377255,0.144244 0,-0.08321 -0.199724,-0.776702 -0.44383,-1.531211 -0.244106,-0.760054 -0.643552,-2.002775 -0.887658,-2.757285 -0.244106,-0.760058 -0.504855,-1.547853 -0.576978,-1.758672 l -0.133148,-0.377254 c 0.721222,-0.527049 1.753124,-1.27601 2.75174,-1.997232 0.998615,-0.72677 2.036066,-1.481281 2.302363,-1.681004 l 0.482665,-0.366161 c -0.610265,-0.03328 -2.147024,-0.05548 -3.800287,-0.06657 l -3.018038,-0.0222 C 40.605568,15.01359 40.389202,14.39223 40.189478,13.754225 39.989755,13.121769 39.56257,11.801376 39.240794,10.824953 38.919018,9.8429804 38.630528,9.0108012 38.60279,8.9608701 38.56951,8.9164881 38.50293,8.9775171 38.452997,9.0995672 z"
       id="path3035-1"
       inkscape:connector-curvature="0"
       style="fill:#d5b048" />
    <g
       transform="translate(0.22911807,0)"
       id="g3136">
      <path
         style="fill:#d5b048"
         inkscape:connector-curvature="0"
         id="path3035-1-5"
         d="m 23.466504,15.401651 c -0.04659,0.09784 -0.200328,0.531106 -0.344753,0.959716 -0.149081,0.433271 -0.35407,1.052894 -0.456564,1.38367 -0.107151,0.326117 -0.228282,0.712799 -0.265552,0.857222 -0.04194,0.144424 -0.209647,0.647576 -0.377365,1.122776 -0.163058,0.470541 -0.340093,0.880516 -0.395999,0.913129 -0.05125,0.03261 -1.323105,0.05125 -2.827904,0.03727 -1.500139,-0.0093 -2.753361,0 -2.776655,0.01863 -0.02795,0.01864 0.246917,0.256236 0.605647,0.526447 0.363387,0.274869 0.82461,0.610305 1.024939,0.75007 0.204988,0.139764 0.423953,0.293506 0.484517,0.344752 0.06523,0.05125 0.349412,0.260894 0.638258,0.4752 0.288848,0.209647 0.689506,0.493835 0.894493,0.628941 0.204988,0.139764 0.498494,0.363387 0.652235,0.498493 l 0.284189,0.246917 c -0.218966,0.638258 -0.461224,1.374352 -0.67553,2.054538 -0.218965,0.675529 -0.423952,1.299812 -0.456564,1.379011 -0.03727,0.08386 -0.181694,0.545082 -0.326118,1.029599 -0.144422,0.479858 -0.260893,0.90847 -0.260893,0.950399 0,0.04194 0.107151,-0.0047 0.242259,-0.107151 0.135105,-0.09784 0.447246,-0.326117 0.703481,-0.503153 0.251577,-0.177034 0.722118,-0.51247 1.043576,-0.740751 0.321458,-0.228283 0.6336,-0.465882 0.694163,-0.526447 0.06056,-0.06056 0.330777,-0.256235 0.59633,-0.437928 0.265552,-0.177036 0.661551,-0.470541 0.875857,-0.647576 0.214307,-0.177036 0.442589,-0.321459 0.503152,-0.321459 0.06056,0 0.256235,0.12113 0.428612,0.270212 0.172377,0.149081 0.382024,0.302823 0.465882,0.344752 0.08386,0.04194 0.167718,0.09784 0.186352,0.125789 0.01863,0.02329 0.223624,0.181694 0.447248,0.349411 0.223623,0.167717 0.661551,0.479858 0.969033,0.689505 0.307483,0.209647 0.624282,0.442587 0.708142,0.517129 0.08386,0.0792 0.298163,0.232941 0.484516,0.349411 0.186353,0.11647 0.479858,0.321459 0.652235,0.461223 0.256235,0.204988 0.316799,0.228282 0.316799,0.12113 0,-0.06989 -0.167718,-0.652235 -0.372705,-1.285834 C 27.626829,27.598435 27.291394,26.55486 27.086406,25.92126 26.881418,25.283005 26.662453,24.621452 26.601889,24.444418 L 26.490077,24.12762 c 0.605647,-0.442588 1.472187,-1.071529 2.310775,-1.677176 0.838585,-0.610305 1.709785,-1.243904 1.933408,-1.411623 l 0.405318,-0.307481 c -0.51247,-0.02795 -1.802962,-0.04659 -3.191291,-0.05591 L 25.41389,20.65679 c -0.139765,-0.288843 -0.321458,-0.810631 -0.489176,-1.346395 -0.167718,-0.531105 -0.526446,-1.639904 -0.796658,-2.459856 -0.270211,-0.824611 -0.51247,-1.523434 -0.535765,-1.565363 -0.02795,-0.03727 -0.08386,0.01399 -0.125787,0.11647 z"
         class="shp0"
         sodipodi:nodetypes="ccccccccccccccccccsccsscsssscsscscsccccccccccccc" />
      <path
         style="fill:#d5b048"
         inkscape:connector-curvature="0"
         id="path3035-1-5-5"
         d="m 53.024444,15.401861 c -0.04659,0.09784 -0.200328,0.531106 -0.344753,0.959716 -0.149081,0.433271 -0.35407,1.052894 -0.456564,1.38367 -0.107151,0.326117 -0.228282,0.712799 -0.265552,0.857222 -0.04194,0.144424 -0.209647,0.647576 -0.377365,1.122776 -0.163058,0.470541 -0.340093,0.880516 -0.395999,0.913129 -0.05125,0.03261 -1.323105,0.05125 -2.827904,0.03727 -1.500139,-0.0093 -2.753361,0 -2.776655,0.01863 -0.02795,0.01864 0.246917,0.256236 0.605647,0.526447 0.363387,0.274869 0.82461,0.610305 1.024939,0.75007 0.204988,0.139764 0.423953,0.293506 0.484517,0.344752 0.06523,0.05125 0.349412,0.260894 0.638258,0.4752 0.288848,0.209647 0.689506,0.493835 0.894493,0.628941 0.204988,0.139764 0.498494,0.363387 0.652235,0.498493 l 0.284189,0.246917 c -0.218966,0.638258 -0.461224,1.374352 -0.67553,2.054538 -0.218965,0.675529 -0.423952,1.299812 -0.456564,1.379011 -0.03727,0.08386 -0.181694,0.545082 -0.326118,1.029599 -0.144422,0.479858 -0.260893,0.90847 -0.260893,0.950399 0,0.04194 0.107151,-0.0047 0.242259,-0.107151 0.135105,-0.09784 0.447246,-0.326117 0.703481,-0.503153 0.251577,-0.177034 0.722118,-0.51247 1.043576,-0.740751 0.321458,-0.228283 0.6336,-0.465882 0.694163,-0.526447 0.06056,-0.06056 0.330777,-0.256235 0.59633,-0.437928 0.265552,-0.177036 0.661551,-0.470541 0.875857,-0.647576 0.214307,-0.177036 0.442589,-0.321459 0.503152,-0.321459 0.06056,0 0.256235,0.12113 0.428612,0.270212 0.172377,0.149081 0.382024,0.302823 0.465882,0.344752 0.08386,0.04194 0.167718,0.09784 0.186352,0.125789 0.01863,0.02329 0.223624,0.181694 0.447248,0.349411 0.223623,0.167717 0.661551,0.479858 0.969033,0.689505 0.307483,0.209647 0.624282,0.442587 0.708142,0.517129 0.08386,0.0792 0.298163,0.232941 0.484516,0.349411 0.186353,0.11647 0.479858,0.321459 0.652235,0.461223 0.256235,0.204988 0.316799,0.228282 0.316799,0.12113 0,-0.06989 -0.167718,-0.652235 -0.372705,-1.285834 C 57.184769,27.598645 56.849334,26.55507 56.644346,25.92147 56.439358,25.283215 56.220393,24.621662 56.159829,24.444628 L 56.048017,24.12783 c 0.605647,-0.442588 1.472187,-1.071529 2.310775,-1.677176 0.838585,-0.610305 1.709785,-1.243904 1.933408,-1.411623 L 60.697518,20.73155 C 60.185048,20.7036 58.894556,20.68496 57.506227,20.67564 L 54.97183,20.657 c -0.139765,-0.288843 -0.321458,-0.810631 -0.489176,-1.346395 -0.167718,-0.531105 -0.526446,-1.639904 -0.796658,-2.459856 -0.270211,-0.824611 -0.51247,-1.523434 -0.535765,-1.565363 -0.02795,-0.03727 -0.08386,0.01399 -0.125787,0.11647 z"
         class="shp0"
         sodipodi:nodetypes="ccccccccccccccccccsccsscsssscsscscsccccccccccccc" />
    </g>
  </g>
</svg>
