<svg height="384.546028" viewBox="0 0 771.74 1141.64" width="260.046894" xmlns="http://www.w3.org/2000/svg" xmlns:xlink="http://www.w3.org/1999/xlink"><clipPath id="a"><path d="m0 0h771.738281v1141.640625h-771.738281zm0 0"/></clipPath><g clip-path="url(#a)"><path d="m.25.238281h771.230469v711.105469c0 70.566406.09375 120.863281-26.597656 188.191406-56.003907 141.273438-194.242188 241.855469-354.828125 241.855469h-8.375c-160.632813 0-298.902344-100.636719-354.878907-241.972656-26.8085935-67.695313-26.550781-119.054688-26.550781-188.789063" fill="#ffe800" fill-rule="evenodd"/><path d="m2.5 11414.017187h7712.304688v-7111.054687c0-705.664063.9375-1208.632813-265.976563-1881.914063-560.039062-1412.734375-1942.421875-2418.554687-3548.28125-2418.554687h-83.75c-1606.328125 0-2989.023437 1006.367187-3548.789062 2419.726562-268.085938 676.953125-265.507813 1190.546875-265.507813 1887.890625zm0 0" fill="none" stroke="#ffec00" stroke-miterlimit="22.926" stroke-width="5" transform="matrix(.1 0 0 -.1 0 1141.64)"/></g><g fill-rule="evenodd"><path d="m31.890625 31.890625v678.738281c0 65.40625-.261719 115.046875 24.328125 177.140625 52.683594 133.027344 181.8125 221.976563 325.460938 221.976563h8.371093c143.605469 0 272.707032-88.898438 325.421875-221.871094 24.460938-61.703125 24.367188-111.523437 24.367188-176.53125v-679.453125" fill="#e20613"/><path d="m188.363281 866.109375c.789063-4.742187-.59375-9.277344.171875-13.007812 7.851563-38.308594-9.4375-30.261719-10.457031-52.738282-16.652344 17.414063-20.507812 44.917969-5.261719 57.273438-.574218-7.996094-3.085937-14.246094 1.683594-21.226563 2.71875 12.554688 6.179688 24.015625 13.863281 29.699219" fill="#ffe800"/><path d="m203.25 801.464844c-20.378906 31.136719-20.175781 51.007812-1.488281 59.714844-3.925781-13.351563-4.386719-20.792969-1.863281-27.0625 4.386718 13.34375 8.277343 22.28125 13.65625 24.457031 9.332031-22.34375-6.976563-36.179688-10.304688-57.109375" fill="#ffe800"/><path d="m229.039063 800.628906c-18.929688 22.554688-20.6875 35.9375-7.46875 49.0625-1.824219-12.605468-.925782-16.859375 2.175781-22.214843 2.238281 12.660156 2.367187 21.636718 6.957031 24.308593 6.398438-10.421875 8.53125-20.242187 7.070313-27.503906-1.757813-8.75-8.011719-14.585937-8.734375-23.652344" fill="#ffe800"/><path d="m423.15625 818.28125c1.886719 2.617188 3.542969 4.273438 5.980469 4.691406 2.828125.488282 6.035156-.957031 7.847656-5.320312-5.4375-3.777344-10.457031-2.898438-13.828125.628906m-245.15625 42.566406c28.683594 66.976563 71.859375 122.023438 170.515625 121.523438-3.328125 8.898437-9.941406 13.269531-17.667969 17.765625 6.222657 6.925781 28.148438-1.851563 52.386719-12.941406.730469 5.503906-9.890625 12.691406-17.742187 20.066406 15.566406.503906 36.378906-8.195313 51.207031-18.730469-2.464844 5.753906-9.980469 11.859375-13.945313 17.441406 39.738282-6.269531 69.855469-28.714843 80.472657-70.992187 26.566406 7.429687 54.082031 11.207031 65.265625 4.316406-9.949219-3.46875-22.59375-7.714844-28.308594-16.480469 29.308594 2.527344 49.707031-1.578125 58.222656-8.78125-17.859375-2.765625-38.082031-5.628906-48.398437-14.609375 34.832031 2.160157 57.542968-7.539062 71.578125-25.730468-23.429688 6.058593-44.730469 8.820312-60.347657 2.808593 53.480469-15.460937 72.921875-44.4375 78.125-79.066406-21.953125 27.578125-47.808593 47.140625-80.421875 44.171875 2.953125 12.902344-.847656 23.296875-12.207031 30.214844-1.09375 9.519531-5.402344 15.660156-13.097656 18.246094 5.335937-5.789063 8.140625-11.9375 6.546875-18.714844 24.914062-15.125 15.367187-32.761719 3.582031-35.875-22.691406-6-27.464844 16.628906-29.503906 28.167969-2.378906 13.4375-7.191406 25.796875-9.308594 31.53125-1.652344 2.375-5.667969 3.015625-7.253906 1.550781-5.664063-5.234375 6.046875-12.804688-28.097656-30.679688-10.667969-5.585937-29.648438-11.15625-27.65625-19.105468 10.40625 1.359375 15.300781-3.074219 17.707031-6.226563 6.703125 3.046875 19.453125 10.304688 24.746094-.015625-7.859375-.414062-15.4375-2.265625-15.925782-5.511719-.90625-6.046875 5.125-10.988281 11.019532-11.910156 4.558593-.710937 9.042968.984375 10.167968 6.441406 7.808594-11.886718 5.066407-23.171875-19.070312-17.070312 6.183594-5.488281 7.207031-15.285156-3.90625-19.816406-.835938-8.769532-5.570313-10.484375-15.136719-9.054688-5.121094-1.769531-8.960937-7.976562-16.152344 1.996094-3.582031-.351563-6.054687.433594-8.269531 2.804687-3.632812.742188-7.328125 1.339844-10.445312 3.242188 31.777343-5.402344 47.851562 1.371094 47.5 19.6875-17.996094-12.636719-34.832032 7.5625-52.804688 10.605469-6.761719 1.144531-12.34375-3.101563-17.34375-9.753907-2.769531 16.5 13.351563 22.375 29.769531 19.84375-4.3125 15.136719 7.210938 34.210938 26.6875 43.96875 12.277344 6.152344 19.246094 23.679688 1.828125 26.398438-9.015625 1.402344-13.105468-9.328125-17.5625-15.355469-10.847656-14.664062-22.636718-26.417969-41.46875-30.363281-9.890625 20.996094-21.96875 23.285156-35.554687 12.628906 9.085937 2.429688 18.34375 2.5625 23.65625-1.394531 5.363281-3.992188 7.925781-10.632813 7.105469-17.207031-2.148438-17.179688-18.195313-18.957032-32.054688-17.765625-9.578125.820312-18.835937 2.738281-27.332031 1.679687-25.320313-3.152344-45.839844-13.734375-60.597656-35.742187-.511719 35.449218 23.84375 56.527343 67.234375 57.332031-17.148438 7.207031-32.699219 6.46875-51.710938 2.480469 16.988281 15.285156 38.242188 25.679687 68.898438 26.984375-7.886719 4.394531-21.128907 5.25-32.628907 5.101562 24.34375 14.222656 45.417969 12.023438 67.839844 9.875.007813 5.765625-7.320312 9.660156-16.441406 10.140625.175781 12.480469 31.195312 2.132813 49.339844 7.667969 9.640625 2.941406 14.1875 12.179687 13.480468 23.328125-3.722656-7.539063-3.238281-9.929688-7.449218-15.074219-22.746094 10.085938-48.109375 7.867188-82.582032-18.433594-2.558593 8.367188 9.859375 16.449219 17.453125 20.910157-12.582031 1.429687-24.414062-3.890625-35.554687-15.4375 1.105469 10.148437 11.152344 19.042968 23.792969 24.867187-41.664063-5.910156-74.171875-37.246094-100.425782-87.707031 10.4375 48.351562 43.90625 79.414062 96.28125 97.925781-49.949218-3.363281-88.21875-34.21875-116.957031-87.484375 20.113281 61.019531 60.976563 92.585938 119.765625 98.710938-69.78125 3.175781-117.25-35.195313-150.84375-99.394532" fill="#ffe800"/><path d="m163.398438 766.695313c1.949218-7.320313 5.832031-10.351563 10.410156-11.855469 1.03125 9.578125 1.34375 13.003906 7.863281 12.6875 2.414063-4.667969 5.382813-12.9375 10.703125-12.34375-1.097656 7.574219 3.894531 12.65625 8.609375 12.480469 1.730469-18.1875 19.132813-20.777344 31.09375-18.472657 7.378906 1.417969 13.300781 4.917969 18.609375 8.523438 16.878906 11.457031 43.773438 16.613281 53.5-5.65625 1.335938-3.0625 1.882813-6.890625 2.421875-11.589844 1.265625-11.015625 4.667969-7.265625 4.871094.324219.128906 4.96875-.980469 11.773437-2.417969 18.066406 22.703125 5.300781 42.890625 3.644531 61.40625-2.605469 17.023438-5.742187 33.011719-26.757812 50.121094-44.105468 13.292969-13.484375 19.75-33.027344 29.863281-42.148438 5.167969-4.660156 11.777344-6.546875 19.660156-5.769531 11.175782 1.097656 14.726563 7.429687.914063 5.710937-17.851563-2.222656-33.867188 15.816407-23.9375 39.71875 2.195312 5.292969 40.589844 17.902344 35.527344 32.011719-4.195313 11.683594-38.9375-7.210937-58.832032-4.820312-13.039062 1.570312-21.246093 9.035156-23.210937 15.53125-2.144531 7.101562-1.550781 23.640625 5.773437 8.238281 1.546875-3.253906 4.226563-6.46875 5.539063-4.894531 2.058594 2.460937 3.648437 11.785156 6.367187 11.4375 2.714844-.347657 3.230469-5.117188 4.542969-7.804688 3.5-7.1875 6.707031-5.300781 8.40625 1.238281.929688 3.574219 1.726563 7.0625 4.195313 7.269532 2.503906-.648438 2.84375-7.359375 6.234375-11.128907 3.050781-3.394531 10.921875-3.089843 15.152343-3.082031 15.726563.035156 27.597657 14.613281 45.253907 5.589844 8.082031-4.128906 8.074218-21.613281-4.171875-37.410156 6.28125 1.550781 20.519531 13.898437 11.804687 38.753906 15.667969 7.472656 61.039063 11.449219 75.175781 2.417969 26.175782-16.722657 25.078125-46.011719 18.367188-64.214844-5.554688-15.066406-17.382813-29.449219-31.941406-42.960938-14.042969-13.039062-29.121094-20.234375-45.105469-26.367187-21.484375-8.242188-44.625-13.179688-69.148438-14.523438-27.074218-1.488281-54.691406-3.070312-54.277343-12.28125-2.636719-15.203125 21.5-22.410156 34.398437-14.980468 1.238281 6.011718 8.898438 12.539062 14.808594 13.300781 8.457031 1.089844 18.847656-2.941406 24.070312.53125-4.097656-15.335938-17.234375-27.378906-34.984375-22.648438 7.09375 3.605469 13.699219 2.515625 16.238282 8.695313-4.695313-3.199219-10.089844-4.917969-16.917969-3.707031-6.25-1.527344-11.824219-2.742188-17.085938-2.410157-7.09375.453125-15.082031 2.039063-21.027343 6.1875-17.386719 12.121094-8.503907 31.085938 16.101562 33.707032 8.101563.867187 16.203125.890625 20.527344 1.257812 5.410156.457031 11.007812.792969 16.53125 1.347656 13.269531 1.335938 25.152344 5.410157 35.5625 8.277344 29.621094 8.160156 54.777344 25.636719 71.503906 41.316406 30.703125 28.789063 19.917969 76.617188-25.914062 53.324219-6.691407-3.402344-9.832032-4.449219-17.179688-10.613281-3.230469-6.691406 3.914063-7.386719 8.972656-3.167969.273438-9.09375-9.074218-13.113281-18.363281-12.84375.199219-6.871094 4.144531-8.402344 11.636719-5.402344-.285156-9.128906-11.769531-11.625-25.773438-14.363281 1.773438-6.609375 9.882813-5.179687 15.007813-4.398437-3.496094-9.570313-18.667969-13.617188-32.742188-16.515625 5.496094-3.207032 12.914063-2.167969 19.835938-2.167969-17.679688-23.390625-51.28125-27.269531-81.402344-7.132813-4.386719 3.644532-9.328125 9.089844-14.425781 15.136719-8.046875 9.554688-16.484375 20.609375-23.710938 28.425781-13.042968 14.109375-27.023437 21.398438-39.78125 20.953125-.851562-9.835937 11.308594-14.335937 17.6875-19.441406-14.101562-2.722656-32.320312-3.226562-49.519531 6.242188-4.128906-5.792969 3.1875-13.179688 18.1875-16.929688-8.480469-5.816406-20.90625-8.074219-42.929687-2.636719 2.015625-7.414062 8.203125-8.148437 17.484375-12.113281-2.207032-9.355469-21.71875-2.417969-22.898438-15.449219-.488281-5.414062 4.445313-18.582031 10.898438-18.949218-3.925782 5.222656-5 9.195312-2.066407 13.433593 4.921875-9.691406 10.832032-9.773437 16.121094-10.226562 1.128906 6.277344-1.5625 15.882812 3.875 19.820312 3.121094-9.347656 10.765625-19.941406 23.496094-19.433593 2.679687 7.542968-.78125 9.925781-5.710938 14.980468 11.59375 5.589844 21.566407-12.152343 25.140625-10.710937.609375 4.96875-5.152343 7.726562-7.726562 11.589844 14.472656-2.199219 24.964844-5.875 22.835937-19.046875-6.453125 5.902343-14.707031-4.660157-29.875-2.492188-3.609375-5.238281 3.671875-11.414062 8.132813-10.703125 9.574219 4.902344 19.203125 11.203125 24.355469 3.042969 2.152343 1.414062.429687 5.25 1.214843 7.519531 4.1875-1.550781 4.714844-4.25 6.1875-10.183594 2.335938.828125 2.859375 5.242188 3.40625 7.75 5.105469-2.566406 11.71875-11.101562 1.261719-25.160156-4.96875.539063-8.464844 2.878906-8.273437 6.679688-5.011719-.15625-10.976563-.136719-15.988282-.296875 5.359375-12.859375-9.320312-12.585938-17.765625-20.738282-4.554687-4.394531-5.097656-11.644531-5.589843-18.5625-9.28125 6.8125-6.796875 30.335938 4.335937 32.125 2.089844.335938 4.574219.359375 7.519531.554688 2.984375.199219 5.5 2.007812 6.488282 7.105469-25.578125.765625-19.488282-14.773438-28.394532-26.90625-6.714843-9.15625-24.808593-13.984375-36.496093-8.660157-12.34375 5.625-20.085938 20.464844-26.167969 38.847657 9.847656-15.457032 18.253906-28.65625 27.765625-33.238282 15.421875-7.433593 28.113281 5.894532 28.367187 18.492188-4.273437 3.894531-11.078125 2.347656-21.851562-7.753906-2.0625 5.472656-2.792969 10.785156 1.410156 15.507812-61.761719 11.25-62.699219 88.832031-37.863281 120.757813 4.03125 5.179687 18.21875 13.230468 4.917969 14.3125-11.878907.960937-36.507813-10.550782-49.121094-11.039063-32.671875-1.269531-63.734375 11.820313-48.082031 33.835938" fill="#ffe800"/><path d="m238.757813 694.898438c1.996093 8.46875 3.996093 16.9375 5.996093 25.40625-7.183593 5.359375-21.644531 8.820312-29.863281 1.921875-10.914062-9.152344-5.871094-27.589844-4.757812-40.15625.566406-6.390625 1.007812-12.0625.710937-15.683594-1.101562-13.402344-12.742187-5.972656-12.199219-16.726563 6.570313.585938 9.253907-.660156 10.714844-4.425781-2.644531-4.628906-6.90625-2.253906-9.429687-7.144531 3.792968-3.410156 5.289062-3.773438 9.828125-4.195313-.5625-4.539062-.855469-7.039062-5.890625-8.59375 26.960937-4.664062 22.582031 21.898438 20.140625 42.742188-1.871094 15.960937-3.105469 33.710937 14.75 26.855469" fill="#ffe800"/><path d="m399.078125 663.835938c-7.789062 6.796875-15.226562 15.257812-21.804687 27.707031-.402344-3.429688-.808594-6.863281-1.210938-10.296875-3.078125 2.121094-6.15625 4.242187-9.234375 6.363281.097656-4.191406.199219-8.378906.300781-12.570312-2.222656 1.011718-4.441406 2.019531-6.660156 3.03125 1.566406-17.25 16.480469-15.808594 38.609375-14.234375" fill="#ffe800"/><path d="m383.28125 523.285156c142.925781 0 258.789063 116.15625 258.789063 259.441407 0 143.285156-115.863282 259.441406-258.789063 259.441406-142.921875 0-258.785156-116.15625-258.785156-259.441406 0-143.285157 115.863281-259.441407 258.785156-259.441407m1.097656-78.421875c169.992188 0 307.800782 137.515625 307.800782 307.148438 0 169.632812-137.808594 307.148437-307.800782 307.148437-169.996093 0-307.800781-137.515625-307.800781-307.148437 0-169.632813 137.804688-307.148438 307.800781-307.148438m171.726563 81.515625-11.949219 8.464844-11.707031-8.789062 4.359375 13.976562-11.976563 8.417969 14.640625.175781 4.304688 13.992188 4.6875-13.871094 14.640625.230469-11.742188-8.746094zm-76.085938-42.371093-10.195312 13.96875-16.417969-5.445313 10.132813 14.019531-10.25 13.929688 16.464843-5.304688 10.078125 14.054688.039063-17.300781 16.484375-5.242188-16.4375-5.382812zm-264.613281 42.371093 11.945313 8.464844 11.707031-8.789062-4.359375 13.976562 11.980469 8.417969-14.640625.171875-4.304688 13.996094-4.691406-13.871094-14.636719.230469 11.742188-8.746094zm76.082031-42.371093 10.199219 13.96875 16.417969-5.445313-10.136719 14.019531 10.253906 13.929688-16.464843-5.308594-10.082032 14.058594-.039062-17.300781-16.484375-5.242188 16.441406-5.382812zm93.871094-22.710938 6.203125 19.21875 20.195313-.039062-16.363282 11.835937 6.277344 19.195313-16.3125-11.902344-16.3125 11.902344 6.273438-19.195313-16.355469-11.835937 20.191406.039062" fill="#ffe800"/><path d="m283.238281 322.800781h77.339844v30.605469h-77.339844zm-14.875-13.476562h107.089844v57.558594h-107.089844zm0 0" fill="#fff"/><path d="m314.804688 406.933594h14.210937v-119.722656h-14.210937zm0 0" fill="#fff"/><path d="m407.832031 306.519531h82.179688v88.40625h-82.179688zm-13.265625-12.664062h108.710938v113.734375h-108.710938zm0 0" fill="#fff"/><path d="m412.820313 385.542969h71.296875v-11.683594h-71.296875zm0 0" fill="#fff"/><path d="m415.316406 327.898438h66.304688v-11.683594h-66.304688zm0 0" fill="#fff"/><path d="m442.628906 383.753906h11.683594v-66.308593h-11.683594zm0 0" fill="#fff"/><path d="m418.582031 354.691406h59.777344v-11.683593h-59.777344zm0 0" fill="#fff"/><path d="m468.75 355.101563 9.957031 10.355468-7.34375 7.0625-9.957031-10.355468zm0 0" fill="#fff"/><path d="m296.28125 83.730469h178.863281v36.390625h-143.683593l-.0625 34.378906h143.878906v35.792969h-143.941406l-.136719 73.652344h-34.917969" fill="#fff"/><path d="m549.535156 119.011719h107.382813v34.75h-107.382813zm-36.230468-37.300781h179.847656v181.0625h-35.96875v-73.265625h-107.910156v73.265625h-35.96875" fill="#fff"/><path d="m79.5 82.320313h179.359375v35.699218h-143.679687v109.730469h143.679687v35.695313h-179.359375" fill="#fff"/></g></svg>