<?xml version="1.0" encoding="UTF-8" standalone="no"?>
<!-- Created with Inkscape (http://www.inkscape.org/) -->

<svg
   width="345"
   height="600"
   viewBox="0 0 97.366662 169.33333"
   version="1.1"
   id="svg8"
   inkscape:version="1.2 (dc2aeda, 2022-05-15)"
   sodipodi:docname="Logo_EÌquipe_France_Football_Maillot_2018.svg"
   xml:space="preserve"
   xmlns:inkscape="http://www.inkscape.org/namespaces/inkscape"
   xmlns:sodipodi="http://sodipodi.sourceforge.net/DTD/sodipodi-0.dtd"
   xmlns="http://www.w3.org/2000/svg"
   xmlns:svg="http://www.w3.org/2000/svg"
   xmlns:rdf="http://www.w3.org/1999/02/22-rdf-syntax-ns#"
   xmlns:cc="http://creativecommons.org/ns#"
   xmlns:dc="http://purl.org/dc/elements/1.1/"><defs
     id="defs2" /><sodipodi:namedview
     id="base"
     pagecolor="#ffffff"
     bordercolor="#666666"
     borderopacity="1.0"
     inkscape:pageopacity="0.0"
     inkscape:pageshadow="2"
     inkscape:zoom="0.70710678"
     inkscape:cx="267.28637"
     inkscape:cy="240.41631"
     inkscape:document-units="px"
     inkscape:current-layer="layer1"
     showgrid="false"
     showguides="true"
     inkscape:lockguides="true"
     inkscape:window-width="1440"
     inkscape:window-height="900"
     inkscape:window-x="0"
     inkscape:window-y="0"
     inkscape:window-maximized="0"
     fit-margin-top="0"
     fit-margin-left="0"
     fit-margin-right="0"
     fit-margin-bottom="0"
     units="px"
     inkscape:showpageshadow="2"
     inkscape:pagecheckerboard="0"
     inkscape:deskcolor="#d1d1d1" /><metadata
     id="metadata5"><rdf:RDF><cc:Work
         rdf:about=""><dc:format>image/svg+xml</dc:format><dc:type
           rdf:resource="http://purl.org/dc/dcmitype/StillImage" /><dc:title /></cc:Work></rdf:RDF></metadata><g
     inkscape:label="Layer 1"
     inkscape:groupmode="layer"
     id="layer1"
     transform="translate(254.10849,176.22406)"><g
       id="g13437"><path
         sodipodi:type="star"
         style="fill:#f6c444;fill-opacity:1;fill-rule:nonzero;stroke:none;stroke-width:0.198437;stroke-miterlimit:4;stroke-dasharray:none;stroke-opacity:1"
         id="path65"
         sodipodi:sides="5"
         sodipodi:cx="-229.22581"
         sodipodi:cy="-100.348"
         sodipodi:r1="5.2742176"
         sodipodi:r2="2.2142076"
         sodipodi:arg1="0.93952265"
         sodipodi:arg2="1.5570518"
         inkscape:flatsided="false"
         inkscape:rounded="0"
         inkscape:randomized="0"
         d="m -226.11311,-96.090248 -3.08227,-2.043753 -3.11792,2.062076 0.99125,-3.562969 -2.92464,-2.328096 3.6949,-0.15828 1.31039,-3.50092 1.29232,3.46514 3.73451,0.16441 -2.8962,2.299861 z"
         inkscape:transform-center-x="-0.0076963839"
         inkscape:transform-center-y="-0.48580132"
         transform="matrix(1.7648905,0,0,1.7434266,184.93071,7.9721731)" /><path
         sodipodi:type="star"
         style="fill:#f6c444;fill-opacity:1;fill-rule:nonzero;stroke:none;stroke-width:0.198437;stroke-miterlimit:4;stroke-dasharray:none;stroke-opacity:1"
         id="path65-4"
         sodipodi:sides="5"
         sodipodi:cx="-229.22581"
         sodipodi:cy="-100.348"
         sodipodi:r1="5.2742176"
         sodipodi:r2="2.2142076"
         sodipodi:arg1="0.93952265"
         sodipodi:arg2="1.5570518"
         inkscape:flatsided="false"
         inkscape:rounded="0"
         inkscape:randomized="0"
         d="m -226.11311,-96.090248 -3.08227,-2.043753 -3.11792,2.062076 0.99125,-3.562969 -2.92464,-2.328096 3.6949,-0.15828 1.31039,-3.50092 1.29232,3.46514 3.73451,0.16441 -2.8962,2.299861 z"
         inkscape:transform-center-x="-0.0076963839"
         inkscape:transform-center-y="-0.48580132"
         transform="matrix(1.7648905,0,0,1.7434266,213.31449,7.9204849)" /></g><g
       id="g13442"><path
         sodipodi:nodetypes="ccccccccccc"
         inkscape:connector-curvature="0"
         id="path4690"
         d="m -190.32503,-18.442593 v 11.5518532 h 3.05785 v -4.1062942 h 3.73736 v -3.080588 l -3.73472,-0.01924 c -10e-4,-0.768758 0.0165,-0.513468 0.0193,-1.326807 l 3.71546,-0.01924 v -2.999674 z"
         style="fill:#f6c444;fill-opacity:1;stroke-width:1.83448" /><path
         style="fill:#f6c444;fill-opacity:1;stroke-width:1.83448"
         d="m -227.35892,-18.442593 v 11.5518532 h 3.05785 v -4.1062942 h 3.73736 v -3.080588 l -3.7347,-0.01924 c -0.001,-0.768758 0.0165,-0.513468 0.0193,-1.326807 l 3.71546,-0.01924 v -2.999674 z"
         id="path4392"
         inkscape:connector-curvature="0"
         sodipodi:nodetypes="ccccccccccc" /><path
         style="fill:#f6c444;fill-opacity:1;stroke-width:1.83448"
         d="m -208.84197,-18.442593 v 11.5518532 h 3.05785 v -4.1062942 h 3.73737 v -3.080588 l -3.73471,-0.01924 c -10e-4,-0.768758 0.0165,-0.513468 0.0193,-1.326807 l 3.71545,-0.01924 v -2.999674 z"
         id="path4394"
         inkscape:connector-curvature="0"
         sodipodi:nodetypes="ccccccccccc" /></g><g
       id="g13433"><path
         id="path10957"
         style="color:#000000;fill:#0a39b0;fill-opacity:1"
         d="m -231.02534,-147.94341 c -0.56824,0.003 -0.79734,0.2181 -0.95691,0.34175 -0.15957,0.12365 -0.25358,0.22877 -0.34176,0.33239 -0.17636,0.20724 -0.31528,0.41461 -0.46302,0.65594 -0.29548,0.48265 -0.60242,1.08447 -0.89241,1.75011 -0.23372,0.53651 -0.54006,1.10028 -0.8169,1.52907 -0.27685,0.42878 -0.66487,0.75934 -0.44484,0.61516 -0.13347,0.0874 -0.17344,0.11804 -0.18686,0.13064 -6.8e-4,-6.1e-4 -4.6e-4,-0.002 -0.003,-0.002 -0.0324,-3e-5 -0.43047,-0.0664 -1.21709,-0.30261 -1.6125,-0.48435 -3.27624,-0.77894 -4.59382,-0.83179 -0.79074,-0.0317 -1.36102,-0.18351 -2.26715,0.41011 -0.24889,0.16301 -0.81294,0.50392 -0.88691,1.35323 -0.074,0.84932 0.39558,1.2888 0.70115,1.57427 0.10217,0.0954 0.38707,0.25131 0.50381,0.34561 -0.11179,-0.003 -0.30972,-0.0347 -0.41396,-0.0331 -0.66427,0.0104 -1.38018,0.11273 -1.93367,0.67414 -0.32839,0.33308 -0.70004,1.15063 -0.49609,1.83168 0.20394,0.68105 0.59945,0.97747 0.98447,1.26559 0.77004,0.57624 1.85671,1.11708 3.66227,1.97666 0.57401,0.27938 1.14786,0.61943 1.62278,0.90234 -0.16797,0.4408 -0.33813,0.79976 -0.80477,1.02361 -0.58177,0.27907 -1.57587,0.43635 -2.96279,0.28332 -1.60514,-0.1771 -2.80504,-0.0316 -3.92189,0.53854 -0.66367,0.33876 -1.22576,0.76242 -1.62664,1.34607 -0.40088,0.58365 -0.58944,1.36837 -0.44758,2.07973 0.25874,1.29742 1.28544,2.10774 2.56866,2.7445 -0.33055,0.49348 -0.74213,0.95629 -0.90455,1.49986 -0.2652,0.88755 -0.55617,1.87422 0.31475,2.92365 0.76629,0.92333 1.80179,1.01455 2.79301,0.97895 0.0379,-0.001 0.0848,-0.0257 0.12292,-0.0276 -0.11606,0.12733 -0.21049,0.27494 -0.32798,0.39853 v 0.002 h -0.002 c -5.74387,6.04906 -7.34582,12.19976 -5.40412,20.643007 0.76065,3.307608 2.86285,7.568197 4.97252,9.961011 0.94766,1.074864 1.56716,1.521315 1.91988,2.02296 0.20389,2.040961 0.40854,3.846453 0.71107,4.887075 0.67142,2.309621 2.5783,4.742147 4.70517,6.292122 0.56358,0.68677 1.23282,1.391318 2.17179,1.955712 2.13297,1.282082 4.35934,2.050896 6.51757,2.117217 0.1229,0.0357 0.24563,0.07151 0.36876,0.107487 0.0451,0.132591 0.0399,0.110052 0.13891,0.496094 0.8843,3.450426 4.10977,7.449746 7.41991,9.539331 0.27857,0.175848 0.57713,0.413519 0.78107,0.611298 0.055,0.0533 0.0996,0.111296 0.13615,0.163711 0.005,0.13866 0.0153,0.368704 -0.011,0.609644 -0.0542,0.491422 -0.1656,1.138657 -0.31253,1.81405 -0.2939,1.350782 -0.76181,2.867711 -1.09362,3.553133 -0.10287,0.212515 -0.81594,1.162652 -1.65419,2.015243 -0.83826,0.852591 -1.84113,1.723331 -2.57418,2.219193 -0.57986,0.391922 -0.52208,0.59702 -0.58208,0.749652 -0.06,0.152634 -0.0906,0.272598 -0.11906,0.396875 -0.0303,0.132611 -0.04,0.278519 -0.059,0.417822 -0.0445,0.01018 -0.0769,0.01927 -0.13285,0.03087 -0.12462,0.02591 -0.26481,0.0509 -0.42388,0.07827 -1.47712,0.148431 -3.24515,-0.01914 -4.89534,0.924388 -1.43898,0.28714 -2.91701,0.591529 -4.19806,0.87092 -1.48676,0.32426 -3.42344,1.11095 -5.18363,1.956815 -0.8801,0.422931 -1.70004,0.859271 -2.37133,1.271653 -0.67128,0.412384 -1.15034,0.581343 -1.65033,1.40615 -0.25496,0.420613 -0.57579,1.151292 -0.20506,1.952956 0.37074,0.801664 1.0553,1.024915 1.59577,1.158103 1.08093,0.266375 2.44755,0.269795 4.73659,0.238676 2.49549,-0.03393 3.9701,0.07596 4.88432,0.364905 0.91422,0.288946 1.41936,0.698826 2.29306,1.744045 0.81083,0.970023 1.72592,1.877671 2.7445,2.404401 1.03433,0.534866 2.1881,0.626446 3.52337,0.656497 1.33526,0.03005 2.76968,-0.08517 4.02718,-0.390811 1.14448,-0.278192 1.82139,-0.328489 2.16186,-0.273403 0.34047,0.05509 0.48731,0.132442 0.91226,0.585942 0.70478,0.752113 1.82209,1.650215 2.78529,2.279275 1.37953,0.900949 2.58204,1.203151 4.00183,1.017543 1.19688,-0.156459 2.46955,-0.657346 3.48643,-1.333941 1.53335,-1.020243 5.0523,-1.079715 8.70094,0.492236 0.81687,0.351951 1.22883,0.108544 1.64096,-0.03528 0.41214,-0.143819 0.81726,-0.347234 1.26559,-0.603581 0.89666,-0.512692 1.94402,-1.245606 3.05263,-2.140369 l 0.21884,-0.178042 1.49379,0.818554 c 1.90021,1.039158 3.1839,1.443082 4.74431,1.443082 1.35334,0 2.59402,-0.202504 3.81276,-0.874779 1.21871,-0.672274 2.39305,-1.705427 4.1286,-3.357452 1.47754,-1.406432 2.22439,-2.070508 2.7445,-2.829939 0.26006,-0.379717 0.50226,-0.943509 0.43546,-1.525213 -0.0668,-0.581702 -0.31801,-0.906093 -0.46082,-1.121172 -0.72497,-1.091865 -1.83489,-1.708652 -3.25437,-2.441332 -1.41949,-0.73268 -3.11604,-1.410138 -4.80439,-1.863659 -0.71336,-0.191618 -1.30459,-0.336161 -1.86752,-0.474596 l -0.0854,-0.07 -0.27947,-0.08048 c -1.91075,-0.559108 -2.56374,-0.897339 -2.89829,-1.310238 -0.33455,-0.412901 -0.63401,-1.386465 -1.14652,-3.445647 -0.44607,-1.792381 -1.67244,-4.933611 -2.83049,-7.378568 -1.3427,-2.834762 -2.29869,-5.488374 -3.07964,-8.111683 1.05789,0.516494 2.18224,0.881439 3.35524,0.883047 h 0.0116 l 2.79521,-0.04685 c 0.7282,0.853004 1.59466,1.598192 2.69544,2.103438 1.85041,0.849303 4.14698,1.23695 6.95469,1.297009 l 2.17013,0.04685 0.35939,-1.453004 c 0.2106,0.0183 0.40334,0.109577 0.61737,0.109141 0.64884,-0.0014 1.18447,-0.02501 1.65805,-0.09371 0.47357,-0.0687 0.89695,-0.07679 1.46293,-0.5898 0.16784,-0.152135 0.22097,-0.472728 0.32576,-0.747999 0.69977,0.263186 1.41357,0.571789 2.05714,0.673585 0.48892,0.07733 0.92879,0.119144 1.43151,0.04299 0.25136,-0.03808 0.53567,-0.09297 0.88084,-0.331832 0.34517,-0.238857 0.71107,-0.818806 0.71107,-1.345517 0,-0.599239 -0.12977,-0.625867 -0.18962,-0.742486 -0.0598,-0.11662 -0.11567,-0.202616 -0.17584,-0.294901 -0.12035,-0.184569 -0.26177,-0.379088 -0.4316,-0.601375 -0.33967,-0.444578 -0.78618,-0.987533 -1.27937,-1.55112 -0.44358,-0.506907 -0.8922,-1.072823 -1.23803,-1.550569 -0.30746,-0.424751 -0.51839,-0.808883 -0.5413,-0.831232 -0.0103,-0.06324 -0.0618,-0.273141 -0.0898,-0.508772 -0.0433,-0.363677 -0.0886,-0.868074 -0.13064,-1.456862 -0.0842,-1.17758 -0.15619,-2.704137 -0.19348,-4.271367 -0.0461,-1.939426 -0.23767,-3.624813 -0.38695,-5.507743 0.2084,0.341793 0.40685,0.815218 0.58208,1.082036 0.0278,0.04478 0.0563,0.07411 0.0843,0.116857 l -0.0981,0.413963 0.0843,0.08213 c -0.0646,0.480264 -0.15403,0.957486 -0.17198,1.461272 v 0.02701 0.02756 c 0.008,3.870844 1.1688,8.445287 3.09562,10.980208 v 0.0022 c 0.0901,0.11844 0.17412,0.249168 0.43767,0.443177 0.13177,0.097 0.32404,0.22482 0.64657,0.283325 0.32253,0.0585 0.78025,-0.02455 1.07598,-0.216628 0.59146,-0.384155 0.61863,-0.752261 0.67964,-0.978407 0.061,-0.226146 0.0816,-0.410158 0.10143,-0.623425 0.0796,-0.853066 0.0727,-2.197453 0.0529,-4.701315 l -0.0138,-1.677348 v -0.03142 l -0.0623,-2.36306 v -0.0061 c 0.53833,0.05562 1.10432,0.07482 1.64648,0.02756 l 2.56646,-0.222691 -1.1096,-1.441428 c 0.22121,-0.27666 0.43568,-0.533099 0.61736,-0.884701 0.90421,-1.749893 1.62072,-4.447052 1.95296,-6.992165 0.0775,-0.593792 0.11042,-1.52901 0.14827,-2.828286 0.0379,-1.299273 0.0662,-2.887398 0.0821,-4.488546 0.0319,-3.202292 0.0309,-6.311922 -0.0799,-7.564322 -0.41434,-4.68604 -2.91084,-9.82568 -6.40623,-13.30634 -1.78838,-1.78086 -3.61279,-3.03987 -6.08431,-4.21294 -3.52598,-1.67353 -7.47356,-2.6016 -10.89808,-2.57417 -0.79005,0.007 -1.55375,0.0654 -2.28148,0.18355 -4.12487,0.66904 -7.80158,2.92359 -11.35558,6.79649 -2.37053,2.58323 -4.12192,5.33109 -7.21872,11.24424 -0.97528,1.86227 -1.55345,3.30057 -2.34156,4.39043 -0.77413,1.07054 -1.76313,1.924982 -3.82213,2.80127 -1.05852,0.319931 -1.10544,0.316647 -2.20706,0.05237 -0.61934,-0.148573 -2.07504,-0.785843 -2.71694,-1.211019 l -0.0116,-0.0077 -0.0121,-0.0077 c -1.36696,-0.866881 -2.37763,-1.827231 -3.22626,-2.836001 l -0.27175,-2.14808 -0.008,-0.0469 c -0.0348,-0.17711 -0.0702,-0.39253 -0.10363,-0.62508 -4.2e-4,-0.003 -0.002,-0.005 -0.002,-0.008 l -0.16371,-1.55443 c -0.26636,-3.37154 -0.16239,-8.5381 0.31034,-11.59592 0.68094,-4.40477 0.16591,-8.90071 -1.50978,-12.10523 0.0319,-0.0171 0.0941,-0.004 0.12292,-0.0215 0.28845,-0.17792 0.48703,-0.37599 0.66917,-0.58649 0.0133,-0.0109 0.0375,-0.0286 0.075,-0.0425 0.0987,-0.0365 0.25171,-0.0628 0.30868,-0.0628 1.71005,0 2.73283,-1.21595 3.31832,-2.3829 0.29272,-0.58348 0.49993,-1.2083 0.42774,-1.95847 -0.0722,-0.75017 -0.72339,-1.70135 -1.59742,-1.94744 v 0.002 c -0.14231,-0.0401 -0.40769,-0.0913 -0.60358,-0.13835 0.0736,-0.10408 0.18161,-0.19191 0.24804,-0.30868 0.13307,-0.23396 0.2774,-0.51618 0.29325,-0.96077 0.0158,-0.44459 -0.23897,-1.04059 -0.58429,-1.3378 -0.69064,-0.59443 -1.18653,-0.50953 -1.72861,-0.52366 -0.54209,-0.0141 -1.16544,0.025 -1.95296,0.0937 -0.13517,0.0118 -0.21048,0.008 -0.3401,0.0176 0.002,-0.003 0.002,-0.005 0.004,-0.008 0.31014,-0.54955 0.56716,-1.07643 0.75352,-1.53899 0.0932,-0.23127 0.16883,-0.4404 0.22654,-0.67745 0.0289,-0.11851 0.0575,-0.24205 0.0667,-0.42388 0.009,-0.18183 0.0606,-0.44643 -0.22489,-0.9084 -0.4171,-0.6744 -0.80537,-0.64411 -1.00377,-0.68571 -0.1984,-0.0416 -0.33149,-0.0449 -0.46688,-0.0469 -0.27079,-0.004 -0.53496,0.0197 -0.8417,0.0551 -0.61349,0.0708 -1.36978,0.20248 -2.18337,0.38641 -0.64872,0.14673 -1.2158,0.27126 -1.71868,0.37923 -0.0234,-0.14495 -0.0489,-0.23359 -0.0689,-0.39301 -0.0754,-0.60309 -0.18462,-1.13685 -0.34175,-1.60514 -0.0786,-0.23414 -0.15976,-0.44885 -0.32191,-0.70335 -0.16215,-0.25451 -0.45288,-0.79206 -1.35764,-0.79651 h -0.008 z m 17.74582,78.886621 5.58216,5.781145 c 5.35149,5.543343 8.52434,9.566294 10.37111,13.039548 l 0.0331,0.06449 0.0413,0.06229 c 0.095,0.140961 0.0731,0.330231 0.13284,0.460816 -0.23869,0.02985 -0.41707,0.03045 -0.71327,0.07441 -0.70204,0.104191 -1.52304,0.244944 -2.31621,0.402387 -1.34534,0.267048 -2.00172,0.368341 -2.32006,0.359393 -0.31834,-0.0089 -0.50614,-0.07752 -1.27552,-0.400734 -1.3374,-0.561831 -2.23668,-0.9172 -3.20311,-1.001558 -0.96642,-0.08436 -1.86475,0.230941 -2.65465,0.654292 -0.97635,0.523305 -3.35579,0.831635 -7.84159,0.530821 -0.58769,-0.03941 -0.94865,-0.07289 -1.31244,-0.107487 0.0161,-0.189828 0.14924,-0.373048 0.15048,-0.581532 -0.002,0.267934 0.0808,-0.313537 0.33404,-0.910608 0.25322,-0.597072 0.62879,-1.362742 1.06439,-2.173442 0.8712,-1.6214 1.99963,-3.441614 2.88286,-4.580047 0.83096,-1.071086 1.50259,-2.041271 1.98989,-2.885061 0.4873,-0.84379 0.86761,-1.425249 0.86761,-2.413772 0,-0.579868 -0.12029,-0.619021 -0.18576,-0.757921 -0.0655,-0.138899 -0.1327,-0.258779 -0.21112,-0.390811 -0.15684,-0.264065 -0.3563,-0.567126 -0.59751,-0.91612 -0.48242,-0.697987 -1.12877,-1.56957 -1.84161,-2.47661 l -1.22866,-1.562144 c 0.69578,-0.03929 1.45719,-0.140199 2.25171,-0.271749 z" /><path
         id="path4230"
         d="m -194.2227,-48.079079 -1.92129,-0.262496 c -0.51387,-1.39e-4 -2.19269,0.248921 -3.73028,0.554132 -2.70145,0.536234 -2.85024,0.532745 -4.41689,-0.125387 -2.61612,-1.099011 -3.24408,-1.154445 -4.64339,-0.404482 -1.4822,0.794426 -4.04085,1.001722 -8.60423,0.695705 -1.59408,-0.106895 -2.3839,-0.187738 -2.70308,-0.327879 l -5.2019,-0.130156 c -0.20522,0.248632 -0.64239,0.375506 -1.55871,0.529835 -2.08366,0.350932 -6.07201,1.137743 -8.97837,1.771606 -2.48715,0.542442 -7.73974,3.066427 -8.29786,3.987127 -0.62117,1.024733 0.37587,1.269884 4.90024,1.208377 5.07115,-0.06894 6.38057,0.345275 8.27863,2.61595 0.69732,0.83423 1.73747,1.759388 2.31058,2.055757 1.16729,0.603627 4.39379,0.676263 6.56869,0.147638 2.42325,-0.589017 3.35425,-0.438755 4.43813,0.717947 0.54886,0.585728 1.68605,1.514656 2.52695,2.063843 1.30612,0.853006 1.75026,0.969336 3.04672,0.79985 0.83471,-0.109114 2.13431,-0.608818 2.88798,-1.110287 2.20708,-1.468521 6.10778,-1.324518 10.04112,0.370094 0.49894,0.214972 2.38948,-0.865908 4.51397,-2.580558 l 0.95354,-0.769518 2.32271,1.27006 c 1.83024,1.000896 2.69195,1.270053 4.06802,1.270053 2.48673,0 3.54104,-0.581368 6.96814,-3.84354 2.95081,-2.808789 3.02061,-2.910891 2.51483,-3.672648 -0.75122,-1.131401 -4.09936,-2.877373 -7.24822,-3.723205 -3.84954,-1.034045 -5.60866,-1.128236 -5.92404,-2.493654 z"
         style="fill:#347444;stroke-width:0.21166666;fill-opacity:1;stroke:#f5c042;stroke-opacity:1;stroke-dasharray:none"
         inkscape:connector-curvature="0"
         sodipodi:nodetypes="ccsscsccsssssscssssccccsssscc" /><path
         sodipodi:nodetypes="cssssscccsccscsssscsssccccccc"
         inkscape:connector-curvature="0"
         style="fill:#52b6a9;fill-opacity:1;stroke-width:0.21166666;stroke:#f5c042;stroke-opacity:1;stroke-dasharray:none"
         d="m -195.56822,-46.342178 c -0.29579,0.04726 -1.09914,0.08776 -1.61025,0.135237 -1.16793,0.108473 -2.99403,0.297215 -4.05791,0.419643 -1.5864,0.182548 -2.27358,0.08272 -3.8223,-0.559186 -1.88087,-0.779583 -1.89344,-0.780265 -3.162,-0.13753 -1.04901,0.531503 -2.2134,0.666542 -6.59802,0.770528 -5.06149,0.120048 -5.34165,0.09253 -5.69099,-0.5602 l -7.27113,0.964749 c -0.6775,0.173707 -1.84466,0.344025 -2.77904,0.451931 -0.36759,0.04245 -0.79469,0.132651 -1.06238,0.105189 -0.27319,-0.02803 -0.40267,-0.04414 -0.44179,-0.08567 l -0.7528,-0.06754 c -0.61202,0.357451 -1.84862,0.708623 -3.00223,1.001587 -3.58129,0.909488 -4.01134,1.292989 -1.46421,1.305447 3.17965,0.01559 5.6601,1.077142 7.74168,3.313674 2.05089,2.203526 3.02129,2.428248 7.25328,1.680598 3.54766,-0.626748 4.36352,-0.407148 6.69612,1.79891 2.25092,2.128835 3.4802,2.261844 5.99332,0.649188 1.48127,-0.950527 1.91435,-1.059089 4.11758,-1.033436 1.42768,0.01669 3.37707,0.314024 4.64238,0.707829 2.37739,0.739931 2.09586,0.815726 4.57058,-1.240728 1.77559,-1.475481 3.07345,-1.457453 5.82245,0.07989 3.43671,1.921923 4.51714,1.686813 8.29682,-1.804976 l 2.54314,-2.348998 -1.69374,-0.857492 c -0.93162,-0.471585 -2.33024,-1.047787 -3.10738,-1.280171 l -2.4936,-0.732109 c -0.86962,-0.02676 -3.48131,-0.591308 -3.68681,-0.796818 z"
         id="path4270" /><path
         style="fill:#1d2b31;fill-opacity:1;fill-rule:nonzero;stroke:#f5c042;stroke-width:0.21166666;stroke-miterlimit:4;stroke-dasharray:none;stroke-opacity:1"
         d="m -207.06318,-44.591535 c -0.39999,-0.01688 -0.73135,0.07901 -1.17324,0.279372 -0.35578,0.161324 -0.88759,0.344335 -1.18186,0.407447 -0.84149,0.180476 -3.33563,0.294769 -7.83837,0.358341 -4.64213,0.06555 -6.19595,0.166681 -7.0414,0.457882 -0.31639,0.108968 -1.15827,0.269063 -1.87135,0.356349 -2.43776,0.298394 -3.5011,0.448568 -3.55421,0.501678 -0.12566,0.125772 0.30599,0.683273 1.34643,1.738616 1.02006,1.034669 1.16392,1.144028 1.71805,1.303963 0.7285,0.210268 1.77742,0.16558 3.99883,-0.169873 0.9697,-0.146446 1.96468,-0.223393 2.93441,-0.226946 1.29728,-0.0048 1.53404,0.02174 2.04718,0.225622 0.81381,0.323315 1.58514,0.86681 2.75858,1.944329 0.55645,0.510986 1.26201,1.127737 1.56805,1.370987 0.30607,0.243252 0.57937,0.442773 0.6072,0.443283 0.0279,6.79e-4 0.9608,-0.45342 2.07373,-1.008665 1.11294,-0.555243 2.29485,-1.078775 2.62651,-1.163943 0.79579,-0.204358 3.17403,-0.204887 4.59474,-6.8e-4 0.59142,0.08501 1.83482,0.341181 2.7632,0.569363 l 1.68818,0.415408 0.89188,-0.760477 c 1.8254,-1.555279 2.81242,-2.028565 4.23108,-2.030599 1.11303,-0.0017 1.88013,0.238464 3.76854,1.181196 1.6111,0.804286 2.23752,1.0128 3.02267,1.006675 0.88849,-0.007 1.64712,-0.43885 2.85347,-1.623815 0.79004,-0.776034 0.93207,-0.960842 0.83016,-1.083651 -0.27374,-0.329823 -3.46534,-1.337798 -5.61865,-1.774451 -0.55647,-0.112839 -1.49754,-0.324593 -2.09166,-0.470491 -0.59411,-0.145895 -0.78157,-0.164699 -1.23561,-0.205714 -3.30224,-0.326911 -6.68525,-0.392813 -9.95185,-0.842108 -0.52762,-10e-4 -1.78381,-0.318089 -3.17864,-0.802946 -0.71764,-0.249478 -1.18597,-0.379227 -1.58597,-0.396169 z"
         id="path4696"
         inkscape:connector-curvature="0"
         sodipodi:nodetypes="ccsscscssccccccsssccccscscssccccc" /><path
         id="path4306"
         style="fill:#c92b29;fill-opacity:1;stroke-width:0.21166666;stroke:#f6c444;stroke-opacity:1;stroke-dasharray:none"
         d="M -231.01863 -146.5323 C -231.23615 -146.53115 -231.85072 -145.52704 -232.3851 -144.30043 C -232.91978 -143.0731 -233.72229 -141.83072 -234.16773 -141.53884 C -234.90215 -141.05764 -235.14301 -141.0574 -236.75348 -141.54104 L -237.96395 -134.17571 C -237.77977 -133.93998 -237.80735 -133.70943 -237.89284 -133.34943 C -238.38373 -131.28107 -240.28018 -130.37129 -243.3868 -130.71407 C -244.89052 -130.87998 -245.59056 -130.79211 -246.51329 -130.32106 C -248.58099 -129.26564 -248.25073 -127.60821 -245.74821 -126.48625 C -244.49455 -125.92418 -244.48357 -125.90478 -245.14022 -125.31051 C -246.11455 -124.42877 -246.68608 -122.51633 -246.16327 -121.88636 C -245.59427 -121.20076 -243.79114 -121.26567 -241.73977 -122.04511 C -240.96122 -122.34823 -240.75063 -122.34817 -240.61639 -122.37088 C -240.69552 -122.25994 -240.7822 -122.14568 -240.86389 -122.03354 L -239.64019 -122.54231 L -231.75781 -128.32952 L -227.56692 -132.52041 L -224.95141 -131.03047 L -225.11567 -132.57663 C -225.46575 -133.19102 -225.28037 -133.62118 -224.57162 -133.62118 C -224.29773 -133.62118 -223.92847 -133.23893 -223.75086 -132.77176 C -223.38123 -131.79954 -222.99626 -131.70358 -222.39156 -132.43221 C -222.15873 -132.71268 -221.53909 -132.94209 -221.01408 -132.94209 C -219.34355 -132.94209 -217.78475 -136.0489 -219.24853 -136.46104 C -219.57556 -136.55314 -220.35436 -136.73137 -220.9788 -136.85737 L -222.1143 -137.08667 L -221.23401 -138.0061 C -219.70859 -139.59829 -220.00688 -139.85485 -223.07121 -139.58754 C -224.56617 -139.45713 -225.78925 -139.46356 -225.78925 -139.60132 C -225.78925 -139.7392 -225.32573 -140.6736 -224.75903 -141.67775 C -224.19234 -142.68189 -223.80917 -143.63272 -223.90741 -143.79166 C -224.00571 -143.9506 -225.34816 -143.79597 -226.89113 -143.44715 C -228.43409 -143.09817 -229.80053 -142.80868 -229.92723 -142.80388 C -230.054 -142.79888 -230.26294 -143.63591 -230.39135 -144.66368 C -230.52371 -145.72225 -230.79487 -146.5312 -231.01863 -146.5323 z " /><path
         sodipodi:nodetypes="cccccc"
         inkscape:connector-curvature="0"
         id="path4365"
         d="m -190.12732,-103.92476 5.20052,2.6777 8.90796,13.054406 0.17446,-5.087125 -7.85288,-11.526671 z"
         style="fill:#c92b29;fill-opacity:1;fill-rule:evenodd;stroke:none;stroke-width:0.51773px;stroke-linecap:butt;stroke-linejoin:miter;stroke-opacity:1" /><path
         id="path2327"
         style="fill:#fbe18f;fill-opacity:1;stroke-width:0.485371"
         d="M -227.56692 -132.52041 L -231.75781 -128.32952 L -239.64019 -122.54231 L -240.86389 -122.03354 C -241.68696 -120.9036 -242.6304 -119.7236 -243.63981 -118.66175 C -249.16725 -112.8406 -250.57033 -107.46759 -248.69335 -99.305829 C -248.01041 -96.336131 -245.87003 -92.040335 -244.03779 -89.962179 C -242.69874 -88.443372 -241.5931 -88.122797 -241.24809 -85.844601 C -240.64394 -81.854946 -240.26356 -80.903142 -238.50193 -78.978664 C -237.09219 -77.4386 -236.44492 -76.032103 -234.86171 -75.08047 C -232.81749 -73.851732 -230.72359 -73.165349 -228.8259 -73.152319 C -228.43264 -73.02774 -228.03836 -72.915152 -227.64354 -72.80836 C -227.48064 -72.573192 -227.36861 -72.177774 -227.19485 -71.499775 C -226.47816 -68.703347 -223.29837 -64.641361 -220.3901 -62.805457 C -219.65102 -62.338904 -218.95262 -61.661631 -218.83788 -61.300088 C -218.55161 -60.39811 -219.49695 -56.05369 -220.37301 -54.243982 C -220.9325 -53.088202 -223.35785 -50.621319 -225.08039 -49.456126 C -225.15839 -49.403406 -225.2472 -49.016591 -225.27662 -48.59623 C -225.32142 -47.95702 -225.60297 -47.785735 -227.00248 -47.550024 C -229.36275 -47.303528 -231.69277 -47.57072 -232.68441 -45.358392 C -232.78041 -45.221485 -232.82287 -45.037855 -232.90159 -44.733865 L -233.1364 -43.810579 L -232.64803 -44.206903 C -232.25927 -44.65036 -232.26804 -44.805486 -231.94412 -45.105935 C -231.50585 -45.766041 -228.98586 -46.186854 -228.27744 -45.783379 C -227.98954 -45.588317 -227.78135 -45.308787 -227.78135 -45.308782 C -227.55175 -44.861324 -227.46866 -44.75086 -227.26431 -44.575666 C -226.08425 -43.662712 -224.90447 -43.653837 -223.7244 -43.986417 C -222.3038 -44.707175 -219.53183 -45.43213 -220.50972 -46.273409 C -220.7118 -46.651005 -220.87682 -47.052451 -220.87682 -47.165275 L -220.34656 -48.341569 C -220.16843 -48.621873 -220.0198 -49.245283 -220.01693 -49.726773 C -220.00993 -50.845569 -217.37394 -55.752273 -215.43853 -58.246907 C -213.83374 -60.315439 -212.87704 -61.971796 -212.87704 -62.682536 C -212.87704 -62.926769 -214.01799 -64.576987 -215.41208 -66.350874 L -217.94712 -69.576585 L -218.39746 -70.290409 C -218.66806 -70.328109 -218.53597 -70.830439 -218.31147 -71.455127 C -216.58066 -71.342637 -214.8322 -71.257776 -213.06941 -71.1481 C -212.90303 -70.932487 -212.7275 -70.708787 -212.61797 -70.553339 L -212.36771 -70.144888 L -206.68138 -64.254602 C -201.28723 -58.667069 -198.02884 -54.562063 -196.08096 -50.898656 C -195.32677 -49.779914 -195.41898 -48.844542 -195.13562 -47.735783 C -195.07302 -47.615809 -195.05459 -47.447922 -195.05459 -47.214333 C -195.05459 -46.950752 -195.08119 -46.7727 -195.1946 -46.641621 L -195.18358 -46.640518 L -195.20012 -46.631699 C -195.28742 -46.536159 -195.4239 -46.466113 -195.64384 -46.41011 C -195.64484 -46.409804 -195.6447 -46.409542 -195.6477 -46.409008 L -198.57631 -44.94498 C -199.62301 -44.400376 -200.94299 -43.848855 -201.92053 -43.315588 C -201.92073 -43.273858 -202.38962 -43.001734 -202.96288 -42.710905 C -204.00473 -42.182328 -204.86619 -41.553672 -204.73338 -41.417754 C -204.69468 -41.378094 -204.44917 -41.418144 -204.18823 -41.507051 C -203.76583 -41.650984 -202.52419 -41.854669 -201.05953 -42.019681 L -200.55297 -42.075905 L -200.95866 -41.840536 C -201.18124 -41.710784 -201.56758 -41.486712 -201.81801 -41.343891 C -202.48048 -40.966048 -203.21373 -40.288508 -203.44133 -39.842381 C -203.69671 -39.341968 -203.69224 -39.287352 -203.40385 -39.476374 C -202.96023 -39.767053 -202.26613 -39.84434 -197.31733 -40.153817 C -194.15148 -40.351792 -193.43006 -40.63757 -192.77091 -41.954637 C -192.63663 -42.22294 -192.47167 -42.460579 -192.37789 -42.52735 L -192.38341 -42.584676 L -190.53408 -44.434004 C -190.54878 -44.442804 -190.58185 -44.454797 -190.58975 -44.462667 C -190.30488 -44.532617 -190.30896 -44.932553 -189.94042 -44.975297 C -189.19516 -44.939987 -188.32897 -44.734586 -187.66225 -44.471486 L -186.32059 -44.201391 C -186.77675 -44.815179 -186.92829 -45.174364 -187.44893 -45.605336 C -191.37481 -46.754087 -191.44568 -47.267328 -192.46774 -51.373804 C -192.85404 -52.925999 -194.08465 -56.12807 -195.20287 -58.48889 C -196.98185 -62.24476 -198.25013 -65.745357 -199.095 -69.236485 L -199.21737 -69.741399 C -198.77657 -69.685919 -198.33538 -69.630098 -197.91154 -69.565561 L -193.45662 -67.962627 L -192.09732 -67.759229 L -192.17615 -68.321468 C -192.23265 -68.637376 -192.37616 -70.4735 -192.66783 -73.169406 C -193.37364 -79.693922 -194.42612 -86.166416 -194.99947 -87.512027 C -195.89202 -89.606662 -197.86479 -90.80729 -201.83123 -91.670947 L -203.87569 -92.11688 L -205.55635 -96.965369 C -209.55897 -97.652888 -217.58828 -94.504054 -219.0286 -97.033169 L -221.70916 -101.74055 L -221.93461 -102.65281 L -224.95141 -131.03047 L -227.56692 -132.52041 z " /><path
         id="path13283"
         style="color:#000000;fill:#dba338;fill-opacity:1"
         d="m -241.4845,-142.6082 c -0.4638,0.003 -0.82949,0.0568 -1.10463,0.23703 -0.16924,0.11084 -0.35839,0.25003 -0.38089,0.50766 -0.0225,0.25762 0.13275,0.44952 0.34781,0.65044 0.43011,0.40183 1.2759,0.94967 2.84372,1.93972 0.45897,0.28985 0.83321,0.54247 1.15204,0.76344 -0.02,-0.002 -0.028,-0.002 -0.0485,-0.004 -0.55338,-0.0497 -1.30837,-0.13079 -2.12714,-0.23041 -1.15842,-0.14096 -1.93461,-0.20985 -2.48433,-0.20119 -0.54975,0.009 -0.91036,0.0967 -1.14818,0.33789 -0.176,0.17851 -0.29721,0.45343 -0.21883,0.71493 0.0784,0.26151 0.27855,0.45976 0.57987,0.68516 0.60262,0.4508 1.68091,1.00924 3.47101,1.86145 0.79982,0.38857 2.00116,1.00597 2.45897,1.38686 0.32811,0.33082 0.82378,0.74361 1.05668,0.93541 0.12578,0.16008 0.24423,0.32625 0.35994,0.49555 0.0364,0.15463 0.0738,0.30807 0.10969,0.45585 0.44596,1.7619 0.36462,3.90549 -0.21442,5.64665 -0.0986,0.29661 -0.0759,0.63995 -0.043,0.87313 -0.001,10e-4 -0.006,0.005 -0.007,0.006 -0.0165,0.011 -0.0366,0.0221 -0.006,0.011 l -0.0386,0.0127 -3.9219,2.92971 -0.47459,0.81855 -0.27781,0.58209 -0.002,0.004 c -0.675,1.55438 -1.42133,3.33348 -1.90059,4.79667 v 0.002 c -1.7399,5.36866 -1.42593,12.61254 1.25953,18.987707 h -0.0325 -0.45145 l 0.17033,0.350022 0.006,1.972248 c 0.006,1.965697 0.16878,4.673827 0.39412,7.115638 0.22534,2.441808 0.50428,4.588534 0.77776,5.52924 0.55799,1.91943 2.46146,4.403154 4.38272,5.771224 l 1.85539,1.32016 -1.44529,-3.1072 c -1.17962,-2.539264 -1.67022,-5.361156 -1.67404,-9.728398 -5.1e-4,-0.914798 -0.0384,-1.769066 -0.10142,-2.415977 -0.0124,-0.126981 -0.026,-0.243287 -0.0402,-0.353329 0.78836,1.011433 2.16349,2.582996 3.37013,3.845829 1.41992,1.08943 1.3325,2.186346 1.49591,2.892227 2.11344,7.1261 4.48731,10.597055 8.63314,12.50983 2.09488,0.966532 6.33526,1.877736 8.6855,1.869171 1.02401,-0.0037 2.50369,-0.208991 3.91197,-0.496094 1.40828,-0.2871 2.7242,-0.647171 3.45116,-1.009826 0.32207,-0.160675 0.52935,-0.241651 0.71107,-0.260174 l 0.25742,-0.02646 0.14276,0.07166 0.0237,0.0061 c 0.25077,0.07422 0.59556,0.234225 1.10519,0.492236 0.88891,0.450034 2.31941,0.878776 3.6507,1.167474 0.66566,0.144347 1.30322,0.25221 1.83554,0.304822 0.53233,0.05261 0.9336,0.07297 1.25016,-0.04851 0.24614,-0.09449 0.44773,-0.302564 0.52366,-0.560586 0.0202,-0.06858 0.0331,-0.139854 0.0408,-0.213321 0.51395,0.710999 1.24085,1.344229 2.06264,1.843815 1.11108,0.675453 2.39818,1.10795 3.59944,1.109597 h 0.002 l 2.18778,-0.03693 -1.48443,-1.609548 c -2.16721,-3.34757 -3.78364,-7.385652 -3.86567,-10.871068 -0.008,-1.093807 -0.21576,-2.436523 -0.51153,-3.619279 -0.29624,-1.184633 -0.64136,-2.182328 -1.08975,-2.677804 -1.01261,-1.118919 -3.15231,-1.697254 -7.71867,-2.286992 -8.32536,-1.075188 -13.88934,-3.415276 -19.63704,-8.250039 l -1.84547,-1.552773 -0.13339,0.109141 c -0.17348,-0.372043 -0.3371,-0.750134 -0.49224,-1.133299 0.34044,0.310388 0.70153,0.619211 1.07763,0.94809 2.47247,2.162043 6.64028,4.203707 11.02816,5.402461 0.511,0.139604 1.60215,0.214727 2.48433,0.230408 0.31478,0.07599 0.62613,0.140328 0.9299,0.189618 1.23638,0.200626 4.18147,0.356271 6.62285,0.359392 2.63256,0.0032 5.14103,0.12904 7.17021,0.341754 2.0292,0.212714 3.59832,0.529914 4.25538,0.841706 0.67544,0.320523 1.1231,0.765946 1.5649,1.804678 0.4418,1.038732 0.84506,2.658822 1.34938,5.208985 0.75938,3.840028 1.46378,6.486612 2.28699,8.296892 0.82321,1.810277 1.7943,2.802294 3.03719,3.212482 0.38034,0.125523 0.9322,0.19665 1.55719,0.232613 0.12974,0.385092 0.28462,0.8528 0.49168,1.525764 0.89792,2.997039 3.52291,5.114389 6.33236,5.108663 2.44007,-0.0051 2.88571,-0.408972 1.43812,-1.303624 -1.56947,-0.969975 -4.14362,-3.783824 -4.73494,-4.959284 -0.0553,-0.156229 -0.11173,-0.311143 -0.16702,-0.46743 0.62441,-0.07152 1.17522,-0.173993 1.55168,-0.320257 l 0.0215,-0.0094 0.15269,-0.0915 c 0.0552,0.210973 0.11714,0.415164 0.18852,0.611298 0.006,0.01548 0.004,0.03919 0.01,0.05457 h -0.008 c 0.001,0.0056 0.009,0.01199 0.01,0.01764 0.003,0.0076 10e-4,0.0194 0.004,0.02701 l 0.01,-0.0017 c 0.19138,0.897805 0.76823,1.878075 1.55884,2.783086 0.80271,0.918895 1.81444,1.75249 2.8575,2.28148 0.90828,0.460647 1.9508,0.782715 2.7908,0.915568 0.42001,0.06643 0.78755,0.08819 1.0859,0.04299 0.14918,-0.0226 0.28317,-0.05925 0.40624,-0.144418 0.12307,-0.08517 0.22655,-0.251219 0.22655,-0.417822 0,-0.135566 -0.0358,-0.167183 -0.0661,-0.226549 -0.0305,-0.05936 -0.0681,-0.121191 -0.11521,-0.193477 -0.0942,-0.144568 -0.22391,-0.324624 -0.38309,-0.533025 -0.31836,-0.416799 -0.75339,-0.945244 -1.23197,-1.492139 -0.46866,-0.535557 -0.93414,-1.123641 -1.30307,-1.633251 -0.36892,-0.509614 -0.64595,-0.964486 -0.71272,-1.13826 -0.0182,-0.04746 -0.0785,-0.338572 -0.12513,-0.73036 -0.0466,-0.391788 -0.0938,-0.907602 -0.1367,-1.508125 -0.0859,-1.201043 -0.15744,-2.741794 -0.19513,-4.325937 -0.0758,-3.184311 -0.3577,-7.215891 -0.6328,-9.025599 -1.5e-4,-0.0032 1.5e-4,-0.0067 0,-0.0099 -0.0246,-0.508378 -0.0814,-1.020368 -0.16646,-1.533481 0.26725,0.552432 0.59792,1.196403 0.95525,1.861454 0.73677,1.371212 1.56788,2.810696 2.11722,3.646289 0.11429,0.185282 0.22694,0.330689 0.3379,0.469084 -0.005,0.04481 -0.0106,0.09148 -0.0171,0.141112 -0.17686,0.695597 -0.21425,1.318309 -0.24254,2.112808 v 0.0055 0.0044 c 0.007,3.602182 1.25551,8.184509 2.86522,10.302213 0.063,0.08282 0.1191,0.153933 0.20726,0.218832 0.0441,0.03245 0.0997,0.06596 0.17969,0.08048 0.08,0.01452 0.18704,-0.0041 0.25963,-0.05126 0.14518,-0.0943 0.17355,-0.211199 0.20505,-0.327974 0.0315,-0.116772 0.0495,-0.254452 0.0661,-0.433255 0.0667,-0.715207 0.0689,-2.086225 0.0491,-4.586111 l -0.0138,-1.683411 v -0.0215 l -0.0937,-3.556993 0.01,-0.04299 c 0.0309,0.0059 0.0609,0.01673 0.0921,0.0215 l 0.0138,0.0022 1.12448,0.07221 -0.0116,-0.0022 c 0.48386,0.05253 1.01884,0.06546 1.47891,0.02536 l 0.51319,-0.043 -0.88856,-1.158103 c -0.20753,-0.269417 -0.80036,-0.982646 -1.46679,-1.780976 0.0228,-0.07151 0.0455,-0.143084 0.0706,-0.218833 v -0.0022 -0.0039 c 0.22633,-0.733684 0.65562,-3.094261 0.64272,-7.009805 -0.0206,-6.543034 -1.54838,-12.412395 -4.13908,-16.828055 -2.59072,-4.41563 -6.25744,-7.38669 -10.53868,-8.06262 -4.89459,-0.77276 -9.72897,1.06219 -14.85746,5.5783 l -0.002,0.002 -0.002,0.002 c -3.19116,2.93039 -5.30599,6.32953 -8.14806,8.89882 l -0.059,0.0369 -0.003,0.002 c 4.3653,-4.60843 7.9377,-11.88915 13.3124,-14.9903 2.09721,-1.21007 4.36077,-1.91132 7.48661,-1.80027 2.56389,0.0911 4.9382,0.69193 7.08091,1.79256 2.26145,1.16162 5.51929,3.93824 7.12115,6.06943 1.43005,1.90257 2.44446,4.95056 3.04712,9.15237 0.42699,2.97706 0.5578,5.248669 0.65815,11.434414 0.0893,5.509687 0.13823,6.888422 0.26734,7.562122 0.0833,0.435298 0.35367,0.204305 0.82296,-0.703902 0.7544,-1.459978 1.49359,-4.13236 1.80633,-6.528042 0.21363,-1.636467 0.3224,-12.565932 0.14497,-14.572482 -0.37665,-4.25979 -2.76786,-9.21745 -5.99612,-12.4321 -1.6899,-1.68279 -3.32547,-2.8142 -5.69295,-3.93789 -3.33442,-1.58263 -7.12894,-2.46273 -10.28182,-2.43747 -0.72759,0.006 -1.4213,0.06 -2.06705,0.16481 -3.76943,0.61138 -7.12826,2.63703 -10.5431,6.35827 -2.26991,2.47359 -3.92774,5.06572 -7.00705,10.94548 -1.58603,3.02846 -2.15911,5.19189 -5.09212,6.955788 -0.39825,0.154743 -0.80686,0.302275 -1.24079,0.433806 h -0.004 l -0.006,0.0017 c -1.77828,0.599054 -2.14157,0.631176 -3.54101,0.295451 -0.84335,-0.202315 -2.27516,-0.835794 -3.07798,-1.367565 l -0.002,-0.0017 -0.002,-0.0022 c -1.59453,-1.011205 -2.80849,-2.15059 -3.77748,-3.37289 l 0.0667,-0.0254 -0.29711,-2.35975 -0.002,-0.01 c -0.57707,-2.9353 -0.59302,-10.1182 0.0336,-14.17175 0.81269,-5.25702 -0.26438,-10.85266 -2.68387,-13.38681 -0.13648,-0.18819 -0.27598,-0.35171 -0.42553,-0.48838 -0.36893,-0.33722 -0.7833,-0.51492 -1.2441,-0.60358 -0.3999,-0.077 -0.86778,-0.0886 -1.3852,-0.10914 l -0.004,-0.0154 h -0.20726 -0.0116 l -0.006,0.28167 h -0.092 c 0.0347,-0.24035 0.0607,-0.4899 0.0788,-0.74469 0.0473,-0.66413 0.0444,-1.32497 0.0446,-1.68562 5e-4,-0.83951 -0.0245,-1.36649 -0.22875,-1.85373 -0.20424,-0.48728 -0.56497,-0.88136 -1.17189,-1.48829 -0.74398,-0.74397 -1.38561,-1.19796 -2.11666,-1.33945 -0.73104,-0.14148 -1.49983,0.0395 -2.48047,0.44924 -0.28523,0.11917 -0.49807,0.2048 -0.64878,0.24805 -0.15072,0.0432 -0.22529,0.0417 -0.27726,0.027 -0.052,-0.0146 -0.11489,-0.0514 -0.21883,-0.16592 -0.10393,-0.11451 -0.23653,-0.29762 -0.41397,-0.5468 -0.30471,-0.42792 -0.61309,-0.74489 -0.98833,-1.00597 v -0.002 l -0.2949,-0.46632 -0.10142,-0.0303 c -1.52289,-0.45743 -3.1372,-0.73992 -4.31436,-0.78714 v 5.6e-4 c -0.17659,-0.007 -0.3426,-0.0116 -0.4972,-0.0105 z m 11.12408,15.3993 -0.038,2.96389 -0.28057,-0.0243 c -1.38584,9.9837 -2.81184,15.38872 -0.34781,26.250529 l -0.34561,-0.822414 c -2.60739,-6.210085 -3.90269,-10.156835 -3.93954,-13.744555 -0.0368,-3.58769 1.17628,-6.86313 3.66613,-11.7712 0.53846,-1.0614 0.96861,-2.02209 1.28544,-2.85199 z m 46.32027,16.29117 c 1.05825,-0.0168 2.03562,0.10976 2.92585,0.37648 0.90922,0.27242 2.06451,1.05819 3.15019,2.11556 1.08569,1.05739 2.11004,2.38286 2.809,3.71299 1.92445,3.66227 2.92914,7.643058 3.15791,12.532982 l 0.0899,1.908307 c -0.39106,-0.821948 -0.853,-1.915256 -1.03684,-3.226814 -0.28677,-2.04587 -0.96254,-4.320891 -1.15645,-5.052439 -1.39843,-5.276616 -6.58962,-9.594236 -12.14658,-10.113146 h -0.002 -0.002 c -3.4405,-0.25941 -6.7463,0.98288 -9.98857,2.54882 1.68684,-1.04729 3.29966,-2.20803 4.15837,-2.61552 2.99401,-1.42078 5.71295,-2.15023 8.04113,-2.18722 z m -5.44105,7.58638 h 5.5e-4 c 0.001,0.002 0.004,0.009 0.004,0.009 2.7e-4,4.4e-4 0.0178,0.0219 0.0237,0.0292 0.0119,0.0147 0.0186,0.0227 0.0254,0.0292 0.027,0.0261 0.0401,0.0355 0.0584,0.0491 0.0367,0.0273 0.0806,0.058 0.13064,0.0915 0.10004,0.067 0.21452,0.13908 0.28332,0.1797 0.11459,0.0677 0.40561,0.32239 0.8847,0.62728 l 0.0176,0.0116 0.0176,0.008 c 2.09768,0.94593 4.86019,3.825945 6.03746,6.341728 0.62704,1.339944 1.00044,2.546243 1.26339,4.707379 0.26295,2.161136 0.40721,5.267422 0.55452,10.3419 0.0501,2.564387 -0.12145,5.113771 0.20395,7.169106 -0.34934,-0.0084 -0.72899,-0.02759 -1.12338,-0.06394 -0.27206,-0.02502 -0.54546,-0.05674 -0.81139,-0.0904 -0.0254,-0.167976 -0.0466,-0.34133 -0.0584,-0.527513 -0.006,-0.327019 -0.15086,-4.110835 -0.32246,-8.408789 -0.45246,-11.325086 -1.3221,-15.130846 -4.01339,-17.562271 -2.18226,-1.97155 -5.15145,-2.46918 -8.91591,-1.49269 -0.75355,0.19547 -1.42984,0.33787 -1.75783,0.37593 1.24468,-0.52178 2.29824,-0.91446 2.83656,-1.03849 1.42219,-0.32769 2.67671,-0.5476 3.61928,-0.67414 0.41712,-0.056 0.7614,-0.0909 1.04179,-0.11244 z m -4.87935,5.06842 c 2.7125,-0.022 6.20428,2.998001 7.11177,6.151011 0.28651,0.995428 0.67457,3.950472 0.86266,6.566628 0.18807,2.616139 0.43785,5.712345 0.55507,6.880269 0.0762,0.759066 0.1108,1.422984 0.10087,1.798615 -0.64897,-1.112835 -0.98561,-1.737532 -1.27771,-2.848681 -0.2976,-1.132099 -0.54804,-2.786341 -1.00377,-5.933281 -0.26106,-1.802627 -0.55627,-3.552488 -0.82241,-4.924006 -0.13307,-0.685757 -0.25965,-1.276199 -0.37097,-1.734123 -0.11133,-0.457921 -0.19384,-0.762285 -0.29876,-0.965178 -0.4994,-0.96573 -1.20419,-1.610225 -2.58795,-1.986028 -1.38378,-0.375807 -3.45624,-0.536735 -6.85933,-0.668073 -1.87997,-0.07256 -3.33045,-0.144478 -4.4698,-0.223794 0.34432,-0.186642 1.54054,-0.481608 3.45447,-0.959665 2.52271,-0.630119 5.04526,-1.149108 5.60586,-1.153694 z m -39.85562,5.970213 c 0.62487,0.752945 1.16324,1.456198 1.78318,2.158559 0.63099,0.714875 1.2149,1.352525 1.66577,1.816254 1.85127,1.325915 1.59468,1.276909 2.81667,2.493698 4.19185,3.963934 8.48273,4.957439 14.78525,3.439583 1.07783,-0.259581 2.26103,-0.596552 3.11381,-0.881393 0.14829,0.258654 0.38321,0.611862 0.51925,0.73477 0.77325,0.698335 6.47316,5.300833 7.40337,5.85115 0.0337,0.01996 0.068,0.03916 0.10252,0.05733 -0.0166,0.0051 -0.0322,0.0077 -0.049,0.01323 -1.81595,0.599327 -3.19698,0.713418 -4.74431,0.197335 -1.54732,-0.51608 -3.27551,-1.689908 -5.67972,-3.712986 -0.79603,-0.669843 -1.20898,-1.020573 -1.52908,-1.16582 -0.08,-0.03631 -0.16312,-0.07647 -0.30096,-0.04685 -0.0572,0.0123 -0.11747,0.0482 -0.16481,0.09315 -0.44777,-0.412712 -0.76574,-0.257792 -1.5186,-0.492235 -0.34715,-3.41e-4 -0.63265,0.14421 -1.81074,0.917773 -0.50582,0.332141 -1.11682,0.653186 -1.35765,0.713824 -0.22036,0.05548 -0.4501,0.176881 -0.61129,0.304822 l -0.0314,-0.09812 h -0.20285 c -3.72214,-0.02264 -6.28107,-1.117902 -9.68981,-3.165629 -0.59786,-0.427076 -1.13805,-0.843582 -1.51915,-1.164167 -0.53588,-0.390961 -0.54923,-0.735321 -0.75411,-1.265043 -0.11429,-0.294693 -0.26905,-0.653248 -0.44924,-1.041246 -0.36908,-0.794685 -0.80068,-2.322228 -0.9299,-3.299023 -0.11771,-0.889473 -0.3892,-1.622117 -0.84721,-2.458971 z m 43.22464,13.851488 -0.5468,0.05843 -0.24419,1.956814 c -0.32037,2.564096 -0.0212,5.850457 0.73256,7.732448 0.60393,1.509387 1.72984,2.646951 3.37124,3.400446 1.64096,0.753299 3.79436,1.137533 6.50764,1.195586 l 2.16959,0.04685 0.13284,-0.53523 -2.46669,-1.232518 h -0.002 c -2.79037,-1.396409 -6.22875,-4.593256 -7.35983,-6.797035 -0.41896,-0.816291 -1.11858,-2.48325 -1.53293,-3.660069 z"
         sodipodi:nodetypes="cssssccscsssccccccccccccccccccccsssccccccccscssccccssscscssccccsssccccsscscssscsscccscccccccccccsssssscsssscccccccccccccscsssscccccccccccccccccccsccccccssscsccsscssccssccccsccccccccccccccccccccsssccssccccccccccccccsccssssccscccccssscccscccccccssccccccsscsscccssscssssssscscssccsccsccssssccssccccccscssccccscccccscc" /><path
         sodipodi:nodetypes="cccccc"
         inkscape:connector-curvature="0"
         id="path2329"
         d="m -190.12732,-103.92476 5.20052,2.6777 8.90796,13.054406 0.17446,-5.087125 -7.85288,-11.526671 z"
         style="fill:#dba338;fill-opacity:1;fill-rule:evenodd;stroke:none;stroke-width:0.51773px;stroke-linecap:butt;stroke-linejoin:miter;stroke-opacity:1" /><g
         id="g4477"
         style="fill:#f5c042;fill-opacity:1"><path
           id="path4290"
           d="m 93.369141,152.42383 c 0,0 1.518191,5.99233 1.908203,45.40234 0.351142,35.4689 0.474195,37.1284 3.597656,48.75781 3.88672,14.46779 7.90525,23.04636 13.16016,28.09766 1.91646,1.8422 5.02824,4.80152 7.41015,7.06055 16.8581,6.2831 31.85692,4.06219 47.07227,0.37304 -1.04783,-1.69543 36.97624,-20.00506 45.73633,-22.02343 10.13995,-2.33635 17.90236,-3.1163 19.23047,-2.84375 18.63145,3.22334 39.57399,22.56129 45.17773,46.65625 1.0109,3.6458 9.01774,18.31733 12.83789,24.12304 0.47218,0.76547 0.93995,1.39709 1.38281,1.91797 -0.0458,0.35024 -0.0691,0.59675 -0.11719,0.95703 -0.61231,2.38262 -0.74319,4.506 -0.84374,7.33008 0.0248,12.52571 4.52838,28.76237 9.95117,35.89649 1.5942,2.09537 1.76677,0.25365 1.62695,-17.45508 l -0.0469,-5.96875 v -0.0625 l -0.33593,-12.71094 0.22656,-1.05664 c 0.0206,-0.067 0.0382,-0.12673 0.0586,-0.19336 0.41674,0.11573 0.8298,0.21376 1.23243,0.27539 l 3.94921,0.25391 c 1.6526,0.1794 3.50284,0.22417 5.04493,0.0898 l -2.03907,-2.65039 c -0.74542,-0.96771 -2.95005,-3.63356 -5.52343,-6.71289 0.13975,-0.43373 0.26544,-0.83956 0.41797,-1.29883 0.72223,-2.34125 2.27394,-10.74329 2.22851,-24.54101 -0.14492,-46.06009 -21.54414,-82.53225 -51.16601,-87.20899 -17.00412,-2.68458 -33.78635,3.63777 -51.82618,19.52344 -11.19857,10.28356 -18.67845,22.34249 -28.91015,31.57812 l -0.25,0.15235 c -5.9129,5.22528 -12.86744,9.61636 -22.1875,12.4414 -6.34086,2.13605 -8.07698,2.27618 -13.10352,1.07032 -3.18671,-0.76447 -8.23742,-3.00768 -11.22461,-4.98633 C 84.254523,246.8973 113.6175,193.69162 96.775381,157.48629 c 12.304209,15.71439 3.554839,48.19138 6.982419,73.86523 1.13726,8.93892 2.70026,15.96363 6.59375,24.38282 l 4.08789,6.17187 -1.04492,-8.32617 c -2.10199,-10.69193 -2.13804,-36.02655 0.10938,-50.56446 2.84432,-18.39901 -1.09383,-38.08187 -9.26172,-46.61132 -0.47126,-0.66072 -0.94666,-1.20604 -1.44141,-1.65821 -2.33748,-2.13658 -4.981281,-2.1378 -9.431639,-2.32226 z m 154.884769,77.97851 c 3.83873,-0.061 7.40741,0.395 10.67187,1.37305 6.98914,2.09402 16.64093,11.49459 21.71289,21.14649 6.89117,13.11406 10.49278,27.38779 11.3086,44.82617 l 0.55468,11.88867 c -0.15529,-0.43723 -0.29734,-0.81403 -0.41797,-1.04492 -0.76882,-1.47177 -4.48413,-8.19024 -5.48437,-15.32618 -1.00024,-7.13594 -3.37023,-15.14053 -4.07227,-17.78906 -4.83158,-18.23081 -22.93159,-33.29587 -42.16406,-35.09179 -19.23256,-1.45011 -37.81469,9.76149 -55.70117,19.66992 5.85967,-4.63881 27.33703,-18.31382 34.69336,-21.80469 10.70026,-5.0777 20.45321,-7.71345 28.89844,-7.84766 z"
           style="fill:#f5c042;fill-opacity:1;stroke-width:0.185208"
           transform="matrix(0.2822222,0,0,0.2822222,-254.10849,-176.22406)" /><path
           sodipodi:nodetypes="cccscsccscsssccc"
           inkscape:connector-curvature="0"
           style="fill:#f5c042;stroke-width:0.185208;fill-opacity:1"
           d="m -179.29648,-73.451344 c -0.50202,0.01192 -1.14959,-0.0064 -1.82824,-0.0689 -1.21464,-0.111701 -2.47966,-0.324585 -2.81112,-0.473236 -0.33143,-0.148666 -1.23368,-1.351632 -2.00519,-2.67258 -1.35019,-2.311912 -1.43836,-2.645901 -2.35,-8.94096 -0.52088,-3.596805 -1.17882,-6.987436 -1.46219,-7.535396 -0.95235,-1.841633 -2.41215,-2.238365 -9.20893,-2.500678 -5.3738,-0.207397 -7.41088,-0.406164 -7.99953,-0.815022 -4.16143,1.171433 -8.69709,1.665507 -13.1192,0.05463 1.73194,1.639294 4.85323,3.100514 7.40699,3.5149 1.18762,0.19271 4.14751,0.352834 6.57678,0.35594 5.28284,0.0064 10.06787,0.508121 11.54782,1.210395 1.45809,0.691926 2.05811,2.103362 3.06897,7.214855 1.5154,7.662986 2.82071,10.53264 5.13684,11.297031 1.2134,0.400465 5.0672,0.289851 6.27646,-0.17998 z"
           id="path4284" /><path
           sodipodi:nodetypes="ccccccccc"
           inkscape:connector-curvature="0"
           style="fill:#f5c042;stroke-width:0.185208;fill-opacity:1"
           d="m -242.27653,-97.119433 0.007,2.038563 c 0.0128,3.901737 0.65083,10.816215 1.15983,12.567084 0.52679,1.812098 2.41631,4.295446 4.27532,5.619195 l 0.9859,0.701766 -0.99399,-2.13867 c -1.20102,-2.585321 -1.69614,-5.459324 -1.69981,-9.849007 -0.001,-1.813753 -0.15465,-3.385707 -0.34077,-3.500747 -1.71302,-2.219411 -2.88486,-4.388342 -3.39356,-5.438184 z"
           id="path4296" /><path
           id="path4298"
           d="m -179.32176,-72.216802 c 0.33125,1.656285 2.28745,3.895521 4.29047,4.911354 1.75437,0.889734 4.09938,1.260786 4.09938,0.648177 0,-0.157801 -0.77728,-1.175604 -1.72712,-2.261026 -0.94984,-1.085432 -1.8804,-2.370292 -2.06687,-2.855607 -0.18644,-0.485305 -0.40069,-3.481927 -0.47627,-6.658692 -0.0756,-3.176757 -0.35781,-7.22608 -0.62796,-8.998596 -0.32002,-6.973083 -6.74693,-14.829468 -13.05069,-15.993708 l -0.35203,-0.0491 c -0.0391,-0.006 0.30685,0.22024 0.42138,0.28786 0.17281,0.10204 0.43207,0.33888 0.89357,0.63258 2.20433,0.99402 4.96263,3.887149 6.17535,6.478709 1.27314,2.720636 1.55068,5.007878 1.84541,15.1608 0.0648,3.305002 -0.23074,6.582455 0.57538,8.697275 z"
           style="fill:#f5c042;fill-opacity:1;stroke-width:0.185208"
           inkscape:connector-curvature="0"
           sodipodi:nodetypes="csscccccsscscc" /><path
           sodipodi:nodetypes="ccccscccc"
           inkscape:connector-curvature="0"
           style="fill:#f5c042;stroke-width:0.185208;fill-opacity:1"
           d="m -191.25788,-78.348684 -0.2447,1.957668 c -0.3138,2.511549 -0.006,5.795382 0.71391,7.593035 1.15526,2.887318 4.24309,4.304124 9.62451,4.418909 l 2.16901,0.04648 -2.4673,-1.233652 c -2.85938,-1.430483 -6.30034,-4.612706 -7.48485,-6.920598 -0.43159,-0.840907 -1.12857,-2.503272 -1.54813,-3.694895 z"
           id="path4300" /><path
           id="path4302"
           d="m -228.17041,-91.895621 -0.4247,1.635097 c -0.63897,2.463545 -0.54717,2.920722 0.83828,4.230829 4.14045,3.915322 8.27635,4.876136 14.52475,3.371313 1.49497,-0.36004 3.25322,-0.888611 3.90725,-1.173995 1.15388,-0.503498 1.06823,-0.519133 -2.88796,-0.536943 -4.1692,-0.01875 -7.45148,-0.567722 -9.44655,-1.57948 -1.87122,-0.948953 -4.21871,-2.887144 -5.38764,-4.447226 z"
           style="fill:#f5c042;stroke-width:0.185208;fill-opacity:1"
           inkscape:connector-curvature="0"
           sodipodi:nodetypes="csscscccc" /><path
           sodipodi:nodetypes="ccccccccccccccc"
           inkscape:connector-curvature="0"
           style="fill:#f5c042;stroke-width:0.185208;fill-opacity:1"
           d="m -227.79526,-98.138714 0.99502,1.843398 c 1.29186,2.390365 4.93241,6.07097 7.19159,7.271477 2.1055,1.118877 6.63411,2.316233 11.81174,3.122566 3.49502,0.544363 5.5966,1.213316 5.61311,1.786775 0.4724,4.905507 1.27115,8.412902 2.52596,12.530683 0.035,0.06125 0.0811,0.153325 0.14163,0.285156 0.87629,1.906882 3.59953,3.562356 5.86491,3.565462 l 1.55472,-0.02609 -1.08148,-1.17309 c -2.19213,-3.382661 -3.83129,-7.458599 -3.91532,-11.029069 -0.0147,-2.120233 -0.81774,-5.329829 -1.52891,-6.115686 -0.90596,-1.001077 -2.99378,-1.60833 -7.54653,-2.196311 -8.36143,-1.079844 -13.99861,-3.449123 -19.78094,-8.313005 z"
           id="path4304" /><path
           id="path4326"
           d="m -207.64043,-71.817229 c 0.28687,0.0849 0.64027,0.251918 1.153,0.511498 1.68585,0.853489 5.69706,1.723207 6.50904,1.411621 0.36508,-0.140154 0.46597,-0.482254 0.33573,-1.14163 -0.0875,0.08745 -1.21588,-3.499829 -1.71702,-5.298648 -0.15666,-0.110142 -0.34571,-0.09989 -0.62693,-0.0072 -3.69477,1.219404 -5.86767,0.494903 -10.69537,-3.567487 -1.5879,-1.336184 -1.7917,-1.429085 -1.56534,-0.709855 0.52927,1.681588 2.36572,4.532039 4.19139,6.503986 l 1.8788,2.02946 z"
           style="fill:#f5c042;stroke-width:0.185208;fill-opacity:1"
           inkscape:connector-curvature="0"
           sodipodi:nodetypes="csccccscccc" /><path
           sodipodi:nodetypes="csssccccc"
           inkscape:connector-curvature="0"
           style="fill:#f5c042;stroke-width:0.185208;fill-opacity:1"
           d="m -233.25978,-84.910784 c -0.10512,0.05126 -0.11869,0.245173 -0.007,0.618322 2.10449,7.096769 4.41514,10.458235 8.48187,12.334514 2.02161,0.932727 6.29288,1.851683 8.56579,1.8434 1.97298,-0.0072 5.901,-0.808285 7.23812,-1.475328 0.32985,-0.164553 0.56793,-0.264308 0.80792,-0.288771 l -0.38434,-0.249287 c -11.67428,-1.34263 -19.83939,-5.998031 -24.38158,-12.377937 z"
           id="path4330" /><path
           id="path4332"
           d="m -232.81744,-84.826713 c -0.12878,-0.02609 -0.31386,-0.0539 -0.44234,-0.08407 l 0.2917,0.391259 c 3.94524,4.610719 8.59628,7.937548 15.41417,10.296476 -1.17781,-2.266068 -1.89494,-3.628965 -2.47438,-5.393696 -3.77994,-0.02299 -6.41208,-1.150749 -9.83991,-3.210532 -1.21663,-0.868177 -2.19055,-1.687624 -2.16395,-1.820148 z"
           style="fill:#f5c042;stroke-width:0.185208;fill-opacity:1"
           inkscape:connector-curvature="0"
           sodipodi:nodetypes="cccccccc" /><path
           id="path4336"
           d="m -228.62443,-93.005912 0.53996,0.812996 c 1.47995,2.197366 4.38273,4.833828 6.33715,5.754695 2.91172,1.371921 5.01937,1.724062 10.14528,1.696778 5.31226,-0.02827 7.04799,-0.432368 3.40064,-0.791766 -3.26428,-0.321655 -8.28765,-1.681525 -10.88345,-2.945599 -5.11287,-2.4898 -9.24835,-8.235921 -10.64481,-14.791712 -1.30852,-6.84368 -0.92397,-14.04792 -0.66889,-20.9605 -1.39486,10.04866 -2.82447,15.38338 -0.31603,26.317792 0.59219,1.37098 1.28553,2.971528 1.53904,3.557376 l 0.4601,1.065794 z"
           style="fill:#f5c042;stroke-width:0.185208;fill-opacity:1"
           inkscape:connector-curvature="0"
           sodipodi:nodetypes="ccsssscccccc" /><path
           sodipodi:nodetypes="cccscccccccccscccccccscccccccc"
           inkscape:connector-curvature="0"
           id="path4350"
           d="m -231.00883,-94.879645 1.26702,0.647163 -1.88991,-4.500815 c -5.22186,-12.437123 -5.25704,-15.911473 -0.26494,-25.752013 1.46214,-2.88217 2.132,-5.03494 1.78678,-5.60908 l -1.65633,1.0759 c -0.31991,0.22648 -4.7674,3.55035 -4.93562,3.68883 -0.0349,0.0286 -0.066,0.0491 -0.089,0.0576 l -3.84253,2.87078 -0.44088,0.75839 -0.26998,0.56627 c -0.67384,1.55175 -1.41655,3.32762 -1.88992,4.77282 -2.28435,7.04867 -0.96827,17.470487 4.69597,24.705433 0.62842,0.887623 2.29799,2.822763 3.71006,4.300597 1.15647,1.210329 1.92921,2.101782 1.99413,2.343869 l 0.77558,0.178972 c -0.0262,-0.22292 -0.2799,-0.875105 -0.6361,-1.642101 -0.39054,-0.840902 -0.8199,-2.361502 -0.95455,-3.3794 -0.20436,-1.544219 -0.59435,-2.322941 -2.35204,-4.700022 -3.71577,-5.243637 -8.07146,-13.486538 -5.00438,-20.386628 -2.26264,6.60259 0.85356,14.08794 5.1682,20.186412 1.82506,2.439683 5.7801,6.920597 6.1086,6.920597 0.28618,0 1.11988,-3.069254 1.1452,-4.357222 l -0.24595,-0.78651 -0.091,-0.308416 -1.6,-1.039701 c -4.78138,-2.717053 -7.23859,-7.88836 -8.56064,-12.24219 -1.52581,-6.09526 3.54217,-15.86985 5.94064,-20.29796 -1.81494,3.60863 -7.18311,14.28122 -5.56562,20.23457 1.2498,4.51581 3.49542,9.066184 7.69721,11.69381 z"
           style="fill:#f5c042;stroke-width:0.185208;fill-opacity:1" /><path
           sodipodi:nodetypes="cssccscccccccccsssccsc"
           inkscape:connector-curvature="0"
           id="path4359"
           d="m -240.99838,-142.31566 c -0.68523,-0.0275 -1.20472,0.0289 -1.43691,0.18101 -0.59743,0.39129 -0.3256,0.64474 2.80706,2.62303 1.07734,0.68034 1.91824,1.27649 1.86869,1.32466 -0.0495,0.0482 -1.43456,-0.0762 -3.07705,-0.27605 -2.3084,-0.2809 -3.07974,-0.26881 -3.3976,0.0536 -0.55159,0.55948 0.18106,1.10734 3.75354,2.80808 0.80365,0.39037 1.99477,0.99142 2.51685,1.42578 0.31699,0.32327 0.86723,0.78252 1.09006,0.96569 0.45319,0.57464 0.82544,1.20554 1.18916,1.84441 0.39352,0.66865 0.8588,1.35912 1.03344,1.53499 0.4271,0.43 1.02072,0.57679 2.02543,0.50054 0.87433,0.10958 1.50419,-0.47835 2.24281,-0.91614 0.74714,-0.60347 1.59431,-1.38869 1.9872,-2.08195 0.39289,-0.69326 0.3816,-2.5842 0.38203,-3.30873 9.9e-4,-1.66619 -0.11246,-1.93764 -1.31758,-3.14278 -1.45414,-1.45412 -2.37137,-1.63163 -4.28949,-0.83019 -1.14471,0.47828 -1.18591,0.46612 -1.898,-0.53391 -0.32146,-0.45144 -0.61275,-0.77462 -0.99603,-1.01827 l -0.23863,-0.3792 c -1.50049,-0.45071 -3.10296,-0.72876 -4.24498,-0.77457 z"
           style="fill:#f5c042;fill-opacity:1;stroke-width:0.185208" /></g><circle
         style="fill:#e7a63b;fill-opacity:1;fill-rule:nonzero;stroke:none;stroke-width:2.82222;stroke-linecap:round;stroke-linejoin:round;stroke-miterlimit:4;stroke-dasharray:none;stroke-dashoffset:0;stroke-opacity:1"
         id="path4234"
         cx="-232.83968"
         cy="-136.6866"
         r="1.1472514" /><path
         style="fill:#dba338;fill-opacity:1;stroke-width:0.0522698"
         d="m -171.5122,-89.318365 -0.0667,0.0193 0.0215,0.463022 c 0.23565,0.663812 0.65677,2.076972 1.77602,3.394936 0.52276,0.615575 1.01745,1.206548 1.48828,1.769951 0.0296,-0.092 0.0506,-0.166596 0.0821,-0.262379 -0.44602,-0.533064 -0.9043,-1.081281 -1.39458,-1.658606 -0.64363,-0.757905 -1.05165,-1.553204 -1.32622,-2.214231 -0.27443,-0.660696 -0.39683,-1.160373 -0.54019,-1.434815 z m -0.5027,6.211646 c -0.0129,0.09887 -0.0195,0.168391 -0.0331,0.270095 -0.002,0.0086 -0.004,0.01679 -0.006,0.02534 0.1018,0.105466 0.20136,0.203146 0.29489,0.26734 0.69456,0.619359 1.69298,1.300855 2.65466,1.564349 l 0.004,5.65e-4 0.0364,-0.171978 c 0.006,-0.01865 0.0109,-0.03545 0.0165,-0.05402 -0.9062,-0.252129 -1.90267,-0.923629 -2.57582,-1.527418 -0.11036,-0.0753 -0.24583,-0.203059 -0.39137,-0.374274 z"
         id="path4381" /></g></g></svg>
