<svg height="441.278328" viewBox="0 0 260.38 507.06" width="226.614347" xmlns="http://www.w3.org/2000/svg"><g fill="#b69b56"><path d="m126.53 0v10.21h-10.21v6.83h10.21v10.2h7.32v-10.2h9.72v-6.83h-9.72v-10.21z"/><path d="m85.67 96.81h89.04v-7.28h-89.04z"/><path d="m85.67 82.21h89.04v-7.27h-89.04z"/><path d="m126.53 68.11h7.32v-33.59h-7.32z"/><path d="m89.57 65.18c-2.9-4.2-4.74-9.04-5.37-14.11.19-5.24 4.36-9.47 9.61-9.72 1.15-.12 2.31.05 3.38.49.95-2.21 2.09-4.33 3.41-6.34-2.28-1.04-4.77-1.54-7.28-1.46-9.03.26-16.29 7.52-16.55 16.55.62 5.89 2.61 11.56 5.82 16.55h8.29c-.98 0-.98-.98-1.46-1.95"/><path d="m114.86 68.11c0-.49-.49-.98-.49-1.95-2.21-4.6-3.68-9.53-4.35-14.6-.32-4.29 2.26-8.26 6.3-9.72.98-.49 2.44 0 3.41 0v-7.32c-1.64-.08-3.29.08-4.88.49-7.12 2.26-11.76 9.1-11.26 16.55.6 5.71 2.08 11.29 4.39 16.55h6.87z"/><path d="m166.94 34.52c-2.52-.09-5.02.42-7.32 1.46 1.42 1.95 2.57 4.08 3.41 6.34 1.09-.4 2.25-.57 3.41-.49 5.36.1 9.71 4.36 9.91 9.72-.86 5-2.67 9.79-5.33 14.11-.49.98-.98 1.46-1.46 2.44h8.26c3.23-4.98 5.24-10.65 5.85-16.55-.07-9.19-7.36-16.7-16.55-17.04"/><path d="m140.68 34.52v7.32c1.07-.49 2.31-.49 3.38 0 4.06 1.44 6.66 5.42 6.34 9.72-.69 5.07-2.17 9.99-4.39 14.6-.49.49-.49.98-.49 1.95h7.8c2.56-5.16 4.01-10.8 4.28-16.55.52-7.45-4.13-14.3-11.26-16.55-1.87-.61-3.87-.78-5.82-.49"/><path d="m237 458.39c-11.67 0-23.34 8.74-23.34 8.74h46.72s-11.67-8.74-23.38-8.74"/><path d="m210.13 472.5c-11.67 0-23.34 8.74-23.34 8.74h46.72s-11.71-8.74-23.38-8.74"/><path d="m192.72 488.56c-10.69-5.37-24.8-2.44-24.8-2.44l41.84 20.94c-3.67-7.75-9.61-14.2-17.04-18.5"/><path d="m158.16 488.56c-10.69-5.37-24.8-2.44-24.8-2.44l41.84 20.94c-3.66-7.76-9.6-14.22-17.04-18.5"/><path d="m246.76 441.36c4.95-6.83 7.82-14.95 8.26-23.38l-29.68 36.02c-.49 0 13.62-3.41 21.43-12.65"/><path d="m218.05 454c6.3-9.72 5.82-24.32 5.82-24.32l-25.78 38.91c-.49 0 13.13-4.88 19.96-14.6"/><path d="m177.15 478.8c7.25-4.27 13.16-10.5 17.04-17.97l-41.84 20.9c.49-.49 14.6 2.44 24.8-2.93"/><path d="m23.38 458.39c11.71 0 23.38 8.74 23.38 8.74h-46.76c6.77-5.11 14.88-8.15 23.34-8.74"/><path d="m49.68 472.5c11.67 0 23.34 8.74 23.34 8.74h-46.23s11.26-8.74 22.89-8.74"/><path d="m67.54 488.56c10.73-5.37 24.84-2.44 24.84-2.44l-41.88 20.94c3.67-7.75 9.61-14.2 17.04-18.5"/><path d="m102.22 488.56c10.69-5.37 24.8-2.44 24.8-2.44l-41.84 20.94c3.67-7.75 9.61-14.2 17.04-18.5"/><path d="m13.66 441.36c-4.97-6.82-7.85-14.95-8.29-23.38l29.72 36.02s-14.15-3.41-21.43-12.65"/><path d="m42.36 454c-6.34-9.72-5.85-24.32-5.85-24.32l25.82 38.91s-13.62-4.88-19.96-14.6"/><path d="m82.74 478.8c-7.25-4.28-13.15-10.51-17.04-17.97l41.88 20.9c0-.49-14.11 2.44-24.84-2.93"/></g><path d="m48.22 424.81c11.86 10.76 25.75 19.02 40.86 24.32v-334.79h-40.86z" fill="#ffd700"/><path d="m89.08 449.12c17.04 6.83 40.86 6.83 40.86 6.83v-341.46h-40.86v334.79-.15z" fill="#fa0000"/><path d="m48.22 114.34v310.47c-26.29-23.33-41.32-56.82-41.28-91.97v-218.5z"/><path d="m129.95 209.72c67.99.01 123.11 55.14 123.1 123.13-.01 67.98-55.12 123.09-123.1 123.1z"/><path d="m249.65 332.84c0 64.6-51.24 117.56-115.8 119.7v-239.36c64.56 2.15 115.79 55.1 115.8 119.7zm-239.41 0v-214.6h34.07v298.28c-21.87-22.36-34.1-52.4-34.07-83.68zm41.28-214.6h33.77v326.04c-12.27-4.99-23.66-11.89-33.77-20.45zm75.05 334.3c-11.47-.42-22.83-2.39-33.77-5.85v-328.45h33.77zm-123.12-341.47v221.77c0 70.01 56.75 126.76 126.76 126.76s126.76-56.75 126.76-126.76v-221.92l-253.51.15z" fill="#b69b56"/><path d="m140.68 178.58h5.33v-23.34l-5.33.48v-4.87l6.79-1.96h6.83v29.69h5.33v5.36h-18.95z" fill="#000105" fill-rule="evenodd"/><path d="m164.02 153.13c.49-.49.49-.98 1.46-1.46.71-.77 1.53-1.42 2.44-1.95 1.1-.58 2.24-1.07 3.41-1.46 1.64-.4 3.35-.52 5.03-.34 1.64-.11 3.29.06 4.88.49 1.17.4 2.32.89 3.41 1.46 1 .37 1.86 1.05 2.44 1.95l1.43 1.46v8.74l-1.43 1.46c-.81.87-1.81 1.54-2.93 1.95 1.26.39 2.31 1.27 2.93 2.44.78.69 1.43 1.51 1.91 2.44v7.28c-.49.49-.94 1.46-1.43 1.95-.67 1.02-1.73 1.73-2.93 1.95-1.13.76-2.41 1.26-3.75 1.46-1.46 0-2.93.49-4.88.49-1.73.21-3.48.1-5.18-.3-1.28-.41-2.53-.9-3.75-1.46-.98-.49-1.95-1.46-2.93-1.95s-1.46-1.46-1.46-1.95v-7.47c.49-.49.98-1.46 1.95-2.44s1.95-1.46 2.93-2.44c-.98-.49-1.95-1.46-2.93-1.95l-1.46-1.46v-8.89h.83zm7.5 22.86 1.91 1.95c.49.49 1.46.49 2.93.49 1.07.07 2.11-.28 2.93-.98.87-.38 1.57-1.08 1.95-1.95v-5.18l-1.95-1.95c-.89-.54-1.89-.87-2.93-.98-1.05.02-2.07.36-2.93.98-.86.39-1.54 1.08-1.91 1.95zm0-15.01 1.43 1.46c.92.4 1.93.56 2.93.49 1.46 0 2.44 0 2.93-.49s1.46-.98 1.46-1.46v-4.88l-1.46-1.43c-1.9-.65-3.96-.65-5.85 0-.94.49-1.43.98-1.43 1.43v4.88z" fill="#000105" fill-rule="evenodd"/><path d="m218.99 177.6c-.57.76-1.05 1.57-1.43 2.44-.58.9-1.43 1.59-2.44 1.95-1.13.76-2.41 1.26-3.75 1.46-1.59.43-3.24.59-4.88.49-1.63.11-3.27-.06-4.84-.49-1.46-.49-2.44-.98-3.75-1.46-.9-.53-1.73-1.18-2.44-1.95l-1.46-1.46v-4.39h7.5v1.46l1.91 1.95c.89.54 1.89.87 2.93.98 1.05-.02 2.07-.36 2.93-.98.87-.38 1.57-1.08 1.95-1.95v-6.79l-2.93 1.46c-1.41.46-2.91.63-4.39.49-1.15.11-2.31-.06-3.38-.49-.98-.49-1.95-.49-2.93-1.46-.73-.36-1.4-.86-1.95-1.46-.49-.49-.98-1.46-1.46-1.95v-12.31l1.46-1.46c.71-.77 1.53-1.42 2.44-1.95 1.22-.56 2.47-1.05 3.75-1.46 1.58-.43 3.21-.6 4.84-.49 1.64-.11 3.29.06 4.88.49 1.28.41 2.53.9 3.75 1.46.98.49 1.95 1.46 2.93 1.95s1.43 1.46 1.43 1.95v23.83l-.68.15zm-12.61-11.67c.84.12 1.71-.05 2.44-.49.98-.49 1.46-.49 2.44-.98v-7.8l-1.95-1.91c-.89-.54-1.89-.87-2.93-.98-1.07-.07-2.11.28-2.93.98-.84.39-1.52 1.07-1.91 1.91v7.5l1.91 1.95 2.93-.19z" fill="#000105" fill-rule="evenodd"/><path d="m223.87 174.19h7.8v1.95l1.95 1.95c.87.55 1.86.88 2.89.98.98 0 2.44 0 2.93-.49.87-.38 1.57-1.08 1.95-1.95v-6.79c-.56-.6-1.22-1.1-1.95-1.46-.92-.4-1.93-.56-2.93-.49-.99-.08-1.98.09-2.89.49-.53.25-1.03.58-1.46.98h-7.8v-19.96h24.35v6.34h-16.55v8.26l2.89-1.46c1.21-.41 2.48-.58 3.75-.49 1.16-.11 2.33.05 3.41.49.98.49 1.95.49 2.93 1.46.87.38 1.57 1.08 1.95 1.95.49.49.98 1.46 1.46 1.95v10.69c-.49.49-.49.98-1.46 1.46-.71.77-1.53 1.42-2.44 1.95-1.22.56-2.47 1.05-3.75 1.46-1.59.43-3.24.59-4.88.49-1.63.11-3.27-.06-4.84-.49-1.17-.4-2.32-.89-3.41-1.46-.9-.53-1.73-1.18-2.44-1.95-.49-.49-.98-1.46-1.46-1.95v-3.75" fill="#000105" fill-rule="evenodd"/></svg>