<?xml version="1.0" encoding="utf-8"?>
<!-- Generator: Adobe Illustrator 16.0.4, SVG Export Plug-In . SVG Version: 6.00 Build 0)  -->
<!DOCTYPE svg PUBLIC "-//W3C//DTD SVG 1.1//EN" "http://www.w3.org/Graphics/SVG/1.1/DTD/svg11.dtd">
<svg version="1.1" id="Layer_1" xmlns="http://www.w3.org/2000/svg" xmlns:xlink="http://www.w3.org/1999/xlink" x="0px" y="0px"
	 width="201px" height="64px" viewBox="0 0 201 64" enable-background="new 0 0 201 64" xml:space="preserve">
<g>
	<defs>
		<rect id="SVGID_1_" x="0.06" y="0.382" width="200.74" height="63.618"/>
	</defs>
	<clipPath id="SVGID_2_">
		<use xlink:href="#SVGID_1_"  overflow="visible"/>
	</clipPath>
	<path clip-path="url(#SVGID_2_)" fill="#FFFFFF" d="M197.437,6.243c-1.822,0.004-3.371,1.452-3.375,3.396
		c0.004,1.957,1.553,3.406,3.375,3.41c1.812-0.004,3.358-1.453,3.363-3.41C200.795,7.695,199.249,6.247,197.437,6.243"/>
	<path clip-path="url(#SVGID_2_)" fill="#FFFFFF" d="M196.858,21.683c-0.184-2.347-1.846-4.201-3.965-4.826l3.87-0.315l-1.077-13.25
		l-17.955,1.463c-1.185,0.103-2.263,0.484-3.188,1.064l-0.371-5.437h-13.587v3.857l-0.024,0.002l-14.485,0.99l-2.687,11.118
		l0.963-10.566c0,0-16.379-1.482-16.536-1.482c-2.491,0.011-4.541,1.521-5.469,3.603l-0.11-3.029l-14.438,0.533l0.074,1.994
		c-2.028-1.86-4.579-2.642-6.948-2.778L85.922,3.752l-0.08,0.555l-23.89,1.342l-11.01-0.478l-2.105,5.669l-1.54-5.85L32.903,4.295
		l-0.817,16.812L28.271,5.325L12.029,4.216L0,34.897l15.174,1.041l1.91-4.849l2.873,0.196l1.232,5.06l14.827,1.016l-0.425-1.75
		l17.576,0.854c-4.444,1.928-7.559,6.348-7.562,11.494l0.002,3.51c0.002,6.912,5.615,12.524,12.528,12.53l82.976-0.004
		c6.911-0.002,12.522-5.614,12.528-12.526v-3.51c-0.001-4.953-2.89-9.223-7.064-11.256l6.933-0.471l1.236-5.066l2.871-0.195
		l1.904,4.847l12.298-0.836l0.167,2.058l18.658-1.515c3.758-0.349,6.364-3.387,6.669-6.82l0.036-1.002L196.858,21.683"/>
</g>
<path d="M58.139,37.838c-5.583,0-10.126,4.541-10.126,10.127v3.507c0,5.584,4.543,10.127,10.126,10.127h82.971
	c5.584,0,10.129-4.543,10.129-10.127v-3.507c0-5.586-4.545-10.127-10.129-10.127H58.139"/>
<path fill="#FFFFFF" d="M48.793,51.472v-3.507c0-5.154,4.192-9.347,9.346-9.347h82.971c5.153,0,9.348,4.192,9.348,9.347v3.507
	c0,5.155-4.194,9.349-9.348,9.349H58.139C52.985,60.82,48.793,56.627,48.793,51.472"/>
<path d="M138.856,41.218v4.045h-9.482v2.351h8.035v3.899h-8.035v2.665h9.81v4.142h-15.961V41.218H138.856 M115.618,56.146
	c0.022-2.582,0.132-5.271-3.558-5.796c2.38-0.483,3.582-2.229,3.582-4.31c0-3.466-3.362-4.823-6.807-4.823h-11.04v17.102h6.095
	v-5.934h3.39c3.117,0,2.133,4.19,2.541,5.934h5.772v-2.165L115.618,56.146z M107.034,48.607l-3.117,0.022v-3.342h3.443
	c1.394,0,2.379,0.386,2.379,1.769C109.739,48.435,108.237,48.607,107.034,48.607z M75.929,41.218v4.313h-5.822v12.788h-6.259
	l0.001-12.764h-5.82v-4.338H75.929z M83.223,41.218h6.285v17.102h-6.285V41.218z"/>
<polyline points="110.293,7.723 111.256,33.911 120.893,33.558 119.928,7.369 110.293,7.723 "/>
<polyline fill="#ED1C24" points="119.432,32.2 112.614,32.451 111.754,9.081 118.571,8.831 119.432,32.2 "/>
<path d="M185.348,15.059l8.832-0.717l-0.687-8.455l-15.565,1.266c-2.793,0.244-4.692,2.807-4.47,5.588l0.484,5.958
	c0.086,1.291,1.01,2.452,2.272,2.772c0,0,6.608,1.759,6.612,1.761c0.504,0.133,1.507,1.469,0.506,1.553l-9.862,0.8l0.722,8.869
	l16.26-1.322c2.795-0.245,4.695-2.808,4.474-5.589l-0.461-5.664c-0.09-1.342-1.127-2.461-2.423-2.762c0,0-6.125-1.631-6.137-1.634
	c-0.617-0.165-1.156-0.762-1.272-1.377C184.532,15.569,184.745,15.108,185.348,15.059"/>
<path fill="#ED1C24" d="M175.35,18.584l-0.485-5.958c-0.168-2.086,1.254-3.91,3.178-4.066l14.16-1.152l0.457,5.642l-7.426,0.602
	c-1.242,0.101-2.179,1.181-2.078,2.395c0.097,1.218,1.176,2.475,2.39,2.8l6.151,1.637c0,0,1.26,0.24,1.36,1.512l0.463,5.661
	c0.171,2.089-1.254,3.911-3.182,4.067l-14.854,1.208l-0.49-6.053l8.455-0.688c1.035-0.085,1.812-0.98,1.729-1.994
	c-0.082-1.013-0.978-2.06-1.987-2.328l-6.611-1.762C176.579,20.107,175.456,19.869,175.35,18.584"/>
<path d="M106.131,21.634c0.437-0.39,0.815-0.839,1.125-1.329c0.834-1.302,1.264-2.871,1.364-4.54
	c0.175-2.78-0.726-5.039-2.271-6.497c-1.536-1.463-3.565-2.125-5.563-2.244L88.182,6.292l-1.575,27.105l9,0.524l0.489-8.427
	c0,0,2.018,0.116,2.027,0.116c0.532,0.03,0.625,0.696,0.696,1.103c0.131,0.753,0.129,1.512,0.117,2.272
	c-0.031,1.732-0.104,3.407,0.084,5.134l8.479,0.492c0.07-1.183,0.531-7.318,0.3-9.193c-0.063-0.514-0.174-1.012-0.315-1.508
	C107.249,23.085,106.792,22.288,106.131,21.634 M98.335,17.412l-1.739-0.083l0.11-1.913l2.085,0.12
	c0.767,0.042,0.972,0.421,0.94,1.158C99.692,17.479,98.987,17.463,98.335,17.412z"/>
<path fill="#ED1C24" d="M106.35,30.033c0.238-3.666,0.572-7.476-3.127-8.44c2.451-0.547,3.815-2.956,3.986-5.912
	c0.288-4.921-3.009-7.045-6.503-7.249l-11.198-0.65l-1.41,24.289l6.18,0.358l0.491-8.427l3.435,0.2
	c3.162,0.183,1.818,6.078,2.089,8.577l5.856,0.339l0.178-3.075L106.35,30.033 M98.268,18.822l-3.163-0.151l0.275-4.747l3.491,0.202
	c1.415,0.083,2.381,0.689,2.268,2.65C101.024,18.738,99.486,18.892,98.268,18.822z"/>
<path d="M135.049,15.567l5.955,0.543l0.743-8.15l-13.631-1.241c-2.032-0.17-3.699,1.402-3.881,3.372l-1.744,19.16
	c-0.178,1.972,1.177,3.819,3.209,4.018l13.631,1.24l0.748-8.244l-5.954-0.544c-0.628-0.056-1.212-0.698-1.142-1.571l0.659-7.244
	C133.731,16.035,134.42,15.513,135.049,15.567"/>
<path fill="#ED1C24" d="M138.547,27.542l-4.55-0.414c-1.479-0.136-2.563-1.525-2.418-3.104l0.66-7.245
	c0.142-1.582,1.461-2.751,2.937-2.616l4.551,0.414l0.486-5.34l-12.224-1.112c-1.183-0.107-2.233,0.829-2.349,2.093l-1.746,19.162
	c-0.112,1.265,0.753,2.376,1.935,2.484l12.224,1.112L138.547,27.542"/>
<polyline points="75.214,24.892 75.17,24.088 84.363,23.58 83.938,15.858 74.742,16.364 74.698,15.561 83.893,15.054 83.44,6.872 
	64.487,7.918 65.94,34.222 84.893,33.176 84.408,24.384 75.214,24.892 "/>
<polyline fill="#ED1C24" points="73.896,25.985 73.736,23.097 82.895,22.591 82.584,16.955 73.424,17.46 73.265,14.571 
	82.425,14.065 82.109,8.359 65.974,9.25 67.271,32.734 83.405,31.844 83.054,25.48 73.896,25.985 "/>
<polyline points="52.583,7.659 48.451,18.807 45.424,7.311 35.187,6.812 33.909,33.125 43.141,33.574 43.192,32.546 43.511,33.592 
	51.937,34.003 52.354,32.992 52.304,34.02 61.538,34.468 62.816,8.155 52.583,7.659 "/>
<polyline fill="#ED1C24" points="53.546,9.118 48.225,23.482 44.322,8.669 36.53,8.29 35.387,31.786 41.801,32.096 42.176,24.38 
	44.572,32.231 51.012,32.545 54.159,24.963 53.783,32.68 60.196,32.991 61.339,9.497 53.546,9.118 "/>
<path d="M26.35,7.605l-12.724-0.87L3.434,32.728l10.152,0.694l1.91-4.847l6.381,0.436l1.233,5.062l9.8,0.67L26.35,7.605
	 M18.863,20.035l0.511-1.297l0.33,1.356L18.863,20.035z"/>
<path fill="#ED1C24" d="M14.562,27.098l8.442,0.577l1.234,5.062l6.848,0.468L25.223,8.943l-10.662-0.73l-9.11,23.24l7.2,0.492
	L14.562,27.098 M19.692,14.081l1.84,7.553l-4.691-0.322L19.692,14.081z"/>
<path d="M160.729,6.641l-12.725,0.87l-6.56,27.138l10.149-0.695l1.235-5.059l6.38-0.436l1.911,4.846l9.798-0.669L160.729,6.641
	 M155,19.976l0.333-1.357l0.511,1.299L155,19.976z"/>
<path fill="#ED1C24" d="M151.702,27.556l8.44-0.576l1.912,4.847l6.849-0.469l-9.11-23.239l-10.662,0.73l-5.863,24.261l7.201-0.492
	L151.702,27.556 M155.014,13.963l2.851,7.231l-4.692,0.321L155.014,13.963z"/>
<polyline points="165.829,13.409 168.282,13.409 172.424,10.048 171.934,2.787 162.993,2.787 162.993,9.871 165.766,9.871 
	165.829,13.409 "/>
<polyline fill="#ED1C24" points="170.639,3.972 164.426,3.972 164.426,8.233 167.176,8.233 167.247,12.224 170.991,9.186 
	170.639,3.972 "/>
<path d="M195.543,9.64c0-1.128,0.831-1.977,1.893-1.977c1.052,0,1.882,0.849,1.882,1.977c0,1.147-0.83,1.991-1.882,1.991
	C196.374,11.631,195.543,10.787,195.543,9.64 M197.436,12.028c1.269,0,2.351-1.008,2.351-2.388c0-1.368-1.082-2.376-2.351-2.376
	c-1.276,0-2.358,1.008-2.358,2.376C195.077,11.02,196.159,12.028,197.436,12.028z M196.946,9.829h0.467l0.705,1.191h0.457
	l-0.765-1.21c0.396-0.051,0.695-0.263,0.695-0.755c0-0.543-0.312-0.783-0.947-0.783h-1.019v2.748h0.406V9.829z M196.946,9.476V8.625
	h0.553c0.283,0,0.584,0.064,0.584,0.404c0,0.422-0.307,0.447-0.653,0.447H196.946z"/>
</svg>
