<svg version="1.2" xmlns="http://www.w3.org/2000/svg" viewBox="0 0 1552 345" width="1552" height="345">
	<title>shakeshack-logo-svg</title>
	<style>
		.s0 { fill: #000000 } 
		.s1 { fill: #60ae2b } 
	</style>
	<path id="Layer" class="s0" d="m54.8 201.2l-10.4-5c-15.6-7.4-21.9-11.6-21.9-23.4 0-10.9 8.2-18.6 20-18.6 11.2 0 18.7 4.3 24.4 13.8l0.6 1.1 11.4-7.4-0.6-1c-8.2-13.4-19.6-19.7-36-19.7-19.8 0-34.2 13.6-34.2 32.2 0 18.4 11.1 27.3 30.3 36.4l10.4 5c15.5 7.3 23.4 13.5 23.4 27 0 13.1-10.2 21.3-26.7 21.3-14.3 0-25.9-7.1-32.6-19.9l-0.5-1-12.4 6.6 0.5 1c9.1 17.3 25.1 26.9 45.1 26.9 25.4 0 41.1-13.5 41.1-35.2 0-20.6-11.7-30.3-31.9-40.1z"/>
	<path id="Layer" class="s0" d="m192.5 218.7h-67.7v-76.1h-14.5v132.3h14.5v-42.8h67.7v42.8h14.5v-132.3h-14.5z"/>
	<path id="Layer" fill-rule="evenodd" class="s0" d="m226.2 274.9l54.8-135.4h2.5l55.1 135.4h-15.2l-8.8-22.5h-64.6l-9.1 22.5zm29.1-36h53.9c-3-7.9-17.9-45.3-26.8-67.8z"/>
	<path id="Layer" class="s0" d="m445.5 142.6h-16.7l-56.5 72.7v-72.7h-14.5v132.3h14.5v-39.4l15.2-19.2 45.9 58.6h17.6l-54.3-69.4z"/>
	<path id="Layer" class="s0" d="m483.1 231.9h58.1v-13.2h-58.1v-62.7h65v-13.4h-79.5v132.3h82.2v-13.4h-67.7z"/>
	<path id="Layer" class="s0" d="m995.3 201.2l-10.4-5c-15.6-7.4-21.9-11.6-21.9-23.4 0-10.9 8.2-18.5 19.9-18.5 11.2 0 18.8 4.2 24.5 13.7l0.6 1.1 11.4-7.4-0.6-1c-8.2-13.4-19.6-19.7-36.1-19.7-19.7 0-34.1 13.6-34.1 32.2 0 18.4 11.1 27.3 30.3 36.4l10.3 5c15.6 7.3 23.5 13.5 23.5 27 0 13.1-10.3 21.3-26.8 21.3-14.3 0-25.8-7.1-32.5-19.9l-0.5-1-12.4 6.6 0.5 1c9.1 17.3 25.1 26.9 45.1 26.9 25.4 0 41.1-13.5 41.1-35.2 0-20.6-11.7-30.3-31.9-40.1z"/>
	<path id="Layer" class="s0" d="m1132.9 218.7h-67.6v-76.1h-14.5v132.3h14.5v-42.8h67.6v42.8h14.6v-132.3h-14.6z"/>
	<path id="Layer" fill-rule="evenodd" class="s0" d="m1166.7 274.9l54.8-135.4h2.5l55 135.4h-15.1l-8.8-22.5h-64.6l-9.1 22.5zm29-36h54c-3.1-7.9-17.9-45.3-26.8-67.8z"/>
	<path id="Layer" class="s0" d="m1390.6 241.7c-10.2 13.8-24.9 21.1-42.6 21.1-29.9 0-51.6-22.7-51.6-54.1 0-30.8 21.8-54.1 50.7-54.1 16.8 0 30.3 6.6 40.1 19.5l0.7 0.9 11.3-8.3-0.7-0.9c-12.2-16.2-29.9-24.8-51.3-24.8-37.6 0-65.9 29.1-65.9 67.7-0.1 18.7 6.6 35.9 18.8 48.3 12.3 12.6 29.1 19.5 47.5 19.5 23 0 41.3-8.9 54.5-26.5l0.7-1-11.5-8.2z"/>
	<path id="Layer" class="s0" d="m1462.2 205.5l48.7-62.9h-16.6l-56.6 72.7v-72.7h-14.5v132.3h14.5v-39.4l15.3-19.2 45.8 58.6h17.6z"/>
	<path id="Layer" fill-rule="evenodd" class="s0" d="m1547.4 164.1q-2.1 2.1-4.9 3.3-2.8 1.1-5.8 1.1-3.4 0-6.2-1.2-2.9-1.2-4.9-3.3-2-2.2-3.2-5.1-1.1-2.9-1.1-6.3 0-3.6 1.2-6.5 1.2-2.9 3.3-5 2.2-2.1 5-3.2 2.8-1.2 5.9-1.2 3 0 5.8 1.2 2.8 1.1 4.9 3.2 2.1 2.1 3.4 5 1.2 2.9 1.2 6.5 0 3.6-1.2 6.5-1.3 2.9-3.4 5zm-2.2-21q-1.7-1.7-3.8-2.7-2.2-0.9-4.7-0.9-2.6 0-4.8 0.9-2.2 1-3.8 2.7-1.6 1.8-2.6 4.2-0.9 2.4-0.9 5.3 0 2.7 0.9 5.1 0.8 2.4 2.4 4.2 1.5 1.8 3.8 2.8 2.2 1 5 1 2.5 0 4.7-0.9 2.1-1 3.8-2.7 1.6-1.8 2.5-4.2 1-2.4 0.9-5.3 0.1-2.9-0.9-5.3-0.9-2.4-2.5-4.2zm-11.6 18.6h-2.9v-17.6h6.6q3.1 0 4.7 1.2 1.6 1.2 1.6 3.9 0 2.4-1.3 3.5-1.3 1.1-3.2 1.3l4.9 7.7h-3.3l-4.4-7.5h-2.7zm6-10.4q0.5-0.3 0.8-0.9 0.4-0.5 0.4-1.5 0-0.8-0.4-1.2-0.3-0.5-0.9-0.8-0.5-0.2-1.2-0.3-0.7 0-1.3 0h-3.4v5.1h3.2q0.7 0 1.5-0.1 0.7 0 1.3-0.3z"/>
	<path id="Layer" class="s1" d="m873.6 134.1v-9-9c9.2-0.2 11.2-3 12.9-5.4 1.7-2.6 1.8-5.9 1.8-5.9v-0.1c0.1-22.4-13.8-43.8-38.5-60.1-24.6-16.3-59.4-26.6-97.8-26.6-38.5 0-73.3 10.3-97.8 26.6-24.7 16.3-38.7 37.7-38.6 60.1v0.1c0.1 0 0.1 3.3 1.8 5.9 1.8 2.4 3.7 5.2 12.9 5.4h243.3v9 9h-243.3c-13.9 0.2-23.8-6.6-28-13.9-4.3-7.3-4.4-13.9-4.4-15.4v-0.1c1.1-61.1 71.5-104.5 154.1-104.7 82.5 0.2 152.9 43.6 154 104.7v0.1c0 1.5-0.1 8.1-4.4 15.4-4.1 7.2-13.7 13.9-27.2 13.9q-0.4 0-0.8 0z"/>
	<path id="Layer" class="s1" d="m656.1 345c-22.4-0.2-36.4-2-46.7-10.5-10.4-9-11.5-21.8-11.5-35.6 0-1.6 0.2-7.8 4.8-14.3 4.7-6.6 14.2-11.9 27.6-11.7h243.3v8.9 9h-243.3c-9.6 0.2-12 2.8-13.3 4.5-1.2 1.4-1.4 3-1.4 3.5v0.1c0 13.5 1.7 19.2 5.1 21.9 3.5 3.3 14.1 6.4 35.4 6.2h182.4c26 0.1 39.1-3.5 43.9-7.5 4.5-3.5 5.8-8.5 5.9-20.1q0-0.2 0-0.5c0 0 0-0.3-0.1-1-0.3-0.8-0.6-1.8-1.2-2.6-1.4-1.7-3.7-4.3-13.4-4.5v-9-8.9c13.5-0.2 23 5.1 27.6 11.7 4.1 5.7 4.7 11.2 4.8 13.6q0.1 0 0 0.3l0.1 0.4c0 12.4-1.4 25.9-12.9 34.8-11.3 8.4-27.5 11.1-54.7 11.3z"/>
	<path id="Layer" fill-rule="evenodd" class="s1" d="m625.1 202.4h253.8c14.6 0.1 27.1 11.5 27.1 26.6 0 15-12.5 26.5-27.1 26.5h-253.8c-14.7 0-27.1-11.5-27.2-26.5 0.1-15.1 12.5-26.5 27.2-26.6zm253.8 35.1c5.5 0 9.4-4.2 9.4-8.5 0-4.4-3.9-8.6-9.4-8.6h-253.8c-5.6 0-9.5 4.2-9.5 8.6 0 4.3 3.9 8.5 9.5 8.5z"/>
	<path id="Layer" class="s1" d="m726 172.5c-2.5-3-2.6-5.7-11.1-6.2-5.7 0-8.9 3.2-10.2 4.8-0.4 0.4-0.4 0.4-0.5 0.7-0.6 1-8.4 13.2-25.6 13.4-16.4 0.5-24.9-12-25.2-12.7-2.5-3-2.6-5.7-11.2-6.2-5.6 0-8.8 3.2-10.2 4.8-0.3 0.4-0.3 0.4-0.4 0.7-0.6 1-8.4 13.2-25.6 13.4-4.9 0-8.9-4-8.9-9 0-5 4-9 8.9-9 5.9 0 9-3.1 10.3-4.6 0.3-0.4 0.3-0.4 0.2-0.2 0.5-0.9 8.2-13.9 25.7-14.1 16.5-0.6 24.9 12.4 25.2 13.1 1.9 2.2 2.6 5.3 11.2 5.8 5.9 0 9-3.1 10.3-4.6 0.1-0.2 0.2-0.3 0.3-0.3 0.8-1.5 8.6-13.8 25.7-14 16.4-0.6 24.8 12.4 25.1 13.1 1.9 2.2 2.6 5.3 11.2 5.8 5.8 0 9-3.1 10.3-4.6q0.2-0.2 0.2-0.3c0.9-1.4 8.6-13.8 25.8-14 16.4-0.6 24.8 12.4 25.1 13.1 1.9 2.2 2.6 5.3 11.1 5.8 5 0 8.9 4 8.9 9 0 5-3.9 9-8.9 9-16.3 0.5-24.8-12-25-12.7-2.6-3-2.7-5.7-11.2-6.2-5.7 0-8.9 3.2-10.2 4.8-0.4 0.4-0.4 0.5-0.5 0.7-0.6 0.9-8.4 13.2-25.6 13.4q-0.5 0-1 0c-15.7 0-23.9-12.1-24.2-12.7z"/>
	<path id="Layer" class="s1" d="m871.3 172.5c-2.6-3-2.7-5.7-11.2-6.2-5.7 0-8.9 3.2-10.2 4.8-0.4 0.4-0.4 0.4-0.5 0.7-0.6 0.9-8.4 13.2-25.7 13.4-4.8 0-8.8-4-8.8-9 0-5 4-9 8.8-9 6 0 9.1-3.1 10.4-4.6 0.3-0.4 0.3-0.4 0.2-0.2 0.5-0.9 8.3-13.9 25.8-14.1 16.4-0.6 24.8 12.4 25.1 13.2 1.9 2.1 2.6 5.2 11.2 5.7 4.9 0 8.8 4 8.8 9 0 5-3.9 9-8.8 9-0.3 0-0.6 0-0.9 0-15.8 0-24-12-24.2-12.7z"/>
</svg>