<svg xmlns="http://www.w3.org/2000/svg" height="800" width="1200" viewBox="-6.667125 -7.969675 57.78175 47.81805"><path d="M.0007 9.0622c.054-.144.0328-.2963.043-.4441.0907-1.2842.1006-2.5707.0749-3.8573C.11 4.3424.0752 3.9243.0519 3.5063c-.0088-.157-.0007-.3133.032-.4664.095-.4423.3529-.6445.8422-.6388.4187.005.8375.032 1.257.0155.3816-.0148.7633-.0317 1.145-.041a1.39 1.39 0 01.4731.0696c.2106.0699.3676.196.4276.4201.03.0875.024.1789.0236.2688-.0018.7853.0014 1.5706-.0226 2.3559-.0123.4021-.024.8043-.0476 1.2061-.0134.2322-.0381.464-.0183.7003.0307.363.0571.7274.02 1.0947-.0292.291.0837.5334.409.588.3344.0328.6653-.0127.9944-.0564.224-.03.3433-.2032.361-.4632.0444-.6526.0384-1.3056.033-1.9593-.0094-1.1391-.0045-2.2786-.0034-3.418 0-.1274.0194-.254.061-.375.1235-.3606.417-.466.7553-.4802.291-.0116.5839.009.872.0494.2777.0392.549.003.8231-.0187.3351-.026.6678-.0952 1.0068-.0395.3073.0508.5497.1831.6752.4833.0568.216.089.4364.0706.658-.0434.5196-.0638 1.0406-.0836 1.561-.0201.5292-.0455 1.0583-.0159 1.5893.0275.492.018.986.0237 1.4788.0148 1.2506.0042 2.5012.0099 3.7514.0032.7229-.0565 1.444-.035 2.1675.0244.8347.0067 1.67.0145 2.505.0067.7314-.0497 1.462-.012 2.194.0148.2872.0374.5736.0677.859.0293.2752.0392.5475-.0158.8195-.077.3817-.3182.6093-.6724.654-.3412.043-.6816.012-1.021-.01-.4198-.0274-.8364-.0172-1.2544.023-.2685.0257-.539.0649-.8072-.0102-.3023-.0893-.4142-.325-.4639-.6065-.066-.3704-.0646-.7447-.0423-1.1176.0486-.8233.1185-1.6446.074-2.4715-.038-.706.0205-1.4118.0607-2.1167.0212-.3725-.0046-.7362-.097-1.0968-.0215-.2335-.1767-.3506-.3824-.392-.3528-.0712-.7101-.0602-1.0612.0167-.2243.0494-.3354.1884-.3517.4187-.03.4258-.0614.852-.0723 1.2785-.0113.4438.0575.884.1009 1.325.0568.5715.0063 1.1416-.018 1.7117-.0201.4802-.047.9596-.0053 1.4397.0293.3397.0586.6798.042 1.0213-.0148.307-.1926.5313-.4741.6018-.1246.031-.2523.0423-.3796.028-.6894-.0788-1.3794-.043-2.0687-.009-.2812.0137-.5563.0115-.8301-.0562-.326-.1146-.4477-.3626-.4456-.6886.0074-1.1592.018-2.318.023-3.4773.001-.2586-.0152-.5172-.0233-.7758-.0007-.02.001-.042-.0247-.0494v-.8396c-.0028-.2378.0416-.4741.0198-.7122.0025-.4156-.005-.8312.0099-1.246.0254-.7232.0243-1.4461-.0095-2.169.0208-.2056-.028-.4088-.0202-.6138V9.0623" fill="#b1212c"/><path d="M26.8237 30.7827c.055.004.1129.025.1767-.007a.301.301 0 00-.1767.007m5.007-.0116l-.006-.023c-.1962-.0115-.3923-.0232-.5881-.0348.1238.0367.249.0494.3746.0568.073.005.1464.001.2195.001m1.482-.0504c-.0914.01-.1824.0198-.2734.0296.0914.0134.1824.037.2716-.001.023 0 .0459 0 .0688-.0004.0124.011.023.008.0325-.004.0984-.004.1968-.005.2949-.0113.7719-.0526 1.5427-.1298 2.317-.145h.4371c-.1464-.004-.2882-.0631-.436-.0394-.0942-.004-.1884-.01-.2826-.0127-.4508-.0141-.9017-.0614-1.3515.008-.3601.055-.719.1174-1.0784.1767m-6.0265.0212c.3806-.004.7578-.0628 1.1377-.0822.2526-.013.5048-.0346.7916-.0543-.0684-.006-.1037-.0113-.1386-.0113-.5246.001-1.045.0614-1.5656.1147-.0741.007-.1567-.0205-.224.0349h-.2212c.0744.0187.1502.044.22-.002m5.036 1.114c-.8682-.002-1.7364-.004-2.6046-.005-1.5554-.002-3.1108.003-4.6662-.008-2.4683-.0187-4.937-.0113-7.4055-.0166-.8188-.002-1.6376.0004-2.4564-.007-2.4683-.0229-4.937-.0113-7.4055-.0173-.8107-.002-1.6213.002-2.4317-.008-1.7279-.0208-3.4558-.007-5.1837-.0166-.066-.0003-.1295.0145-.126-.0938.0026-.0797.0431-.0836.0985-.0857.382-.0134.7638-.0286 1.1458-.0402.8425-.0254 1.6849-.0487 2.5277-.0568.4028-.004.8054-.008 1.2082.001.4932.0117.9868-.006 1.48-.007.9133-.002 1.8263.0113 2.7393.023.3658.005.731.0242 1.0967.0341.1355.004.2717.007.4068-.004.29-.0233.576-.0727.8943-.158-.2127-.01-.3884-.019-.5645-.0261-.7433-.0293-1.4862-.059-2.2295-.0875-.7846-.03-1.5699-.0395-2.3548-.0511-.8142-.012-1.6284-.041-2.4423-.007-.3905.0162-.7803.0127-1.1705.0106-.7077-.004-1.4153.005-2.123.007-.102 0-.2067.01-.3076-.067.1541-.0487.3069-.0607.4561-.0734.483-.0413.9666-.0787 1.4506-.1041.8495-.0448 1.6994-.0818 2.5492-.1178.727-.0307 1.4549-.0356 2.1826-.0353.314.0007.6273.0363.9416.024.8343.03 1.6672.1136 2.5037.0825-.7578-.0864-1.5187-.1044-2.2804-.1066-.0434-.0279-.0878-.0247-.1326-.005-.0307.0004-.061.0008-.0918.001-.3129-.0367-.6268-.0155-.9405-.0155l-2.691-.003c-.2589-.0003-.5175-.002-.7849-.0282.036-.055.0879-.0416.1312-.0452.5003-.0395 1.002-.044 1.5032-.0547.9995-.0208 1.9989-.0219 2.9983-.024.942-.002 1.8831.022 2.824.0624a79.794 79.794 0 002.9958.0702c.6417.003 1.2834.002 1.9247-.012.756-.0173 1.5113-.06 2.267-.0836.6-.0187 1.2001-.0257 1.8002-.037.888-.0169 1.7762-.0318 2.6638-.05.6946-.0146 1.3893-.0276 2.0835-.0502.8135-.0268 1.6267-.0543 2.4395-.0942.7302-.0356 1.4619-.0519 2.1929-.0776a74.874 74.874 0 013.2935-.0413c1.2576.0113 2.515.049 3.7708.1203.6982.04 1.397.0413 2.0955.0596.7148.0187 1.4302.0303 2.1432.0907.3224.0272.6484-.0155.969.047.067.013.139.012.1916.0856-.4664-.0123-.9317-.0504-1.3977.01-.4678.06-.9384.1038-1.4108.1383.9793.0967 1.9505.2442 2.9172.4368-.2036-.0131-.4068-.0247-.61-.0388-.5285-.037-1.057-.0776-1.5857-.1126-.7504-.0497-1.5008-.0963-2.2511-.1432-.0984-.006-.1972-.005-.296-.007-.3115-.0392-.624-.0448-.9377-.0363.2812.004.5585.0582.8393.0596.5373.0395 1.071.1104 1.6026.1898.5253.0783 1.053.116 1.5808.1584.586.0473 1.172.0896 1.758.1309.074.005.1012.03.0951.1048-.006.0776-.002.1562-.002.2342h-4.9385c-.042-.0399-.0938-.0201-.1408-.0201a974.413 974.413 0 00-2.4179-.006c-.7937 0-1.5871.002-2.3809.004" fill="#f2ac20"/><path d="M14.52 0c.097.0628.1206.1573.1118.2646-.029.3408.0004.6823-.013 1.023-.0014.042-.0025.0868.0448.1052.042.0166.0656-.0212.0927-.0441.3532-.296 1.0488-.2441 1.3519.102.14.16.1841.3576.1848.5612.0014.3983-.0092.797-.0165 1.1952-.0095.5225.0053 1.0446.0074 1.5667.001.2092.0018.4184.002.6276.0004.1852-.0673.2575-.2536.2487a8.1113 8.1113 0 00-.775 0c-.151.008-.1937-.0388-.1937-.1866a698.4532 698.4532 0 01.001-2.4677c.0004-.1436.022-.2872.0184-.4304-.0039-.1743-.0688-.2455-.1958-.2438-.1495.002-.23.0854-.2455.2502-.048.5175-.0007 1.035.0032 1.5522.0028.3817-.05.7634-.0018 1.1447.0088.0691.0194.1387.0215.2082.004.1178-.0515.1802-.1676.1788-.2751-.004-.5492-.007-.8244.01-.1806.011-.2385-.0448-.247-.2279-.0084-.1883.004-.3778.004-.5665.0007-.9169.0028-1.8338-.0011-2.7506-.0014-.3285.0102-.6566.0148-.9846a17.9822 17.9822 0 00-.0117-.8386c-.0039-.1224.019-.225.1253-.297h.963" fill="#12110f"/><path d="M43.8043 19.8997c-.285.001-.5136.2322-.5136.519.0003.2946.231.5253.5228.5232.2826-.002.5105-.2392.5066-.5264-.004-.291-.2297-.5168-.5158-.5158m.6431.694c-.0416.008-.0332.0483-.0437.0734-.1157.2688-.4113.436-.6861.3845-.3292-.0617-.5482-.2963-.5542-.593-.006-.3281.1834-.5874.4794-.6551.315-.072.6202.0692.7518.3457.0159.0335.01.0797.0529.0988v.3457" fill="#151211"/><path d="M25.949 16.7824c.3637.1411.6936.005.8534-.3506.074-.1644.104-.3373.1012-.5151-.0067-.4434-.0356-.8862-.0564-1.3296-.049-1.0478-.1796-2.0853-.38-3.114-.0702-.3609-.1422-.7242-.32-1.0537-.0807-.1584-.2039-.2755-.353-.3683-.3031-.1891-.5448-.139-.754.1488-.243.3341-.2776.7098-.236 1.1035.031.2935.0604.587.0875.881.0296.3224.0462.6459.0857.9672.053.4304.1193.8598.1856 1.2884.0903.5824.1721 1.1666.3189 1.7388.0684.2664.2187.4742.467.6036m-3.502 4.6803c-.3608-.1298-.4716-.43-.491-.768-.0498-.866-.1693-1.724-.2667-2.5848-.1133-1.0001-.289-1.9907-.4188-2.988-.06-.4604-.0924-.924-.1294-1.3868-.0399-.496-.1203-.9863-.1888-1.4785-.1273-.9232-.2723-1.844-.3626-2.772-.0928-.9487-.1852-1.8973-.3101-2.8424-.0931-.7042-.1662-1.4111-.259-2.1156-.0423-.3207-.1079-.639-.169-.9568-.097-.5055.1567-.6896.6178-.7284.3891-.0325.779-.0515 1.1687-.072.3352-.0173.6502-.1341.9772-.1898.1736-.0296.3419-.0878.521-.0864.3328.002.5229.1312.6481.4459.059.2236.0604.4533.072.6822.0145.2904.0173.5835.0586.8707.11.7648.267 1.5233.309 2.2976.0046.083.006.1778.0949.211.0995.0374.2025.0229.2833-.061.0536-.0441.1115-.0847.1605-.1337.4674-.466 1.0446-.6946 1.6866-.7818.398-.054.7955-.06 1.1885.0335.5034.1196.9155.3916 1.2545.7783.0378.043.0752.086.1125.129.0177.0195.0212.0558.06.048l-.001-.001c-.0072.0273.001.0446.031.0477l-.0025-.003c.0035.0155.002.0342.0102.0459.4815.6869.7581 1.4616.981 2.2602.2068.7398.3461 1.493.4689 2.2504.1178.7264.1976 1.4552.2173 2.1908.0067.2571.0237.5133.0455.7694.054.6406.115 1.2809.145 1.923.023.4875.0237.9772-.0649 1.4626-.1676.9214-.562 1.7162-1.2753 2.3392-.4836.4227-1.0551.635-1.6856.6869-.3972.0328-.7895-.0243-1.1698-.1542-.2219-.0755-.425-.1845-.6226-.3072-.1037-.0646-.1775-.0522-.2075.0392a1.1832 1.1832 0 00-.0522.2367c-.0236.2127-.0963.3059-.3048.3369-.3626.054-.7306.0564-1.0957.0935-.455.0459-.9028.1252-1.3483.2208-.229.049-.4562.095-.6865.0123m-6.5714-7.0673l.0018.003c-.2127-.4822-.7888-.5997-1.1603-.2356-.2963.2906-.3827.6632-.3908 1.058a32.973 32.973 0 000 1.308c.0053.2798.043.557.147.8199.084.2124.206.3933.434.4762.3418.125.659.0321.8745-.2568.1542-.2067.236-.4417.24-.6978.0094-.6128.014-1.2255.0172-1.8383.0014-.2156-.0363-.4244-.1411-.617-.0074-.006-.0148-.013-.0222-.0194m.8526 6.6911c-.1443-.004-.291-.002-.3792-.1485-.0078-.0981-.0177-.1961-.0226-.2946-.0053-.1009-.0106-.2088-.1111-.2571-.097-.047-.1591.0452-.218.1005-.332.3126-.7.556-1.1578.64-.362.0662-.7247.0726-1.0912.0398-.509-.0459-.98-.1915-1.4069-.4752-.0356-.0233-.0663-.0656-.1196-.0476l.0011.0007c.0088-.0455-.0268-.0469-.055-.056-.3189-.2706-.5856-.5839-.7853-.9536-.3309-.6135-.5062-1.2757-.6166-1.9583-.1175-.7246-.1471-1.4548-.1172-2.1865.0378-.9165.1383-1.8242.4862-2.6846.4438-1.0975 1.2354-1.7943 2.3982-2.0525.7221-.1602 1.4125-.0695 2.0556.2999.3926.2254.6794-.1083.6332-.4311-.0303-.2113-.0606-.4212-.1503-.6177-.1192-.2738-.346-.4096-.6223-.471-.5302-.1182-1.0657-.121-1.6005-.0423-.3789.0557-.7528.1464-1.078.3552-.2347.1507-.4626.1969-.7176.078-.024-.0152-.0473-.0328-.0727-.0455-.248-.1238-.3655-.3252-.3754-.6014-.007-.1891-.0123-.3779.0018-.5666.0283-.3824-.0113-.7638-.0116-1.1455-.0004-.4533.1224-.6575.5454-.8202.708-.272 1.4347-.4628 2.203-.4533.5098.006 1.02-.0501 1.529-.0169.9296.06 1.8433.2025 2.6935.6142.345.1672.641.398.8706.7084a2.233 2.233 0 01.2494.52c.1627.4938.1902 1.0064.211 1.5187.0159.3983.0025.7969-.0106 1.1959-.0183.5584-.0074 1.1176.0103 1.6767.0222.707-.0113 1.4143-.0138 2.1213-.0042 1.1846-.0265 2.3689.0152 3.5535.0137.382.011.7645-.0201 1.1458-.0307.3817-.019.7642-.0261 1.1462-.006.325-.1895.5158-.5049.5666-.2473.0399-.4917-.0007-.7376-.002-.3613-.002-.7232-.0261-1.0845-.0194-.266.005-.5313.043-.7969.0663m24.8815-3.9351c.382-.037.4981.0335.642.3894.0236.1299.0307.2607.028.3927-.008.3983-.0287.7969-.0216 1.1952.008.4314.0258.8625.0173 1.294-.005.2684-.205.58-.5683.546-.0572-.005-.115-.0003-.1725-.004a8.863 8.863 0 00-1.1197.002c-.176.0114-.3517.0283-.5281.0378-.4096.0222-.8192.0508-1.2256-.0402-.2099-.0473-.4014-.1387-.5958-.225-.374-.2717-.6064-.6393-.7246-1.0813-.0857-.3228-.1263-.652-.1323-.986-.013-.7564.0497-1.5107.0522-2.2663.0032-.9663-.0053-1.9329-.0007-2.8991.0032-.7317.019-1.4634.0303-2.1947.0014-.0818.01-.164.0152-.2459.0014-.0286.004-.0568.0042-.085.0021-.2345-.0667-.3076-.298-.3143-.0812-.002-.1624 0-.2435.0004-.3062-.0448-.3782-.1136-.4057-.422-.0282-.316.0134-.6321.0116-.9486-.0032-.5884.0011-1.1772.0021-1.7653.0004-.0289-.001-.0579.0011-.0868.0163-.2487.1165-.344.3662-.3443.1027-.0003.2057.013.3076.007.1623-.01.2498-.09.2364-.2388-.0508-.555.0268-1.1098-.013-1.6637-.0194-.2702-.0516-.5398-.0678-.8103-.0151-.2484.0184-.4922.1323-.7176.1235-.2438.3143-.3838.599-.3725.4477.018.8954.0448 1.343.0466.386.001.7709-.0543 1.1579-.0452.3178.008.5655.1287.6777.4498.026.1742.0504.3482.0472.5253-.0039.229-.0208.4568-.0085.6875.0208.3807.0134.762-.0067 1.144-.0148.2812-.0585.5635-.0137.8467.0127.0797.0497.1334.1266.145.0882.0134.1785.0137.2681.0194.0984-.004.1965-.0109.2953-.012.3038-.003.43.1038.4847.4057.001.3895-.0346.7783-.0155 1.168.0233.488.0466.9766.0462 1.4645-.0003.346-.037.5944-.5556.5267-.1094-.0141-.2212-.0106-.3323-.012-.0938-.0007-.1644.0455-.2134.1241-.0533.0864-.0702.1831-.0702.2826-.0004.2261.0085.4516.013.677.0162.756.0095 1.5117-.0095 2.2677-.0141.5704-.013 1.1415.0102 1.7127.0138.3323.0063.6657.0113.9987.004.2607.1912.4494.416.4244m-9.5564 3.8147c-.4188-.1369-.4618-.489-.4636-.846-.0014-.394.0307-.788.0413-1.1821a39.373 39.373 0 00.0134-1.0975c-.0011-.7976.017-1.5953.0233-2.3926.0042-.5344-.0166-1.0685-.0219-1.603-.0063-.6413.0554-1.2806.0698-1.9209.0095-.4272-.012-.855-.0127-1.2823-.001-.5345-.001-1.069.01-1.603.0105-.526.008-1.0517-.0216-1.577-.0134-.2377-.0314-.4758-.0148-.7143.012-.1729.0988-.3016.2427-.3927.1715-.1086.3623-.1516.5634-.1425.283.013.5655.0381.8488.0462.4187.0123.8368-.0243 1.2555-.0335.2092-.005.4184-.026.628-.007.2864.0268.4367.15.5207.4255.0236.1252.0472.2504.0405.3781-.0215.4057-.0465.811-.0684 1.2168-.0247.4639-.0078.9274-.0014 1.3913.0092.6812.0519 1.3618.0303 2.0437-.0204.661-.0434 1.3222-.0465 1.9833-.0025.4678.025.936.042 1.4037.0172.4801.0137.9603-.0079 1.4404-.0215.4755-.0525.951-.0582 1.427-.0042.3154.0283.631.0452.9468.0092.1722.0222.344.0296.5161.0134.315.06.6305.0138.9458-.0505.3426-.2459.6527-.7049.6354-.364-.0134-.726-.0737-1.0936-.0395-.2734.0254-.5496.0212-.8244.0374-.3598.0215-.719.0582-1.0785-.004" fill="#b1212c"/><path d="M9.1231 23.425c-1.006.0455-1.991.159-2.9813.183.9987.1172 1.9886.0837 2.9813-.183m6.0142.008c-.3778.005-.7514.0617-1.1278.0843-.2413.0145-.4823.0325-.7232.049a.2634.2634 0 00.092.0169c.5056-.001 1.0069-.065 1.5089-.1133.0815-.008.1735.019.2487-.0385.1422.0134.2804-.0113.418-.0416-.14.004-.2804.004-.4166.043m-4.0742.024c.0543.0434.1118.0176.1686.002h-.17c-.2325-.0663-.4689-.0579-.706-.036.2364-.003.4703.0511.7074.0342m-5.4099-.2914c-.8011-.0392-1.5974-.1344-2.3876-.2607-.8523-.1365-1.711-.212-2.5668-.3143-.1873-.0226-.3746-.0536-.563-.062-.1203-.005-.0974-.0759-.102-.1475-.006-.0924.0547-.0818.113-.0815l1.8142.006h.037c1.5675.004 3.1352.008 4.7026.0113 1.6457.003 3.2918.005 4.9375.007.8146.001 1.6295-.0004 2.444.007 2.4684.0229 4.9368.0117 7.4056.0173.8145.002 1.629-.0004 2.4436.007 2.4688.0233 4.9372.0113 7.4056.0173.8191.002 1.6379 0 2.4563.007 2.4646.0226 4.929.0117 7.3932.0176.3006.0007.6008.007.901.005.0843-.0008.1192.0212.1122.11a1.6382 1.6382 0 000 .2713c.008.09-.0275.11-.1115.1058a243.9166 243.9166 0 00-1.687-.0737c-.9073-.037-1.815-.0628-2.7217-.1121-.744-.0402-1.4873-.007-2.231-.0152-.9168-.01-1.834-.0187-2.7509-.0321-.3122-.005-.624-.0321-.9359-.0325-.374-.0007-.7422.0564-1.1335.1608.229.0385.4304.0222.63.031.7268.0318 1.4528.0692 2.1799.0942.5831.0201 1.167.0261 1.7505.037.6992.0127 1.3977.0233 2.0965.0367.5472.0102 1.093-.055 1.6394-.0395.4688.013.9377.0205 1.4062.0116.407-.008.8142-.004 1.2213-.01.08-.001.1552.009.2335.0642-.1312.049-.2624.0554-.3894.0695-.4534.0498-.9084.0808-1.3639.103-.8865.0427-1.773.0857-2.66.1232-.3979.0166-.7968.0205-1.1951.03-.4128 0-.8252 0-1.238.0003-1.0756.005-2.1473-.1386-3.2243-.0928 1.0728.0991 2.1491.1104 3.225.1133.4125 0 .8242.0003 1.2362.0003.4445.001.889-.0007 1.3332.004.3534.004.707.0141 1.0604.0222.0148.0004.0296.006.0445.009.0014.0106.0028.0215.0039.0325-.0918.01-.1835.0243-.276.0286-.9076.0423-1.8164.0508-2.7251.0568-.5881.004-1.1762.0134-1.7646.0102-1.0439-.005-2.087-.0374-3.1302-.084-.5218-.0229-1.0442-.0226-1.566-.0392-.7814-.0247-1.5628-.0162-2.3442-.01-.851.007-1.7004.0586-2.5506.0861-.5711.0187-1.1426.0254-1.7141.0363-.8837.017-1.7675.0321-2.6512.0501-.7193.0145-1.4386.0275-2.1576.0501-.8787.0275-1.7575.0646-2.6363.0974-.6734.025-1.3472.0476-2.0203.0744-1.361.0543-2.7224.0533-4.0838.0406a63.5073 63.5073 0 01-3.2159-.1125c-.4265-.0254-.8544-.0286-1.282-.0402-.9366-.0254-1.8743-.0261-2.8092-.097-.344-.0261-.689.007-1.0308-.0427-.11-.0162-.2275-.01-.3207-.1044.8753.0617 1.7502.0956 2.6265.066-.3486-.0198-.6964-.0402-1.045-.0596a35.1459 35.1459 0 01-1.8051-.1479c-.1097-.012-.0737-.0857-.0812-.1446-.0085-.0663.0226-.085.0854-.0833.5503.0173 1.1007.0335 1.6514.048.4642.0123.9288.0226 1.393.0325.785.0173 1.57.0339 2.3552.0505.0452.001.0903-.001.1355-.002.1051.0459.2138.007.3214.0116-.11.009-.2124-.0536-.3232-.0325" fill="#f2b82f"/><path d="M21.669 26.443c.001.1055.0035.1944.0293.283.019.0667.0603.109.1196.1298.181.0639.533-.0265.534-.325.0008-.2126.006-.426-.0207-.6381-.0424-.334-.2078-.3842-.5095-.3549-.1044.0102-.1612.073-.152.1838.0201.2455.012.491-.0007.7214m1.96-.3531c-.008.2399.0438.4921-.0137.7468-.0745.3278-.2177.6082-.4893.8125-.0618.0466-.0939.097-.0526.1658.2441.4092.3722.8713.5895 1.2926.0339.066.0663.1319.0822.2042.029.1291-.0381.236-.1672.271-.0805.0219-.1616.0229-.2441.013-.2297-.028-.459.005-.6883.01-.1686.004-.2127-.028-.2526-.188-.0568-.2273-.145-.4421-.2417-.6541-.0726-.1598-.1439-.3203-.1823-.4936-.0095-.043-.0297-.085-.0498-.1252-.0314-.0617-.0832-.0864-.153-.0723-.0664.0134-.0805.0639-.0844.1192-.0212.3041-.013.6079.0106.9113.007.09.014.1806.0123.2709-.0035.1655-.0772.2388-.2427.2448-.0614.002-.1231-.005-.1845-.009-.206-.0152-.4103.001-.6152.0233-.1224.013-.1866-.0519-.2188-.1679-.0342-.1231-.0127-.2455-.0092-.3676.0286-1.0364-.0014-2.073.0149-3.1094.0064-.411.0134-.8216.0222-1.2326.0039-.1806.062-.2564.2388-.261.3937-.01.7878-.0102 1.1818-.0261.2614-.0102.5236-.0445.7846.018.4974.1196.8964.5874.9282 1.0985.0102.1637.0158.3278.0243.5052m-12.8848.2571c-.0032.1555-.0071.2617.0236.3665.0216.0723.0646.1231.1352.147.2582.0876.5302-.105.5291-.3791-.0007-.1757-.0134-.3518-.0208-.5278-.0141-.3256-.1538-.4487-.4784-.4209-.1464.0123-.2028.0667-.1883.2128.0208.2176.008.4335-.0004.6015m-1.2368 2.5643c.0388-.7899-.0103-1.608.0137-2.425.0177-.592-.0123-1.1846.0325-1.7755.011-.1485.0667-.1962.2141-.2184.1277-.0194.2544.0007.3814-.002.4187-.0106.8378-.019 1.2559-.043.7196-.0416 1.2417.5937 1.2654 1.0837.0162.3362.049.6731.0469 1.009-.0028.4466-.1513.8364-.5246 1.114-.0607.0453-.0882.0953-.0423.167.1824.2846.278.6095.4184.9133.0702.1517.1397.304.2095.4561.113.2459.0149.4223-.254.4085-.28-.0148-.558-.0007-.8371.007-.1065.003-.1831-.0395-.2089-.15-.0737-.321-.2219-.6134-.3474-.9147-.042-.1012-.0667-.2095-.103-.3136-.0286-.0822-.0586-.1704-.1722-.1577-.1207.0134-.1013.12-.1062.1926-.0219.3207 0 .641.0261.9607.0028.0328.0074.0653.0095.098.0124.2029-.0794.307-.2815.2964-.247-.0127-.4918-.0166-.7384.0113-.1704.019-.2518-.0614-.2568-.2336-.0046-.152-.001-.3044-.001-.484M31.433 26.217c0-.0942.008-.189-.0018-.2825-.0363-.351-.1792-.434-.5225-.3948-.0765.009-.1428.0455-.1428.1397.0003.3115-.0021.6227.0039.9338.0018.0896.025.1782.116.23.1475.0836.4985.002.5518-.235.03-.1326-.004-.2613-.0046-.3912m-1.8972 2.6819c0-.81-.0032-1.62.001-2.43.0029-.5507.0138-1.1017.024-1.6524.005-.2639.066-.3394.3292-.3309.5348.0173 1.0675-.0332 1.6012-.0363.6241-.004 1.1702.515 1.2037 1.136.0162.2995.0406.5986.0438.8981.0053.465-.1366.8714-.5197 1.1663-.0564.0437-.0973.0903-.0511.1655.2166.3542.332.7542.5104 1.126.0512.107.1055.2131.1447.3242.0617.1764-.0078.2872-.1866.3257-.0699.0148-.1387.0123-.2082.004-.2303-.0268-.4593.007-.6893.0106-.1718.003-.2173-.0332-.2561-.1997-.0427-.1845-.1126-.3588-.1877-.5313-.0878-.2025-.1887-.3997-.237-.6174-.0086-.0392-.028-.0766-.0463-.1128-.0289-.0572-.0765-.0804-.1414-.0751-.0706.006-.0886.0589-.0946.1107-.0099.0896-.007.1806-.0106.271-.0116.2882.0205.575.0318.8621.0092.2304-.0755.3207-.3037.3056-.222-.0148-.4424-.023-.664.01-.265.0388-.3009-.0942-.308-.3352-.0039-.1316-.0007-.2628-.0007-.3944h.0152M3.2586 25.9648h.0018v.2212c0 .1622.0688.2148.229.1746.163-.0406.255-.158.2652-.3383.0135-.2438-.0666-.417-.2208-.477-.171-.0663-.271.0007-.2748.186-.0018.078-.0004.1555-.0004.2335m-.0003 1.991c0 .119-.0067.2382.0014.3564.0134.1975.1192.2652.309.2074.1355-.0413.1972-.1436.2075-.2745.012-.151.0165-.3034.012-.455-.006-.1803-.1024-.2964-.2643-.3405-.1362-.0374-.2505.0325-.2639.1743-.0105.1097-.002.2212-.0018.332m1.3205-1.1441c.4007.2847.5041.6928.5108 1.1476.0042.2843.0021.5655-.0942.8382-.1838.521-.5602.7898-1.1095.811-.4356.0166-.871.001-1.3063.002-.1027 0-.2057.0138-.3076.007-.1986-.0134-.2509-.0713-.249-.2716.0027-.3285.0091-.6565 0-.985-.0145-.5136.0006-1.027.013-1.5402a2.509 2.509 0 00-.0085-.283c-.0484-.5542.014-1.1084-.004-1.663-.0084-.2716.079-.3612.3497-.3524.5013.016 1.003-.024 1.5032.001.3933.0197.7584.1228.964.5077.1539.2875.1892.5997.1617.9193-.029.3362-.137.6379-.4234.8619m2.9411-.1473c-.0314-.684.0117-1.326-.0338-1.9667-.0081-.1154.0427-.189.1622-.206.0286-.004.0572-.0106.0858-.01.2504.006.5006.008.7514.002.193-.005.2811.0787.2836.2476.0085.5666.0268 1.1335.0162 1.6997-.0127.6692-.0151 1.3384-.0137 2.0077.0007.3005-.1073.5545-.3147.7637-.2547.2576-.5574.4269-.9267.4593-.3585.0314-.7158.0307-1.0615-.0773-.5006-.1566-.7966-.5489-.8093-1.0692-.0138-.5468-.024-1.0936-.024-1.6404.0003-.4026.0261-.8047.0293-1.2072.0018-.2586-.0159-.5172-.0276-.7758-.0032-.0741-.0028-.1464.0127-.2198.0269-.1245.1016-.1813.2251-.181.2674 0 .5348-.002.8022.0004.1835.002.2562.067.2498.242-.0265.6943-.0141 1.3896-.023 2.0839a41.43 41.43 0 00.0103 1.4672c.0032.1474.096.2226.2639.2314.1834.009.31-.0642.3284-.2064.0265-.2085.0095-.4184.0046-.6276-.0078-.3538-.012-.7073.0088-1.0174m8.0849-.3217c.1767 0 .3538-.0007.5305.0004.176.001.2364.0487.272.2197a.6517.6517 0 01.0134.1591c-.0314.653.018 1.3064-.0007 1.9597-.0056.1969.0046.394.0046.5913.0004.175-.0564.249-.2215.3108a1.0487 1.0487 0 01-.313.062c-.4557.024-.9122.036-1.3613-.0698-.5969-.1408-.9437-.5493-1.142-1.1-.169-.4692-.2222-.9578-.1844-1.4541.0236-.314.0169-.6322.109-.9391.109-.3637.259-.6971.5238-.9871.2995-.3284.663-.496 1.0841-.5726.3846-.0699.768-.0582 1.1504.0205.1736.0356.2237.0847.2389.2586.0187.2177.0197.436.007.6534-.013.2243-.1552.3154-.3718.25-.2317-.0697-.466-.0771-.7052-.0468-.3863.0487-.7045.5006-.7122.8396-.0085.3567-.0723.7116-.0314 1.0696.025.2205.0585.4385.1506.6424.0674.1489.1697.261.3419.2875.1375.0212.2448-.0512.2455-.1883.0007-.2297-.013-.4597-.0275-.6894-.006-.096-.0618-.1393-.1662-.1365-.1824.005-.1884-.006-.1863-.1863.0025-.2423-.0257-.4847 0-.7267.0205-.194.066-.2307.2583-.2272.1644.003.3288.0007.4935.0007v-.001m12.4057-.0003c.1686 0 .3372.001.5059-.0003.2106-.002.2931.0572.302.266.0123.2868-.0054.5747.0041.8618.0138.4195.0028.8386-.0003 1.2577-.0014.1764.0137.3531.0162.5295.0025.1877-.0557.2625-.2339.328a1.0219 1.0219 0 01-.3005.0597c-.46.025-.9212.038-1.3734-.0713-.6385-.1542-.98-.6093-1.1698-1.198-.158-.4904-.1771-.998-.1425-1.5107.0264-.3947.0687-.7838.2286-1.1507.2896-.6636.7729-1.0813 1.5028-1.1956a3.1845 3.1845 0 011.1257.024c.1827.036.2402.0974.2427.2794.0025.2138.0056.4276.0025.6417-.0028.206-.1492.3076-.3506.2463-.2318-.071-.465-.0804-.7053-.0547-.3968.0427-.702.495-.7203.776-.0265.4132-.0896.8263-.0286 1.2415.0307.207.0667.4127.1714.5983.0699.1245.1711.2074.3168.2279.126.0176.2293-.0469.2318-.1736.005-.242.0088-.4847-.0271-.7253-.0142-.0935-.0688-.1164-.1553-.116-.1919.0003-.1919-.003-.1919-.1948 0-.2346-.002-.4692.0007-.7034.0025-.1916.065-.2466.2547-.243.1644.003.3292.0006.4936.0006v-.001m-10.8977 2.5557c.024-.5143-.013-.9902-.0197-1.4665-.0071-.497.0074-.9941.0053-1.4912-.0018-.3778-.0141-.756-.0237-1.1338-.0046-.187.084-.2865.2703-.2875.6819-.002 1.3638-.004 2.0457-.004.2075.0003.2935.0723.2981.274a9.715 9.715 0 01-.0014.5533c-.0074.219-.1047.291-.3415.2843-.1845-.005-.369-.0145-.5538-.0176-.0942-.001-.1888.007-.2833.009-.1122.002-.1658.066-.17.1693-.0053.139-.0014.278-.0078.4173-.0053.1263.0649.187.2085.1884.2219.002.4437-.005.6656-.008.0413-.0003.0822-.003.1235-.003.2805.002.3493.072.35.3507.0003.1602.0028.3207.002.4812-.0013.2067-.1012.3143-.309.315-.2092.001-.4187-.012-.6279-.019-.0085 0-.0166-.0003-.0247 0-.2872.0243-.3796.0497-.3366.3549.017.1207-.0088.2466.0035.3683.0173.1708.0692.2064.2413.2064.2872-.0004.5744-.005.8615.004.267.008.337.0882.3366.3584a23.9893 23.9893 0 01-.0078.5055c-.0053.2156-.1027.3204-.3207.3186-.4187-.003-.8378.0159-1.2562-.016-.2713-.0204-.5419.0184-.8132.0177-.2282-.0004-.3175-.0928-.315-.3228.0014-.1478.0003-.296.0003-.4064" fill="#12110f"/><path d="M32.2137 4.9704c-.2-.0212-.3158-.1446-.3814-.3228-.065-.1757-.0773-.3598-.0818-.5454-.0088-.382-.0307-.7637-.0325-1.1458-.0014-.4142.1295-.7606.7172-.7634.4276-.002.852.0674 1.281.0526.4434-.0152.8875-.013 1.3306-.0445.4022-.029.4689.0169.6131.3923.034.1704.0325.3422.024.5147-.0085.1683-.0208.3369-.0148.5048.0088.2501.0346.4999.0487.75.0162.2794-.1214.461-.3905.532-.073.0194-.146.0194-.2198.0215-.4237.0109-.846-.0388-1.2693-.0198-.5415.0247-1.083.049-1.6246.0737" fill="#f2ac20"/><path d="M17.706 2.7195c0 .0265-.0038.0882.0012.1492.0042.049.0176.1052.0723.1175.1284.0289.2593.0388.3887.005.0716-.0187.096-.0808.0981-.1415.006-.151.0148-.3033-.0173-.4533-.0275-.1263-.1266-.2187-.241-.2258-.1372-.008-.2271.0547-.2705.198-.0314.1023-.0399.2088-.0314.351m1.5684 2.2408c0 .1069-.0042.2141.0011.321.0056.1232-.049.2004-.159.2502-.1817.0826-.3744.1195-.5705.1354-.337.0268-.6752.0367-.9998-.0766-.5493-.1922-.8223-.616-.9253-1.161-.0935-.496-.0674-.9983-.0378-1.499.0134-.2292.028-.4578.083-.683.187-.7679.7231-1.151 1.5095-1.073.61.0606 1.0477.4875 1.1613 1.1207.0713.3969.0279.7941.0237 1.1917-.0011.1108.0056.2201-.071.3157-.0666.083-.1428.1306-.2529.1225-.381-.028-.7627.0229-1.1444-.007-.1457-.0113-.2141.1016-.1813.2624.0458.2276.2335.3863.4931.4078.2237.0183.4424 0 .6439-.1143.0571-.0324.1185-.0572.1845-.0639.1443-.0148.256.0871.255.2304-.0003.1065 0 .213 0 .32h-.013" fill="#12110f"/><path d="M6.4402 21.0419c.2681.075.539.036.8072.0102.4184-.0402.8347-.0504 1.2548-.023.339.022.6795.053 1.0206.01.3542-.0447.5959-.2723.6728-.654.0546-.272.0448-.5443.0155-.8195-.03-.2854-.053-.5718-.0678-.859-.0377-.732.0187-1.4626.012-2.194-.0074-.835.01-1.6703-.0144-2.505-.0212-.724.038-1.4446.035-2.1675-.0057-1.2502.0052-2.5012-.0096-3.7514-.006-.4928.0035-.9867-.024-1.4789-.0296-.5309-.0042-1.06.0159-1.5892.0197-.5204.0402-1.0414.0836-1.561.0183-.2216-.0138-.442-.0706-.658.3567.1387.4523.4385.4707.779.0187.341-.0198.6812-.0378 1.0212-.0497.9402-.0815 1.88-.0476 2.8219.0134.3775.008.756.0169 1.1338.0272 1.1307.0258 2.2617.0162 3.3923-.0067.8344-.0522 1.668-.0451 2.5023.0078.8717.0384 1.743.0204 2.6148-.014.6904-.036 1.3808-.0137 2.0711.0106.3281.0497.6552.0815.9822.024.2476.0169.4932-.047.7334-.105.3969-.3661.5913-.7909.605-.4032.013-.8047-.0155-1.2065-.043-.3584-.025-.713.0307-1.0689.0554-.2134.0148-.4276.037-.6382-.0148-.2222-.0547-.3792-.1852-.441-.4141m16.0068.4206c.2307.0825.4575.0367.6865-.0123.4455-.0956.8932-.175 1.3483-.2208.3651-.037.733-.0395 1.0957-.0935.2085-.031.2808-.1242.3048-.337a1.157 1.157 0 01.0522-.2367c.03-.091.1037-.1037.2075-.0392.1975.1228.4007.2318.6226.3077.3803.1294.7726.1866 1.1698.1541.6304-.0522 1.202-.2646 1.6856-.6868.7133-.6234 1.1077-1.4182 1.2753-2.3397.0885-.4854.0878-.975.0649-1.4626-.03-.642-.091-1.2823-.145-1.923a12.999 12.999 0 01-.0455-.769c-.0198-.736-.0995-1.4648-.2173-2.1911-.1228-.7574-.2621-1.5106-.4689-2.2504-.223-.7987-.4998-1.5734-.9807-2.2602-.0085-.0117-.0074-.0303-.0106-.046.152.0809.2417.224.3419.3532.4304.5539.6946 1.192.9077 1.8517.3129.9688.5055 1.965.6498 2.9711.0691.483.1295.9656.1535 1.4556.0437.9027.1312 1.8037.1926 2.7061.0342.5013.0649 1.0026.0247 1.5068-.0847 1.0583-.4678 1.9812-1.2358 2.723-.4382.4237-.9733.6633-1.5808.7391-.6011.0748-1.1772-.003-1.7223-.2737-.0938-.0466-.1806-.107-.2716-.1591-.1298-.0748-.18-.055-.2198.0892a1.1267 1.1267 0 00-.0328.1675c-.0303.2424-.1383.3496-.3849.369-.3591.028-.719.0452-1.0774.0801-.3725.036-.7415.0995-1.1077.18-.2395.0522-.4773.1121-.7278.0882-.2554-.0247-.4822-.199-.5545-.4414" fill="#151211"/><path d="M39.3076 29.61a10.0961 10.0961 0 00-.8541.011c-.2244.0126-.3352-.088-.3288-.3123.0155-.5383-.0226-1.0763-.0046-1.6147.0099-.2956-.0148-.5923-.0053-.8875.0187-.5624-.0064-1.1254.0296-1.6877.0092-.1422-.0183-.2865-.0204-.43-.0025-.1482.0532-.205.2021-.1923.2667.0222.532.0258.799.004.2191-.0176.2826.0547.2632.2727-.054.5993.0124 1.1987-.0032 1.798-.0134.5091-.008 1.0185-.011 1.528-.0003.0247-.001.0494 0 .074.012.2727.094.3479.3673.3327.1027-.005.2053-.0102.3066-.0247.2265-.032.3446.0533.3443.2805-.0004.1961-.0155.3916-.0021.5891.012.1715-.0953.2579-.273.259-.2466.001-.4932.0003-.8097.0003m-2.6559-.0001a10.507 10.507 0 00-.8526.0109c-.2209.0123-.327-.0885-.3359-.3116-.0042-.1146.0074-.23.0071-.345-.0028-.7355-.0113-1.471-.0095-2.207.0014-.5288.0152-1.0576.024-1.5864.0025-.14-.0018-.2787-.0197-.418-.0247-.1944.0451-.2734.2398-.2554.2547.0236.507.0222.762.003.2191-.017.2897.0536.2724.2688-.0399.497.0056.994-.0053 1.4897-.0138.6206 0 1.2411-.0148 1.8613-.0011.0413-.0018.0829.0035.1235.026.1979.0987.2646.2995.2614a3.8172 3.8172 0 00.3926-.0282c.2057-.0243.315.0628.319.2706a20.51 20.51 0 01.0003.6025c-.0014.1686-.089.2579-.2586.2593-.2508.002-.5017.0007-.8237.0007" fill="#12110f"/><path d="M32.0535 20.9669c.3594.062.7186.0254 1.0784.004.2748-.0162.551-.012.8244-.0374.3676-.0342.7296.026 1.0937.0395.459.0173.6544-.2928.7048-.6354.0462-.3153-.0004-.6307-.0138-.9458-.0074-.1721-.0204-.344-.0296-.516-.017-.3158-.0494-.6315-.0451-.947.0056-.4758.0366-.9514.0582-1.427a17.846 17.846 0 00.0078-1.4403c-.017-.4678-.0445-.936-.042-1.4037.0032-.6611.026-1.3222.0466-1.9833.0215-.682-.0212-1.3625-.0304-2.0437-.0063-.4639-.0233-.9274.0014-1.3913.0219-.4057.047-.811.0685-1.2168.0067-.1277-.017-.2529-.0406-.3781.2734.0628.4297.2794.4395.6145.0149.5062-.0444 1.009-.0635 1.5138-.0169.4522-.0039.9038.0046 1.3557.0163.8294.0512 1.6584.0173 2.4889-.0377.9235-.0494 1.8478.004 2.7724.039.6777.0098 1.3554-.036 2.032-.061.8968.0246 1.789.0666 2.6829.0124.2656.037.5334-.0412.7955-.0953.3186-.3126.4967-.6425.4805-.5087-.0247-1.0153-.0628-1.5257-.024-.3888.0296-.7782.054-1.1688.0529-.0952 0-.189-.0109-.2808-.0307-.2293-.0494-.3916-.1778-.4558-.412" fill="#151211"/><path d="M11.741 3.6163c0-.304-.0046-.6082.0025-.9122.0025-.114-.0254-.1736-.1492-.1613-.1058.011-.1369-.0547-.1358-.145.0028-.2709.0085-.5422.0102-.8135.0007-.09.0515-.114.128-.1058.1056.0109.1458-.0247.1384-.1386-.0148-.2251.0007-.4509-.0237-.677-.0243-.2272.0815-.3235.3077-.3214.2053.002.411.0004.6163.0007.2032 0 .2645.0561.2674.261.0028.2336.0095.4671-.0088.7007-.0138.1778-.006.1799.171.1774.1415-.002.1927.0356.182.1644-.02.243.0096.484.0107.726.0007.1595-.0275.1845-.187.1757-.1362-.008-.158.0117-.158.1492.0003.5387.002 1.0774.002 1.6161 0 .1094.0255.182.1602.17.1083-.01.1577.0678.1595.163.0053.2752.0053.5507.0007.8259-.0014.0977-.0568.1662-.163.1602-.247-.013-.4925.0162-.7387.0187-.356.004-.5673-.1905-.6043-.5444-.0413-.3937.0204-.7874.0014-1.1814-.005-.1027-.0007-.2057-.0007-.3084h.0113" fill="#12110f"/><path d="M16.7282 21.0868c.2657-.0233.531-.0617.797-.0663.3612-.007.7228.017 1.0844.0194.2459.001.4904.042.7376.002.3154-.0508.4989-.2416.5049-.5665.007-.382-.0046-.7645.026-1.1462.0308-.3813.0336-.7638.0202-1.1458-.042-1.1846-.0194-2.369-.0152-3.5535.0025-.707.036-1.4143.0138-2.1213-.0177-.5592-.0286-1.1183-.0102-1.6771.013-.3986.0264-.7973.0105-1.1956-.0208-.5122-.0483-1.0251-.211-1.5187a2.2276 2.2276 0 00-.2497-.52c.3605.2501.57.604.6872 1.017.1362.4816.164.977.1796 1.4743.0194.6125-.023 1.2245-.0159 1.8366.006.5055.0275 1.011.0219 1.5166-.0156 1.415-.0286 2.8296-.0216 4.2446.0021.4357.0258.8714.0212 1.307-.0053.464-.0335.9275-.0494 1.3914-.0056.1602-.0056.3207-.007.4809-.0026.3598-.2047.577-.567.5909-.4766.0183-.9532-.008-1.4298-.0233-.3549-.0113-.7055.0296-1.058.05a1.4939 1.4939 0 01-.2219-.002c-.1548-.0154-.2254-.0923-.2367-.2472a23.117 23.117 0 00-.011-.1468" fill="#151211"/><path d="M34.1303 24.515c.1355 0 .2713.0004.4068 0 .1577-.0007.2353.0684.2173.2248-.072.6268-.0296 1.2565-.0385 1.8841-.0063.4343-.0236.8693-.012 1.3046.0103.3729-.0087.7468-.0116 1.12-.001.1027.0074.205.0148.3074.0127.1799-.0564.26-.2402.2631-.2667.006-.5338.008-.8008.009-.1792.0007-.2438-.0519-.2427-.2325.0042-.6325.0092-1.2654.0293-1.8975.0127-.3983-.006-.7963.0085-1.1938.0187-.4964.0162-.9924-.0004-1.4884-.0081-.2505.056-.3087.3119-.3006.1192.004.2384.0007.3577.0007v-.001" fill="#12110f"/><path d="M.4714 21.0168c.2734.0677.549.07.8301.0557.6893-.0335 1.3794-.0692 2.0687.01.1273.0145.255.003.3792-.0279.2819-.0709.4597-.295.4745-.6018.0166-.3415-.0127-.6816-.0423-1.0213-.0416-.4801-.0145-.9596.0056-1.4397.024-.57.0748-1.1402.018-1.712-.0438-.4406-.1126-.881-.101-1.3247.0107-.4265.0424-.853.0724-1.2785.0162-.2303.1273-.3693.3517-.4187.3507-.077.7084-.0878 1.0612-.0166.2056.0413.3605.1584.3824.392-.2822-.042-.5648-.0304-.8477-.006-.375.0327-.538.1703-.5483.5418-.0176.6269-.1072 1.253-.032 1.8817.05.4198.1135.8389.097 1.2637-.023.5827-.0494 1.1655-.0717 1.7483-.018.4773.042.9515.0667 1.427.0092.177.0166.3528-.0324.526-.0805.2836-.2833.4477-.5775.467-.2717.0177-.5426-.0101-.8125-.0306-.4325-.0332-.8618.0145-1.2926.0226-.3316.006-.6657.0487-.9934-.0413-.2219-.061-.393-.1803-.4561-.4167m41.1384-3.8646c-.2247.025-.412-.1637-.416-.4244-.0048-.333.0026-.6664-.0112-.9987-.0233-.5712-.0244-1.1423-.0103-1.7128.019-.756.0258-1.5116.0095-2.2676-.0046-.2254-.0134-.4509-.013-.677 0-.0995.017-.1961.0702-.2826.049-.0787.1196-.1249.2134-.1242.1111.001.223-.002.3323.012.5186.0677.5553-.1806.5557-.5266.0003-.488-.023-.9765-.0462-1.4644-.019-.3898.0169-.7786.0155-1.168.2215-.001.4025.1446.4074.4582.006.3655-.0342.7302-.0215 1.096.0183.5257.0321 1.051.0483 1.5763a.577.577 0 01-.0512.2631c-.0508.1101-.1372.1754-.2593.1754-.1517.0003-.304-.002-.4554-.0148-.2568-.0215-.393.098-.3948.3602-.003.4067.0148.8135.0187 1.2199.0106 1.0114-.0346 2.022-.0187 3.0335.008.489.0176.9775.0265 1.4665M38.0655 20.74c.1944.0863.386.178.5958.225.4064.0914.816.0624 1.2256.0402.176-.01.3517-.0265.5281-.0377a8.9576 8.9576 0 011.1197-.002c.0572.004.1154-.001.1725.004.3634.0339.563-.2776.5683-.5461.008-.4315-.01-.8625-.0173-1.294-.007-.3983.0131-.797.0215-1.1952.003-.132-.004-.2628-.0279-.3926.2801.074.4325.2836.4375.6448.005.3443-.012.6894-.0198 1.034-.0102.4685.0138.9363.0243 1.404.004.1528-.002.3035-.0695.445-.0967.2045-.255.3238-.484.3125-.4763-.0233-.9515-.0321-1.4277.0007-.3845.0268-.7698.066-1.1557.0494-.5214-.0226-1.0054-.1468-1.377-.5479-.0415-.0452-.0765-.096-.1146-.1443M4.593 9.0792c-.3253-.0547-.4382-.2974-.409-.588.0371-.3673.0107-.7317-.02-1.0947-.0198-.2364.0046-.4682.0183-.7003.0237-.4021.0353-.804.0476-1.2061.024-.7853.0209-1.5706.0226-2.3559.0004-.0903.006-.1813-.0236-.2688.2632.078.4272.2783.4343.5733.0134.5545.0032 1.1095-.0135 1.6644-.0099.3408-.0112.6819-.0172 1.023-.0074.4272-.0332.8534-.0625 1.2796-.0152.2257-.0032.4522.024.677.0402.3326-.0028.6642-.0011.9965m27.6208-4.1088c.5415-.0247 1.083-.049 1.6245-.0737.4233-.019.8456.0307 1.2693.0198.0737-.002.1467-.002.2198-.0215.2691-.0709.4067-.2526.3905-.532-.0141-.2501-.0399-.4999-.0487-.75-.006-.168.0063-.3365.0148-.5048.0085-.1725.01-.3443-.024-.5147.2308.0258.357.176.4174.4741.0437.218.012.434.002.6502-.0133.2886.0153.5747.0375.8611.0025.0328.0042.0656.007.0981.048.5232-.284.6685-.6642.6512-.7475-.0346-1.4933-.0229-2.2394.0257-.1556.0102-.3115.0134-.4671.0247-.2946.0212-.4604-.1093-.5394-.4081M12.222 20.644c.0532-.018.084.0243.1192.0476.4272.2837.8982.4297 1.4069.4752.3669.0332.7292.0264 1.0911-.0399.4583-.084.8262-.3273 1.1582-.64.0585-.0553.121-.147.2176-.1004.101.0483.1062.1566.1112.2575.0053.098.0151.1961.0229.2942-.3291.3186-.7105.5415-1.1684.606-1.0393.1475-2.0024-.006-2.8116-.7372-.0544-.0487-.1122-.0956-.1472-.163m-.1687-10.7199c.255.1189.483.0727.7172-.0776.3256-.2092.6996-.2999 1.0785-.3552.5348-.0787 1.0703-.076 1.6005.042.2762.0617.503.1972.622.471-.8919-.2488-1.771-.2058-2.6381.1167-.1429.0529-.2702.1347-.4004.211-.15.0877-.3062.0944-.4604.0352-.2226-.0854-.4392-.187-.5193-.443m12.5489-2.9846c-.0808.084-.1838.0984-.2833.061-.0889-.0335-.0903-.128-.0949-.211-.042-.7743-.199-1.5327-.309-2.298-.0413-.2867-.044-.5799-.0586-.8702-.012-.229-.013-.4586-.0723-.6826.2332.0557.3994.2585.44.5468.0444.3175.0437.6381.0596.9574.03.6036.169 1.1913.2511 1.7872.0325.2356.067.471.0674.7094m16.9275.1847c-.0896-.006-.18-.006-.2681-.0194-.077-.0116-.114-.0653-.1267-.145-.0448-.2833-.0007-.5659.0141-.847.0198-.3817.0272-.7634.0067-1.144-.0127-.2305.0042-.4583.0085-.6873.0032-.1774-.0215-.351-.0476-.5253.3062.097.4261.331.4374.6265.013.3405-.0113.6823.0123 1.0217.04.5754-.0275 1.1465-.0367 1.7198m-4.7612 3.5435c.0811-.0004.1622-.003.2434-.0004.2314.007.3002.0797.298.3144-.0003.0282-.0027.0568-.0041.085-.0448-.0004-.09 0-.1348-.001-.271-.008-.3902-.1267-.4025-.398M29.065 7.0131c-.0389.008-.0428-.0286-.06-.0483.0271.007.0483.0222.06.0483" fill="#151211"/><path d="M12.1677 20.5889c.0282.009.0639.0102.055.0557-.0292-.008-.0423-.0317-.055-.0557m16.927-13.5293c-.03-.003-.038-.0208-.031-.0476.0187.0102.0451.0155.031.0476m-2.9474 3.3597c-.1157-.0399-.229-.0963-.3563-.0698-.145.0303-.2455.1277-.3316.241-.2226.2938-.2865.6307-.254.9888.0653.7278.1154 1.4577.2092 2.182.1235.9588.2544 1.918.4854 2.8592.0134.0547.0325.108.049.1619-.2483-.1295-.3986-.3369-.467-.6036-.1468-.5722-.2286-1.156-.319-1.7385-.0662-.429-.1326-.858-.1855-1.2887-.0395-.321-.0564-.6449-.086-.9673a61.3866 61.3866 0 00-.0872-.8809c-.0416-.3937-.0071-.7694.236-1.1035.2092-.2875.4509-.338.7539-.1488.1492.0928.2723.2099.3531.3683m-10.27 3.979c-.5436-.1115-.9348.1647-1.0851.7613-.0466.1845-.0582.3725-.0593.5602-.0025.4226.0018.8452.0074 1.2679.0042.2885.0572.569.1665.8375-.2275-.0833-.3496-.2643-.4335-.4763-.1041-.2628-.1419-.5404-.1471-.8198a32.991 32.991 0 010-1.3085c.008-.3947.0945-.7673.3908-1.0576.3715-.3644.9476-.2466 1.1603.2353" fill="#151211"/><path d="M15.8976 14.4152c-.0109-.003-.0282.002-.0222-.0194.0074.006.0148.013.0222.0194m27.88 5.9572c.0967-.004.1983.0102.1972-.1083-.0007-.1355-.1174-.102-.201-.1157-.1034-.0166-.0903.0473-.0967.1153-.01.0974.0282.1249.1005.1087m.1489.1062c.0642.1012.1256.1975.1884.2963-.0864.0395-.1366.01-.175-.0653-.0332-.0656-.0794-.1246-.1118-.1902-.0261-.0522-.067-.054-.1126-.0483-.06.007-.0324.0557-.0349.0861-.004.0572-.004.115-.0003.1725.003.049-.017.0617-.064.0631-.0532.002-.0588-.0236-.0585-.0663.001-.2053.002-.4106-.0004-.616-.0007-.05.018-.0627.0642-.061.0737.003.1478-.0003.2216.001.1562.002.236.0527.2568.1585.0236.1224-.0208.1944-.1736.2695" fill="#151211"/></svg>